G04 #@! TF.FileFunction,Other,Fab,Top*
%FSLAX46Y46*%
G04 Gerber Fmt 4.6, Leading zero omitted, Abs format (unit mm)*
G04 Created by KiCad (PCBNEW 4.0.4-stable) date 11/20/17 14:55:23*
%MOMM*%
%LPD*%
G01*
G04 APERTURE LIST*
%ADD10C,0.100000*%
%ADD11C,0.150000*%
%ADD12C,0.075000*%
G04 APERTURE END LIST*
D10*
X137365000Y-105330000D02*
X139270000Y-105330000D01*
X139270000Y-105330000D02*
X139270000Y-110410000D01*
X139270000Y-110410000D02*
X136730000Y-110410000D01*
X136730000Y-110410000D02*
X136730000Y-105965000D01*
X136730000Y-105965000D02*
X137365000Y-105330000D01*
X108730000Y-123000000D02*
X108730000Y-119190000D01*
X108730000Y-119190000D02*
X134130000Y-119190000D01*
X134130000Y-119190000D02*
X134130000Y-124270000D01*
X134130000Y-124270000D02*
X110000000Y-124270000D01*
X110000000Y-124270000D02*
X108730000Y-123000000D01*
X108730000Y-79500000D02*
X108730000Y-75690000D01*
X108730000Y-75690000D02*
X134130000Y-75690000D01*
X134130000Y-75690000D02*
X134130000Y-80770000D01*
X134130000Y-80770000D02*
X110000000Y-80770000D01*
X110000000Y-80770000D02*
X108730000Y-79500000D01*
X121050000Y-109700000D02*
X123500000Y-109700000D01*
X120480000Y-109150000D02*
X120480000Y-108300000D01*
X121050000Y-109700000D02*
X120480000Y-109150000D01*
X120480000Y-108300000D02*
X123520000Y-108300000D01*
X123520000Y-109700000D02*
X123520000Y-108300000D01*
X119450000Y-92300000D02*
X117000000Y-92300000D01*
X120020000Y-92850000D02*
X120020000Y-93700000D01*
X119450000Y-92300000D02*
X120020000Y-92850000D01*
X120020000Y-93700000D02*
X116980000Y-93700000D01*
X116980000Y-92300000D02*
X116980000Y-93700000D01*
X117050000Y-109700000D02*
X119500000Y-109700000D01*
X116480000Y-109150000D02*
X116480000Y-108300000D01*
X117050000Y-109700000D02*
X116480000Y-109150000D01*
X116480000Y-108300000D02*
X119520000Y-108300000D01*
X119520000Y-109700000D02*
X119520000Y-108300000D01*
X113050000Y-109700000D02*
X115500000Y-109700000D01*
X112480000Y-109150000D02*
X112480000Y-108300000D01*
X113050000Y-109700000D02*
X112480000Y-109150000D01*
X112480000Y-108300000D02*
X115520000Y-108300000D01*
X115520000Y-109700000D02*
X115520000Y-108300000D01*
X123450000Y-89300000D02*
X121000000Y-89300000D01*
X124020000Y-89850000D02*
X124020000Y-90700000D01*
X123450000Y-89300000D02*
X124020000Y-89850000D01*
X124020000Y-90700000D02*
X120980000Y-90700000D01*
X120980000Y-89300000D02*
X120980000Y-90700000D01*
X127450000Y-89300000D02*
X125000000Y-89300000D01*
X128020000Y-89850000D02*
X128020000Y-90700000D01*
X127450000Y-89300000D02*
X128020000Y-89850000D01*
X128020000Y-90700000D02*
X124980000Y-90700000D01*
X124980000Y-89300000D02*
X124980000Y-90700000D01*
X131450000Y-89300000D02*
X129000000Y-89300000D01*
X132020000Y-89850000D02*
X132020000Y-90700000D01*
X131450000Y-89300000D02*
X132020000Y-89850000D01*
X132020000Y-90700000D02*
X128980000Y-90700000D01*
X128980000Y-89300000D02*
X128980000Y-90700000D01*
X135950000Y-89300000D02*
X133500000Y-89300000D01*
X136520000Y-89850000D02*
X136520000Y-90700000D01*
X135950000Y-89300000D02*
X136520000Y-89850000D01*
X136520000Y-90700000D02*
X133480000Y-90700000D01*
X133480000Y-89300000D02*
X133480000Y-90700000D01*
X133050000Y-109700000D02*
X135500000Y-109700000D01*
X132480000Y-109150000D02*
X132480000Y-108300000D01*
X133050000Y-109700000D02*
X132480000Y-109150000D01*
X132480000Y-108300000D02*
X135520000Y-108300000D01*
X135520000Y-109700000D02*
X135520000Y-108300000D01*
X129050000Y-109700000D02*
X131500000Y-109700000D01*
X128480000Y-109150000D02*
X128480000Y-108300000D01*
X129050000Y-109700000D02*
X128480000Y-109150000D01*
X128480000Y-108300000D02*
X131520000Y-108300000D01*
X131520000Y-109700000D02*
X131520000Y-108300000D01*
X125050000Y-109700000D02*
X127500000Y-109700000D01*
X124480000Y-109150000D02*
X124480000Y-108300000D01*
X125050000Y-109700000D02*
X124480000Y-109150000D01*
X124480000Y-108300000D02*
X127520000Y-108300000D01*
X127520000Y-109700000D02*
X127520000Y-108300000D01*
X95300000Y-101550000D02*
X95300000Y-104000000D01*
X95850000Y-100980000D02*
X96700000Y-100980000D01*
X95300000Y-101550000D02*
X95850000Y-100980000D01*
X96700000Y-100980000D02*
X96700000Y-104020000D01*
X95300000Y-104020000D02*
X96700000Y-104020000D01*
X100450000Y-90800000D02*
X98000000Y-90800000D01*
X101020000Y-91350000D02*
X101020000Y-92200000D01*
X100450000Y-90800000D02*
X101020000Y-91350000D01*
X101020000Y-92200000D02*
X97980000Y-92200000D01*
X97980000Y-90800000D02*
X97980000Y-92200000D01*
X95300000Y-97550000D02*
X95300000Y-100000000D01*
X95850000Y-96980000D02*
X96700000Y-96980000D01*
X95300000Y-97550000D02*
X95850000Y-96980000D01*
X96700000Y-96980000D02*
X96700000Y-100020000D01*
X95300000Y-100020000D02*
X96700000Y-100020000D01*
X94950000Y-89800000D02*
X92500000Y-89800000D01*
X95520000Y-90350000D02*
X95520000Y-91200000D01*
X94950000Y-89800000D02*
X95520000Y-90350000D01*
X95520000Y-91200000D02*
X92480000Y-91200000D01*
X92480000Y-89800000D02*
X92480000Y-91200000D01*
X104450000Y-90800000D02*
X102000000Y-90800000D01*
X105020000Y-91350000D02*
X105020000Y-92200000D01*
X104450000Y-90800000D02*
X105020000Y-91350000D01*
X105020000Y-92200000D02*
X101980000Y-92200000D01*
X101980000Y-90800000D02*
X101980000Y-92200000D01*
X108450000Y-90800000D02*
X106000000Y-90800000D01*
X109020000Y-91350000D02*
X109020000Y-92200000D01*
X108450000Y-90800000D02*
X109020000Y-91350000D01*
X109020000Y-92200000D02*
X105980000Y-92200000D01*
X105980000Y-90800000D02*
X105980000Y-92200000D01*
X112950000Y-90800000D02*
X110500000Y-90800000D01*
X113520000Y-91350000D02*
X113520000Y-92200000D01*
X112950000Y-90800000D02*
X113520000Y-91350000D01*
X113520000Y-92200000D02*
X110480000Y-92200000D01*
X110480000Y-90800000D02*
X110480000Y-92200000D01*
X113450000Y-96300000D02*
X111000000Y-96300000D01*
X114020000Y-96850000D02*
X114020000Y-97700000D01*
X113450000Y-96300000D02*
X114020000Y-96850000D01*
X114020000Y-97700000D02*
X110980000Y-97700000D01*
X110980000Y-96300000D02*
X110980000Y-97700000D01*
X105550000Y-113200000D02*
X108000000Y-113200000D01*
X104980000Y-112650000D02*
X104980000Y-111800000D01*
X105550000Y-113200000D02*
X104980000Y-112650000D01*
X104980000Y-111800000D02*
X108020000Y-111800000D01*
X108020000Y-113200000D02*
X108020000Y-111800000D01*
X101050000Y-115700000D02*
X103500000Y-115700000D01*
X100480000Y-115150000D02*
X100480000Y-114300000D01*
X101050000Y-115700000D02*
X100480000Y-115150000D01*
X100480000Y-114300000D02*
X103520000Y-114300000D01*
X103520000Y-115700000D02*
X103520000Y-114300000D01*
X96050000Y-115700000D02*
X98500000Y-115700000D01*
X95480000Y-115150000D02*
X95480000Y-114300000D01*
X96050000Y-115700000D02*
X95480000Y-115150000D01*
X95480000Y-114300000D02*
X98520000Y-114300000D01*
X98520000Y-115700000D02*
X98520000Y-114300000D01*
X120380000Y-112000000D02*
X121620000Y-112000000D01*
X120380000Y-114000000D02*
X120380000Y-112000000D01*
X121620000Y-114000000D02*
X120380000Y-114000000D01*
X121620000Y-112000000D02*
X121620000Y-114000000D01*
X112380000Y-112000000D02*
X113620000Y-112000000D01*
X112380000Y-114000000D02*
X112380000Y-112000000D01*
X113620000Y-114000000D02*
X112380000Y-114000000D01*
X113620000Y-112000000D02*
X113620000Y-114000000D01*
X124120000Y-87000000D02*
X122880000Y-87000000D01*
X124120000Y-85000000D02*
X124120000Y-87000000D01*
X122880000Y-85000000D02*
X124120000Y-85000000D01*
X122880000Y-87000000D02*
X122880000Y-85000000D01*
X128120000Y-87000000D02*
X126880000Y-87000000D01*
X128120000Y-85000000D02*
X128120000Y-87000000D01*
X126880000Y-85000000D02*
X128120000Y-85000000D01*
X126880000Y-87000000D02*
X126880000Y-85000000D01*
X132120000Y-87000000D02*
X130880000Y-87000000D01*
X132120000Y-85000000D02*
X132120000Y-87000000D01*
X130880000Y-85000000D02*
X132120000Y-85000000D01*
X130880000Y-87000000D02*
X130880000Y-85000000D01*
X136620000Y-87000000D02*
X135380000Y-87000000D01*
X136620000Y-85000000D02*
X136620000Y-87000000D01*
X135380000Y-85000000D02*
X136620000Y-85000000D01*
X135380000Y-87000000D02*
X135380000Y-85000000D01*
X132380000Y-112000000D02*
X133620000Y-112000000D01*
X132380000Y-114000000D02*
X132380000Y-112000000D01*
X133620000Y-114000000D02*
X132380000Y-114000000D01*
X133620000Y-112000000D02*
X133620000Y-114000000D01*
X128880000Y-112000000D02*
X130120000Y-112000000D01*
X128880000Y-114000000D02*
X128880000Y-112000000D01*
X130120000Y-114000000D02*
X128880000Y-114000000D01*
X130120000Y-112000000D02*
X130120000Y-114000000D01*
X124380000Y-112000000D02*
X125620000Y-112000000D01*
X124380000Y-114000000D02*
X124380000Y-112000000D01*
X125620000Y-114000000D02*
X124380000Y-114000000D01*
X125620000Y-112000000D02*
X125620000Y-114000000D01*
X120120000Y-90500000D02*
X118880000Y-90500000D01*
X120120000Y-88500000D02*
X120120000Y-90500000D01*
X118880000Y-88500000D02*
X120120000Y-88500000D01*
X118880000Y-90500000D02*
X118880000Y-88500000D01*
X116380000Y-112000000D02*
X117620000Y-112000000D01*
X116380000Y-114000000D02*
X116380000Y-112000000D01*
X117620000Y-114000000D02*
X116380000Y-114000000D01*
X117620000Y-112000000D02*
X117620000Y-114000000D01*
X93500000Y-100880000D02*
X93500000Y-102120000D01*
X91500000Y-100880000D02*
X93500000Y-100880000D01*
X91500000Y-102120000D02*
X91500000Y-100880000D01*
X93500000Y-102120000D02*
X91500000Y-102120000D01*
X100620000Y-89000000D02*
X99380000Y-89000000D01*
X100620000Y-87000000D02*
X100620000Y-89000000D01*
X99380000Y-87000000D02*
X100620000Y-87000000D01*
X99380000Y-89000000D02*
X99380000Y-87000000D01*
X93500000Y-96880000D02*
X93500000Y-98120000D01*
X91500000Y-96880000D02*
X93500000Y-96880000D01*
X91500000Y-98120000D02*
X91500000Y-96880000D01*
X93500000Y-98120000D02*
X91500000Y-98120000D01*
X95120000Y-87500000D02*
X93880000Y-87500000D01*
X95120000Y-85500000D02*
X95120000Y-87500000D01*
X93880000Y-85500000D02*
X95120000Y-85500000D01*
X93880000Y-87500000D02*
X93880000Y-85500000D01*
X95100000Y-108120000D02*
X95100000Y-106880000D01*
X97100000Y-108120000D02*
X95100000Y-108120000D01*
X97100000Y-106880000D02*
X97100000Y-108120000D01*
X95100000Y-106880000D02*
X97100000Y-106880000D01*
X105120000Y-88500000D02*
X103880000Y-88500000D01*
X105120000Y-86500000D02*
X105120000Y-88500000D01*
X103880000Y-86500000D02*
X105120000Y-86500000D01*
X103880000Y-88500000D02*
X103880000Y-86500000D01*
X109120000Y-88500000D02*
X107880000Y-88500000D01*
X109120000Y-86500000D02*
X109120000Y-88500000D01*
X107880000Y-86500000D02*
X109120000Y-86500000D01*
X107880000Y-88500000D02*
X107880000Y-86500000D01*
X113620000Y-88500000D02*
X112380000Y-88500000D01*
X113620000Y-86500000D02*
X113620000Y-88500000D01*
X112380000Y-86500000D02*
X113620000Y-86500000D01*
X112380000Y-88500000D02*
X112380000Y-86500000D01*
X116120000Y-96000000D02*
X114880000Y-96000000D01*
X116120000Y-94000000D02*
X116120000Y-96000000D01*
X114880000Y-94000000D02*
X116120000Y-94000000D01*
X114880000Y-96000000D02*
X114880000Y-94000000D01*
X104880000Y-115500000D02*
X106120000Y-115500000D01*
X104880000Y-117500000D02*
X104880000Y-115500000D01*
X106120000Y-117500000D02*
X104880000Y-117500000D01*
X106120000Y-115500000D02*
X106120000Y-117500000D01*
X100880000Y-118000000D02*
X102120000Y-118000000D01*
X100880000Y-120000000D02*
X100880000Y-118000000D01*
X102120000Y-120000000D02*
X100880000Y-120000000D01*
X102120000Y-118000000D02*
X102120000Y-120000000D01*
X95880000Y-118000000D02*
X97120000Y-118000000D01*
X95880000Y-120000000D02*
X95880000Y-118000000D01*
X97120000Y-120000000D02*
X95880000Y-120000000D01*
X97120000Y-118000000D02*
X97120000Y-120000000D01*
X138135000Y-81770000D02*
X136230000Y-81770000D01*
X136230000Y-81770000D02*
X136230000Y-76690000D01*
X136230000Y-76690000D02*
X138770000Y-76690000D01*
X138770000Y-76690000D02*
X138770000Y-81135000D01*
X138770000Y-81135000D02*
X138135000Y-81770000D01*
D11*
X121825205Y-98311357D02*
X122341057Y-98220398D01*
X121940971Y-98967895D01*
X122456823Y-98876937D01*
X122831987Y-98810785D02*
X122716222Y-98154246D01*
X122732760Y-98248037D02*
X122771386Y-98192873D01*
X122856909Y-98129439D01*
X122997596Y-98104632D01*
X123099656Y-98134990D01*
X123163090Y-98220512D01*
X123254048Y-98736364D01*
X123163090Y-98220512D02*
X123193447Y-98118452D01*
X123278970Y-98055019D01*
X123419656Y-98030212D01*
X123521716Y-98060570D01*
X123585150Y-98146092D01*
X123676109Y-98661944D01*
X124660916Y-98488296D02*
X124098169Y-98587523D01*
X124379542Y-98537910D02*
X124205894Y-97553102D01*
X124136910Y-97710326D01*
X124059656Y-97820655D01*
X123974134Y-97884089D01*
X124878970Y-97531127D02*
X124917597Y-97475963D01*
X125003119Y-97412529D01*
X125237598Y-97371184D01*
X125339658Y-97401542D01*
X125394823Y-97440169D01*
X125458256Y-97525691D01*
X125474794Y-97619482D01*
X125452705Y-97768438D01*
X124989185Y-98430413D01*
X125598828Y-98322916D01*
X126536741Y-98157537D02*
X125973993Y-98256765D01*
X126255366Y-98207151D02*
X126081718Y-97222343D01*
X126012734Y-97379568D01*
X125935481Y-97489897D01*
X125849959Y-97553330D01*
X126972735Y-97065233D02*
X127066527Y-97048695D01*
X127168587Y-97079053D01*
X127223751Y-97117679D01*
X127287185Y-97203201D01*
X127367156Y-97382515D01*
X127408501Y-97616993D01*
X127394681Y-97812845D01*
X127364324Y-97914905D01*
X127325697Y-97970069D01*
X127240175Y-98033503D01*
X127146383Y-98050041D01*
X127044323Y-98019683D01*
X126989158Y-97981057D01*
X126925725Y-97895534D01*
X126845754Y-97716221D01*
X126804409Y-97481742D01*
X126818228Y-97285891D01*
X126848586Y-97183831D01*
X126887213Y-97128667D01*
X126972735Y-97065233D01*
X101825205Y-98311357D02*
X102341057Y-98220398D01*
X101940971Y-98967895D01*
X102456823Y-98876937D01*
X102831987Y-98810785D02*
X102716222Y-98154246D01*
X102732760Y-98248037D02*
X102771386Y-98192873D01*
X102856909Y-98129439D01*
X102997596Y-98104632D01*
X103099656Y-98134990D01*
X103163090Y-98220512D01*
X103254048Y-98736364D01*
X103163090Y-98220512D02*
X103193447Y-98118452D01*
X103278970Y-98055019D01*
X103419656Y-98030212D01*
X103521716Y-98060570D01*
X103585150Y-98146092D01*
X103676109Y-98661944D01*
X104660916Y-98488296D02*
X104098169Y-98587523D01*
X104379542Y-98537910D02*
X104205894Y-97553102D01*
X104136910Y-97710326D01*
X104059656Y-97820655D01*
X103974134Y-97884089D01*
X104878970Y-97531127D02*
X104917597Y-97475963D01*
X105003119Y-97412529D01*
X105237598Y-97371184D01*
X105339658Y-97401542D01*
X105394823Y-97440169D01*
X105458256Y-97525691D01*
X105474794Y-97619482D01*
X105452705Y-97768438D01*
X104989185Y-98430413D01*
X105598828Y-98322916D01*
X106536741Y-98157537D02*
X105973993Y-98256765D01*
X106255366Y-98207151D02*
X106081718Y-97222343D01*
X106012734Y-97379568D01*
X105935481Y-97489897D01*
X105849959Y-97553330D01*
X106972735Y-97065233D02*
X107066527Y-97048695D01*
X107168587Y-97079053D01*
X107223751Y-97117679D01*
X107287185Y-97203201D01*
X107367156Y-97382515D01*
X107408501Y-97616993D01*
X107394681Y-97812845D01*
X107364324Y-97914905D01*
X107325697Y-97970069D01*
X107240175Y-98033503D01*
X107146383Y-98050041D01*
X107044323Y-98019683D01*
X106989158Y-97981057D01*
X106925725Y-97895534D01*
X106845754Y-97716221D01*
X106804409Y-97481742D01*
X106818228Y-97285891D01*
X106848586Y-97183831D01*
X106887213Y-97128667D01*
X106972735Y-97065233D01*
X137476191Y-111922381D02*
X137476191Y-110922381D01*
X137476191Y-111874762D02*
X137380953Y-111922381D01*
X137190476Y-111922381D01*
X137095238Y-111874762D01*
X137047619Y-111827143D01*
X137000000Y-111731905D01*
X137000000Y-111446190D01*
X137047619Y-111350952D01*
X137095238Y-111303333D01*
X137190476Y-111255714D01*
X137380953Y-111255714D01*
X137476191Y-111303333D01*
X138095238Y-111922381D02*
X138000000Y-111874762D01*
X137952381Y-111827143D01*
X137904762Y-111731905D01*
X137904762Y-111446190D01*
X137952381Y-111350952D01*
X138000000Y-111303333D01*
X138095238Y-111255714D01*
X138238096Y-111255714D01*
X138333334Y-111303333D01*
X138380953Y-111350952D01*
X138428572Y-111446190D01*
X138428572Y-111731905D01*
X138380953Y-111827143D01*
X138333334Y-111874762D01*
X138238096Y-111922381D01*
X138095238Y-111922381D01*
X138714286Y-111255714D02*
X139095238Y-111255714D01*
X138857143Y-110922381D02*
X138857143Y-111779524D01*
X138904762Y-111874762D01*
X139000000Y-111922381D01*
X139095238Y-111922381D01*
X138452381Y-108608095D02*
X137452381Y-108608095D01*
X137452381Y-108227142D01*
X137500000Y-108131904D01*
X137547619Y-108084285D01*
X137642857Y-108036666D01*
X137785714Y-108036666D01*
X137880952Y-108084285D01*
X137928571Y-108131904D01*
X137976190Y-108227142D01*
X137976190Y-108608095D01*
X137785714Y-107179523D02*
X138452381Y-107179523D01*
X137404762Y-107417619D02*
X138119048Y-107655714D01*
X138119048Y-107036666D01*
X135547143Y-125753809D02*
X135594762Y-125801428D01*
X135642381Y-125944285D01*
X135642381Y-126039523D01*
X135594762Y-126182381D01*
X135499524Y-126277619D01*
X135404286Y-126325238D01*
X135213810Y-126372857D01*
X135070952Y-126372857D01*
X134880476Y-126325238D01*
X134785238Y-126277619D01*
X134690000Y-126182381D01*
X134642381Y-126039523D01*
X134642381Y-125944285D01*
X134690000Y-125801428D01*
X134737619Y-125753809D01*
X134642381Y-125134762D02*
X134642381Y-124944285D01*
X134690000Y-124849047D01*
X134785238Y-124753809D01*
X134975714Y-124706190D01*
X135309048Y-124706190D01*
X135499524Y-124753809D01*
X135594762Y-124849047D01*
X135642381Y-124944285D01*
X135642381Y-125134762D01*
X135594762Y-125230000D01*
X135499524Y-125325238D01*
X135309048Y-125372857D01*
X134975714Y-125372857D01*
X134785238Y-125325238D01*
X134690000Y-125230000D01*
X134642381Y-125134762D01*
X135642381Y-124277619D02*
X134642381Y-124277619D01*
X135642381Y-123706190D01*
X134642381Y-123706190D01*
X135642381Y-123230000D02*
X134642381Y-123230000D01*
X135642381Y-122658571D01*
X134642381Y-122658571D01*
X135737619Y-122420476D02*
X135737619Y-121658571D01*
X134642381Y-121230000D02*
X134642381Y-121134761D01*
X134690000Y-121039523D01*
X134737619Y-120991904D01*
X134832857Y-120944285D01*
X135023333Y-120896666D01*
X135261429Y-120896666D01*
X135451905Y-120944285D01*
X135547143Y-120991904D01*
X135594762Y-121039523D01*
X135642381Y-121134761D01*
X135642381Y-121230000D01*
X135594762Y-121325238D01*
X135547143Y-121372857D01*
X135451905Y-121420476D01*
X135261429Y-121468095D01*
X135023333Y-121468095D01*
X134832857Y-121420476D01*
X134737619Y-121372857D01*
X134690000Y-121325238D01*
X134642381Y-121230000D01*
X134737619Y-120515714D02*
X134690000Y-120468095D01*
X134642381Y-120372857D01*
X134642381Y-120134761D01*
X134690000Y-120039523D01*
X134737619Y-119991904D01*
X134832857Y-119944285D01*
X134928095Y-119944285D01*
X135070952Y-119991904D01*
X135642381Y-120563333D01*
X135642381Y-119944285D01*
X134642381Y-119610952D02*
X135642381Y-118944285D01*
X134642381Y-118944285D02*
X135642381Y-119610952D01*
X135642381Y-118039523D02*
X135642381Y-118610952D01*
X135642381Y-118325238D02*
X134642381Y-118325238D01*
X134785238Y-118420476D01*
X134880476Y-118515714D01*
X134928095Y-118610952D01*
X134642381Y-117420476D02*
X134642381Y-117325237D01*
X134690000Y-117229999D01*
X134737619Y-117182380D01*
X134832857Y-117134761D01*
X135023333Y-117087142D01*
X135261429Y-117087142D01*
X135451905Y-117134761D01*
X135547143Y-117182380D01*
X135594762Y-117229999D01*
X135642381Y-117325237D01*
X135642381Y-117420476D01*
X135594762Y-117515714D01*
X135547143Y-117563333D01*
X135451905Y-117610952D01*
X135261429Y-117658571D01*
X135023333Y-117658571D01*
X134832857Y-117610952D01*
X134737619Y-117563333D01*
X134690000Y-117515714D01*
X134642381Y-117420476D01*
X120691905Y-122182381D02*
X120691905Y-121182381D01*
X121072858Y-121182381D01*
X121168096Y-121230000D01*
X121215715Y-121277619D01*
X121263334Y-121372857D01*
X121263334Y-121515714D01*
X121215715Y-121610952D01*
X121168096Y-121658571D01*
X121072858Y-121706190D01*
X120691905Y-121706190D01*
X122215715Y-122182381D02*
X121644286Y-122182381D01*
X121930000Y-122182381D02*
X121930000Y-121182381D01*
X121834762Y-121325238D01*
X121739524Y-121420476D01*
X121644286Y-121468095D01*
X135547143Y-82253809D02*
X135594762Y-82301428D01*
X135642381Y-82444285D01*
X135642381Y-82539523D01*
X135594762Y-82682381D01*
X135499524Y-82777619D01*
X135404286Y-82825238D01*
X135213810Y-82872857D01*
X135070952Y-82872857D01*
X134880476Y-82825238D01*
X134785238Y-82777619D01*
X134690000Y-82682381D01*
X134642381Y-82539523D01*
X134642381Y-82444285D01*
X134690000Y-82301428D01*
X134737619Y-82253809D01*
X134642381Y-81634762D02*
X134642381Y-81444285D01*
X134690000Y-81349047D01*
X134785238Y-81253809D01*
X134975714Y-81206190D01*
X135309048Y-81206190D01*
X135499524Y-81253809D01*
X135594762Y-81349047D01*
X135642381Y-81444285D01*
X135642381Y-81634762D01*
X135594762Y-81730000D01*
X135499524Y-81825238D01*
X135309048Y-81872857D01*
X134975714Y-81872857D01*
X134785238Y-81825238D01*
X134690000Y-81730000D01*
X134642381Y-81634762D01*
X135642381Y-80777619D02*
X134642381Y-80777619D01*
X135642381Y-80206190D01*
X134642381Y-80206190D01*
X135642381Y-79730000D02*
X134642381Y-79730000D01*
X135642381Y-79158571D01*
X134642381Y-79158571D01*
X135737619Y-78920476D02*
X135737619Y-78158571D01*
X134642381Y-77730000D02*
X134642381Y-77634761D01*
X134690000Y-77539523D01*
X134737619Y-77491904D01*
X134832857Y-77444285D01*
X135023333Y-77396666D01*
X135261429Y-77396666D01*
X135451905Y-77444285D01*
X135547143Y-77491904D01*
X135594762Y-77539523D01*
X135642381Y-77634761D01*
X135642381Y-77730000D01*
X135594762Y-77825238D01*
X135547143Y-77872857D01*
X135451905Y-77920476D01*
X135261429Y-77968095D01*
X135023333Y-77968095D01*
X134832857Y-77920476D01*
X134737619Y-77872857D01*
X134690000Y-77825238D01*
X134642381Y-77730000D01*
X134737619Y-77015714D02*
X134690000Y-76968095D01*
X134642381Y-76872857D01*
X134642381Y-76634761D01*
X134690000Y-76539523D01*
X134737619Y-76491904D01*
X134832857Y-76444285D01*
X134928095Y-76444285D01*
X135070952Y-76491904D01*
X135642381Y-77063333D01*
X135642381Y-76444285D01*
X134642381Y-76110952D02*
X135642381Y-75444285D01*
X134642381Y-75444285D02*
X135642381Y-76110952D01*
X135642381Y-74539523D02*
X135642381Y-75110952D01*
X135642381Y-74825238D02*
X134642381Y-74825238D01*
X134785238Y-74920476D01*
X134880476Y-75015714D01*
X134928095Y-75110952D01*
X134642381Y-73920476D02*
X134642381Y-73825237D01*
X134690000Y-73729999D01*
X134737619Y-73682380D01*
X134832857Y-73634761D01*
X135023333Y-73587142D01*
X135261429Y-73587142D01*
X135451905Y-73634761D01*
X135547143Y-73682380D01*
X135594762Y-73729999D01*
X135642381Y-73825237D01*
X135642381Y-73920476D01*
X135594762Y-74015714D01*
X135547143Y-74063333D01*
X135451905Y-74110952D01*
X135261429Y-74158571D01*
X135023333Y-74158571D01*
X134832857Y-74110952D01*
X134737619Y-74063333D01*
X134690000Y-74015714D01*
X134642381Y-73920476D01*
X120691905Y-78682381D02*
X120691905Y-77682381D01*
X121072858Y-77682381D01*
X121168096Y-77730000D01*
X121215715Y-77777619D01*
X121263334Y-77872857D01*
X121263334Y-78015714D01*
X121215715Y-78110952D01*
X121168096Y-78158571D01*
X121072858Y-78206190D01*
X120691905Y-78206190D01*
X121644286Y-77777619D02*
X121691905Y-77730000D01*
X121787143Y-77682381D01*
X122025239Y-77682381D01*
X122120477Y-77730000D01*
X122168096Y-77777619D01*
X122215715Y-77872857D01*
X122215715Y-77968095D01*
X122168096Y-78110952D01*
X121596667Y-78682381D01*
X122215715Y-78682381D01*
X124428571Y-110857142D02*
X124476190Y-110714285D01*
X124523810Y-110666666D01*
X124619048Y-110619047D01*
X124761905Y-110619047D01*
X124857143Y-110666666D01*
X124904762Y-110714285D01*
X124952381Y-110809523D01*
X124952381Y-111190476D01*
X123952381Y-111190476D01*
X123952381Y-110857142D01*
X124000000Y-110761904D01*
X124047619Y-110714285D01*
X124142857Y-110666666D01*
X124238095Y-110666666D01*
X124333333Y-110714285D01*
X124380952Y-110761904D01*
X124428571Y-110857142D01*
X124428571Y-111190476D01*
X124857143Y-109619047D02*
X124904762Y-109666666D01*
X124952381Y-109809523D01*
X124952381Y-109904761D01*
X124904762Y-110047619D01*
X124809524Y-110142857D01*
X124714286Y-110190476D01*
X124523810Y-110238095D01*
X124380952Y-110238095D01*
X124190476Y-110190476D01*
X124095238Y-110142857D01*
X124000000Y-110047619D01*
X123952381Y-109904761D01*
X123952381Y-109809523D01*
X124000000Y-109666666D01*
X124047619Y-109619047D01*
X124380952Y-109047619D02*
X124333333Y-109142857D01*
X124285714Y-109190476D01*
X124190476Y-109238095D01*
X124142857Y-109238095D01*
X124047619Y-109190476D01*
X124000000Y-109142857D01*
X123952381Y-109047619D01*
X123952381Y-108857142D01*
X124000000Y-108761904D01*
X124047619Y-108714285D01*
X124142857Y-108666666D01*
X124190476Y-108666666D01*
X124285714Y-108714285D01*
X124333333Y-108761904D01*
X124380952Y-108857142D01*
X124380952Y-109047619D01*
X124428571Y-109142857D01*
X124476190Y-109190476D01*
X124571429Y-109238095D01*
X124761905Y-109238095D01*
X124857143Y-109190476D01*
X124904762Y-109142857D01*
X124952381Y-109047619D01*
X124952381Y-108857142D01*
X124904762Y-108761904D01*
X124857143Y-108714285D01*
X124761905Y-108666666D01*
X124571429Y-108666666D01*
X124476190Y-108714285D01*
X124428571Y-108761904D01*
X124380952Y-108857142D01*
X123952381Y-107761904D02*
X123952381Y-108238095D01*
X124428571Y-108285714D01*
X124380952Y-108238095D01*
X124333333Y-108142857D01*
X124333333Y-107904761D01*
X124380952Y-107809523D01*
X124428571Y-107761904D01*
X124523810Y-107714285D01*
X124761905Y-107714285D01*
X124857143Y-107761904D01*
X124904762Y-107809523D01*
X124952381Y-107904761D01*
X124952381Y-108142857D01*
X124904762Y-108238095D01*
X124857143Y-108285714D01*
X123952381Y-107095238D02*
X123952381Y-106999999D01*
X124000000Y-106904761D01*
X124047619Y-106857142D01*
X124142857Y-106809523D01*
X124333333Y-106761904D01*
X124571429Y-106761904D01*
X124761905Y-106809523D01*
X124857143Y-106857142D01*
X124904762Y-106904761D01*
X124952381Y-106999999D01*
X124952381Y-107095238D01*
X124904762Y-107190476D01*
X124857143Y-107238095D01*
X124761905Y-107285714D01*
X124571429Y-107333333D01*
X124333333Y-107333333D01*
X124142857Y-107285714D01*
X124047619Y-107238095D01*
X124000000Y-107190476D01*
X123952381Y-107095238D01*
D12*
X121952381Y-109273810D02*
X121904762Y-109250000D01*
X121857143Y-109202381D01*
X121785714Y-109130952D01*
X121738095Y-109107143D01*
X121690476Y-109107143D01*
X121714286Y-109226190D02*
X121666667Y-109202381D01*
X121619048Y-109154762D01*
X121595238Y-109059524D01*
X121595238Y-108892857D01*
X121619048Y-108797619D01*
X121666667Y-108750000D01*
X121714286Y-108726190D01*
X121809524Y-108726190D01*
X121857143Y-108750000D01*
X121904762Y-108797619D01*
X121928571Y-108892857D01*
X121928571Y-109059524D01*
X121904762Y-109154762D01*
X121857143Y-109202381D01*
X121809524Y-109226190D01*
X121714286Y-109226190D01*
X122404762Y-109226190D02*
X122119048Y-109226190D01*
X122261905Y-109226190D02*
X122261905Y-108726190D01*
X122214286Y-108797619D01*
X122166667Y-108845238D01*
X122119048Y-108869048D01*
D11*
X115928571Y-94857142D02*
X115976190Y-94714285D01*
X116023810Y-94666666D01*
X116119048Y-94619047D01*
X116261905Y-94619047D01*
X116357143Y-94666666D01*
X116404762Y-94714285D01*
X116452381Y-94809523D01*
X116452381Y-95190476D01*
X115452381Y-95190476D01*
X115452381Y-94857142D01*
X115500000Y-94761904D01*
X115547619Y-94714285D01*
X115642857Y-94666666D01*
X115738095Y-94666666D01*
X115833333Y-94714285D01*
X115880952Y-94761904D01*
X115928571Y-94857142D01*
X115928571Y-95190476D01*
X116357143Y-93619047D02*
X116404762Y-93666666D01*
X116452381Y-93809523D01*
X116452381Y-93904761D01*
X116404762Y-94047619D01*
X116309524Y-94142857D01*
X116214286Y-94190476D01*
X116023810Y-94238095D01*
X115880952Y-94238095D01*
X115690476Y-94190476D01*
X115595238Y-94142857D01*
X115500000Y-94047619D01*
X115452381Y-93904761D01*
X115452381Y-93809523D01*
X115500000Y-93666666D01*
X115547619Y-93619047D01*
X115880952Y-93047619D02*
X115833333Y-93142857D01*
X115785714Y-93190476D01*
X115690476Y-93238095D01*
X115642857Y-93238095D01*
X115547619Y-93190476D01*
X115500000Y-93142857D01*
X115452381Y-93047619D01*
X115452381Y-92857142D01*
X115500000Y-92761904D01*
X115547619Y-92714285D01*
X115642857Y-92666666D01*
X115690476Y-92666666D01*
X115785714Y-92714285D01*
X115833333Y-92761904D01*
X115880952Y-92857142D01*
X115880952Y-93047619D01*
X115928571Y-93142857D01*
X115976190Y-93190476D01*
X116071429Y-93238095D01*
X116261905Y-93238095D01*
X116357143Y-93190476D01*
X116404762Y-93142857D01*
X116452381Y-93047619D01*
X116452381Y-92857142D01*
X116404762Y-92761904D01*
X116357143Y-92714285D01*
X116261905Y-92666666D01*
X116071429Y-92666666D01*
X115976190Y-92714285D01*
X115928571Y-92761904D01*
X115880952Y-92857142D01*
X115452381Y-91761904D02*
X115452381Y-92238095D01*
X115928571Y-92285714D01*
X115880952Y-92238095D01*
X115833333Y-92142857D01*
X115833333Y-91904761D01*
X115880952Y-91809523D01*
X115928571Y-91761904D01*
X116023810Y-91714285D01*
X116261905Y-91714285D01*
X116357143Y-91761904D01*
X116404762Y-91809523D01*
X116452381Y-91904761D01*
X116452381Y-92142857D01*
X116404762Y-92238095D01*
X116357143Y-92285714D01*
X115452381Y-91095238D02*
X115452381Y-90999999D01*
X115500000Y-90904761D01*
X115547619Y-90857142D01*
X115642857Y-90809523D01*
X115833333Y-90761904D01*
X116071429Y-90761904D01*
X116261905Y-90809523D01*
X116357143Y-90857142D01*
X116404762Y-90904761D01*
X116452381Y-90999999D01*
X116452381Y-91095238D01*
X116404762Y-91190476D01*
X116357143Y-91238095D01*
X116261905Y-91285714D01*
X116071429Y-91333333D01*
X115833333Y-91333333D01*
X115642857Y-91285714D01*
X115547619Y-91238095D01*
X115500000Y-91190476D01*
X115452381Y-91095238D01*
D12*
X118452381Y-93273810D02*
X118404762Y-93250000D01*
X118357143Y-93202381D01*
X118285714Y-93130952D01*
X118238095Y-93107143D01*
X118190476Y-93107143D01*
X118214286Y-93226190D02*
X118166667Y-93202381D01*
X118119048Y-93154762D01*
X118095238Y-93059524D01*
X118095238Y-92892857D01*
X118119048Y-92797619D01*
X118166667Y-92750000D01*
X118214286Y-92726190D01*
X118309524Y-92726190D01*
X118357143Y-92750000D01*
X118404762Y-92797619D01*
X118428571Y-92892857D01*
X118428571Y-93059524D01*
X118404762Y-93154762D01*
X118357143Y-93202381D01*
X118309524Y-93226190D01*
X118214286Y-93226190D01*
X118619048Y-92773810D02*
X118642858Y-92750000D01*
X118690477Y-92726190D01*
X118809524Y-92726190D01*
X118857143Y-92750000D01*
X118880953Y-92773810D01*
X118904762Y-92821429D01*
X118904762Y-92869048D01*
X118880953Y-92940476D01*
X118595239Y-93226190D01*
X118904762Y-93226190D01*
D11*
X120428571Y-110857142D02*
X120476190Y-110714285D01*
X120523810Y-110666666D01*
X120619048Y-110619047D01*
X120761905Y-110619047D01*
X120857143Y-110666666D01*
X120904762Y-110714285D01*
X120952381Y-110809523D01*
X120952381Y-111190476D01*
X119952381Y-111190476D01*
X119952381Y-110857142D01*
X120000000Y-110761904D01*
X120047619Y-110714285D01*
X120142857Y-110666666D01*
X120238095Y-110666666D01*
X120333333Y-110714285D01*
X120380952Y-110761904D01*
X120428571Y-110857142D01*
X120428571Y-111190476D01*
X120857143Y-109619047D02*
X120904762Y-109666666D01*
X120952381Y-109809523D01*
X120952381Y-109904761D01*
X120904762Y-110047619D01*
X120809524Y-110142857D01*
X120714286Y-110190476D01*
X120523810Y-110238095D01*
X120380952Y-110238095D01*
X120190476Y-110190476D01*
X120095238Y-110142857D01*
X120000000Y-110047619D01*
X119952381Y-109904761D01*
X119952381Y-109809523D01*
X120000000Y-109666666D01*
X120047619Y-109619047D01*
X120380952Y-109047619D02*
X120333333Y-109142857D01*
X120285714Y-109190476D01*
X120190476Y-109238095D01*
X120142857Y-109238095D01*
X120047619Y-109190476D01*
X120000000Y-109142857D01*
X119952381Y-109047619D01*
X119952381Y-108857142D01*
X120000000Y-108761904D01*
X120047619Y-108714285D01*
X120142857Y-108666666D01*
X120190476Y-108666666D01*
X120285714Y-108714285D01*
X120333333Y-108761904D01*
X120380952Y-108857142D01*
X120380952Y-109047619D01*
X120428571Y-109142857D01*
X120476190Y-109190476D01*
X120571429Y-109238095D01*
X120761905Y-109238095D01*
X120857143Y-109190476D01*
X120904762Y-109142857D01*
X120952381Y-109047619D01*
X120952381Y-108857142D01*
X120904762Y-108761904D01*
X120857143Y-108714285D01*
X120761905Y-108666666D01*
X120571429Y-108666666D01*
X120476190Y-108714285D01*
X120428571Y-108761904D01*
X120380952Y-108857142D01*
X119952381Y-107761904D02*
X119952381Y-108238095D01*
X120428571Y-108285714D01*
X120380952Y-108238095D01*
X120333333Y-108142857D01*
X120333333Y-107904761D01*
X120380952Y-107809523D01*
X120428571Y-107761904D01*
X120523810Y-107714285D01*
X120761905Y-107714285D01*
X120857143Y-107761904D01*
X120904762Y-107809523D01*
X120952381Y-107904761D01*
X120952381Y-108142857D01*
X120904762Y-108238095D01*
X120857143Y-108285714D01*
X119952381Y-107095238D02*
X119952381Y-106999999D01*
X120000000Y-106904761D01*
X120047619Y-106857142D01*
X120142857Y-106809523D01*
X120333333Y-106761904D01*
X120571429Y-106761904D01*
X120761905Y-106809523D01*
X120857143Y-106857142D01*
X120904762Y-106904761D01*
X120952381Y-106999999D01*
X120952381Y-107095238D01*
X120904762Y-107190476D01*
X120857143Y-107238095D01*
X120761905Y-107285714D01*
X120571429Y-107333333D01*
X120333333Y-107333333D01*
X120142857Y-107285714D01*
X120047619Y-107238095D01*
X120000000Y-107190476D01*
X119952381Y-107095238D01*
D12*
X117952381Y-109273810D02*
X117904762Y-109250000D01*
X117857143Y-109202381D01*
X117785714Y-109130952D01*
X117738095Y-109107143D01*
X117690476Y-109107143D01*
X117714286Y-109226190D02*
X117666667Y-109202381D01*
X117619048Y-109154762D01*
X117595238Y-109059524D01*
X117595238Y-108892857D01*
X117619048Y-108797619D01*
X117666667Y-108750000D01*
X117714286Y-108726190D01*
X117809524Y-108726190D01*
X117857143Y-108750000D01*
X117904762Y-108797619D01*
X117928571Y-108892857D01*
X117928571Y-109059524D01*
X117904762Y-109154762D01*
X117857143Y-109202381D01*
X117809524Y-109226190D01*
X117714286Y-109226190D01*
X118095239Y-108726190D02*
X118404762Y-108726190D01*
X118238096Y-108916667D01*
X118309524Y-108916667D01*
X118357143Y-108940476D01*
X118380953Y-108964286D01*
X118404762Y-109011905D01*
X118404762Y-109130952D01*
X118380953Y-109178571D01*
X118357143Y-109202381D01*
X118309524Y-109226190D01*
X118166667Y-109226190D01*
X118119048Y-109202381D01*
X118095239Y-109178571D01*
D11*
X116428571Y-110857142D02*
X116476190Y-110714285D01*
X116523810Y-110666666D01*
X116619048Y-110619047D01*
X116761905Y-110619047D01*
X116857143Y-110666666D01*
X116904762Y-110714285D01*
X116952381Y-110809523D01*
X116952381Y-111190476D01*
X115952381Y-111190476D01*
X115952381Y-110857142D01*
X116000000Y-110761904D01*
X116047619Y-110714285D01*
X116142857Y-110666666D01*
X116238095Y-110666666D01*
X116333333Y-110714285D01*
X116380952Y-110761904D01*
X116428571Y-110857142D01*
X116428571Y-111190476D01*
X116857143Y-109619047D02*
X116904762Y-109666666D01*
X116952381Y-109809523D01*
X116952381Y-109904761D01*
X116904762Y-110047619D01*
X116809524Y-110142857D01*
X116714286Y-110190476D01*
X116523810Y-110238095D01*
X116380952Y-110238095D01*
X116190476Y-110190476D01*
X116095238Y-110142857D01*
X116000000Y-110047619D01*
X115952381Y-109904761D01*
X115952381Y-109809523D01*
X116000000Y-109666666D01*
X116047619Y-109619047D01*
X116380952Y-109047619D02*
X116333333Y-109142857D01*
X116285714Y-109190476D01*
X116190476Y-109238095D01*
X116142857Y-109238095D01*
X116047619Y-109190476D01*
X116000000Y-109142857D01*
X115952381Y-109047619D01*
X115952381Y-108857142D01*
X116000000Y-108761904D01*
X116047619Y-108714285D01*
X116142857Y-108666666D01*
X116190476Y-108666666D01*
X116285714Y-108714285D01*
X116333333Y-108761904D01*
X116380952Y-108857142D01*
X116380952Y-109047619D01*
X116428571Y-109142857D01*
X116476190Y-109190476D01*
X116571429Y-109238095D01*
X116761905Y-109238095D01*
X116857143Y-109190476D01*
X116904762Y-109142857D01*
X116952381Y-109047619D01*
X116952381Y-108857142D01*
X116904762Y-108761904D01*
X116857143Y-108714285D01*
X116761905Y-108666666D01*
X116571429Y-108666666D01*
X116476190Y-108714285D01*
X116428571Y-108761904D01*
X116380952Y-108857142D01*
X115952381Y-107761904D02*
X115952381Y-108238095D01*
X116428571Y-108285714D01*
X116380952Y-108238095D01*
X116333333Y-108142857D01*
X116333333Y-107904761D01*
X116380952Y-107809523D01*
X116428571Y-107761904D01*
X116523810Y-107714285D01*
X116761905Y-107714285D01*
X116857143Y-107761904D01*
X116904762Y-107809523D01*
X116952381Y-107904761D01*
X116952381Y-108142857D01*
X116904762Y-108238095D01*
X116857143Y-108285714D01*
X115952381Y-107095238D02*
X115952381Y-106999999D01*
X116000000Y-106904761D01*
X116047619Y-106857142D01*
X116142857Y-106809523D01*
X116333333Y-106761904D01*
X116571429Y-106761904D01*
X116761905Y-106809523D01*
X116857143Y-106857142D01*
X116904762Y-106904761D01*
X116952381Y-106999999D01*
X116952381Y-107095238D01*
X116904762Y-107190476D01*
X116857143Y-107238095D01*
X116761905Y-107285714D01*
X116571429Y-107333333D01*
X116333333Y-107333333D01*
X116142857Y-107285714D01*
X116047619Y-107238095D01*
X116000000Y-107190476D01*
X115952381Y-107095238D01*
D12*
X113952381Y-109273810D02*
X113904762Y-109250000D01*
X113857143Y-109202381D01*
X113785714Y-109130952D01*
X113738095Y-109107143D01*
X113690476Y-109107143D01*
X113714286Y-109226190D02*
X113666667Y-109202381D01*
X113619048Y-109154762D01*
X113595238Y-109059524D01*
X113595238Y-108892857D01*
X113619048Y-108797619D01*
X113666667Y-108750000D01*
X113714286Y-108726190D01*
X113809524Y-108726190D01*
X113857143Y-108750000D01*
X113904762Y-108797619D01*
X113928571Y-108892857D01*
X113928571Y-109059524D01*
X113904762Y-109154762D01*
X113857143Y-109202381D01*
X113809524Y-109226190D01*
X113714286Y-109226190D01*
X114357143Y-108892857D02*
X114357143Y-109226190D01*
X114238096Y-108702381D02*
X114119048Y-109059524D01*
X114428572Y-109059524D01*
D11*
X119928571Y-91857142D02*
X119976190Y-91714285D01*
X120023810Y-91666666D01*
X120119048Y-91619047D01*
X120261905Y-91619047D01*
X120357143Y-91666666D01*
X120404762Y-91714285D01*
X120452381Y-91809523D01*
X120452381Y-92190476D01*
X119452381Y-92190476D01*
X119452381Y-91857142D01*
X119500000Y-91761904D01*
X119547619Y-91714285D01*
X119642857Y-91666666D01*
X119738095Y-91666666D01*
X119833333Y-91714285D01*
X119880952Y-91761904D01*
X119928571Y-91857142D01*
X119928571Y-92190476D01*
X120357143Y-90619047D02*
X120404762Y-90666666D01*
X120452381Y-90809523D01*
X120452381Y-90904761D01*
X120404762Y-91047619D01*
X120309524Y-91142857D01*
X120214286Y-91190476D01*
X120023810Y-91238095D01*
X119880952Y-91238095D01*
X119690476Y-91190476D01*
X119595238Y-91142857D01*
X119500000Y-91047619D01*
X119452381Y-90904761D01*
X119452381Y-90809523D01*
X119500000Y-90666666D01*
X119547619Y-90619047D01*
X119880952Y-90047619D02*
X119833333Y-90142857D01*
X119785714Y-90190476D01*
X119690476Y-90238095D01*
X119642857Y-90238095D01*
X119547619Y-90190476D01*
X119500000Y-90142857D01*
X119452381Y-90047619D01*
X119452381Y-89857142D01*
X119500000Y-89761904D01*
X119547619Y-89714285D01*
X119642857Y-89666666D01*
X119690476Y-89666666D01*
X119785714Y-89714285D01*
X119833333Y-89761904D01*
X119880952Y-89857142D01*
X119880952Y-90047619D01*
X119928571Y-90142857D01*
X119976190Y-90190476D01*
X120071429Y-90238095D01*
X120261905Y-90238095D01*
X120357143Y-90190476D01*
X120404762Y-90142857D01*
X120452381Y-90047619D01*
X120452381Y-89857142D01*
X120404762Y-89761904D01*
X120357143Y-89714285D01*
X120261905Y-89666666D01*
X120071429Y-89666666D01*
X119976190Y-89714285D01*
X119928571Y-89761904D01*
X119880952Y-89857142D01*
X119452381Y-88761904D02*
X119452381Y-89238095D01*
X119928571Y-89285714D01*
X119880952Y-89238095D01*
X119833333Y-89142857D01*
X119833333Y-88904761D01*
X119880952Y-88809523D01*
X119928571Y-88761904D01*
X120023810Y-88714285D01*
X120261905Y-88714285D01*
X120357143Y-88761904D01*
X120404762Y-88809523D01*
X120452381Y-88904761D01*
X120452381Y-89142857D01*
X120404762Y-89238095D01*
X120357143Y-89285714D01*
X119452381Y-88095238D02*
X119452381Y-87999999D01*
X119500000Y-87904761D01*
X119547619Y-87857142D01*
X119642857Y-87809523D01*
X119833333Y-87761904D01*
X120071429Y-87761904D01*
X120261905Y-87809523D01*
X120357143Y-87857142D01*
X120404762Y-87904761D01*
X120452381Y-87999999D01*
X120452381Y-88095238D01*
X120404762Y-88190476D01*
X120357143Y-88238095D01*
X120261905Y-88285714D01*
X120071429Y-88333333D01*
X119833333Y-88333333D01*
X119642857Y-88285714D01*
X119547619Y-88238095D01*
X119500000Y-88190476D01*
X119452381Y-88095238D01*
D12*
X122452381Y-90273810D02*
X122404762Y-90250000D01*
X122357143Y-90202381D01*
X122285714Y-90130952D01*
X122238095Y-90107143D01*
X122190476Y-90107143D01*
X122214286Y-90226190D02*
X122166667Y-90202381D01*
X122119048Y-90154762D01*
X122095238Y-90059524D01*
X122095238Y-89892857D01*
X122119048Y-89797619D01*
X122166667Y-89750000D01*
X122214286Y-89726190D01*
X122309524Y-89726190D01*
X122357143Y-89750000D01*
X122404762Y-89797619D01*
X122428571Y-89892857D01*
X122428571Y-90059524D01*
X122404762Y-90154762D01*
X122357143Y-90202381D01*
X122309524Y-90226190D01*
X122214286Y-90226190D01*
X122880953Y-89726190D02*
X122642858Y-89726190D01*
X122619048Y-89964286D01*
X122642858Y-89940476D01*
X122690477Y-89916667D01*
X122809524Y-89916667D01*
X122857143Y-89940476D01*
X122880953Y-89964286D01*
X122904762Y-90011905D01*
X122904762Y-90130952D01*
X122880953Y-90178571D01*
X122857143Y-90202381D01*
X122809524Y-90226190D01*
X122690477Y-90226190D01*
X122642858Y-90202381D01*
X122619048Y-90178571D01*
D11*
X123928571Y-91857142D02*
X123976190Y-91714285D01*
X124023810Y-91666666D01*
X124119048Y-91619047D01*
X124261905Y-91619047D01*
X124357143Y-91666666D01*
X124404762Y-91714285D01*
X124452381Y-91809523D01*
X124452381Y-92190476D01*
X123452381Y-92190476D01*
X123452381Y-91857142D01*
X123500000Y-91761904D01*
X123547619Y-91714285D01*
X123642857Y-91666666D01*
X123738095Y-91666666D01*
X123833333Y-91714285D01*
X123880952Y-91761904D01*
X123928571Y-91857142D01*
X123928571Y-92190476D01*
X124357143Y-90619047D02*
X124404762Y-90666666D01*
X124452381Y-90809523D01*
X124452381Y-90904761D01*
X124404762Y-91047619D01*
X124309524Y-91142857D01*
X124214286Y-91190476D01*
X124023810Y-91238095D01*
X123880952Y-91238095D01*
X123690476Y-91190476D01*
X123595238Y-91142857D01*
X123500000Y-91047619D01*
X123452381Y-90904761D01*
X123452381Y-90809523D01*
X123500000Y-90666666D01*
X123547619Y-90619047D01*
X123880952Y-90047619D02*
X123833333Y-90142857D01*
X123785714Y-90190476D01*
X123690476Y-90238095D01*
X123642857Y-90238095D01*
X123547619Y-90190476D01*
X123500000Y-90142857D01*
X123452381Y-90047619D01*
X123452381Y-89857142D01*
X123500000Y-89761904D01*
X123547619Y-89714285D01*
X123642857Y-89666666D01*
X123690476Y-89666666D01*
X123785714Y-89714285D01*
X123833333Y-89761904D01*
X123880952Y-89857142D01*
X123880952Y-90047619D01*
X123928571Y-90142857D01*
X123976190Y-90190476D01*
X124071429Y-90238095D01*
X124261905Y-90238095D01*
X124357143Y-90190476D01*
X124404762Y-90142857D01*
X124452381Y-90047619D01*
X124452381Y-89857142D01*
X124404762Y-89761904D01*
X124357143Y-89714285D01*
X124261905Y-89666666D01*
X124071429Y-89666666D01*
X123976190Y-89714285D01*
X123928571Y-89761904D01*
X123880952Y-89857142D01*
X123452381Y-88761904D02*
X123452381Y-89238095D01*
X123928571Y-89285714D01*
X123880952Y-89238095D01*
X123833333Y-89142857D01*
X123833333Y-88904761D01*
X123880952Y-88809523D01*
X123928571Y-88761904D01*
X124023810Y-88714285D01*
X124261905Y-88714285D01*
X124357143Y-88761904D01*
X124404762Y-88809523D01*
X124452381Y-88904761D01*
X124452381Y-89142857D01*
X124404762Y-89238095D01*
X124357143Y-89285714D01*
X123452381Y-88095238D02*
X123452381Y-87999999D01*
X123500000Y-87904761D01*
X123547619Y-87857142D01*
X123642857Y-87809523D01*
X123833333Y-87761904D01*
X124071429Y-87761904D01*
X124261905Y-87809523D01*
X124357143Y-87857142D01*
X124404762Y-87904761D01*
X124452381Y-87999999D01*
X124452381Y-88095238D01*
X124404762Y-88190476D01*
X124357143Y-88238095D01*
X124261905Y-88285714D01*
X124071429Y-88333333D01*
X123833333Y-88333333D01*
X123642857Y-88285714D01*
X123547619Y-88238095D01*
X123500000Y-88190476D01*
X123452381Y-88095238D01*
D12*
X126452381Y-90273810D02*
X126404762Y-90250000D01*
X126357143Y-90202381D01*
X126285714Y-90130952D01*
X126238095Y-90107143D01*
X126190476Y-90107143D01*
X126214286Y-90226190D02*
X126166667Y-90202381D01*
X126119048Y-90154762D01*
X126095238Y-90059524D01*
X126095238Y-89892857D01*
X126119048Y-89797619D01*
X126166667Y-89750000D01*
X126214286Y-89726190D01*
X126309524Y-89726190D01*
X126357143Y-89750000D01*
X126404762Y-89797619D01*
X126428571Y-89892857D01*
X126428571Y-90059524D01*
X126404762Y-90154762D01*
X126357143Y-90202381D01*
X126309524Y-90226190D01*
X126214286Y-90226190D01*
X126857143Y-89726190D02*
X126761905Y-89726190D01*
X126714286Y-89750000D01*
X126690477Y-89773810D01*
X126642858Y-89845238D01*
X126619048Y-89940476D01*
X126619048Y-90130952D01*
X126642858Y-90178571D01*
X126666667Y-90202381D01*
X126714286Y-90226190D01*
X126809524Y-90226190D01*
X126857143Y-90202381D01*
X126880953Y-90178571D01*
X126904762Y-90130952D01*
X126904762Y-90011905D01*
X126880953Y-89964286D01*
X126857143Y-89940476D01*
X126809524Y-89916667D01*
X126714286Y-89916667D01*
X126666667Y-89940476D01*
X126642858Y-89964286D01*
X126619048Y-90011905D01*
D11*
X127928571Y-91857142D02*
X127976190Y-91714285D01*
X128023810Y-91666666D01*
X128119048Y-91619047D01*
X128261905Y-91619047D01*
X128357143Y-91666666D01*
X128404762Y-91714285D01*
X128452381Y-91809523D01*
X128452381Y-92190476D01*
X127452381Y-92190476D01*
X127452381Y-91857142D01*
X127500000Y-91761904D01*
X127547619Y-91714285D01*
X127642857Y-91666666D01*
X127738095Y-91666666D01*
X127833333Y-91714285D01*
X127880952Y-91761904D01*
X127928571Y-91857142D01*
X127928571Y-92190476D01*
X128357143Y-90619047D02*
X128404762Y-90666666D01*
X128452381Y-90809523D01*
X128452381Y-90904761D01*
X128404762Y-91047619D01*
X128309524Y-91142857D01*
X128214286Y-91190476D01*
X128023810Y-91238095D01*
X127880952Y-91238095D01*
X127690476Y-91190476D01*
X127595238Y-91142857D01*
X127500000Y-91047619D01*
X127452381Y-90904761D01*
X127452381Y-90809523D01*
X127500000Y-90666666D01*
X127547619Y-90619047D01*
X127880952Y-90047619D02*
X127833333Y-90142857D01*
X127785714Y-90190476D01*
X127690476Y-90238095D01*
X127642857Y-90238095D01*
X127547619Y-90190476D01*
X127500000Y-90142857D01*
X127452381Y-90047619D01*
X127452381Y-89857142D01*
X127500000Y-89761904D01*
X127547619Y-89714285D01*
X127642857Y-89666666D01*
X127690476Y-89666666D01*
X127785714Y-89714285D01*
X127833333Y-89761904D01*
X127880952Y-89857142D01*
X127880952Y-90047619D01*
X127928571Y-90142857D01*
X127976190Y-90190476D01*
X128071429Y-90238095D01*
X128261905Y-90238095D01*
X128357143Y-90190476D01*
X128404762Y-90142857D01*
X128452381Y-90047619D01*
X128452381Y-89857142D01*
X128404762Y-89761904D01*
X128357143Y-89714285D01*
X128261905Y-89666666D01*
X128071429Y-89666666D01*
X127976190Y-89714285D01*
X127928571Y-89761904D01*
X127880952Y-89857142D01*
X127452381Y-88761904D02*
X127452381Y-89238095D01*
X127928571Y-89285714D01*
X127880952Y-89238095D01*
X127833333Y-89142857D01*
X127833333Y-88904761D01*
X127880952Y-88809523D01*
X127928571Y-88761904D01*
X128023810Y-88714285D01*
X128261905Y-88714285D01*
X128357143Y-88761904D01*
X128404762Y-88809523D01*
X128452381Y-88904761D01*
X128452381Y-89142857D01*
X128404762Y-89238095D01*
X128357143Y-89285714D01*
X127452381Y-88095238D02*
X127452381Y-87999999D01*
X127500000Y-87904761D01*
X127547619Y-87857142D01*
X127642857Y-87809523D01*
X127833333Y-87761904D01*
X128071429Y-87761904D01*
X128261905Y-87809523D01*
X128357143Y-87857142D01*
X128404762Y-87904761D01*
X128452381Y-87999999D01*
X128452381Y-88095238D01*
X128404762Y-88190476D01*
X128357143Y-88238095D01*
X128261905Y-88285714D01*
X128071429Y-88333333D01*
X127833333Y-88333333D01*
X127642857Y-88285714D01*
X127547619Y-88238095D01*
X127500000Y-88190476D01*
X127452381Y-88095238D01*
D12*
X130452381Y-90273810D02*
X130404762Y-90250000D01*
X130357143Y-90202381D01*
X130285714Y-90130952D01*
X130238095Y-90107143D01*
X130190476Y-90107143D01*
X130214286Y-90226190D02*
X130166667Y-90202381D01*
X130119048Y-90154762D01*
X130095238Y-90059524D01*
X130095238Y-89892857D01*
X130119048Y-89797619D01*
X130166667Y-89750000D01*
X130214286Y-89726190D01*
X130309524Y-89726190D01*
X130357143Y-89750000D01*
X130404762Y-89797619D01*
X130428571Y-89892857D01*
X130428571Y-90059524D01*
X130404762Y-90154762D01*
X130357143Y-90202381D01*
X130309524Y-90226190D01*
X130214286Y-90226190D01*
X130595239Y-89726190D02*
X130928572Y-89726190D01*
X130714286Y-90226190D01*
D11*
X132428571Y-91857142D02*
X132476190Y-91714285D01*
X132523810Y-91666666D01*
X132619048Y-91619047D01*
X132761905Y-91619047D01*
X132857143Y-91666666D01*
X132904762Y-91714285D01*
X132952381Y-91809523D01*
X132952381Y-92190476D01*
X131952381Y-92190476D01*
X131952381Y-91857142D01*
X132000000Y-91761904D01*
X132047619Y-91714285D01*
X132142857Y-91666666D01*
X132238095Y-91666666D01*
X132333333Y-91714285D01*
X132380952Y-91761904D01*
X132428571Y-91857142D01*
X132428571Y-92190476D01*
X132857143Y-90619047D02*
X132904762Y-90666666D01*
X132952381Y-90809523D01*
X132952381Y-90904761D01*
X132904762Y-91047619D01*
X132809524Y-91142857D01*
X132714286Y-91190476D01*
X132523810Y-91238095D01*
X132380952Y-91238095D01*
X132190476Y-91190476D01*
X132095238Y-91142857D01*
X132000000Y-91047619D01*
X131952381Y-90904761D01*
X131952381Y-90809523D01*
X132000000Y-90666666D01*
X132047619Y-90619047D01*
X132380952Y-90047619D02*
X132333333Y-90142857D01*
X132285714Y-90190476D01*
X132190476Y-90238095D01*
X132142857Y-90238095D01*
X132047619Y-90190476D01*
X132000000Y-90142857D01*
X131952381Y-90047619D01*
X131952381Y-89857142D01*
X132000000Y-89761904D01*
X132047619Y-89714285D01*
X132142857Y-89666666D01*
X132190476Y-89666666D01*
X132285714Y-89714285D01*
X132333333Y-89761904D01*
X132380952Y-89857142D01*
X132380952Y-90047619D01*
X132428571Y-90142857D01*
X132476190Y-90190476D01*
X132571429Y-90238095D01*
X132761905Y-90238095D01*
X132857143Y-90190476D01*
X132904762Y-90142857D01*
X132952381Y-90047619D01*
X132952381Y-89857142D01*
X132904762Y-89761904D01*
X132857143Y-89714285D01*
X132761905Y-89666666D01*
X132571429Y-89666666D01*
X132476190Y-89714285D01*
X132428571Y-89761904D01*
X132380952Y-89857142D01*
X131952381Y-88761904D02*
X131952381Y-89238095D01*
X132428571Y-89285714D01*
X132380952Y-89238095D01*
X132333333Y-89142857D01*
X132333333Y-88904761D01*
X132380952Y-88809523D01*
X132428571Y-88761904D01*
X132523810Y-88714285D01*
X132761905Y-88714285D01*
X132857143Y-88761904D01*
X132904762Y-88809523D01*
X132952381Y-88904761D01*
X132952381Y-89142857D01*
X132904762Y-89238095D01*
X132857143Y-89285714D01*
X131952381Y-88095238D02*
X131952381Y-87999999D01*
X132000000Y-87904761D01*
X132047619Y-87857142D01*
X132142857Y-87809523D01*
X132333333Y-87761904D01*
X132571429Y-87761904D01*
X132761905Y-87809523D01*
X132857143Y-87857142D01*
X132904762Y-87904761D01*
X132952381Y-87999999D01*
X132952381Y-88095238D01*
X132904762Y-88190476D01*
X132857143Y-88238095D01*
X132761905Y-88285714D01*
X132571429Y-88333333D01*
X132333333Y-88333333D01*
X132142857Y-88285714D01*
X132047619Y-88238095D01*
X132000000Y-88190476D01*
X131952381Y-88095238D01*
D12*
X134952381Y-90273810D02*
X134904762Y-90250000D01*
X134857143Y-90202381D01*
X134785714Y-90130952D01*
X134738095Y-90107143D01*
X134690476Y-90107143D01*
X134714286Y-90226190D02*
X134666667Y-90202381D01*
X134619048Y-90154762D01*
X134595238Y-90059524D01*
X134595238Y-89892857D01*
X134619048Y-89797619D01*
X134666667Y-89750000D01*
X134714286Y-89726190D01*
X134809524Y-89726190D01*
X134857143Y-89750000D01*
X134904762Y-89797619D01*
X134928571Y-89892857D01*
X134928571Y-90059524D01*
X134904762Y-90154762D01*
X134857143Y-90202381D01*
X134809524Y-90226190D01*
X134714286Y-90226190D01*
X135214286Y-89940476D02*
X135166667Y-89916667D01*
X135142858Y-89892857D01*
X135119048Y-89845238D01*
X135119048Y-89821429D01*
X135142858Y-89773810D01*
X135166667Y-89750000D01*
X135214286Y-89726190D01*
X135309524Y-89726190D01*
X135357143Y-89750000D01*
X135380953Y-89773810D01*
X135404762Y-89821429D01*
X135404762Y-89845238D01*
X135380953Y-89892857D01*
X135357143Y-89916667D01*
X135309524Y-89940476D01*
X135214286Y-89940476D01*
X135166667Y-89964286D01*
X135142858Y-89988095D01*
X135119048Y-90035714D01*
X135119048Y-90130952D01*
X135142858Y-90178571D01*
X135166667Y-90202381D01*
X135214286Y-90226190D01*
X135309524Y-90226190D01*
X135357143Y-90202381D01*
X135380953Y-90178571D01*
X135404762Y-90130952D01*
X135404762Y-90035714D01*
X135380953Y-89988095D01*
X135357143Y-89964286D01*
X135309524Y-89940476D01*
D11*
X136428571Y-110857142D02*
X136476190Y-110714285D01*
X136523810Y-110666666D01*
X136619048Y-110619047D01*
X136761905Y-110619047D01*
X136857143Y-110666666D01*
X136904762Y-110714285D01*
X136952381Y-110809523D01*
X136952381Y-111190476D01*
X135952381Y-111190476D01*
X135952381Y-110857142D01*
X136000000Y-110761904D01*
X136047619Y-110714285D01*
X136142857Y-110666666D01*
X136238095Y-110666666D01*
X136333333Y-110714285D01*
X136380952Y-110761904D01*
X136428571Y-110857142D01*
X136428571Y-111190476D01*
X136857143Y-109619047D02*
X136904762Y-109666666D01*
X136952381Y-109809523D01*
X136952381Y-109904761D01*
X136904762Y-110047619D01*
X136809524Y-110142857D01*
X136714286Y-110190476D01*
X136523810Y-110238095D01*
X136380952Y-110238095D01*
X136190476Y-110190476D01*
X136095238Y-110142857D01*
X136000000Y-110047619D01*
X135952381Y-109904761D01*
X135952381Y-109809523D01*
X136000000Y-109666666D01*
X136047619Y-109619047D01*
X136380952Y-109047619D02*
X136333333Y-109142857D01*
X136285714Y-109190476D01*
X136190476Y-109238095D01*
X136142857Y-109238095D01*
X136047619Y-109190476D01*
X136000000Y-109142857D01*
X135952381Y-109047619D01*
X135952381Y-108857142D01*
X136000000Y-108761904D01*
X136047619Y-108714285D01*
X136142857Y-108666666D01*
X136190476Y-108666666D01*
X136285714Y-108714285D01*
X136333333Y-108761904D01*
X136380952Y-108857142D01*
X136380952Y-109047619D01*
X136428571Y-109142857D01*
X136476190Y-109190476D01*
X136571429Y-109238095D01*
X136761905Y-109238095D01*
X136857143Y-109190476D01*
X136904762Y-109142857D01*
X136952381Y-109047619D01*
X136952381Y-108857142D01*
X136904762Y-108761904D01*
X136857143Y-108714285D01*
X136761905Y-108666666D01*
X136571429Y-108666666D01*
X136476190Y-108714285D01*
X136428571Y-108761904D01*
X136380952Y-108857142D01*
X135952381Y-107761904D02*
X135952381Y-108238095D01*
X136428571Y-108285714D01*
X136380952Y-108238095D01*
X136333333Y-108142857D01*
X136333333Y-107904761D01*
X136380952Y-107809523D01*
X136428571Y-107761904D01*
X136523810Y-107714285D01*
X136761905Y-107714285D01*
X136857143Y-107761904D01*
X136904762Y-107809523D01*
X136952381Y-107904761D01*
X136952381Y-108142857D01*
X136904762Y-108238095D01*
X136857143Y-108285714D01*
X135952381Y-107095238D02*
X135952381Y-106999999D01*
X136000000Y-106904761D01*
X136047619Y-106857142D01*
X136142857Y-106809523D01*
X136333333Y-106761904D01*
X136571429Y-106761904D01*
X136761905Y-106809523D01*
X136857143Y-106857142D01*
X136904762Y-106904761D01*
X136952381Y-106999999D01*
X136952381Y-107095238D01*
X136904762Y-107190476D01*
X136857143Y-107238095D01*
X136761905Y-107285714D01*
X136571429Y-107333333D01*
X136333333Y-107333333D01*
X136142857Y-107285714D01*
X136047619Y-107238095D01*
X136000000Y-107190476D01*
X135952381Y-107095238D01*
D12*
X133952381Y-109273810D02*
X133904762Y-109250000D01*
X133857143Y-109202381D01*
X133785714Y-109130952D01*
X133738095Y-109107143D01*
X133690476Y-109107143D01*
X133714286Y-109226190D02*
X133666667Y-109202381D01*
X133619048Y-109154762D01*
X133595238Y-109059524D01*
X133595238Y-108892857D01*
X133619048Y-108797619D01*
X133666667Y-108750000D01*
X133714286Y-108726190D01*
X133809524Y-108726190D01*
X133857143Y-108750000D01*
X133904762Y-108797619D01*
X133928571Y-108892857D01*
X133928571Y-109059524D01*
X133904762Y-109154762D01*
X133857143Y-109202381D01*
X133809524Y-109226190D01*
X133714286Y-109226190D01*
X134166667Y-109226190D02*
X134261905Y-109226190D01*
X134309524Y-109202381D01*
X134333334Y-109178571D01*
X134380953Y-109107143D01*
X134404762Y-109011905D01*
X134404762Y-108821429D01*
X134380953Y-108773810D01*
X134357143Y-108750000D01*
X134309524Y-108726190D01*
X134214286Y-108726190D01*
X134166667Y-108750000D01*
X134142858Y-108773810D01*
X134119048Y-108821429D01*
X134119048Y-108940476D01*
X134142858Y-108988095D01*
X134166667Y-109011905D01*
X134214286Y-109035714D01*
X134309524Y-109035714D01*
X134357143Y-109011905D01*
X134380953Y-108988095D01*
X134404762Y-108940476D01*
D11*
X132428571Y-110857142D02*
X132476190Y-110714285D01*
X132523810Y-110666666D01*
X132619048Y-110619047D01*
X132761905Y-110619047D01*
X132857143Y-110666666D01*
X132904762Y-110714285D01*
X132952381Y-110809523D01*
X132952381Y-111190476D01*
X131952381Y-111190476D01*
X131952381Y-110857142D01*
X132000000Y-110761904D01*
X132047619Y-110714285D01*
X132142857Y-110666666D01*
X132238095Y-110666666D01*
X132333333Y-110714285D01*
X132380952Y-110761904D01*
X132428571Y-110857142D01*
X132428571Y-111190476D01*
X132857143Y-109619047D02*
X132904762Y-109666666D01*
X132952381Y-109809523D01*
X132952381Y-109904761D01*
X132904762Y-110047619D01*
X132809524Y-110142857D01*
X132714286Y-110190476D01*
X132523810Y-110238095D01*
X132380952Y-110238095D01*
X132190476Y-110190476D01*
X132095238Y-110142857D01*
X132000000Y-110047619D01*
X131952381Y-109904761D01*
X131952381Y-109809523D01*
X132000000Y-109666666D01*
X132047619Y-109619047D01*
X132380952Y-109047619D02*
X132333333Y-109142857D01*
X132285714Y-109190476D01*
X132190476Y-109238095D01*
X132142857Y-109238095D01*
X132047619Y-109190476D01*
X132000000Y-109142857D01*
X131952381Y-109047619D01*
X131952381Y-108857142D01*
X132000000Y-108761904D01*
X132047619Y-108714285D01*
X132142857Y-108666666D01*
X132190476Y-108666666D01*
X132285714Y-108714285D01*
X132333333Y-108761904D01*
X132380952Y-108857142D01*
X132380952Y-109047619D01*
X132428571Y-109142857D01*
X132476190Y-109190476D01*
X132571429Y-109238095D01*
X132761905Y-109238095D01*
X132857143Y-109190476D01*
X132904762Y-109142857D01*
X132952381Y-109047619D01*
X132952381Y-108857142D01*
X132904762Y-108761904D01*
X132857143Y-108714285D01*
X132761905Y-108666666D01*
X132571429Y-108666666D01*
X132476190Y-108714285D01*
X132428571Y-108761904D01*
X132380952Y-108857142D01*
X131952381Y-107761904D02*
X131952381Y-108238095D01*
X132428571Y-108285714D01*
X132380952Y-108238095D01*
X132333333Y-108142857D01*
X132333333Y-107904761D01*
X132380952Y-107809523D01*
X132428571Y-107761904D01*
X132523810Y-107714285D01*
X132761905Y-107714285D01*
X132857143Y-107761904D01*
X132904762Y-107809523D01*
X132952381Y-107904761D01*
X132952381Y-108142857D01*
X132904762Y-108238095D01*
X132857143Y-108285714D01*
X131952381Y-107095238D02*
X131952381Y-106999999D01*
X132000000Y-106904761D01*
X132047619Y-106857142D01*
X132142857Y-106809523D01*
X132333333Y-106761904D01*
X132571429Y-106761904D01*
X132761905Y-106809523D01*
X132857143Y-106857142D01*
X132904762Y-106904761D01*
X132952381Y-106999999D01*
X132952381Y-107095238D01*
X132904762Y-107190476D01*
X132857143Y-107238095D01*
X132761905Y-107285714D01*
X132571429Y-107333333D01*
X132333333Y-107333333D01*
X132142857Y-107285714D01*
X132047619Y-107238095D01*
X132000000Y-107190476D01*
X131952381Y-107095238D01*
D12*
X129714286Y-109273810D02*
X129666667Y-109250000D01*
X129619048Y-109202381D01*
X129547619Y-109130952D01*
X129500000Y-109107143D01*
X129452381Y-109107143D01*
X129476191Y-109226190D02*
X129428572Y-109202381D01*
X129380953Y-109154762D01*
X129357143Y-109059524D01*
X129357143Y-108892857D01*
X129380953Y-108797619D01*
X129428572Y-108750000D01*
X129476191Y-108726190D01*
X129571429Y-108726190D01*
X129619048Y-108750000D01*
X129666667Y-108797619D01*
X129690476Y-108892857D01*
X129690476Y-109059524D01*
X129666667Y-109154762D01*
X129619048Y-109202381D01*
X129571429Y-109226190D01*
X129476191Y-109226190D01*
X130166667Y-109226190D02*
X129880953Y-109226190D01*
X130023810Y-109226190D02*
X130023810Y-108726190D01*
X129976191Y-108797619D01*
X129928572Y-108845238D01*
X129880953Y-108869048D01*
X130476191Y-108726190D02*
X130523810Y-108726190D01*
X130571429Y-108750000D01*
X130595238Y-108773810D01*
X130619048Y-108821429D01*
X130642857Y-108916667D01*
X130642857Y-109035714D01*
X130619048Y-109130952D01*
X130595238Y-109178571D01*
X130571429Y-109202381D01*
X130523810Y-109226190D01*
X130476191Y-109226190D01*
X130428572Y-109202381D01*
X130404762Y-109178571D01*
X130380953Y-109130952D01*
X130357143Y-109035714D01*
X130357143Y-108916667D01*
X130380953Y-108821429D01*
X130404762Y-108773810D01*
X130428572Y-108750000D01*
X130476191Y-108726190D01*
D11*
X128428571Y-110857142D02*
X128476190Y-110714285D01*
X128523810Y-110666666D01*
X128619048Y-110619047D01*
X128761905Y-110619047D01*
X128857143Y-110666666D01*
X128904762Y-110714285D01*
X128952381Y-110809523D01*
X128952381Y-111190476D01*
X127952381Y-111190476D01*
X127952381Y-110857142D01*
X128000000Y-110761904D01*
X128047619Y-110714285D01*
X128142857Y-110666666D01*
X128238095Y-110666666D01*
X128333333Y-110714285D01*
X128380952Y-110761904D01*
X128428571Y-110857142D01*
X128428571Y-111190476D01*
X128857143Y-109619047D02*
X128904762Y-109666666D01*
X128952381Y-109809523D01*
X128952381Y-109904761D01*
X128904762Y-110047619D01*
X128809524Y-110142857D01*
X128714286Y-110190476D01*
X128523810Y-110238095D01*
X128380952Y-110238095D01*
X128190476Y-110190476D01*
X128095238Y-110142857D01*
X128000000Y-110047619D01*
X127952381Y-109904761D01*
X127952381Y-109809523D01*
X128000000Y-109666666D01*
X128047619Y-109619047D01*
X128380952Y-109047619D02*
X128333333Y-109142857D01*
X128285714Y-109190476D01*
X128190476Y-109238095D01*
X128142857Y-109238095D01*
X128047619Y-109190476D01*
X128000000Y-109142857D01*
X127952381Y-109047619D01*
X127952381Y-108857142D01*
X128000000Y-108761904D01*
X128047619Y-108714285D01*
X128142857Y-108666666D01*
X128190476Y-108666666D01*
X128285714Y-108714285D01*
X128333333Y-108761904D01*
X128380952Y-108857142D01*
X128380952Y-109047619D01*
X128428571Y-109142857D01*
X128476190Y-109190476D01*
X128571429Y-109238095D01*
X128761905Y-109238095D01*
X128857143Y-109190476D01*
X128904762Y-109142857D01*
X128952381Y-109047619D01*
X128952381Y-108857142D01*
X128904762Y-108761904D01*
X128857143Y-108714285D01*
X128761905Y-108666666D01*
X128571429Y-108666666D01*
X128476190Y-108714285D01*
X128428571Y-108761904D01*
X128380952Y-108857142D01*
X127952381Y-107761904D02*
X127952381Y-108238095D01*
X128428571Y-108285714D01*
X128380952Y-108238095D01*
X128333333Y-108142857D01*
X128333333Y-107904761D01*
X128380952Y-107809523D01*
X128428571Y-107761904D01*
X128523810Y-107714285D01*
X128761905Y-107714285D01*
X128857143Y-107761904D01*
X128904762Y-107809523D01*
X128952381Y-107904761D01*
X128952381Y-108142857D01*
X128904762Y-108238095D01*
X128857143Y-108285714D01*
X127952381Y-107095238D02*
X127952381Y-106999999D01*
X128000000Y-106904761D01*
X128047619Y-106857142D01*
X128142857Y-106809523D01*
X128333333Y-106761904D01*
X128571429Y-106761904D01*
X128761905Y-106809523D01*
X128857143Y-106857142D01*
X128904762Y-106904761D01*
X128952381Y-106999999D01*
X128952381Y-107095238D01*
X128904762Y-107190476D01*
X128857143Y-107238095D01*
X128761905Y-107285714D01*
X128571429Y-107333333D01*
X128333333Y-107333333D01*
X128142857Y-107285714D01*
X128047619Y-107238095D01*
X128000000Y-107190476D01*
X127952381Y-107095238D01*
D12*
X125714286Y-109273810D02*
X125666667Y-109250000D01*
X125619048Y-109202381D01*
X125547619Y-109130952D01*
X125500000Y-109107143D01*
X125452381Y-109107143D01*
X125476191Y-109226190D02*
X125428572Y-109202381D01*
X125380953Y-109154762D01*
X125357143Y-109059524D01*
X125357143Y-108892857D01*
X125380953Y-108797619D01*
X125428572Y-108750000D01*
X125476191Y-108726190D01*
X125571429Y-108726190D01*
X125619048Y-108750000D01*
X125666667Y-108797619D01*
X125690476Y-108892857D01*
X125690476Y-109059524D01*
X125666667Y-109154762D01*
X125619048Y-109202381D01*
X125571429Y-109226190D01*
X125476191Y-109226190D01*
X126166667Y-109226190D02*
X125880953Y-109226190D01*
X126023810Y-109226190D02*
X126023810Y-108726190D01*
X125976191Y-108797619D01*
X125928572Y-108845238D01*
X125880953Y-108869048D01*
X126642857Y-109226190D02*
X126357143Y-109226190D01*
X126500000Y-109226190D02*
X126500000Y-108726190D01*
X126452381Y-108797619D01*
X126404762Y-108845238D01*
X126357143Y-108869048D01*
D11*
X94142858Y-104928571D02*
X94285715Y-104976190D01*
X94333334Y-105023810D01*
X94380953Y-105119048D01*
X94380953Y-105261905D01*
X94333334Y-105357143D01*
X94285715Y-105404762D01*
X94190477Y-105452381D01*
X93809524Y-105452381D01*
X93809524Y-104452381D01*
X94142858Y-104452381D01*
X94238096Y-104500000D01*
X94285715Y-104547619D01*
X94333334Y-104642857D01*
X94333334Y-104738095D01*
X94285715Y-104833333D01*
X94238096Y-104880952D01*
X94142858Y-104928571D01*
X93809524Y-104928571D01*
X95380953Y-105357143D02*
X95333334Y-105404762D01*
X95190477Y-105452381D01*
X95095239Y-105452381D01*
X94952381Y-105404762D01*
X94857143Y-105309524D01*
X94809524Y-105214286D01*
X94761905Y-105023810D01*
X94761905Y-104880952D01*
X94809524Y-104690476D01*
X94857143Y-104595238D01*
X94952381Y-104500000D01*
X95095239Y-104452381D01*
X95190477Y-104452381D01*
X95333334Y-104500000D01*
X95380953Y-104547619D01*
X95952381Y-104880952D02*
X95857143Y-104833333D01*
X95809524Y-104785714D01*
X95761905Y-104690476D01*
X95761905Y-104642857D01*
X95809524Y-104547619D01*
X95857143Y-104500000D01*
X95952381Y-104452381D01*
X96142858Y-104452381D01*
X96238096Y-104500000D01*
X96285715Y-104547619D01*
X96333334Y-104642857D01*
X96333334Y-104690476D01*
X96285715Y-104785714D01*
X96238096Y-104833333D01*
X96142858Y-104880952D01*
X95952381Y-104880952D01*
X95857143Y-104928571D01*
X95809524Y-104976190D01*
X95761905Y-105071429D01*
X95761905Y-105261905D01*
X95809524Y-105357143D01*
X95857143Y-105404762D01*
X95952381Y-105452381D01*
X96142858Y-105452381D01*
X96238096Y-105404762D01*
X96285715Y-105357143D01*
X96333334Y-105261905D01*
X96333334Y-105071429D01*
X96285715Y-104976190D01*
X96238096Y-104928571D01*
X96142858Y-104880952D01*
X97238096Y-104452381D02*
X96761905Y-104452381D01*
X96714286Y-104928571D01*
X96761905Y-104880952D01*
X96857143Y-104833333D01*
X97095239Y-104833333D01*
X97190477Y-104880952D01*
X97238096Y-104928571D01*
X97285715Y-105023810D01*
X97285715Y-105261905D01*
X97238096Y-105357143D01*
X97190477Y-105404762D01*
X97095239Y-105452381D01*
X96857143Y-105452381D01*
X96761905Y-105404762D01*
X96714286Y-105357143D01*
X97904762Y-104452381D02*
X98000001Y-104452381D01*
X98095239Y-104500000D01*
X98142858Y-104547619D01*
X98190477Y-104642857D01*
X98238096Y-104833333D01*
X98238096Y-105071429D01*
X98190477Y-105261905D01*
X98142858Y-105357143D01*
X98095239Y-105404762D01*
X98000001Y-105452381D01*
X97904762Y-105452381D01*
X97809524Y-105404762D01*
X97761905Y-105357143D01*
X97714286Y-105261905D01*
X97666667Y-105071429D01*
X97666667Y-104833333D01*
X97714286Y-104642857D01*
X97761905Y-104547619D01*
X97809524Y-104500000D01*
X97904762Y-104452381D01*
D12*
X96273810Y-102785714D02*
X96250000Y-102833333D01*
X96202381Y-102880952D01*
X96130952Y-102952381D01*
X96107143Y-103000000D01*
X96107143Y-103047619D01*
X96226190Y-103023809D02*
X96202381Y-103071428D01*
X96154762Y-103119047D01*
X96059524Y-103142857D01*
X95892857Y-103142857D01*
X95797619Y-103119047D01*
X95750000Y-103071428D01*
X95726190Y-103023809D01*
X95726190Y-102928571D01*
X95750000Y-102880952D01*
X95797619Y-102833333D01*
X95892857Y-102809524D01*
X96059524Y-102809524D01*
X96154762Y-102833333D01*
X96202381Y-102880952D01*
X96226190Y-102928571D01*
X96226190Y-103023809D01*
X96226190Y-102333333D02*
X96226190Y-102619047D01*
X96226190Y-102476190D02*
X95726190Y-102476190D01*
X95797619Y-102523809D01*
X95845238Y-102571428D01*
X95869048Y-102619047D01*
X95773810Y-102142857D02*
X95750000Y-102119047D01*
X95726190Y-102071428D01*
X95726190Y-101952381D01*
X95750000Y-101904762D01*
X95773810Y-101880952D01*
X95821429Y-101857143D01*
X95869048Y-101857143D01*
X95940476Y-101880952D01*
X96226190Y-102166666D01*
X96226190Y-101857143D01*
D11*
X96928571Y-93357142D02*
X96976190Y-93214285D01*
X97023810Y-93166666D01*
X97119048Y-93119047D01*
X97261905Y-93119047D01*
X97357143Y-93166666D01*
X97404762Y-93214285D01*
X97452381Y-93309523D01*
X97452381Y-93690476D01*
X96452381Y-93690476D01*
X96452381Y-93357142D01*
X96500000Y-93261904D01*
X96547619Y-93214285D01*
X96642857Y-93166666D01*
X96738095Y-93166666D01*
X96833333Y-93214285D01*
X96880952Y-93261904D01*
X96928571Y-93357142D01*
X96928571Y-93690476D01*
X97357143Y-92119047D02*
X97404762Y-92166666D01*
X97452381Y-92309523D01*
X97452381Y-92404761D01*
X97404762Y-92547619D01*
X97309524Y-92642857D01*
X97214286Y-92690476D01*
X97023810Y-92738095D01*
X96880952Y-92738095D01*
X96690476Y-92690476D01*
X96595238Y-92642857D01*
X96500000Y-92547619D01*
X96452381Y-92404761D01*
X96452381Y-92309523D01*
X96500000Y-92166666D01*
X96547619Y-92119047D01*
X96880952Y-91547619D02*
X96833333Y-91642857D01*
X96785714Y-91690476D01*
X96690476Y-91738095D01*
X96642857Y-91738095D01*
X96547619Y-91690476D01*
X96500000Y-91642857D01*
X96452381Y-91547619D01*
X96452381Y-91357142D01*
X96500000Y-91261904D01*
X96547619Y-91214285D01*
X96642857Y-91166666D01*
X96690476Y-91166666D01*
X96785714Y-91214285D01*
X96833333Y-91261904D01*
X96880952Y-91357142D01*
X96880952Y-91547619D01*
X96928571Y-91642857D01*
X96976190Y-91690476D01*
X97071429Y-91738095D01*
X97261905Y-91738095D01*
X97357143Y-91690476D01*
X97404762Y-91642857D01*
X97452381Y-91547619D01*
X97452381Y-91357142D01*
X97404762Y-91261904D01*
X97357143Y-91214285D01*
X97261905Y-91166666D01*
X97071429Y-91166666D01*
X96976190Y-91214285D01*
X96928571Y-91261904D01*
X96880952Y-91357142D01*
X96452381Y-90261904D02*
X96452381Y-90738095D01*
X96928571Y-90785714D01*
X96880952Y-90738095D01*
X96833333Y-90642857D01*
X96833333Y-90404761D01*
X96880952Y-90309523D01*
X96928571Y-90261904D01*
X97023810Y-90214285D01*
X97261905Y-90214285D01*
X97357143Y-90261904D01*
X97404762Y-90309523D01*
X97452381Y-90404761D01*
X97452381Y-90642857D01*
X97404762Y-90738095D01*
X97357143Y-90785714D01*
X96452381Y-89595238D02*
X96452381Y-89499999D01*
X96500000Y-89404761D01*
X96547619Y-89357142D01*
X96642857Y-89309523D01*
X96833333Y-89261904D01*
X97071429Y-89261904D01*
X97261905Y-89309523D01*
X97357143Y-89357142D01*
X97404762Y-89404761D01*
X97452381Y-89499999D01*
X97452381Y-89595238D01*
X97404762Y-89690476D01*
X97357143Y-89738095D01*
X97261905Y-89785714D01*
X97071429Y-89833333D01*
X96833333Y-89833333D01*
X96642857Y-89785714D01*
X96547619Y-89738095D01*
X96500000Y-89690476D01*
X96452381Y-89595238D01*
D12*
X99214286Y-91773810D02*
X99166667Y-91750000D01*
X99119048Y-91702381D01*
X99047619Y-91630952D01*
X99000000Y-91607143D01*
X98952381Y-91607143D01*
X98976191Y-91726190D02*
X98928572Y-91702381D01*
X98880953Y-91654762D01*
X98857143Y-91559524D01*
X98857143Y-91392857D01*
X98880953Y-91297619D01*
X98928572Y-91250000D01*
X98976191Y-91226190D01*
X99071429Y-91226190D01*
X99119048Y-91250000D01*
X99166667Y-91297619D01*
X99190476Y-91392857D01*
X99190476Y-91559524D01*
X99166667Y-91654762D01*
X99119048Y-91702381D01*
X99071429Y-91726190D01*
X98976191Y-91726190D01*
X99666667Y-91726190D02*
X99380953Y-91726190D01*
X99523810Y-91726190D02*
X99523810Y-91226190D01*
X99476191Y-91297619D01*
X99428572Y-91345238D01*
X99380953Y-91369048D01*
X99833334Y-91226190D02*
X100142857Y-91226190D01*
X99976191Y-91416667D01*
X100047619Y-91416667D01*
X100095238Y-91440476D01*
X100119048Y-91464286D01*
X100142857Y-91511905D01*
X100142857Y-91630952D01*
X100119048Y-91678571D01*
X100095238Y-91702381D01*
X100047619Y-91726190D01*
X99904762Y-91726190D01*
X99857143Y-91702381D01*
X99833334Y-91678571D01*
D11*
X94142858Y-100928571D02*
X94285715Y-100976190D01*
X94333334Y-101023810D01*
X94380953Y-101119048D01*
X94380953Y-101261905D01*
X94333334Y-101357143D01*
X94285715Y-101404762D01*
X94190477Y-101452381D01*
X93809524Y-101452381D01*
X93809524Y-100452381D01*
X94142858Y-100452381D01*
X94238096Y-100500000D01*
X94285715Y-100547619D01*
X94333334Y-100642857D01*
X94333334Y-100738095D01*
X94285715Y-100833333D01*
X94238096Y-100880952D01*
X94142858Y-100928571D01*
X93809524Y-100928571D01*
X95380953Y-101357143D02*
X95333334Y-101404762D01*
X95190477Y-101452381D01*
X95095239Y-101452381D01*
X94952381Y-101404762D01*
X94857143Y-101309524D01*
X94809524Y-101214286D01*
X94761905Y-101023810D01*
X94761905Y-100880952D01*
X94809524Y-100690476D01*
X94857143Y-100595238D01*
X94952381Y-100500000D01*
X95095239Y-100452381D01*
X95190477Y-100452381D01*
X95333334Y-100500000D01*
X95380953Y-100547619D01*
X95952381Y-100880952D02*
X95857143Y-100833333D01*
X95809524Y-100785714D01*
X95761905Y-100690476D01*
X95761905Y-100642857D01*
X95809524Y-100547619D01*
X95857143Y-100500000D01*
X95952381Y-100452381D01*
X96142858Y-100452381D01*
X96238096Y-100500000D01*
X96285715Y-100547619D01*
X96333334Y-100642857D01*
X96333334Y-100690476D01*
X96285715Y-100785714D01*
X96238096Y-100833333D01*
X96142858Y-100880952D01*
X95952381Y-100880952D01*
X95857143Y-100928571D01*
X95809524Y-100976190D01*
X95761905Y-101071429D01*
X95761905Y-101261905D01*
X95809524Y-101357143D01*
X95857143Y-101404762D01*
X95952381Y-101452381D01*
X96142858Y-101452381D01*
X96238096Y-101404762D01*
X96285715Y-101357143D01*
X96333334Y-101261905D01*
X96333334Y-101071429D01*
X96285715Y-100976190D01*
X96238096Y-100928571D01*
X96142858Y-100880952D01*
X97238096Y-100452381D02*
X96761905Y-100452381D01*
X96714286Y-100928571D01*
X96761905Y-100880952D01*
X96857143Y-100833333D01*
X97095239Y-100833333D01*
X97190477Y-100880952D01*
X97238096Y-100928571D01*
X97285715Y-101023810D01*
X97285715Y-101261905D01*
X97238096Y-101357143D01*
X97190477Y-101404762D01*
X97095239Y-101452381D01*
X96857143Y-101452381D01*
X96761905Y-101404762D01*
X96714286Y-101357143D01*
X97904762Y-100452381D02*
X98000001Y-100452381D01*
X98095239Y-100500000D01*
X98142858Y-100547619D01*
X98190477Y-100642857D01*
X98238096Y-100833333D01*
X98238096Y-101071429D01*
X98190477Y-101261905D01*
X98142858Y-101357143D01*
X98095239Y-101404762D01*
X98000001Y-101452381D01*
X97904762Y-101452381D01*
X97809524Y-101404762D01*
X97761905Y-101357143D01*
X97714286Y-101261905D01*
X97666667Y-101071429D01*
X97666667Y-100833333D01*
X97714286Y-100642857D01*
X97761905Y-100547619D01*
X97809524Y-100500000D01*
X97904762Y-100452381D01*
D12*
X96273810Y-98785714D02*
X96250000Y-98833333D01*
X96202381Y-98880952D01*
X96130952Y-98952381D01*
X96107143Y-99000000D01*
X96107143Y-99047619D01*
X96226190Y-99023809D02*
X96202381Y-99071428D01*
X96154762Y-99119047D01*
X96059524Y-99142857D01*
X95892857Y-99142857D01*
X95797619Y-99119047D01*
X95750000Y-99071428D01*
X95726190Y-99023809D01*
X95726190Y-98928571D01*
X95750000Y-98880952D01*
X95797619Y-98833333D01*
X95892857Y-98809524D01*
X96059524Y-98809524D01*
X96154762Y-98833333D01*
X96202381Y-98880952D01*
X96226190Y-98928571D01*
X96226190Y-99023809D01*
X96226190Y-98333333D02*
X96226190Y-98619047D01*
X96226190Y-98476190D02*
X95726190Y-98476190D01*
X95797619Y-98523809D01*
X95845238Y-98571428D01*
X95869048Y-98619047D01*
X95892857Y-97904762D02*
X96226190Y-97904762D01*
X95702381Y-98023809D02*
X96059524Y-98142857D01*
X96059524Y-97833333D01*
D11*
X91428571Y-92357142D02*
X91476190Y-92214285D01*
X91523810Y-92166666D01*
X91619048Y-92119047D01*
X91761905Y-92119047D01*
X91857143Y-92166666D01*
X91904762Y-92214285D01*
X91952381Y-92309523D01*
X91952381Y-92690476D01*
X90952381Y-92690476D01*
X90952381Y-92357142D01*
X91000000Y-92261904D01*
X91047619Y-92214285D01*
X91142857Y-92166666D01*
X91238095Y-92166666D01*
X91333333Y-92214285D01*
X91380952Y-92261904D01*
X91428571Y-92357142D01*
X91428571Y-92690476D01*
X91857143Y-91119047D02*
X91904762Y-91166666D01*
X91952381Y-91309523D01*
X91952381Y-91404761D01*
X91904762Y-91547619D01*
X91809524Y-91642857D01*
X91714286Y-91690476D01*
X91523810Y-91738095D01*
X91380952Y-91738095D01*
X91190476Y-91690476D01*
X91095238Y-91642857D01*
X91000000Y-91547619D01*
X90952381Y-91404761D01*
X90952381Y-91309523D01*
X91000000Y-91166666D01*
X91047619Y-91119047D01*
X91380952Y-90547619D02*
X91333333Y-90642857D01*
X91285714Y-90690476D01*
X91190476Y-90738095D01*
X91142857Y-90738095D01*
X91047619Y-90690476D01*
X91000000Y-90642857D01*
X90952381Y-90547619D01*
X90952381Y-90357142D01*
X91000000Y-90261904D01*
X91047619Y-90214285D01*
X91142857Y-90166666D01*
X91190476Y-90166666D01*
X91285714Y-90214285D01*
X91333333Y-90261904D01*
X91380952Y-90357142D01*
X91380952Y-90547619D01*
X91428571Y-90642857D01*
X91476190Y-90690476D01*
X91571429Y-90738095D01*
X91761905Y-90738095D01*
X91857143Y-90690476D01*
X91904762Y-90642857D01*
X91952381Y-90547619D01*
X91952381Y-90357142D01*
X91904762Y-90261904D01*
X91857143Y-90214285D01*
X91761905Y-90166666D01*
X91571429Y-90166666D01*
X91476190Y-90214285D01*
X91428571Y-90261904D01*
X91380952Y-90357142D01*
X90952381Y-89261904D02*
X90952381Y-89738095D01*
X91428571Y-89785714D01*
X91380952Y-89738095D01*
X91333333Y-89642857D01*
X91333333Y-89404761D01*
X91380952Y-89309523D01*
X91428571Y-89261904D01*
X91523810Y-89214285D01*
X91761905Y-89214285D01*
X91857143Y-89261904D01*
X91904762Y-89309523D01*
X91952381Y-89404761D01*
X91952381Y-89642857D01*
X91904762Y-89738095D01*
X91857143Y-89785714D01*
X90952381Y-88595238D02*
X90952381Y-88499999D01*
X91000000Y-88404761D01*
X91047619Y-88357142D01*
X91142857Y-88309523D01*
X91333333Y-88261904D01*
X91571429Y-88261904D01*
X91761905Y-88309523D01*
X91857143Y-88357142D01*
X91904762Y-88404761D01*
X91952381Y-88499999D01*
X91952381Y-88595238D01*
X91904762Y-88690476D01*
X91857143Y-88738095D01*
X91761905Y-88785714D01*
X91571429Y-88833333D01*
X91333333Y-88833333D01*
X91142857Y-88785714D01*
X91047619Y-88738095D01*
X91000000Y-88690476D01*
X90952381Y-88595238D01*
D12*
X93714286Y-90773810D02*
X93666667Y-90750000D01*
X93619048Y-90702381D01*
X93547619Y-90630952D01*
X93500000Y-90607143D01*
X93452381Y-90607143D01*
X93476191Y-90726190D02*
X93428572Y-90702381D01*
X93380953Y-90654762D01*
X93357143Y-90559524D01*
X93357143Y-90392857D01*
X93380953Y-90297619D01*
X93428572Y-90250000D01*
X93476191Y-90226190D01*
X93571429Y-90226190D01*
X93619048Y-90250000D01*
X93666667Y-90297619D01*
X93690476Y-90392857D01*
X93690476Y-90559524D01*
X93666667Y-90654762D01*
X93619048Y-90702381D01*
X93571429Y-90726190D01*
X93476191Y-90726190D01*
X94166667Y-90726190D02*
X93880953Y-90726190D01*
X94023810Y-90726190D02*
X94023810Y-90226190D01*
X93976191Y-90297619D01*
X93928572Y-90345238D01*
X93880953Y-90369048D01*
X94619048Y-90226190D02*
X94380953Y-90226190D01*
X94357143Y-90464286D01*
X94380953Y-90440476D01*
X94428572Y-90416667D01*
X94547619Y-90416667D01*
X94595238Y-90440476D01*
X94619048Y-90464286D01*
X94642857Y-90511905D01*
X94642857Y-90630952D01*
X94619048Y-90678571D01*
X94595238Y-90702381D01*
X94547619Y-90726190D01*
X94428572Y-90726190D01*
X94380953Y-90702381D01*
X94357143Y-90678571D01*
D11*
X100928571Y-93357142D02*
X100976190Y-93214285D01*
X101023810Y-93166666D01*
X101119048Y-93119047D01*
X101261905Y-93119047D01*
X101357143Y-93166666D01*
X101404762Y-93214285D01*
X101452381Y-93309523D01*
X101452381Y-93690476D01*
X100452381Y-93690476D01*
X100452381Y-93357142D01*
X100500000Y-93261904D01*
X100547619Y-93214285D01*
X100642857Y-93166666D01*
X100738095Y-93166666D01*
X100833333Y-93214285D01*
X100880952Y-93261904D01*
X100928571Y-93357142D01*
X100928571Y-93690476D01*
X101357143Y-92119047D02*
X101404762Y-92166666D01*
X101452381Y-92309523D01*
X101452381Y-92404761D01*
X101404762Y-92547619D01*
X101309524Y-92642857D01*
X101214286Y-92690476D01*
X101023810Y-92738095D01*
X100880952Y-92738095D01*
X100690476Y-92690476D01*
X100595238Y-92642857D01*
X100500000Y-92547619D01*
X100452381Y-92404761D01*
X100452381Y-92309523D01*
X100500000Y-92166666D01*
X100547619Y-92119047D01*
X100880952Y-91547619D02*
X100833333Y-91642857D01*
X100785714Y-91690476D01*
X100690476Y-91738095D01*
X100642857Y-91738095D01*
X100547619Y-91690476D01*
X100500000Y-91642857D01*
X100452381Y-91547619D01*
X100452381Y-91357142D01*
X100500000Y-91261904D01*
X100547619Y-91214285D01*
X100642857Y-91166666D01*
X100690476Y-91166666D01*
X100785714Y-91214285D01*
X100833333Y-91261904D01*
X100880952Y-91357142D01*
X100880952Y-91547619D01*
X100928571Y-91642857D01*
X100976190Y-91690476D01*
X101071429Y-91738095D01*
X101261905Y-91738095D01*
X101357143Y-91690476D01*
X101404762Y-91642857D01*
X101452381Y-91547619D01*
X101452381Y-91357142D01*
X101404762Y-91261904D01*
X101357143Y-91214285D01*
X101261905Y-91166666D01*
X101071429Y-91166666D01*
X100976190Y-91214285D01*
X100928571Y-91261904D01*
X100880952Y-91357142D01*
X100452381Y-90261904D02*
X100452381Y-90738095D01*
X100928571Y-90785714D01*
X100880952Y-90738095D01*
X100833333Y-90642857D01*
X100833333Y-90404761D01*
X100880952Y-90309523D01*
X100928571Y-90261904D01*
X101023810Y-90214285D01*
X101261905Y-90214285D01*
X101357143Y-90261904D01*
X101404762Y-90309523D01*
X101452381Y-90404761D01*
X101452381Y-90642857D01*
X101404762Y-90738095D01*
X101357143Y-90785714D01*
X100452381Y-89595238D02*
X100452381Y-89499999D01*
X100500000Y-89404761D01*
X100547619Y-89357142D01*
X100642857Y-89309523D01*
X100833333Y-89261904D01*
X101071429Y-89261904D01*
X101261905Y-89309523D01*
X101357143Y-89357142D01*
X101404762Y-89404761D01*
X101452381Y-89499999D01*
X101452381Y-89595238D01*
X101404762Y-89690476D01*
X101357143Y-89738095D01*
X101261905Y-89785714D01*
X101071429Y-89833333D01*
X100833333Y-89833333D01*
X100642857Y-89785714D01*
X100547619Y-89738095D01*
X100500000Y-89690476D01*
X100452381Y-89595238D01*
D12*
X103214286Y-91773810D02*
X103166667Y-91750000D01*
X103119048Y-91702381D01*
X103047619Y-91630952D01*
X103000000Y-91607143D01*
X102952381Y-91607143D01*
X102976191Y-91726190D02*
X102928572Y-91702381D01*
X102880953Y-91654762D01*
X102857143Y-91559524D01*
X102857143Y-91392857D01*
X102880953Y-91297619D01*
X102928572Y-91250000D01*
X102976191Y-91226190D01*
X103071429Y-91226190D01*
X103119048Y-91250000D01*
X103166667Y-91297619D01*
X103190476Y-91392857D01*
X103190476Y-91559524D01*
X103166667Y-91654762D01*
X103119048Y-91702381D01*
X103071429Y-91726190D01*
X102976191Y-91726190D01*
X103666667Y-91726190D02*
X103380953Y-91726190D01*
X103523810Y-91726190D02*
X103523810Y-91226190D01*
X103476191Y-91297619D01*
X103428572Y-91345238D01*
X103380953Y-91369048D01*
X104095238Y-91226190D02*
X104000000Y-91226190D01*
X103952381Y-91250000D01*
X103928572Y-91273810D01*
X103880953Y-91345238D01*
X103857143Y-91440476D01*
X103857143Y-91630952D01*
X103880953Y-91678571D01*
X103904762Y-91702381D01*
X103952381Y-91726190D01*
X104047619Y-91726190D01*
X104095238Y-91702381D01*
X104119048Y-91678571D01*
X104142857Y-91630952D01*
X104142857Y-91511905D01*
X104119048Y-91464286D01*
X104095238Y-91440476D01*
X104047619Y-91416667D01*
X103952381Y-91416667D01*
X103904762Y-91440476D01*
X103880953Y-91464286D01*
X103857143Y-91511905D01*
D11*
X104928571Y-93357142D02*
X104976190Y-93214285D01*
X105023810Y-93166666D01*
X105119048Y-93119047D01*
X105261905Y-93119047D01*
X105357143Y-93166666D01*
X105404762Y-93214285D01*
X105452381Y-93309523D01*
X105452381Y-93690476D01*
X104452381Y-93690476D01*
X104452381Y-93357142D01*
X104500000Y-93261904D01*
X104547619Y-93214285D01*
X104642857Y-93166666D01*
X104738095Y-93166666D01*
X104833333Y-93214285D01*
X104880952Y-93261904D01*
X104928571Y-93357142D01*
X104928571Y-93690476D01*
X105357143Y-92119047D02*
X105404762Y-92166666D01*
X105452381Y-92309523D01*
X105452381Y-92404761D01*
X105404762Y-92547619D01*
X105309524Y-92642857D01*
X105214286Y-92690476D01*
X105023810Y-92738095D01*
X104880952Y-92738095D01*
X104690476Y-92690476D01*
X104595238Y-92642857D01*
X104500000Y-92547619D01*
X104452381Y-92404761D01*
X104452381Y-92309523D01*
X104500000Y-92166666D01*
X104547619Y-92119047D01*
X104880952Y-91547619D02*
X104833333Y-91642857D01*
X104785714Y-91690476D01*
X104690476Y-91738095D01*
X104642857Y-91738095D01*
X104547619Y-91690476D01*
X104500000Y-91642857D01*
X104452381Y-91547619D01*
X104452381Y-91357142D01*
X104500000Y-91261904D01*
X104547619Y-91214285D01*
X104642857Y-91166666D01*
X104690476Y-91166666D01*
X104785714Y-91214285D01*
X104833333Y-91261904D01*
X104880952Y-91357142D01*
X104880952Y-91547619D01*
X104928571Y-91642857D01*
X104976190Y-91690476D01*
X105071429Y-91738095D01*
X105261905Y-91738095D01*
X105357143Y-91690476D01*
X105404762Y-91642857D01*
X105452381Y-91547619D01*
X105452381Y-91357142D01*
X105404762Y-91261904D01*
X105357143Y-91214285D01*
X105261905Y-91166666D01*
X105071429Y-91166666D01*
X104976190Y-91214285D01*
X104928571Y-91261904D01*
X104880952Y-91357142D01*
X104452381Y-90261904D02*
X104452381Y-90738095D01*
X104928571Y-90785714D01*
X104880952Y-90738095D01*
X104833333Y-90642857D01*
X104833333Y-90404761D01*
X104880952Y-90309523D01*
X104928571Y-90261904D01*
X105023810Y-90214285D01*
X105261905Y-90214285D01*
X105357143Y-90261904D01*
X105404762Y-90309523D01*
X105452381Y-90404761D01*
X105452381Y-90642857D01*
X105404762Y-90738095D01*
X105357143Y-90785714D01*
X104452381Y-89595238D02*
X104452381Y-89499999D01*
X104500000Y-89404761D01*
X104547619Y-89357142D01*
X104642857Y-89309523D01*
X104833333Y-89261904D01*
X105071429Y-89261904D01*
X105261905Y-89309523D01*
X105357143Y-89357142D01*
X105404762Y-89404761D01*
X105452381Y-89499999D01*
X105452381Y-89595238D01*
X105404762Y-89690476D01*
X105357143Y-89738095D01*
X105261905Y-89785714D01*
X105071429Y-89833333D01*
X104833333Y-89833333D01*
X104642857Y-89785714D01*
X104547619Y-89738095D01*
X104500000Y-89690476D01*
X104452381Y-89595238D01*
D12*
X107214286Y-91773810D02*
X107166667Y-91750000D01*
X107119048Y-91702381D01*
X107047619Y-91630952D01*
X107000000Y-91607143D01*
X106952381Y-91607143D01*
X106976191Y-91726190D02*
X106928572Y-91702381D01*
X106880953Y-91654762D01*
X106857143Y-91559524D01*
X106857143Y-91392857D01*
X106880953Y-91297619D01*
X106928572Y-91250000D01*
X106976191Y-91226190D01*
X107071429Y-91226190D01*
X107119048Y-91250000D01*
X107166667Y-91297619D01*
X107190476Y-91392857D01*
X107190476Y-91559524D01*
X107166667Y-91654762D01*
X107119048Y-91702381D01*
X107071429Y-91726190D01*
X106976191Y-91726190D01*
X107666667Y-91726190D02*
X107380953Y-91726190D01*
X107523810Y-91726190D02*
X107523810Y-91226190D01*
X107476191Y-91297619D01*
X107428572Y-91345238D01*
X107380953Y-91369048D01*
X107833334Y-91226190D02*
X108166667Y-91226190D01*
X107952381Y-91726190D01*
D11*
X109428571Y-93357142D02*
X109476190Y-93214285D01*
X109523810Y-93166666D01*
X109619048Y-93119047D01*
X109761905Y-93119047D01*
X109857143Y-93166666D01*
X109904762Y-93214285D01*
X109952381Y-93309523D01*
X109952381Y-93690476D01*
X108952381Y-93690476D01*
X108952381Y-93357142D01*
X109000000Y-93261904D01*
X109047619Y-93214285D01*
X109142857Y-93166666D01*
X109238095Y-93166666D01*
X109333333Y-93214285D01*
X109380952Y-93261904D01*
X109428571Y-93357142D01*
X109428571Y-93690476D01*
X109857143Y-92119047D02*
X109904762Y-92166666D01*
X109952381Y-92309523D01*
X109952381Y-92404761D01*
X109904762Y-92547619D01*
X109809524Y-92642857D01*
X109714286Y-92690476D01*
X109523810Y-92738095D01*
X109380952Y-92738095D01*
X109190476Y-92690476D01*
X109095238Y-92642857D01*
X109000000Y-92547619D01*
X108952381Y-92404761D01*
X108952381Y-92309523D01*
X109000000Y-92166666D01*
X109047619Y-92119047D01*
X109380952Y-91547619D02*
X109333333Y-91642857D01*
X109285714Y-91690476D01*
X109190476Y-91738095D01*
X109142857Y-91738095D01*
X109047619Y-91690476D01*
X109000000Y-91642857D01*
X108952381Y-91547619D01*
X108952381Y-91357142D01*
X109000000Y-91261904D01*
X109047619Y-91214285D01*
X109142857Y-91166666D01*
X109190476Y-91166666D01*
X109285714Y-91214285D01*
X109333333Y-91261904D01*
X109380952Y-91357142D01*
X109380952Y-91547619D01*
X109428571Y-91642857D01*
X109476190Y-91690476D01*
X109571429Y-91738095D01*
X109761905Y-91738095D01*
X109857143Y-91690476D01*
X109904762Y-91642857D01*
X109952381Y-91547619D01*
X109952381Y-91357142D01*
X109904762Y-91261904D01*
X109857143Y-91214285D01*
X109761905Y-91166666D01*
X109571429Y-91166666D01*
X109476190Y-91214285D01*
X109428571Y-91261904D01*
X109380952Y-91357142D01*
X108952381Y-90261904D02*
X108952381Y-90738095D01*
X109428571Y-90785714D01*
X109380952Y-90738095D01*
X109333333Y-90642857D01*
X109333333Y-90404761D01*
X109380952Y-90309523D01*
X109428571Y-90261904D01*
X109523810Y-90214285D01*
X109761905Y-90214285D01*
X109857143Y-90261904D01*
X109904762Y-90309523D01*
X109952381Y-90404761D01*
X109952381Y-90642857D01*
X109904762Y-90738095D01*
X109857143Y-90785714D01*
X108952381Y-89595238D02*
X108952381Y-89499999D01*
X109000000Y-89404761D01*
X109047619Y-89357142D01*
X109142857Y-89309523D01*
X109333333Y-89261904D01*
X109571429Y-89261904D01*
X109761905Y-89309523D01*
X109857143Y-89357142D01*
X109904762Y-89404761D01*
X109952381Y-89499999D01*
X109952381Y-89595238D01*
X109904762Y-89690476D01*
X109857143Y-89738095D01*
X109761905Y-89785714D01*
X109571429Y-89833333D01*
X109333333Y-89833333D01*
X109142857Y-89785714D01*
X109047619Y-89738095D01*
X109000000Y-89690476D01*
X108952381Y-89595238D01*
D12*
X111714286Y-91773810D02*
X111666667Y-91750000D01*
X111619048Y-91702381D01*
X111547619Y-91630952D01*
X111500000Y-91607143D01*
X111452381Y-91607143D01*
X111476191Y-91726190D02*
X111428572Y-91702381D01*
X111380953Y-91654762D01*
X111357143Y-91559524D01*
X111357143Y-91392857D01*
X111380953Y-91297619D01*
X111428572Y-91250000D01*
X111476191Y-91226190D01*
X111571429Y-91226190D01*
X111619048Y-91250000D01*
X111666667Y-91297619D01*
X111690476Y-91392857D01*
X111690476Y-91559524D01*
X111666667Y-91654762D01*
X111619048Y-91702381D01*
X111571429Y-91726190D01*
X111476191Y-91726190D01*
X112166667Y-91726190D02*
X111880953Y-91726190D01*
X112023810Y-91726190D02*
X112023810Y-91226190D01*
X111976191Y-91297619D01*
X111928572Y-91345238D01*
X111880953Y-91369048D01*
X112452381Y-91440476D02*
X112404762Y-91416667D01*
X112380953Y-91392857D01*
X112357143Y-91345238D01*
X112357143Y-91321429D01*
X112380953Y-91273810D01*
X112404762Y-91250000D01*
X112452381Y-91226190D01*
X112547619Y-91226190D01*
X112595238Y-91250000D01*
X112619048Y-91273810D01*
X112642857Y-91321429D01*
X112642857Y-91345238D01*
X112619048Y-91392857D01*
X112595238Y-91416667D01*
X112547619Y-91440476D01*
X112452381Y-91440476D01*
X112404762Y-91464286D01*
X112380953Y-91488095D01*
X112357143Y-91535714D01*
X112357143Y-91630952D01*
X112380953Y-91678571D01*
X112404762Y-91702381D01*
X112452381Y-91726190D01*
X112547619Y-91726190D01*
X112595238Y-91702381D01*
X112619048Y-91678571D01*
X112642857Y-91630952D01*
X112642857Y-91535714D01*
X112619048Y-91488095D01*
X112595238Y-91464286D01*
X112547619Y-91440476D01*
X112214286Y-97273810D02*
X112166667Y-97250000D01*
X112119048Y-97202381D01*
X112047619Y-97130952D01*
X112000000Y-97107143D01*
X111952381Y-97107143D01*
X111976191Y-97226190D02*
X111928572Y-97202381D01*
X111880953Y-97154762D01*
X111857143Y-97059524D01*
X111857143Y-96892857D01*
X111880953Y-96797619D01*
X111928572Y-96750000D01*
X111976191Y-96726190D01*
X112071429Y-96726190D01*
X112119048Y-96750000D01*
X112166667Y-96797619D01*
X112190476Y-96892857D01*
X112190476Y-97059524D01*
X112166667Y-97154762D01*
X112119048Y-97202381D01*
X112071429Y-97226190D01*
X111976191Y-97226190D01*
X112666667Y-97226190D02*
X112380953Y-97226190D01*
X112523810Y-97226190D02*
X112523810Y-96726190D01*
X112476191Y-96797619D01*
X112428572Y-96845238D01*
X112380953Y-96869048D01*
X112904762Y-97226190D02*
X113000000Y-97226190D01*
X113047619Y-97202381D01*
X113071429Y-97178571D01*
X113119048Y-97107143D01*
X113142857Y-97011905D01*
X113142857Y-96821429D01*
X113119048Y-96773810D01*
X113095238Y-96750000D01*
X113047619Y-96726190D01*
X112952381Y-96726190D01*
X112904762Y-96750000D01*
X112880953Y-96773810D01*
X112857143Y-96821429D01*
X112857143Y-96940476D01*
X112880953Y-96988095D01*
X112904762Y-97011905D01*
X112952381Y-97035714D01*
X113047619Y-97035714D01*
X113095238Y-97011905D01*
X113119048Y-96988095D01*
X113142857Y-96940476D01*
D11*
X108928571Y-114357142D02*
X108976190Y-114214285D01*
X109023810Y-114166666D01*
X109119048Y-114119047D01*
X109261905Y-114119047D01*
X109357143Y-114166666D01*
X109404762Y-114214285D01*
X109452381Y-114309523D01*
X109452381Y-114690476D01*
X108452381Y-114690476D01*
X108452381Y-114357142D01*
X108500000Y-114261904D01*
X108547619Y-114214285D01*
X108642857Y-114166666D01*
X108738095Y-114166666D01*
X108833333Y-114214285D01*
X108880952Y-114261904D01*
X108928571Y-114357142D01*
X108928571Y-114690476D01*
X109357143Y-113119047D02*
X109404762Y-113166666D01*
X109452381Y-113309523D01*
X109452381Y-113404761D01*
X109404762Y-113547619D01*
X109309524Y-113642857D01*
X109214286Y-113690476D01*
X109023810Y-113738095D01*
X108880952Y-113738095D01*
X108690476Y-113690476D01*
X108595238Y-113642857D01*
X108500000Y-113547619D01*
X108452381Y-113404761D01*
X108452381Y-113309523D01*
X108500000Y-113166666D01*
X108547619Y-113119047D01*
X108880952Y-112547619D02*
X108833333Y-112642857D01*
X108785714Y-112690476D01*
X108690476Y-112738095D01*
X108642857Y-112738095D01*
X108547619Y-112690476D01*
X108500000Y-112642857D01*
X108452381Y-112547619D01*
X108452381Y-112357142D01*
X108500000Y-112261904D01*
X108547619Y-112214285D01*
X108642857Y-112166666D01*
X108690476Y-112166666D01*
X108785714Y-112214285D01*
X108833333Y-112261904D01*
X108880952Y-112357142D01*
X108880952Y-112547619D01*
X108928571Y-112642857D01*
X108976190Y-112690476D01*
X109071429Y-112738095D01*
X109261905Y-112738095D01*
X109357143Y-112690476D01*
X109404762Y-112642857D01*
X109452381Y-112547619D01*
X109452381Y-112357142D01*
X109404762Y-112261904D01*
X109357143Y-112214285D01*
X109261905Y-112166666D01*
X109071429Y-112166666D01*
X108976190Y-112214285D01*
X108928571Y-112261904D01*
X108880952Y-112357142D01*
X108452381Y-111261904D02*
X108452381Y-111738095D01*
X108928571Y-111785714D01*
X108880952Y-111738095D01*
X108833333Y-111642857D01*
X108833333Y-111404761D01*
X108880952Y-111309523D01*
X108928571Y-111261904D01*
X109023810Y-111214285D01*
X109261905Y-111214285D01*
X109357143Y-111261904D01*
X109404762Y-111309523D01*
X109452381Y-111404761D01*
X109452381Y-111642857D01*
X109404762Y-111738095D01*
X109357143Y-111785714D01*
X108452381Y-110595238D02*
X108452381Y-110499999D01*
X108500000Y-110404761D01*
X108547619Y-110357142D01*
X108642857Y-110309523D01*
X108833333Y-110261904D01*
X109071429Y-110261904D01*
X109261905Y-110309523D01*
X109357143Y-110357142D01*
X109404762Y-110404761D01*
X109452381Y-110499999D01*
X109452381Y-110595238D01*
X109404762Y-110690476D01*
X109357143Y-110738095D01*
X109261905Y-110785714D01*
X109071429Y-110833333D01*
X108833333Y-110833333D01*
X108642857Y-110785714D01*
X108547619Y-110738095D01*
X108500000Y-110690476D01*
X108452381Y-110595238D01*
D12*
X106214286Y-112773810D02*
X106166667Y-112750000D01*
X106119048Y-112702381D01*
X106047619Y-112630952D01*
X106000000Y-112607143D01*
X105952381Y-112607143D01*
X105976191Y-112726190D02*
X105928572Y-112702381D01*
X105880953Y-112654762D01*
X105857143Y-112559524D01*
X105857143Y-112392857D01*
X105880953Y-112297619D01*
X105928572Y-112250000D01*
X105976191Y-112226190D01*
X106071429Y-112226190D01*
X106119048Y-112250000D01*
X106166667Y-112297619D01*
X106190476Y-112392857D01*
X106190476Y-112559524D01*
X106166667Y-112654762D01*
X106119048Y-112702381D01*
X106071429Y-112726190D01*
X105976191Y-112726190D01*
X106380953Y-112273810D02*
X106404763Y-112250000D01*
X106452382Y-112226190D01*
X106571429Y-112226190D01*
X106619048Y-112250000D01*
X106642858Y-112273810D01*
X106666667Y-112321429D01*
X106666667Y-112369048D01*
X106642858Y-112440476D01*
X106357144Y-112726190D01*
X106666667Y-112726190D01*
X106976191Y-112226190D02*
X107023810Y-112226190D01*
X107071429Y-112250000D01*
X107095238Y-112273810D01*
X107119048Y-112321429D01*
X107142857Y-112416667D01*
X107142857Y-112535714D01*
X107119048Y-112630952D01*
X107095238Y-112678571D01*
X107071429Y-112702381D01*
X107023810Y-112726190D01*
X106976191Y-112726190D01*
X106928572Y-112702381D01*
X106904762Y-112678571D01*
X106880953Y-112630952D01*
X106857143Y-112535714D01*
X106857143Y-112416667D01*
X106880953Y-112321429D01*
X106904762Y-112273810D01*
X106928572Y-112250000D01*
X106976191Y-112226190D01*
D11*
X104428571Y-116857142D02*
X104476190Y-116714285D01*
X104523810Y-116666666D01*
X104619048Y-116619047D01*
X104761905Y-116619047D01*
X104857143Y-116666666D01*
X104904762Y-116714285D01*
X104952381Y-116809523D01*
X104952381Y-117190476D01*
X103952381Y-117190476D01*
X103952381Y-116857142D01*
X104000000Y-116761904D01*
X104047619Y-116714285D01*
X104142857Y-116666666D01*
X104238095Y-116666666D01*
X104333333Y-116714285D01*
X104380952Y-116761904D01*
X104428571Y-116857142D01*
X104428571Y-117190476D01*
X104857143Y-115619047D02*
X104904762Y-115666666D01*
X104952381Y-115809523D01*
X104952381Y-115904761D01*
X104904762Y-116047619D01*
X104809524Y-116142857D01*
X104714286Y-116190476D01*
X104523810Y-116238095D01*
X104380952Y-116238095D01*
X104190476Y-116190476D01*
X104095238Y-116142857D01*
X104000000Y-116047619D01*
X103952381Y-115904761D01*
X103952381Y-115809523D01*
X104000000Y-115666666D01*
X104047619Y-115619047D01*
X104380952Y-115047619D02*
X104333333Y-115142857D01*
X104285714Y-115190476D01*
X104190476Y-115238095D01*
X104142857Y-115238095D01*
X104047619Y-115190476D01*
X104000000Y-115142857D01*
X103952381Y-115047619D01*
X103952381Y-114857142D01*
X104000000Y-114761904D01*
X104047619Y-114714285D01*
X104142857Y-114666666D01*
X104190476Y-114666666D01*
X104285714Y-114714285D01*
X104333333Y-114761904D01*
X104380952Y-114857142D01*
X104380952Y-115047619D01*
X104428571Y-115142857D01*
X104476190Y-115190476D01*
X104571429Y-115238095D01*
X104761905Y-115238095D01*
X104857143Y-115190476D01*
X104904762Y-115142857D01*
X104952381Y-115047619D01*
X104952381Y-114857142D01*
X104904762Y-114761904D01*
X104857143Y-114714285D01*
X104761905Y-114666666D01*
X104571429Y-114666666D01*
X104476190Y-114714285D01*
X104428571Y-114761904D01*
X104380952Y-114857142D01*
X103952381Y-113761904D02*
X103952381Y-114238095D01*
X104428571Y-114285714D01*
X104380952Y-114238095D01*
X104333333Y-114142857D01*
X104333333Y-113904761D01*
X104380952Y-113809523D01*
X104428571Y-113761904D01*
X104523810Y-113714285D01*
X104761905Y-113714285D01*
X104857143Y-113761904D01*
X104904762Y-113809523D01*
X104952381Y-113904761D01*
X104952381Y-114142857D01*
X104904762Y-114238095D01*
X104857143Y-114285714D01*
X103952381Y-113095238D02*
X103952381Y-112999999D01*
X104000000Y-112904761D01*
X104047619Y-112857142D01*
X104142857Y-112809523D01*
X104333333Y-112761904D01*
X104571429Y-112761904D01*
X104761905Y-112809523D01*
X104857143Y-112857142D01*
X104904762Y-112904761D01*
X104952381Y-112999999D01*
X104952381Y-113095238D01*
X104904762Y-113190476D01*
X104857143Y-113238095D01*
X104761905Y-113285714D01*
X104571429Y-113333333D01*
X104333333Y-113333333D01*
X104142857Y-113285714D01*
X104047619Y-113238095D01*
X104000000Y-113190476D01*
X103952381Y-113095238D01*
D12*
X101714286Y-115273810D02*
X101666667Y-115250000D01*
X101619048Y-115202381D01*
X101547619Y-115130952D01*
X101500000Y-115107143D01*
X101452381Y-115107143D01*
X101476191Y-115226190D02*
X101428572Y-115202381D01*
X101380953Y-115154762D01*
X101357143Y-115059524D01*
X101357143Y-114892857D01*
X101380953Y-114797619D01*
X101428572Y-114750000D01*
X101476191Y-114726190D01*
X101571429Y-114726190D01*
X101619048Y-114750000D01*
X101666667Y-114797619D01*
X101690476Y-114892857D01*
X101690476Y-115059524D01*
X101666667Y-115154762D01*
X101619048Y-115202381D01*
X101571429Y-115226190D01*
X101476191Y-115226190D01*
X101880953Y-114773810D02*
X101904763Y-114750000D01*
X101952382Y-114726190D01*
X102071429Y-114726190D01*
X102119048Y-114750000D01*
X102142858Y-114773810D01*
X102166667Y-114821429D01*
X102166667Y-114869048D01*
X102142858Y-114940476D01*
X101857144Y-115226190D01*
X102166667Y-115226190D01*
X102642857Y-115226190D02*
X102357143Y-115226190D01*
X102500000Y-115226190D02*
X102500000Y-114726190D01*
X102452381Y-114797619D01*
X102404762Y-114845238D01*
X102357143Y-114869048D01*
D11*
X99428571Y-116857142D02*
X99476190Y-116714285D01*
X99523810Y-116666666D01*
X99619048Y-116619047D01*
X99761905Y-116619047D01*
X99857143Y-116666666D01*
X99904762Y-116714285D01*
X99952381Y-116809523D01*
X99952381Y-117190476D01*
X98952381Y-117190476D01*
X98952381Y-116857142D01*
X99000000Y-116761904D01*
X99047619Y-116714285D01*
X99142857Y-116666666D01*
X99238095Y-116666666D01*
X99333333Y-116714285D01*
X99380952Y-116761904D01*
X99428571Y-116857142D01*
X99428571Y-117190476D01*
X99857143Y-115619047D02*
X99904762Y-115666666D01*
X99952381Y-115809523D01*
X99952381Y-115904761D01*
X99904762Y-116047619D01*
X99809524Y-116142857D01*
X99714286Y-116190476D01*
X99523810Y-116238095D01*
X99380952Y-116238095D01*
X99190476Y-116190476D01*
X99095238Y-116142857D01*
X99000000Y-116047619D01*
X98952381Y-115904761D01*
X98952381Y-115809523D01*
X99000000Y-115666666D01*
X99047619Y-115619047D01*
X99380952Y-115047619D02*
X99333333Y-115142857D01*
X99285714Y-115190476D01*
X99190476Y-115238095D01*
X99142857Y-115238095D01*
X99047619Y-115190476D01*
X99000000Y-115142857D01*
X98952381Y-115047619D01*
X98952381Y-114857142D01*
X99000000Y-114761904D01*
X99047619Y-114714285D01*
X99142857Y-114666666D01*
X99190476Y-114666666D01*
X99285714Y-114714285D01*
X99333333Y-114761904D01*
X99380952Y-114857142D01*
X99380952Y-115047619D01*
X99428571Y-115142857D01*
X99476190Y-115190476D01*
X99571429Y-115238095D01*
X99761905Y-115238095D01*
X99857143Y-115190476D01*
X99904762Y-115142857D01*
X99952381Y-115047619D01*
X99952381Y-114857142D01*
X99904762Y-114761904D01*
X99857143Y-114714285D01*
X99761905Y-114666666D01*
X99571429Y-114666666D01*
X99476190Y-114714285D01*
X99428571Y-114761904D01*
X99380952Y-114857142D01*
X98952381Y-113761904D02*
X98952381Y-114238095D01*
X99428571Y-114285714D01*
X99380952Y-114238095D01*
X99333333Y-114142857D01*
X99333333Y-113904761D01*
X99380952Y-113809523D01*
X99428571Y-113761904D01*
X99523810Y-113714285D01*
X99761905Y-113714285D01*
X99857143Y-113761904D01*
X99904762Y-113809523D01*
X99952381Y-113904761D01*
X99952381Y-114142857D01*
X99904762Y-114238095D01*
X99857143Y-114285714D01*
X98952381Y-113095238D02*
X98952381Y-112999999D01*
X99000000Y-112904761D01*
X99047619Y-112857142D01*
X99142857Y-112809523D01*
X99333333Y-112761904D01*
X99571429Y-112761904D01*
X99761905Y-112809523D01*
X99857143Y-112857142D01*
X99904762Y-112904761D01*
X99952381Y-112999999D01*
X99952381Y-113095238D01*
X99904762Y-113190476D01*
X99857143Y-113238095D01*
X99761905Y-113285714D01*
X99571429Y-113333333D01*
X99333333Y-113333333D01*
X99142857Y-113285714D01*
X99047619Y-113238095D01*
X99000000Y-113190476D01*
X98952381Y-113095238D01*
D12*
X96714286Y-115273810D02*
X96666667Y-115250000D01*
X96619048Y-115202381D01*
X96547619Y-115130952D01*
X96500000Y-115107143D01*
X96452381Y-115107143D01*
X96476191Y-115226190D02*
X96428572Y-115202381D01*
X96380953Y-115154762D01*
X96357143Y-115059524D01*
X96357143Y-114892857D01*
X96380953Y-114797619D01*
X96428572Y-114750000D01*
X96476191Y-114726190D01*
X96571429Y-114726190D01*
X96619048Y-114750000D01*
X96666667Y-114797619D01*
X96690476Y-114892857D01*
X96690476Y-115059524D01*
X96666667Y-115154762D01*
X96619048Y-115202381D01*
X96571429Y-115226190D01*
X96476191Y-115226190D01*
X96880953Y-114773810D02*
X96904763Y-114750000D01*
X96952382Y-114726190D01*
X97071429Y-114726190D01*
X97119048Y-114750000D01*
X97142858Y-114773810D01*
X97166667Y-114821429D01*
X97166667Y-114869048D01*
X97142858Y-114940476D01*
X96857144Y-115226190D01*
X97166667Y-115226190D01*
X97357143Y-114773810D02*
X97380953Y-114750000D01*
X97428572Y-114726190D01*
X97547619Y-114726190D01*
X97595238Y-114750000D01*
X97619048Y-114773810D01*
X97642857Y-114821429D01*
X97642857Y-114869048D01*
X97619048Y-114940476D01*
X97333334Y-115226190D01*
X97642857Y-115226190D01*
D11*
X119035714Y-113690476D02*
X119702381Y-113690476D01*
X118654762Y-113928572D02*
X119369048Y-114166667D01*
X119369048Y-113547619D01*
X118702381Y-113261905D02*
X118702381Y-112595238D01*
X119702381Y-113023810D01*
X119702381Y-112214286D02*
X118702381Y-112214286D01*
X119321429Y-112119048D02*
X119702381Y-111833333D01*
X119035714Y-111833333D02*
X119416667Y-112214286D01*
D12*
X121226190Y-113083333D02*
X120988095Y-113250000D01*
X121226190Y-113369047D02*
X120726190Y-113369047D01*
X120726190Y-113178571D01*
X120750000Y-113130952D01*
X120773810Y-113107143D01*
X120821429Y-113083333D01*
X120892857Y-113083333D01*
X120940476Y-113107143D01*
X120964286Y-113130952D01*
X120988095Y-113178571D01*
X120988095Y-113369047D01*
X121226190Y-112607143D02*
X121226190Y-112892857D01*
X121226190Y-112750000D02*
X120726190Y-112750000D01*
X120797619Y-112797619D01*
X120845238Y-112845238D01*
X120869048Y-112892857D01*
D11*
X111035714Y-113690476D02*
X111702381Y-113690476D01*
X110654762Y-113928572D02*
X111369048Y-114166667D01*
X111369048Y-113547619D01*
X110702381Y-113261905D02*
X110702381Y-112595238D01*
X111702381Y-113023810D01*
X111702381Y-112214286D02*
X110702381Y-112214286D01*
X111321429Y-112119048D02*
X111702381Y-111833333D01*
X111035714Y-111833333D02*
X111416667Y-112214286D01*
D12*
X113226190Y-113083333D02*
X112988095Y-113250000D01*
X113226190Y-113369047D02*
X112726190Y-113369047D01*
X112726190Y-113178571D01*
X112750000Y-113130952D01*
X112773810Y-113107143D01*
X112821429Y-113083333D01*
X112892857Y-113083333D01*
X112940476Y-113107143D01*
X112964286Y-113130952D01*
X112988095Y-113178571D01*
X112988095Y-113369047D01*
X112892857Y-112654762D02*
X113226190Y-112654762D01*
X112702381Y-112773809D02*
X113059524Y-112892857D01*
X113059524Y-112583333D01*
D11*
X125035714Y-86690476D02*
X125702381Y-86690476D01*
X124654762Y-86928572D02*
X125369048Y-87166667D01*
X125369048Y-86547619D01*
X124702381Y-86261905D02*
X124702381Y-85595238D01*
X125702381Y-86023810D01*
X125702381Y-85214286D02*
X124702381Y-85214286D01*
X125321429Y-85119048D02*
X125702381Y-84833333D01*
X125035714Y-84833333D02*
X125416667Y-85214286D01*
D12*
X123726190Y-86083333D02*
X123488095Y-86250000D01*
X123726190Y-86369047D02*
X123226190Y-86369047D01*
X123226190Y-86178571D01*
X123250000Y-86130952D01*
X123273810Y-86107143D01*
X123321429Y-86083333D01*
X123392857Y-86083333D01*
X123440476Y-86107143D01*
X123464286Y-86130952D01*
X123488095Y-86178571D01*
X123488095Y-86369047D01*
X123226190Y-85654762D02*
X123226190Y-85750000D01*
X123250000Y-85797619D01*
X123273810Y-85821428D01*
X123345238Y-85869047D01*
X123440476Y-85892857D01*
X123630952Y-85892857D01*
X123678571Y-85869047D01*
X123702381Y-85845238D01*
X123726190Y-85797619D01*
X123726190Y-85702381D01*
X123702381Y-85654762D01*
X123678571Y-85630952D01*
X123630952Y-85607143D01*
X123511905Y-85607143D01*
X123464286Y-85630952D01*
X123440476Y-85654762D01*
X123416667Y-85702381D01*
X123416667Y-85797619D01*
X123440476Y-85845238D01*
X123464286Y-85869047D01*
X123511905Y-85892857D01*
D11*
X129035714Y-86690476D02*
X129702381Y-86690476D01*
X128654762Y-86928572D02*
X129369048Y-87166667D01*
X129369048Y-86547619D01*
X128702381Y-86261905D02*
X128702381Y-85595238D01*
X129702381Y-86023810D01*
X129702381Y-85214286D02*
X128702381Y-85214286D01*
X129321429Y-85119048D02*
X129702381Y-84833333D01*
X129035714Y-84833333D02*
X129416667Y-85214286D01*
D12*
X127726190Y-86083333D02*
X127488095Y-86250000D01*
X127726190Y-86369047D02*
X127226190Y-86369047D01*
X127226190Y-86178571D01*
X127250000Y-86130952D01*
X127273810Y-86107143D01*
X127321429Y-86083333D01*
X127392857Y-86083333D01*
X127440476Y-86107143D01*
X127464286Y-86130952D01*
X127488095Y-86178571D01*
X127488095Y-86369047D01*
X127226190Y-85916666D02*
X127226190Y-85583333D01*
X127726190Y-85797619D01*
D11*
X133035714Y-86690476D02*
X133702381Y-86690476D01*
X132654762Y-86928572D02*
X133369048Y-87166667D01*
X133369048Y-86547619D01*
X132702381Y-86261905D02*
X132702381Y-85595238D01*
X133702381Y-86023810D01*
X133702381Y-85214286D02*
X132702381Y-85214286D01*
X133321429Y-85119048D02*
X133702381Y-84833333D01*
X133035714Y-84833333D02*
X133416667Y-85214286D01*
D12*
X131726190Y-86083333D02*
X131488095Y-86250000D01*
X131726190Y-86369047D02*
X131226190Y-86369047D01*
X131226190Y-86178571D01*
X131250000Y-86130952D01*
X131273810Y-86107143D01*
X131321429Y-86083333D01*
X131392857Y-86083333D01*
X131440476Y-86107143D01*
X131464286Y-86130952D01*
X131488095Y-86178571D01*
X131488095Y-86369047D01*
X131440476Y-85797619D02*
X131416667Y-85845238D01*
X131392857Y-85869047D01*
X131345238Y-85892857D01*
X131321429Y-85892857D01*
X131273810Y-85869047D01*
X131250000Y-85845238D01*
X131226190Y-85797619D01*
X131226190Y-85702381D01*
X131250000Y-85654762D01*
X131273810Y-85630952D01*
X131321429Y-85607143D01*
X131345238Y-85607143D01*
X131392857Y-85630952D01*
X131416667Y-85654762D01*
X131440476Y-85702381D01*
X131440476Y-85797619D01*
X131464286Y-85845238D01*
X131488095Y-85869047D01*
X131535714Y-85892857D01*
X131630952Y-85892857D01*
X131678571Y-85869047D01*
X131702381Y-85845238D01*
X131726190Y-85797619D01*
X131726190Y-85702381D01*
X131702381Y-85654762D01*
X131678571Y-85630952D01*
X131630952Y-85607143D01*
X131535714Y-85607143D01*
X131488095Y-85630952D01*
X131464286Y-85654762D01*
X131440476Y-85702381D01*
D11*
X137535714Y-86690476D02*
X138202381Y-86690476D01*
X137154762Y-86928572D02*
X137869048Y-87166667D01*
X137869048Y-86547619D01*
X137202381Y-86261905D02*
X137202381Y-85595238D01*
X138202381Y-86023810D01*
X138202381Y-85214286D02*
X137202381Y-85214286D01*
X137821429Y-85119048D02*
X138202381Y-84833333D01*
X137535714Y-84833333D02*
X137916667Y-85214286D01*
D12*
X136226190Y-86083333D02*
X135988095Y-86250000D01*
X136226190Y-86369047D02*
X135726190Y-86369047D01*
X135726190Y-86178571D01*
X135750000Y-86130952D01*
X135773810Y-86107143D01*
X135821429Y-86083333D01*
X135892857Y-86083333D01*
X135940476Y-86107143D01*
X135964286Y-86130952D01*
X135988095Y-86178571D01*
X135988095Y-86369047D01*
X136226190Y-85845238D02*
X136226190Y-85750000D01*
X136202381Y-85702381D01*
X136178571Y-85678571D01*
X136107143Y-85630952D01*
X136011905Y-85607143D01*
X135821429Y-85607143D01*
X135773810Y-85630952D01*
X135750000Y-85654762D01*
X135726190Y-85702381D01*
X135726190Y-85797619D01*
X135750000Y-85845238D01*
X135773810Y-85869047D01*
X135821429Y-85892857D01*
X135940476Y-85892857D01*
X135988095Y-85869047D01*
X136011905Y-85845238D01*
X136035714Y-85797619D01*
X136035714Y-85702381D01*
X136011905Y-85654762D01*
X135988095Y-85630952D01*
X135940476Y-85607143D01*
D11*
X131035714Y-113690476D02*
X131702381Y-113690476D01*
X130654762Y-113928572D02*
X131369048Y-114166667D01*
X131369048Y-113547619D01*
X130702381Y-113261905D02*
X130702381Y-112595238D01*
X131702381Y-113023810D01*
X131702381Y-112214286D02*
X130702381Y-112214286D01*
X131321429Y-112119048D02*
X131702381Y-111833333D01*
X131035714Y-111833333D02*
X131416667Y-112214286D01*
D12*
X133226190Y-113321428D02*
X132988095Y-113488095D01*
X133226190Y-113607142D02*
X132726190Y-113607142D01*
X132726190Y-113416666D01*
X132750000Y-113369047D01*
X132773810Y-113345238D01*
X132821429Y-113321428D01*
X132892857Y-113321428D01*
X132940476Y-113345238D01*
X132964286Y-113369047D01*
X132988095Y-113416666D01*
X132988095Y-113607142D01*
X133226190Y-112845238D02*
X133226190Y-113130952D01*
X133226190Y-112988095D02*
X132726190Y-112988095D01*
X132797619Y-113035714D01*
X132845238Y-113083333D01*
X132869048Y-113130952D01*
X132726190Y-112535714D02*
X132726190Y-112488095D01*
X132750000Y-112440476D01*
X132773810Y-112416667D01*
X132821429Y-112392857D01*
X132916667Y-112369048D01*
X133035714Y-112369048D01*
X133130952Y-112392857D01*
X133178571Y-112416667D01*
X133202381Y-112440476D01*
X133226190Y-112488095D01*
X133226190Y-112535714D01*
X133202381Y-112583333D01*
X133178571Y-112607143D01*
X133130952Y-112630952D01*
X133035714Y-112654762D01*
X132916667Y-112654762D01*
X132821429Y-112630952D01*
X132773810Y-112607143D01*
X132750000Y-112583333D01*
X132726190Y-112535714D01*
D11*
X127535714Y-113690476D02*
X128202381Y-113690476D01*
X127154762Y-113928572D02*
X127869048Y-114166667D01*
X127869048Y-113547619D01*
X127202381Y-113261905D02*
X127202381Y-112595238D01*
X128202381Y-113023810D01*
X128202381Y-112214286D02*
X127202381Y-112214286D01*
X127821429Y-112119048D02*
X128202381Y-111833333D01*
X127535714Y-111833333D02*
X127916667Y-112214286D01*
D12*
X129726190Y-113321428D02*
X129488095Y-113488095D01*
X129726190Y-113607142D02*
X129226190Y-113607142D01*
X129226190Y-113416666D01*
X129250000Y-113369047D01*
X129273810Y-113345238D01*
X129321429Y-113321428D01*
X129392857Y-113321428D01*
X129440476Y-113345238D01*
X129464286Y-113369047D01*
X129488095Y-113416666D01*
X129488095Y-113607142D01*
X129726190Y-112845238D02*
X129726190Y-113130952D01*
X129726190Y-112988095D02*
X129226190Y-112988095D01*
X129297619Y-113035714D01*
X129345238Y-113083333D01*
X129369048Y-113130952D01*
X129726190Y-112369048D02*
X129726190Y-112654762D01*
X129726190Y-112511905D02*
X129226190Y-112511905D01*
X129297619Y-112559524D01*
X129345238Y-112607143D01*
X129369048Y-112654762D01*
D11*
X123035714Y-113690476D02*
X123702381Y-113690476D01*
X122654762Y-113928572D02*
X123369048Y-114166667D01*
X123369048Y-113547619D01*
X122702381Y-113261905D02*
X122702381Y-112595238D01*
X123702381Y-113023810D01*
X123702381Y-112214286D02*
X122702381Y-112214286D01*
X123321429Y-112119048D02*
X123702381Y-111833333D01*
X123035714Y-111833333D02*
X123416667Y-112214286D01*
D12*
X125226190Y-113321428D02*
X124988095Y-113488095D01*
X125226190Y-113607142D02*
X124726190Y-113607142D01*
X124726190Y-113416666D01*
X124750000Y-113369047D01*
X124773810Y-113345238D01*
X124821429Y-113321428D01*
X124892857Y-113321428D01*
X124940476Y-113345238D01*
X124964286Y-113369047D01*
X124988095Y-113416666D01*
X124988095Y-113607142D01*
X125226190Y-112845238D02*
X125226190Y-113130952D01*
X125226190Y-112988095D02*
X124726190Y-112988095D01*
X124797619Y-113035714D01*
X124845238Y-113083333D01*
X124869048Y-113130952D01*
X124773810Y-112654762D02*
X124750000Y-112630952D01*
X124726190Y-112583333D01*
X124726190Y-112464286D01*
X124750000Y-112416667D01*
X124773810Y-112392857D01*
X124821429Y-112369048D01*
X124869048Y-112369048D01*
X124940476Y-112392857D01*
X125226190Y-112678571D01*
X125226190Y-112369048D01*
D11*
X121035714Y-90190476D02*
X121702381Y-90190476D01*
X120654762Y-90428572D02*
X121369048Y-90666667D01*
X121369048Y-90047619D01*
X120702381Y-89761905D02*
X120702381Y-89095238D01*
X121702381Y-89523810D01*
X121702381Y-88714286D02*
X120702381Y-88714286D01*
X121321429Y-88619048D02*
X121702381Y-88333333D01*
X121035714Y-88333333D02*
X121416667Y-88714286D01*
D12*
X119726190Y-89583333D02*
X119488095Y-89750000D01*
X119726190Y-89869047D02*
X119226190Y-89869047D01*
X119226190Y-89678571D01*
X119250000Y-89630952D01*
X119273810Y-89607143D01*
X119321429Y-89583333D01*
X119392857Y-89583333D01*
X119440476Y-89607143D01*
X119464286Y-89630952D01*
X119488095Y-89678571D01*
X119488095Y-89869047D01*
X119273810Y-89392857D02*
X119250000Y-89369047D01*
X119226190Y-89321428D01*
X119226190Y-89202381D01*
X119250000Y-89154762D01*
X119273810Y-89130952D01*
X119321429Y-89107143D01*
X119369048Y-89107143D01*
X119440476Y-89130952D01*
X119726190Y-89416666D01*
X119726190Y-89107143D01*
D11*
X115035714Y-113690476D02*
X115702381Y-113690476D01*
X114654762Y-113928572D02*
X115369048Y-114166667D01*
X115369048Y-113547619D01*
X114702381Y-113261905D02*
X114702381Y-112595238D01*
X115702381Y-113023810D01*
X115702381Y-112214286D02*
X114702381Y-112214286D01*
X115321429Y-112119048D02*
X115702381Y-111833333D01*
X115035714Y-111833333D02*
X115416667Y-112214286D01*
D12*
X117226190Y-113083333D02*
X116988095Y-113250000D01*
X117226190Y-113369047D02*
X116726190Y-113369047D01*
X116726190Y-113178571D01*
X116750000Y-113130952D01*
X116773810Y-113107143D01*
X116821429Y-113083333D01*
X116892857Y-113083333D01*
X116940476Y-113107143D01*
X116964286Y-113130952D01*
X116988095Y-113178571D01*
X116988095Y-113369047D01*
X116726190Y-112916666D02*
X116726190Y-112607143D01*
X116916667Y-112773809D01*
X116916667Y-112702381D01*
X116940476Y-112654762D01*
X116964286Y-112630952D01*
X117011905Y-112607143D01*
X117130952Y-112607143D01*
X117178571Y-112630952D01*
X117202381Y-112654762D01*
X117226190Y-112702381D01*
X117226190Y-112845238D01*
X117202381Y-112892857D01*
X117178571Y-112916666D01*
D11*
X91809524Y-99535714D02*
X91809524Y-100202381D01*
X91571428Y-99154762D02*
X91333333Y-99869048D01*
X91952381Y-99869048D01*
X92238095Y-99202381D02*
X92904762Y-99202381D01*
X92476190Y-100202381D01*
X93285714Y-100202381D02*
X93285714Y-99202381D01*
X93380952Y-99821429D02*
X93666667Y-100202381D01*
X93666667Y-99535714D02*
X93285714Y-99916667D01*
D12*
X92178572Y-101726190D02*
X92011905Y-101488095D01*
X91892858Y-101726190D02*
X91892858Y-101226190D01*
X92083334Y-101226190D01*
X92130953Y-101250000D01*
X92154762Y-101273810D01*
X92178572Y-101321429D01*
X92178572Y-101392857D01*
X92154762Y-101440476D01*
X92130953Y-101464286D01*
X92083334Y-101488095D01*
X91892858Y-101488095D01*
X92654762Y-101726190D02*
X92369048Y-101726190D01*
X92511905Y-101726190D02*
X92511905Y-101226190D01*
X92464286Y-101297619D01*
X92416667Y-101345238D01*
X92369048Y-101369048D01*
X92821429Y-101226190D02*
X93130952Y-101226190D01*
X92964286Y-101416667D01*
X93035714Y-101416667D01*
X93083333Y-101440476D01*
X93107143Y-101464286D01*
X93130952Y-101511905D01*
X93130952Y-101630952D01*
X93107143Y-101678571D01*
X93083333Y-101702381D01*
X93035714Y-101726190D01*
X92892857Y-101726190D01*
X92845238Y-101702381D01*
X92821429Y-101678571D01*
D11*
X101535714Y-88690476D02*
X102202381Y-88690476D01*
X101154762Y-88928572D02*
X101869048Y-89166667D01*
X101869048Y-88547619D01*
X101202381Y-88261905D02*
X101202381Y-87595238D01*
X102202381Y-88023810D01*
X102202381Y-87214286D02*
X101202381Y-87214286D01*
X101821429Y-87119048D02*
X102202381Y-86833333D01*
X101535714Y-86833333D02*
X101916667Y-87214286D01*
D12*
X100226190Y-88321428D02*
X99988095Y-88488095D01*
X100226190Y-88607142D02*
X99726190Y-88607142D01*
X99726190Y-88416666D01*
X99750000Y-88369047D01*
X99773810Y-88345238D01*
X99821429Y-88321428D01*
X99892857Y-88321428D01*
X99940476Y-88345238D01*
X99964286Y-88369047D01*
X99988095Y-88416666D01*
X99988095Y-88607142D01*
X100226190Y-87845238D02*
X100226190Y-88130952D01*
X100226190Y-87988095D02*
X99726190Y-87988095D01*
X99797619Y-88035714D01*
X99845238Y-88083333D01*
X99869048Y-88130952D01*
X99892857Y-87416667D02*
X100226190Y-87416667D01*
X99702381Y-87535714D02*
X100059524Y-87654762D01*
X100059524Y-87345238D01*
D11*
X91809524Y-95535714D02*
X91809524Y-96202381D01*
X91571428Y-95154762D02*
X91333333Y-95869048D01*
X91952381Y-95869048D01*
X92238095Y-95202381D02*
X92904762Y-95202381D01*
X92476190Y-96202381D01*
X93285714Y-96202381D02*
X93285714Y-95202381D01*
X93380952Y-95821429D02*
X93666667Y-96202381D01*
X93666667Y-95535714D02*
X93285714Y-95916667D01*
D12*
X92178572Y-97726190D02*
X92011905Y-97488095D01*
X91892858Y-97726190D02*
X91892858Y-97226190D01*
X92083334Y-97226190D01*
X92130953Y-97250000D01*
X92154762Y-97273810D01*
X92178572Y-97321429D01*
X92178572Y-97392857D01*
X92154762Y-97440476D01*
X92130953Y-97464286D01*
X92083334Y-97488095D01*
X91892858Y-97488095D01*
X92654762Y-97726190D02*
X92369048Y-97726190D01*
X92511905Y-97726190D02*
X92511905Y-97226190D01*
X92464286Y-97297619D01*
X92416667Y-97345238D01*
X92369048Y-97369048D01*
X93107143Y-97226190D02*
X92869048Y-97226190D01*
X92845238Y-97464286D01*
X92869048Y-97440476D01*
X92916667Y-97416667D01*
X93035714Y-97416667D01*
X93083333Y-97440476D01*
X93107143Y-97464286D01*
X93130952Y-97511905D01*
X93130952Y-97630952D01*
X93107143Y-97678571D01*
X93083333Y-97702381D01*
X93035714Y-97726190D01*
X92916667Y-97726190D01*
X92869048Y-97702381D01*
X92845238Y-97678571D01*
D11*
X96035714Y-87190476D02*
X96702381Y-87190476D01*
X95654762Y-87428572D02*
X96369048Y-87666667D01*
X96369048Y-87047619D01*
X95702381Y-86761905D02*
X95702381Y-86095238D01*
X96702381Y-86523810D01*
X96702381Y-85714286D02*
X95702381Y-85714286D01*
X96321429Y-85619048D02*
X96702381Y-85333333D01*
X96035714Y-85333333D02*
X96416667Y-85714286D01*
D12*
X94726190Y-86821428D02*
X94488095Y-86988095D01*
X94726190Y-87107142D02*
X94226190Y-87107142D01*
X94226190Y-86916666D01*
X94250000Y-86869047D01*
X94273810Y-86845238D01*
X94321429Y-86821428D01*
X94392857Y-86821428D01*
X94440476Y-86845238D01*
X94464286Y-86869047D01*
X94488095Y-86916666D01*
X94488095Y-87107142D01*
X94726190Y-86345238D02*
X94726190Y-86630952D01*
X94726190Y-86488095D02*
X94226190Y-86488095D01*
X94297619Y-86535714D01*
X94345238Y-86583333D01*
X94369048Y-86630952D01*
X94226190Y-85916667D02*
X94226190Y-86011905D01*
X94250000Y-86059524D01*
X94273810Y-86083333D01*
X94345238Y-86130952D01*
X94440476Y-86154762D01*
X94630952Y-86154762D01*
X94678571Y-86130952D01*
X94702381Y-86107143D01*
X94726190Y-86059524D01*
X94726190Y-85964286D01*
X94702381Y-85916667D01*
X94678571Y-85892857D01*
X94630952Y-85869048D01*
X94511905Y-85869048D01*
X94464286Y-85892857D01*
X94440476Y-85916667D01*
X94416667Y-85964286D01*
X94416667Y-86059524D01*
X94440476Y-86107143D01*
X94464286Y-86130952D01*
X94511905Y-86154762D01*
D11*
X95409524Y-109035714D02*
X95409524Y-109702381D01*
X95171428Y-108654762D02*
X94933333Y-109369048D01*
X95552381Y-109369048D01*
X95838095Y-108702381D02*
X96504762Y-108702381D01*
X96076190Y-109702381D01*
X96885714Y-109702381D02*
X96885714Y-108702381D01*
X96980952Y-109321429D02*
X97266667Y-109702381D01*
X97266667Y-109035714D02*
X96885714Y-109416667D01*
D12*
X95778572Y-107726190D02*
X95611905Y-107488095D01*
X95492858Y-107726190D02*
X95492858Y-107226190D01*
X95683334Y-107226190D01*
X95730953Y-107250000D01*
X95754762Y-107273810D01*
X95778572Y-107321429D01*
X95778572Y-107392857D01*
X95754762Y-107440476D01*
X95730953Y-107464286D01*
X95683334Y-107488095D01*
X95492858Y-107488095D01*
X96254762Y-107726190D02*
X95969048Y-107726190D01*
X96111905Y-107726190D02*
X96111905Y-107226190D01*
X96064286Y-107297619D01*
X96016667Y-107345238D01*
X95969048Y-107369048D01*
X96421429Y-107226190D02*
X96754762Y-107226190D01*
X96540476Y-107726190D01*
D11*
X106035714Y-88190476D02*
X106702381Y-88190476D01*
X105654762Y-88428572D02*
X106369048Y-88666667D01*
X106369048Y-88047619D01*
X105702381Y-87761905D02*
X105702381Y-87095238D01*
X106702381Y-87523810D01*
X106702381Y-86714286D02*
X105702381Y-86714286D01*
X106321429Y-86619048D02*
X106702381Y-86333333D01*
X106035714Y-86333333D02*
X106416667Y-86714286D01*
D12*
X104726190Y-87821428D02*
X104488095Y-87988095D01*
X104726190Y-88107142D02*
X104226190Y-88107142D01*
X104226190Y-87916666D01*
X104250000Y-87869047D01*
X104273810Y-87845238D01*
X104321429Y-87821428D01*
X104392857Y-87821428D01*
X104440476Y-87845238D01*
X104464286Y-87869047D01*
X104488095Y-87916666D01*
X104488095Y-88107142D01*
X104726190Y-87345238D02*
X104726190Y-87630952D01*
X104726190Y-87488095D02*
X104226190Y-87488095D01*
X104297619Y-87535714D01*
X104345238Y-87583333D01*
X104369048Y-87630952D01*
X104440476Y-87059524D02*
X104416667Y-87107143D01*
X104392857Y-87130952D01*
X104345238Y-87154762D01*
X104321429Y-87154762D01*
X104273810Y-87130952D01*
X104250000Y-87107143D01*
X104226190Y-87059524D01*
X104226190Y-86964286D01*
X104250000Y-86916667D01*
X104273810Y-86892857D01*
X104321429Y-86869048D01*
X104345238Y-86869048D01*
X104392857Y-86892857D01*
X104416667Y-86916667D01*
X104440476Y-86964286D01*
X104440476Y-87059524D01*
X104464286Y-87107143D01*
X104488095Y-87130952D01*
X104535714Y-87154762D01*
X104630952Y-87154762D01*
X104678571Y-87130952D01*
X104702381Y-87107143D01*
X104726190Y-87059524D01*
X104726190Y-86964286D01*
X104702381Y-86916667D01*
X104678571Y-86892857D01*
X104630952Y-86869048D01*
X104535714Y-86869048D01*
X104488095Y-86892857D01*
X104464286Y-86916667D01*
X104440476Y-86964286D01*
D11*
X110035714Y-88190476D02*
X110702381Y-88190476D01*
X109654762Y-88428572D02*
X110369048Y-88666667D01*
X110369048Y-88047619D01*
X109702381Y-87761905D02*
X109702381Y-87095238D01*
X110702381Y-87523810D01*
X110702381Y-86714286D02*
X109702381Y-86714286D01*
X110321429Y-86619048D02*
X110702381Y-86333333D01*
X110035714Y-86333333D02*
X110416667Y-86714286D01*
D12*
X108726190Y-87821428D02*
X108488095Y-87988095D01*
X108726190Y-88107142D02*
X108226190Y-88107142D01*
X108226190Y-87916666D01*
X108250000Y-87869047D01*
X108273810Y-87845238D01*
X108321429Y-87821428D01*
X108392857Y-87821428D01*
X108440476Y-87845238D01*
X108464286Y-87869047D01*
X108488095Y-87916666D01*
X108488095Y-88107142D01*
X108726190Y-87345238D02*
X108726190Y-87630952D01*
X108726190Y-87488095D02*
X108226190Y-87488095D01*
X108297619Y-87535714D01*
X108345238Y-87583333D01*
X108369048Y-87630952D01*
X108726190Y-87107143D02*
X108726190Y-87011905D01*
X108702381Y-86964286D01*
X108678571Y-86940476D01*
X108607143Y-86892857D01*
X108511905Y-86869048D01*
X108321429Y-86869048D01*
X108273810Y-86892857D01*
X108250000Y-86916667D01*
X108226190Y-86964286D01*
X108226190Y-87059524D01*
X108250000Y-87107143D01*
X108273810Y-87130952D01*
X108321429Y-87154762D01*
X108440476Y-87154762D01*
X108488095Y-87130952D01*
X108511905Y-87107143D01*
X108535714Y-87059524D01*
X108535714Y-86964286D01*
X108511905Y-86916667D01*
X108488095Y-86892857D01*
X108440476Y-86869048D01*
D11*
X114535714Y-88190476D02*
X115202381Y-88190476D01*
X114154762Y-88428572D02*
X114869048Y-88666667D01*
X114869048Y-88047619D01*
X114202381Y-87761905D02*
X114202381Y-87095238D01*
X115202381Y-87523810D01*
X115202381Y-86714286D02*
X114202381Y-86714286D01*
X114821429Y-86619048D02*
X115202381Y-86333333D01*
X114535714Y-86333333D02*
X114916667Y-86714286D01*
D12*
X113226190Y-87821428D02*
X112988095Y-87988095D01*
X113226190Y-88107142D02*
X112726190Y-88107142D01*
X112726190Y-87916666D01*
X112750000Y-87869047D01*
X112773810Y-87845238D01*
X112821429Y-87821428D01*
X112892857Y-87821428D01*
X112940476Y-87845238D01*
X112964286Y-87869047D01*
X112988095Y-87916666D01*
X112988095Y-88107142D01*
X112773810Y-87630952D02*
X112750000Y-87607142D01*
X112726190Y-87559523D01*
X112726190Y-87440476D01*
X112750000Y-87392857D01*
X112773810Y-87369047D01*
X112821429Y-87345238D01*
X112869048Y-87345238D01*
X112940476Y-87369047D01*
X113226190Y-87654761D01*
X113226190Y-87345238D01*
X112726190Y-87035714D02*
X112726190Y-86988095D01*
X112750000Y-86940476D01*
X112773810Y-86916667D01*
X112821429Y-86892857D01*
X112916667Y-86869048D01*
X113035714Y-86869048D01*
X113130952Y-86892857D01*
X113178571Y-86916667D01*
X113202381Y-86940476D01*
X113226190Y-86988095D01*
X113226190Y-87035714D01*
X113202381Y-87083333D01*
X113178571Y-87107143D01*
X113130952Y-87130952D01*
X113035714Y-87154762D01*
X112916667Y-87154762D01*
X112821429Y-87130952D01*
X112773810Y-87107143D01*
X112750000Y-87083333D01*
X112726190Y-87035714D01*
D11*
X117035714Y-95690476D02*
X117702381Y-95690476D01*
X116654762Y-95928572D02*
X117369048Y-96166667D01*
X117369048Y-95547619D01*
X116702381Y-95261905D02*
X116702381Y-94595238D01*
X117702381Y-95023810D01*
X117702381Y-94214286D02*
X116702381Y-94214286D01*
X117321429Y-94119048D02*
X117702381Y-93833333D01*
X117035714Y-93833333D02*
X117416667Y-94214286D01*
D12*
X115726190Y-95321428D02*
X115488095Y-95488095D01*
X115726190Y-95607142D02*
X115226190Y-95607142D01*
X115226190Y-95416666D01*
X115250000Y-95369047D01*
X115273810Y-95345238D01*
X115321429Y-95321428D01*
X115392857Y-95321428D01*
X115440476Y-95345238D01*
X115464286Y-95369047D01*
X115488095Y-95416666D01*
X115488095Y-95607142D01*
X115273810Y-95130952D02*
X115250000Y-95107142D01*
X115226190Y-95059523D01*
X115226190Y-94940476D01*
X115250000Y-94892857D01*
X115273810Y-94869047D01*
X115321429Y-94845238D01*
X115369048Y-94845238D01*
X115440476Y-94869047D01*
X115726190Y-95154761D01*
X115726190Y-94845238D01*
X115726190Y-94369048D02*
X115726190Y-94654762D01*
X115726190Y-94511905D02*
X115226190Y-94511905D01*
X115297619Y-94559524D01*
X115345238Y-94607143D01*
X115369048Y-94654762D01*
D11*
X103535714Y-117190476D02*
X104202381Y-117190476D01*
X103154762Y-117428572D02*
X103869048Y-117666667D01*
X103869048Y-117047619D01*
X103202381Y-116761905D02*
X103202381Y-116095238D01*
X104202381Y-116523810D01*
X104202381Y-115714286D02*
X103202381Y-115714286D01*
X103821429Y-115619048D02*
X104202381Y-115333333D01*
X103535714Y-115333333D02*
X103916667Y-115714286D01*
D12*
X105726190Y-116821428D02*
X105488095Y-116988095D01*
X105726190Y-117107142D02*
X105226190Y-117107142D01*
X105226190Y-116916666D01*
X105250000Y-116869047D01*
X105273810Y-116845238D01*
X105321429Y-116821428D01*
X105392857Y-116821428D01*
X105440476Y-116845238D01*
X105464286Y-116869047D01*
X105488095Y-116916666D01*
X105488095Y-117107142D01*
X105273810Y-116630952D02*
X105250000Y-116607142D01*
X105226190Y-116559523D01*
X105226190Y-116440476D01*
X105250000Y-116392857D01*
X105273810Y-116369047D01*
X105321429Y-116345238D01*
X105369048Y-116345238D01*
X105440476Y-116369047D01*
X105726190Y-116654761D01*
X105726190Y-116345238D01*
X105273810Y-116154762D02*
X105250000Y-116130952D01*
X105226190Y-116083333D01*
X105226190Y-115964286D01*
X105250000Y-115916667D01*
X105273810Y-115892857D01*
X105321429Y-115869048D01*
X105369048Y-115869048D01*
X105440476Y-115892857D01*
X105726190Y-116178571D01*
X105726190Y-115869048D01*
D11*
X99535714Y-119690476D02*
X100202381Y-119690476D01*
X99154762Y-119928572D02*
X99869048Y-120166667D01*
X99869048Y-119547619D01*
X99202381Y-119261905D02*
X99202381Y-118595238D01*
X100202381Y-119023810D01*
X100202381Y-118214286D02*
X99202381Y-118214286D01*
X99821429Y-118119048D02*
X100202381Y-117833333D01*
X99535714Y-117833333D02*
X99916667Y-118214286D01*
D12*
X101726190Y-119321428D02*
X101488095Y-119488095D01*
X101726190Y-119607142D02*
X101226190Y-119607142D01*
X101226190Y-119416666D01*
X101250000Y-119369047D01*
X101273810Y-119345238D01*
X101321429Y-119321428D01*
X101392857Y-119321428D01*
X101440476Y-119345238D01*
X101464286Y-119369047D01*
X101488095Y-119416666D01*
X101488095Y-119607142D01*
X101273810Y-119130952D02*
X101250000Y-119107142D01*
X101226190Y-119059523D01*
X101226190Y-118940476D01*
X101250000Y-118892857D01*
X101273810Y-118869047D01*
X101321429Y-118845238D01*
X101369048Y-118845238D01*
X101440476Y-118869047D01*
X101726190Y-119154761D01*
X101726190Y-118845238D01*
X101226190Y-118678571D02*
X101226190Y-118369048D01*
X101416667Y-118535714D01*
X101416667Y-118464286D01*
X101440476Y-118416667D01*
X101464286Y-118392857D01*
X101511905Y-118369048D01*
X101630952Y-118369048D01*
X101678571Y-118392857D01*
X101702381Y-118416667D01*
X101726190Y-118464286D01*
X101726190Y-118607143D01*
X101702381Y-118654762D01*
X101678571Y-118678571D01*
D11*
X94535714Y-119690476D02*
X95202381Y-119690476D01*
X94154762Y-119928572D02*
X94869048Y-120166667D01*
X94869048Y-119547619D01*
X94202381Y-119261905D02*
X94202381Y-118595238D01*
X95202381Y-119023810D01*
X95202381Y-118214286D02*
X94202381Y-118214286D01*
X94821429Y-118119048D02*
X95202381Y-117833333D01*
X94535714Y-117833333D02*
X94916667Y-118214286D01*
D12*
X96726190Y-119321428D02*
X96488095Y-119488095D01*
X96726190Y-119607142D02*
X96226190Y-119607142D01*
X96226190Y-119416666D01*
X96250000Y-119369047D01*
X96273810Y-119345238D01*
X96321429Y-119321428D01*
X96392857Y-119321428D01*
X96440476Y-119345238D01*
X96464286Y-119369047D01*
X96488095Y-119416666D01*
X96488095Y-119607142D01*
X96273810Y-119130952D02*
X96250000Y-119107142D01*
X96226190Y-119059523D01*
X96226190Y-118940476D01*
X96250000Y-118892857D01*
X96273810Y-118869047D01*
X96321429Y-118845238D01*
X96369048Y-118845238D01*
X96440476Y-118869047D01*
X96726190Y-119154761D01*
X96726190Y-118845238D01*
X96392857Y-118416667D02*
X96726190Y-118416667D01*
X96202381Y-118535714D02*
X96559524Y-118654762D01*
X96559524Y-118345238D01*
D11*
X136404762Y-76082381D02*
X135833333Y-76082381D01*
X136119047Y-76082381D02*
X136119047Y-75082381D01*
X136023809Y-75225238D01*
X135928571Y-75320476D01*
X135833333Y-75368095D01*
X136738095Y-75082381D02*
X137404762Y-75082381D01*
X136976190Y-76082381D01*
X137976190Y-75082381D02*
X138071429Y-75082381D01*
X138166667Y-75130000D01*
X138214286Y-75177619D01*
X138261905Y-75272857D01*
X138309524Y-75463333D01*
X138309524Y-75701429D01*
X138261905Y-75891905D01*
X138214286Y-75987143D01*
X138166667Y-76034762D01*
X138071429Y-76082381D01*
X137976190Y-76082381D01*
X137880952Y-76034762D01*
X137833333Y-75987143D01*
X137785714Y-75891905D01*
X137738095Y-75701429D01*
X137738095Y-75463333D01*
X137785714Y-75272857D01*
X137833333Y-75177619D01*
X137880952Y-75130000D01*
X137976190Y-75082381D01*
X138595238Y-75082381D02*
X138928571Y-76082381D01*
X139261905Y-75082381D01*
X137952381Y-79968095D02*
X136952381Y-79968095D01*
X136952381Y-79587142D01*
X137000000Y-79491904D01*
X137047619Y-79444285D01*
X137142857Y-79396666D01*
X137285714Y-79396666D01*
X137380952Y-79444285D01*
X137428571Y-79491904D01*
X137476190Y-79587142D01*
X137476190Y-79968095D01*
X136952381Y-79063333D02*
X136952381Y-78444285D01*
X137333333Y-78777619D01*
X137333333Y-78634761D01*
X137380952Y-78539523D01*
X137428571Y-78491904D01*
X137523810Y-78444285D01*
X137761905Y-78444285D01*
X137857143Y-78491904D01*
X137904762Y-78539523D01*
X137952381Y-78634761D01*
X137952381Y-78920476D01*
X137904762Y-79015714D01*
X137857143Y-79063333D01*
M02*
