G04 #@! TF.FileFunction,Copper,L2,Bot,Signal*
%FSLAX46Y46*%
G04 Gerber Fmt 4.6, Leading zero omitted, Abs format (unit mm)*
G04 Created by KiCad (PCBNEW 4.0.4-stable) date 12/02/17 22:43:03*
%MOMM*%
%LPD*%
G01*
G04 APERTURE LIST*
%ADD10C,0.100000*%
%ADD11C,1.200000*%
%ADD12R,1.700000X1.700000*%
%ADD13O,1.700000X1.700000*%
%ADD14R,1.600000X1.600000*%
%ADD15O,1.600000X1.600000*%
%ADD16R,1.300000X0.700000*%
%ADD17R,0.700000X1.300000*%
%ADD18R,0.800000X0.900000*%
%ADD19C,0.600000*%
%ADD20C,0.800000*%
%ADD21C,0.500000*%
%ADD22C,0.300000*%
%ADD23C,0.180000*%
%ADD24C,0.254000*%
G04 APERTURE END LIST*
D10*
D11*
X122256460Y-96188505D03*
X120880439Y-97771498D03*
X120307250Y-99761261D03*
X121894545Y-103522776D03*
X123725524Y-104519979D03*
X125816146Y-104628596D03*
X127743540Y-103811495D03*
X129123034Y-102248198D03*
X129692750Y-100238739D03*
X129328089Y-98170643D03*
X128105455Y-96477224D03*
X126274476Y-95480021D03*
X102256460Y-96188505D03*
X100880439Y-97771498D03*
X100307250Y-99761261D03*
X101894545Y-103522776D03*
X103725524Y-104519979D03*
X105816146Y-104628596D03*
X107743540Y-103811495D03*
X109123034Y-102248198D03*
X109692750Y-100238739D03*
X109328089Y-98170643D03*
X108105455Y-96477224D03*
X106274476Y-95480021D03*
D12*
X138000000Y-106600000D03*
D13*
X138000000Y-109140000D03*
D14*
X135000000Y-94000000D03*
D15*
X137540000Y-101620000D03*
X137540000Y-94000000D03*
X135000000Y-101620000D03*
D12*
X110000000Y-123000000D03*
D13*
X110000000Y-120460000D03*
X112540000Y-123000000D03*
X112540000Y-120460000D03*
X115080000Y-123000000D03*
X115080000Y-120460000D03*
X117620000Y-123000000D03*
X117620000Y-120460000D03*
X120160000Y-123000000D03*
X120160000Y-120460000D03*
X122700000Y-123000000D03*
X122700000Y-120460000D03*
X125240000Y-123000000D03*
X125240000Y-120460000D03*
X127780000Y-123000000D03*
X127780000Y-120460000D03*
X130320000Y-123000000D03*
X130320000Y-120460000D03*
X132860000Y-123000000D03*
X132860000Y-120460000D03*
D12*
X110000000Y-79500000D03*
D13*
X110000000Y-76960000D03*
X112540000Y-79500000D03*
X112540000Y-76960000D03*
X115080000Y-79500000D03*
X115080000Y-76960000D03*
X117620000Y-79500000D03*
X117620000Y-76960000D03*
X120160000Y-79500000D03*
X120160000Y-76960000D03*
X122700000Y-79500000D03*
X122700000Y-76960000D03*
X125240000Y-79500000D03*
X125240000Y-76960000D03*
X127780000Y-79500000D03*
X127780000Y-76960000D03*
X130320000Y-79500000D03*
X130320000Y-76960000D03*
X132860000Y-79500000D03*
X132860000Y-76960000D03*
D14*
X92500000Y-109000000D03*
D15*
X100120000Y-106460000D03*
X92500000Y-106460000D03*
X100120000Y-109000000D03*
D16*
X138400000Y-91450000D03*
X138400000Y-89550000D03*
D17*
X103550000Y-108000000D03*
X105450000Y-108000000D03*
D16*
X133000000Y-103550000D03*
X133000000Y-105450000D03*
D18*
X138950000Y-114800000D03*
X137050000Y-114800000D03*
X138000000Y-112800000D03*
D16*
X138200000Y-117050000D03*
X138200000Y-118950000D03*
D17*
X135150000Y-108200000D03*
X133250000Y-108200000D03*
D12*
X137500000Y-80500000D03*
D13*
X137500000Y-77960000D03*
D19*
X108000000Y-115200000D03*
X134800000Y-111800000D03*
X131000000Y-111800000D03*
X126950000Y-111750000D03*
X123000000Y-111800000D03*
X119100000Y-111800000D03*
X115100000Y-111800000D03*
X103300000Y-117800000D03*
X98700000Y-117800000D03*
X97600000Y-111600000D03*
X93200000Y-103500000D03*
X93400000Y-99500000D03*
X134000000Y-87400000D03*
X129500000Y-87400000D03*
X125600000Y-87300000D03*
X121200000Y-87500000D03*
X111800000Y-94400000D03*
X111000000Y-88900000D03*
X106500000Y-88900000D03*
X102600000Y-89000000D03*
X92800000Y-88000000D03*
D20*
X127780000Y-120460000D02*
X127780000Y-112580000D01*
X127780000Y-112580000D02*
X126950000Y-111750000D01*
D21*
X108000000Y-115200000D02*
X107800000Y-115400000D01*
X107800000Y-115400000D02*
X107800000Y-117800000D01*
D22*
X137050000Y-114800000D02*
X136600000Y-114800000D01*
X134800000Y-113000000D02*
X134800000Y-111800000D01*
X136600000Y-114800000D02*
X134800000Y-113000000D01*
X134800000Y-111800000D02*
X131000000Y-111800000D01*
X126950000Y-111750000D02*
X130950000Y-111750000D01*
X130950000Y-111750000D02*
X131000000Y-111800000D01*
X123000000Y-111800000D02*
X126900000Y-111800000D01*
X126900000Y-111800000D02*
X126950000Y-111750000D01*
X119100000Y-111800000D02*
X123000000Y-111800000D01*
X119100000Y-111800000D02*
X115100000Y-111800000D01*
X103300000Y-117800000D02*
X107800000Y-117800000D01*
X107800000Y-117800000D02*
X109100000Y-117800000D01*
X109100000Y-117800000D02*
X115100000Y-111800000D01*
X103300000Y-117800000D02*
X98700000Y-117800000D01*
X98700000Y-112700000D02*
X98700000Y-117800000D01*
X97600000Y-111600000D02*
X98700000Y-112700000D01*
X93400000Y-103300000D02*
X93400000Y-99500000D01*
X93200000Y-103500000D02*
X93400000Y-103300000D01*
X92800000Y-88000000D02*
X92800000Y-98900000D01*
X92800000Y-98900000D02*
X93400000Y-99500000D01*
X137500000Y-77960000D02*
X138060000Y-77960000D01*
X138060000Y-77960000D02*
X139100000Y-79000000D01*
X138400000Y-85800000D02*
X138400000Y-89550000D01*
X139100000Y-85100000D02*
X138400000Y-85800000D01*
X139100000Y-79000000D02*
X139100000Y-85100000D01*
X134000000Y-87400000D02*
X134000000Y-81700000D01*
X135940000Y-77960000D02*
X137500000Y-77960000D01*
X135300000Y-78600000D02*
X135940000Y-77960000D01*
X135300000Y-80400000D02*
X135300000Y-78600000D01*
X134000000Y-81700000D02*
X135300000Y-80400000D01*
X134000000Y-87400000D02*
X129500000Y-87400000D01*
X125600000Y-87300000D02*
X129400000Y-87300000D01*
X129400000Y-87300000D02*
X129500000Y-87400000D01*
X125400000Y-87500000D02*
X121200000Y-87500000D01*
X125600000Y-87300000D02*
X125400000Y-87500000D01*
X117000000Y-88900000D02*
X119800000Y-88900000D01*
X119800000Y-88900000D02*
X121200000Y-87500000D01*
X117000000Y-88900000D02*
X111000000Y-88900000D01*
D21*
X111000000Y-88900000D02*
X111400000Y-88900000D01*
X111400000Y-88900000D02*
X111800000Y-89300000D01*
X111800000Y-89300000D02*
X111800000Y-94400000D01*
D22*
X111000000Y-88900000D02*
X106500000Y-88900000D01*
X102600000Y-89000000D02*
X106400000Y-89000000D01*
X106400000Y-89000000D02*
X106500000Y-88900000D01*
X102300000Y-89300000D02*
X98500000Y-89300000D01*
X102600000Y-89000000D02*
X102300000Y-89300000D01*
X94100000Y-89300000D02*
X98500000Y-89300000D01*
X92800000Y-88000000D02*
X94100000Y-89300000D01*
D21*
X138400000Y-91450000D02*
X138400000Y-93140000D01*
X138400000Y-93140000D02*
X137540000Y-94000000D01*
X137540000Y-101620000D02*
X137540000Y-99040000D01*
X127754497Y-94000000D02*
X126274476Y-95480021D01*
X129500000Y-94000000D02*
X127754497Y-94000000D01*
X132500000Y-97000000D02*
X129500000Y-94000000D01*
X135500000Y-97000000D02*
X132500000Y-97000000D01*
X137540000Y-99040000D02*
X135500000Y-97000000D01*
X133250000Y-108200000D02*
X133250000Y-105700000D01*
X133250000Y-105700000D02*
X133000000Y-105450000D01*
D20*
X108500000Y-108000000D02*
X115000000Y-108000000D01*
X115000000Y-108000000D02*
X115000000Y-108200000D01*
X135500000Y-87700000D02*
X135500000Y-88000000D01*
X108500000Y-108000000D02*
X105450000Y-108000000D01*
X112500000Y-104000000D02*
X108500000Y-108000000D01*
X112500000Y-101000000D02*
X112500000Y-104000000D01*
X122500000Y-91000000D02*
X112500000Y-101000000D01*
X132500000Y-91000000D02*
X122500000Y-91000000D01*
X135500000Y-88000000D02*
X132500000Y-91000000D01*
X135500000Y-87700000D02*
X135500000Y-87700000D01*
X135500000Y-87700000D02*
X137500000Y-80500000D01*
X105450000Y-108000000D02*
X105900000Y-108000000D01*
X133250000Y-108200000D02*
X115000000Y-108200000D01*
X115000000Y-108200000D02*
X113400000Y-108200000D01*
D23*
X137500000Y-81000000D02*
X137500000Y-80500000D01*
D21*
X100120000Y-106460000D02*
X100120000Y-102880000D01*
X106274476Y-96725524D02*
X106274476Y-95480021D01*
X100120000Y-102880000D02*
X106274476Y-96725524D01*
X100120000Y-106460000D02*
X100730000Y-106460000D01*
D20*
X103550000Y-108000000D02*
X103550000Y-108450000D01*
X103550000Y-108450000D02*
X103000000Y-109000000D01*
X103000000Y-109000000D02*
X100120000Y-109000000D01*
D21*
X133000000Y-103550000D02*
X133070000Y-103550000D01*
X133070000Y-103550000D02*
X135000000Y-101620000D01*
D22*
X138200000Y-117050000D02*
X138200000Y-116600000D01*
X138950000Y-115850000D02*
X138950000Y-114800000D01*
X138200000Y-116600000D02*
X138950000Y-115850000D01*
D21*
X138000000Y-112800000D02*
X138000000Y-109140000D01*
X138000000Y-106600000D02*
X136750000Y-106600000D01*
X136750000Y-106600000D02*
X135150000Y-108200000D01*
D22*
X127780000Y-122500000D02*
X127780000Y-122780000D01*
D21*
X127780000Y-122780000D02*
X129200000Y-124700000D01*
X129200000Y-124700000D02*
X136000000Y-124700000D01*
X136000000Y-124700000D02*
X138200000Y-122000000D01*
X138200000Y-122000000D02*
X138200000Y-118950000D01*
D24*
G36*
X108443263Y-76282167D02*
X108315000Y-76926989D01*
X108315000Y-76993011D01*
X108443263Y-77637833D01*
X108665072Y-77969794D01*
X108556373Y-78039740D01*
X108365717Y-78318774D01*
X108298642Y-78650000D01*
X108298642Y-80350000D01*
X108356866Y-80659432D01*
X108539740Y-80943627D01*
X108818774Y-81134283D01*
X109150000Y-81201358D01*
X110850000Y-81201358D01*
X111159432Y-81143134D01*
X111443627Y-80960260D01*
X111524420Y-80842015D01*
X111895178Y-81089748D01*
X112540000Y-81218011D01*
X113184822Y-81089748D01*
X113731475Y-80724486D01*
X113810000Y-80606965D01*
X113888525Y-80724486D01*
X114435178Y-81089748D01*
X115080000Y-81218011D01*
X115724822Y-81089748D01*
X116271475Y-80724486D01*
X116350000Y-80606965D01*
X116428525Y-80724486D01*
X116975178Y-81089748D01*
X117620000Y-81218011D01*
X118264822Y-81089748D01*
X118811475Y-80724486D01*
X118890000Y-80606965D01*
X118968525Y-80724486D01*
X119515178Y-81089748D01*
X120160000Y-81218011D01*
X120804822Y-81089748D01*
X121351475Y-80724486D01*
X121430000Y-80606965D01*
X121508525Y-80724486D01*
X122055178Y-81089748D01*
X122700000Y-81218011D01*
X123344822Y-81089748D01*
X123891475Y-80724486D01*
X123970000Y-80606965D01*
X124048525Y-80724486D01*
X124595178Y-81089748D01*
X125240000Y-81218011D01*
X125884822Y-81089748D01*
X126431475Y-80724486D01*
X126510000Y-80606965D01*
X126588525Y-80724486D01*
X127135178Y-81089748D01*
X127780000Y-81218011D01*
X128424822Y-81089748D01*
X128971475Y-80724486D01*
X129050000Y-80606965D01*
X129128525Y-80724486D01*
X129675178Y-81089748D01*
X130320000Y-81218011D01*
X130964822Y-81089748D01*
X131511475Y-80724486D01*
X131590000Y-80606965D01*
X131668525Y-80724486D01*
X132215178Y-81089748D01*
X132860000Y-81218011D01*
X133504822Y-81089748D01*
X134051475Y-80724486D01*
X134416737Y-80177833D01*
X134545000Y-79533011D01*
X134545000Y-79466989D01*
X134416737Y-78822167D01*
X134051475Y-78275514D01*
X133983359Y-78230000D01*
X134051475Y-78184486D01*
X134416737Y-77637833D01*
X134449204Y-77474606D01*
X135886428Y-77474606D01*
X136041307Y-77733000D01*
X137273000Y-77733000D01*
X137273000Y-76499095D01*
X137014603Y-76346412D01*
X136434058Y-76654992D01*
X136015793Y-77162248D01*
X135886428Y-77474606D01*
X134449204Y-77474606D01*
X134545000Y-76993011D01*
X134545000Y-76926989D01*
X134416737Y-76282167D01*
X134168063Y-75910000D01*
X139090000Y-75910000D01*
X139090000Y-77417690D01*
X138984207Y-77162248D01*
X138565942Y-76654992D01*
X137985397Y-76346412D01*
X137727000Y-76499095D01*
X137727000Y-77733000D01*
X137747000Y-77733000D01*
X137747000Y-78187000D01*
X137727000Y-78187000D01*
X137727000Y-78207000D01*
X137273000Y-78207000D01*
X137273000Y-78187000D01*
X136041307Y-78187000D01*
X135886428Y-78445394D01*
X136015793Y-78757752D01*
X136181774Y-78959047D01*
X136056373Y-79039740D01*
X135865717Y-79318774D01*
X135798642Y-79650000D01*
X135798642Y-81350000D01*
X135856866Y-81659432D01*
X135884322Y-81702100D01*
X134310055Y-87369460D01*
X134304083Y-87449363D01*
X131988446Y-89765000D01*
X122500000Y-89765000D01*
X122027386Y-89859009D01*
X121626723Y-90126723D01*
X111626723Y-100126723D01*
X111359009Y-100527386D01*
X111265000Y-101000000D01*
X111265000Y-103488446D01*
X107988446Y-106765000D01*
X106415811Y-106765000D01*
X106410260Y-106756373D01*
X106131226Y-106565717D01*
X105800000Y-106498642D01*
X105100000Y-106498642D01*
X104790568Y-106556866D01*
X104506373Y-106739740D01*
X104499862Y-106749269D01*
X104231226Y-106565717D01*
X103900000Y-106498642D01*
X103200000Y-106498642D01*
X102890568Y-106556866D01*
X102606373Y-106739740D01*
X102415717Y-107018774D01*
X102348642Y-107350000D01*
X102348642Y-107765000D01*
X101190099Y-107765000D01*
X101137718Y-107730000D01*
X101308152Y-107616120D01*
X101662575Y-107085687D01*
X101692586Y-106934811D01*
X101732409Y-106875212D01*
X101815000Y-106460000D01*
X101732409Y-106044788D01*
X101692586Y-105985189D01*
X101662575Y-105834313D01*
X101308152Y-105303880D01*
X101205000Y-105234956D01*
X101205000Y-104790246D01*
X101607854Y-104957526D01*
X102178732Y-104958024D01*
X102328312Y-104896219D01*
X102508281Y-105331779D01*
X102911601Y-105735803D01*
X103438833Y-105954729D01*
X104009711Y-105955227D01*
X104537324Y-105737222D01*
X104716580Y-105558278D01*
X105002223Y-105844420D01*
X105529455Y-106063346D01*
X106100333Y-106063844D01*
X106627946Y-105845839D01*
X107031970Y-105442519D01*
X107163969Y-105124630D01*
X107456849Y-105246245D01*
X108027727Y-105246743D01*
X108555340Y-105028738D01*
X108959364Y-104625418D01*
X109178290Y-104098186D01*
X109178652Y-103683247D01*
X109407221Y-103683446D01*
X109934834Y-103465441D01*
X110338858Y-103062121D01*
X110557784Y-102534889D01*
X110558282Y-101964011D01*
X110371145Y-101511104D01*
X110504550Y-101455982D01*
X110908574Y-101052662D01*
X111127500Y-100525430D01*
X111127998Y-99954552D01*
X110909993Y-99426939D01*
X110506673Y-99022915D01*
X110505843Y-99022570D01*
X110543913Y-98984566D01*
X110762839Y-98457334D01*
X110763337Y-97886456D01*
X110545332Y-97358843D01*
X110142012Y-96954819D01*
X109614780Y-96735893D01*
X109540230Y-96735828D01*
X109540703Y-96193037D01*
X109322698Y-95665424D01*
X108919378Y-95261400D01*
X108392146Y-95042474D01*
X107821268Y-95041976D01*
X107671688Y-95103781D01*
X107491719Y-94668221D01*
X107088399Y-94264197D01*
X106561167Y-94045271D01*
X105990289Y-94044773D01*
X105462676Y-94262778D01*
X105058652Y-94666098D01*
X104839726Y-95193330D01*
X104839228Y-95764208D01*
X105057233Y-96291821D01*
X105115444Y-96350134D01*
X101742283Y-99723295D01*
X101742498Y-99477074D01*
X101562819Y-99042216D01*
X101692239Y-98988741D01*
X102096263Y-98585421D01*
X102315189Y-98058189D01*
X102315568Y-97623557D01*
X102540647Y-97623753D01*
X103068260Y-97405748D01*
X103472284Y-97002428D01*
X103691210Y-96475196D01*
X103691708Y-95904318D01*
X103473703Y-95376705D01*
X103070383Y-94972681D01*
X102543151Y-94753755D01*
X101972273Y-94753257D01*
X101444660Y-94971262D01*
X101040636Y-95374582D01*
X100821710Y-95901814D01*
X100821331Y-96336446D01*
X100596252Y-96336250D01*
X100068639Y-96554255D01*
X99664615Y-96957575D01*
X99445689Y-97484807D01*
X99445191Y-98055685D01*
X99624870Y-98490543D01*
X99495450Y-98544018D01*
X99091426Y-98947338D01*
X98872500Y-99474570D01*
X98872002Y-100045448D01*
X99090007Y-100573061D01*
X99493327Y-100977085D01*
X100020559Y-101196011D01*
X100269350Y-101196228D01*
X99352789Y-102112789D01*
X99117591Y-102464788D01*
X99035000Y-102880000D01*
X99035000Y-105234956D01*
X98931848Y-105303880D01*
X98577425Y-105834313D01*
X98452968Y-106460000D01*
X98577425Y-107085687D01*
X98931848Y-107616120D01*
X99102282Y-107730000D01*
X98931848Y-107843880D01*
X98577425Y-108374313D01*
X98452968Y-109000000D01*
X98577425Y-109625687D01*
X98931848Y-110156120D01*
X99462281Y-110510543D01*
X100087968Y-110635000D01*
X100152032Y-110635000D01*
X100777719Y-110510543D01*
X101190099Y-110235000D01*
X103000000Y-110235000D01*
X103472614Y-110140991D01*
X103873277Y-109873277D01*
X104423277Y-109323277D01*
X104444081Y-109292142D01*
X104493627Y-109260260D01*
X104500138Y-109250731D01*
X104768774Y-109434283D01*
X105100000Y-109501358D01*
X105800000Y-109501358D01*
X106109432Y-109443134D01*
X106393627Y-109260260D01*
X106410886Y-109235000D01*
X112768759Y-109235000D01*
X112927386Y-109340991D01*
X113400000Y-109435000D01*
X132284189Y-109435000D01*
X132289740Y-109443627D01*
X132568774Y-109634283D01*
X132900000Y-109701358D01*
X133600000Y-109701358D01*
X133909432Y-109643134D01*
X134193627Y-109460260D01*
X134200138Y-109450731D01*
X134468774Y-109634283D01*
X134800000Y-109701358D01*
X135500000Y-109701358D01*
X135809432Y-109643134D01*
X136093627Y-109460260D01*
X136284283Y-109181226D01*
X136287263Y-109166512D01*
X136410252Y-109784822D01*
X136775514Y-110331475D01*
X136915000Y-110424677D01*
X136915000Y-111873469D01*
X136815717Y-112018774D01*
X136748642Y-112350000D01*
X136748642Y-113250000D01*
X136806866Y-113559432D01*
X136822998Y-113584502D01*
X136822998Y-113696748D01*
X136641250Y-113515000D01*
X136483908Y-113515000D01*
X136177011Y-113642121D01*
X135942121Y-113877010D01*
X135815000Y-114183908D01*
X135815000Y-114366250D01*
X136023750Y-114575000D01*
X136850000Y-114575000D01*
X136850000Y-114553000D01*
X137250000Y-114553000D01*
X137250000Y-114575000D01*
X137297000Y-114575000D01*
X137297000Y-115025000D01*
X137250000Y-115025000D01*
X137250000Y-115047000D01*
X136850000Y-115047000D01*
X136850000Y-115025000D01*
X136023750Y-115025000D01*
X135815000Y-115233750D01*
X135815000Y-115416092D01*
X135942121Y-115722990D01*
X136177011Y-115957879D01*
X136483908Y-116085000D01*
X136641250Y-116085000D01*
X136822998Y-115903252D01*
X136822998Y-116085000D01*
X136963739Y-116085000D01*
X136956373Y-116089740D01*
X136765717Y-116368774D01*
X136698642Y-116700000D01*
X136698642Y-117400000D01*
X136756866Y-117709432D01*
X136939740Y-117993627D01*
X136949269Y-118000138D01*
X136765717Y-118268774D01*
X136698642Y-118600000D01*
X136698642Y-119300000D01*
X136756866Y-119609432D01*
X136939740Y-119893627D01*
X137115000Y-120013377D01*
X137115000Y-121613930D01*
X135484499Y-123615000D01*
X134429235Y-123615000D01*
X134545000Y-123033011D01*
X134545000Y-122966989D01*
X134416737Y-122322167D01*
X134051475Y-121775514D01*
X133983359Y-121730000D01*
X134051475Y-121684486D01*
X134416737Y-121137833D01*
X134545000Y-120493011D01*
X134545000Y-120426989D01*
X134416737Y-119782167D01*
X134051475Y-119235514D01*
X133504822Y-118870252D01*
X132860000Y-118741989D01*
X132215178Y-118870252D01*
X131668525Y-119235514D01*
X131590000Y-119353035D01*
X131511475Y-119235514D01*
X130964822Y-118870252D01*
X130320000Y-118741989D01*
X129675178Y-118870252D01*
X129128525Y-119235514D01*
X129044763Y-119360873D01*
X128577752Y-118975793D01*
X128265394Y-118846428D01*
X128007000Y-119001307D01*
X128007000Y-120233000D01*
X128027000Y-120233000D01*
X128027000Y-120687000D01*
X128007000Y-120687000D01*
X128007000Y-120707000D01*
X127553000Y-120707000D01*
X127553000Y-120687000D01*
X127533000Y-120687000D01*
X127533000Y-120233000D01*
X127553000Y-120233000D01*
X127553000Y-119001307D01*
X127294606Y-118846428D01*
X126982248Y-118975793D01*
X126515237Y-119360873D01*
X126431475Y-119235514D01*
X125884822Y-118870252D01*
X125240000Y-118741989D01*
X124595178Y-118870252D01*
X124048525Y-119235514D01*
X123970000Y-119353035D01*
X123891475Y-119235514D01*
X123344822Y-118870252D01*
X122700000Y-118741989D01*
X122055178Y-118870252D01*
X121508525Y-119235514D01*
X121430000Y-119353035D01*
X121351475Y-119235514D01*
X120804822Y-118870252D01*
X120160000Y-118741989D01*
X119515178Y-118870252D01*
X118968525Y-119235514D01*
X118890000Y-119353035D01*
X118811475Y-119235514D01*
X118264822Y-118870252D01*
X117620000Y-118741989D01*
X116975178Y-118870252D01*
X116428525Y-119235514D01*
X116350000Y-119353035D01*
X116271475Y-119235514D01*
X115724822Y-118870252D01*
X115080000Y-118741989D01*
X114435178Y-118870252D01*
X113888525Y-119235514D01*
X113810000Y-119353035D01*
X113731475Y-119235514D01*
X113184822Y-118870252D01*
X112540000Y-118741989D01*
X111895178Y-118870252D01*
X111348525Y-119235514D01*
X111270000Y-119353035D01*
X111191475Y-119235514D01*
X110644822Y-118870252D01*
X110000000Y-118741989D01*
X109355178Y-118870252D01*
X108808525Y-119235514D01*
X108443263Y-119782167D01*
X108315000Y-120426989D01*
X108315000Y-120493011D01*
X108443263Y-121137833D01*
X108665072Y-121469794D01*
X108556373Y-121539740D01*
X108365717Y-121818774D01*
X108298642Y-122150000D01*
X108298642Y-123850000D01*
X108343801Y-124090000D01*
X90910000Y-124090000D01*
X90910000Y-110114302D01*
X91089740Y-110393627D01*
X91368774Y-110584283D01*
X91700000Y-110651358D01*
X93300000Y-110651358D01*
X93609432Y-110593134D01*
X93893627Y-110410260D01*
X94084283Y-110131226D01*
X94151358Y-109800000D01*
X94151358Y-108200000D01*
X94093134Y-107890568D01*
X93910260Y-107606373D01*
X93762242Y-107505236D01*
X94042575Y-107085687D01*
X94167032Y-106460000D01*
X94042575Y-105834313D01*
X93688152Y-105303880D01*
X93157719Y-104949457D01*
X92532032Y-104825000D01*
X92467968Y-104825000D01*
X91842281Y-104949457D01*
X91311848Y-105303880D01*
X90957425Y-105834313D01*
X90910000Y-106072734D01*
X90910000Y-75910000D01*
X108691937Y-75910000D01*
X108443263Y-76282167D01*
X108443263Y-76282167D01*
G37*
X108443263Y-76282167D02*
X108315000Y-76926989D01*
X108315000Y-76993011D01*
X108443263Y-77637833D01*
X108665072Y-77969794D01*
X108556373Y-78039740D01*
X108365717Y-78318774D01*
X108298642Y-78650000D01*
X108298642Y-80350000D01*
X108356866Y-80659432D01*
X108539740Y-80943627D01*
X108818774Y-81134283D01*
X109150000Y-81201358D01*
X110850000Y-81201358D01*
X111159432Y-81143134D01*
X111443627Y-80960260D01*
X111524420Y-80842015D01*
X111895178Y-81089748D01*
X112540000Y-81218011D01*
X113184822Y-81089748D01*
X113731475Y-80724486D01*
X113810000Y-80606965D01*
X113888525Y-80724486D01*
X114435178Y-81089748D01*
X115080000Y-81218011D01*
X115724822Y-81089748D01*
X116271475Y-80724486D01*
X116350000Y-80606965D01*
X116428525Y-80724486D01*
X116975178Y-81089748D01*
X117620000Y-81218011D01*
X118264822Y-81089748D01*
X118811475Y-80724486D01*
X118890000Y-80606965D01*
X118968525Y-80724486D01*
X119515178Y-81089748D01*
X120160000Y-81218011D01*
X120804822Y-81089748D01*
X121351475Y-80724486D01*
X121430000Y-80606965D01*
X121508525Y-80724486D01*
X122055178Y-81089748D01*
X122700000Y-81218011D01*
X123344822Y-81089748D01*
X123891475Y-80724486D01*
X123970000Y-80606965D01*
X124048525Y-80724486D01*
X124595178Y-81089748D01*
X125240000Y-81218011D01*
X125884822Y-81089748D01*
X126431475Y-80724486D01*
X126510000Y-80606965D01*
X126588525Y-80724486D01*
X127135178Y-81089748D01*
X127780000Y-81218011D01*
X128424822Y-81089748D01*
X128971475Y-80724486D01*
X129050000Y-80606965D01*
X129128525Y-80724486D01*
X129675178Y-81089748D01*
X130320000Y-81218011D01*
X130964822Y-81089748D01*
X131511475Y-80724486D01*
X131590000Y-80606965D01*
X131668525Y-80724486D01*
X132215178Y-81089748D01*
X132860000Y-81218011D01*
X133504822Y-81089748D01*
X134051475Y-80724486D01*
X134416737Y-80177833D01*
X134545000Y-79533011D01*
X134545000Y-79466989D01*
X134416737Y-78822167D01*
X134051475Y-78275514D01*
X133983359Y-78230000D01*
X134051475Y-78184486D01*
X134416737Y-77637833D01*
X134449204Y-77474606D01*
X135886428Y-77474606D01*
X136041307Y-77733000D01*
X137273000Y-77733000D01*
X137273000Y-76499095D01*
X137014603Y-76346412D01*
X136434058Y-76654992D01*
X136015793Y-77162248D01*
X135886428Y-77474606D01*
X134449204Y-77474606D01*
X134545000Y-76993011D01*
X134545000Y-76926989D01*
X134416737Y-76282167D01*
X134168063Y-75910000D01*
X139090000Y-75910000D01*
X139090000Y-77417690D01*
X138984207Y-77162248D01*
X138565942Y-76654992D01*
X137985397Y-76346412D01*
X137727000Y-76499095D01*
X137727000Y-77733000D01*
X137747000Y-77733000D01*
X137747000Y-78187000D01*
X137727000Y-78187000D01*
X137727000Y-78207000D01*
X137273000Y-78207000D01*
X137273000Y-78187000D01*
X136041307Y-78187000D01*
X135886428Y-78445394D01*
X136015793Y-78757752D01*
X136181774Y-78959047D01*
X136056373Y-79039740D01*
X135865717Y-79318774D01*
X135798642Y-79650000D01*
X135798642Y-81350000D01*
X135856866Y-81659432D01*
X135884322Y-81702100D01*
X134310055Y-87369460D01*
X134304083Y-87449363D01*
X131988446Y-89765000D01*
X122500000Y-89765000D01*
X122027386Y-89859009D01*
X121626723Y-90126723D01*
X111626723Y-100126723D01*
X111359009Y-100527386D01*
X111265000Y-101000000D01*
X111265000Y-103488446D01*
X107988446Y-106765000D01*
X106415811Y-106765000D01*
X106410260Y-106756373D01*
X106131226Y-106565717D01*
X105800000Y-106498642D01*
X105100000Y-106498642D01*
X104790568Y-106556866D01*
X104506373Y-106739740D01*
X104499862Y-106749269D01*
X104231226Y-106565717D01*
X103900000Y-106498642D01*
X103200000Y-106498642D01*
X102890568Y-106556866D01*
X102606373Y-106739740D01*
X102415717Y-107018774D01*
X102348642Y-107350000D01*
X102348642Y-107765000D01*
X101190099Y-107765000D01*
X101137718Y-107730000D01*
X101308152Y-107616120D01*
X101662575Y-107085687D01*
X101692586Y-106934811D01*
X101732409Y-106875212D01*
X101815000Y-106460000D01*
X101732409Y-106044788D01*
X101692586Y-105985189D01*
X101662575Y-105834313D01*
X101308152Y-105303880D01*
X101205000Y-105234956D01*
X101205000Y-104790246D01*
X101607854Y-104957526D01*
X102178732Y-104958024D01*
X102328312Y-104896219D01*
X102508281Y-105331779D01*
X102911601Y-105735803D01*
X103438833Y-105954729D01*
X104009711Y-105955227D01*
X104537324Y-105737222D01*
X104716580Y-105558278D01*
X105002223Y-105844420D01*
X105529455Y-106063346D01*
X106100333Y-106063844D01*
X106627946Y-105845839D01*
X107031970Y-105442519D01*
X107163969Y-105124630D01*
X107456849Y-105246245D01*
X108027727Y-105246743D01*
X108555340Y-105028738D01*
X108959364Y-104625418D01*
X109178290Y-104098186D01*
X109178652Y-103683247D01*
X109407221Y-103683446D01*
X109934834Y-103465441D01*
X110338858Y-103062121D01*
X110557784Y-102534889D01*
X110558282Y-101964011D01*
X110371145Y-101511104D01*
X110504550Y-101455982D01*
X110908574Y-101052662D01*
X111127500Y-100525430D01*
X111127998Y-99954552D01*
X110909993Y-99426939D01*
X110506673Y-99022915D01*
X110505843Y-99022570D01*
X110543913Y-98984566D01*
X110762839Y-98457334D01*
X110763337Y-97886456D01*
X110545332Y-97358843D01*
X110142012Y-96954819D01*
X109614780Y-96735893D01*
X109540230Y-96735828D01*
X109540703Y-96193037D01*
X109322698Y-95665424D01*
X108919378Y-95261400D01*
X108392146Y-95042474D01*
X107821268Y-95041976D01*
X107671688Y-95103781D01*
X107491719Y-94668221D01*
X107088399Y-94264197D01*
X106561167Y-94045271D01*
X105990289Y-94044773D01*
X105462676Y-94262778D01*
X105058652Y-94666098D01*
X104839726Y-95193330D01*
X104839228Y-95764208D01*
X105057233Y-96291821D01*
X105115444Y-96350134D01*
X101742283Y-99723295D01*
X101742498Y-99477074D01*
X101562819Y-99042216D01*
X101692239Y-98988741D01*
X102096263Y-98585421D01*
X102315189Y-98058189D01*
X102315568Y-97623557D01*
X102540647Y-97623753D01*
X103068260Y-97405748D01*
X103472284Y-97002428D01*
X103691210Y-96475196D01*
X103691708Y-95904318D01*
X103473703Y-95376705D01*
X103070383Y-94972681D01*
X102543151Y-94753755D01*
X101972273Y-94753257D01*
X101444660Y-94971262D01*
X101040636Y-95374582D01*
X100821710Y-95901814D01*
X100821331Y-96336446D01*
X100596252Y-96336250D01*
X100068639Y-96554255D01*
X99664615Y-96957575D01*
X99445689Y-97484807D01*
X99445191Y-98055685D01*
X99624870Y-98490543D01*
X99495450Y-98544018D01*
X99091426Y-98947338D01*
X98872500Y-99474570D01*
X98872002Y-100045448D01*
X99090007Y-100573061D01*
X99493327Y-100977085D01*
X100020559Y-101196011D01*
X100269350Y-101196228D01*
X99352789Y-102112789D01*
X99117591Y-102464788D01*
X99035000Y-102880000D01*
X99035000Y-105234956D01*
X98931848Y-105303880D01*
X98577425Y-105834313D01*
X98452968Y-106460000D01*
X98577425Y-107085687D01*
X98931848Y-107616120D01*
X99102282Y-107730000D01*
X98931848Y-107843880D01*
X98577425Y-108374313D01*
X98452968Y-109000000D01*
X98577425Y-109625687D01*
X98931848Y-110156120D01*
X99462281Y-110510543D01*
X100087968Y-110635000D01*
X100152032Y-110635000D01*
X100777719Y-110510543D01*
X101190099Y-110235000D01*
X103000000Y-110235000D01*
X103472614Y-110140991D01*
X103873277Y-109873277D01*
X104423277Y-109323277D01*
X104444081Y-109292142D01*
X104493627Y-109260260D01*
X104500138Y-109250731D01*
X104768774Y-109434283D01*
X105100000Y-109501358D01*
X105800000Y-109501358D01*
X106109432Y-109443134D01*
X106393627Y-109260260D01*
X106410886Y-109235000D01*
X112768759Y-109235000D01*
X112927386Y-109340991D01*
X113400000Y-109435000D01*
X132284189Y-109435000D01*
X132289740Y-109443627D01*
X132568774Y-109634283D01*
X132900000Y-109701358D01*
X133600000Y-109701358D01*
X133909432Y-109643134D01*
X134193627Y-109460260D01*
X134200138Y-109450731D01*
X134468774Y-109634283D01*
X134800000Y-109701358D01*
X135500000Y-109701358D01*
X135809432Y-109643134D01*
X136093627Y-109460260D01*
X136284283Y-109181226D01*
X136287263Y-109166512D01*
X136410252Y-109784822D01*
X136775514Y-110331475D01*
X136915000Y-110424677D01*
X136915000Y-111873469D01*
X136815717Y-112018774D01*
X136748642Y-112350000D01*
X136748642Y-113250000D01*
X136806866Y-113559432D01*
X136822998Y-113584502D01*
X136822998Y-113696748D01*
X136641250Y-113515000D01*
X136483908Y-113515000D01*
X136177011Y-113642121D01*
X135942121Y-113877010D01*
X135815000Y-114183908D01*
X135815000Y-114366250D01*
X136023750Y-114575000D01*
X136850000Y-114575000D01*
X136850000Y-114553000D01*
X137250000Y-114553000D01*
X137250000Y-114575000D01*
X137297000Y-114575000D01*
X137297000Y-115025000D01*
X137250000Y-115025000D01*
X137250000Y-115047000D01*
X136850000Y-115047000D01*
X136850000Y-115025000D01*
X136023750Y-115025000D01*
X135815000Y-115233750D01*
X135815000Y-115416092D01*
X135942121Y-115722990D01*
X136177011Y-115957879D01*
X136483908Y-116085000D01*
X136641250Y-116085000D01*
X136822998Y-115903252D01*
X136822998Y-116085000D01*
X136963739Y-116085000D01*
X136956373Y-116089740D01*
X136765717Y-116368774D01*
X136698642Y-116700000D01*
X136698642Y-117400000D01*
X136756866Y-117709432D01*
X136939740Y-117993627D01*
X136949269Y-118000138D01*
X136765717Y-118268774D01*
X136698642Y-118600000D01*
X136698642Y-119300000D01*
X136756866Y-119609432D01*
X136939740Y-119893627D01*
X137115000Y-120013377D01*
X137115000Y-121613930D01*
X135484499Y-123615000D01*
X134429235Y-123615000D01*
X134545000Y-123033011D01*
X134545000Y-122966989D01*
X134416737Y-122322167D01*
X134051475Y-121775514D01*
X133983359Y-121730000D01*
X134051475Y-121684486D01*
X134416737Y-121137833D01*
X134545000Y-120493011D01*
X134545000Y-120426989D01*
X134416737Y-119782167D01*
X134051475Y-119235514D01*
X133504822Y-118870252D01*
X132860000Y-118741989D01*
X132215178Y-118870252D01*
X131668525Y-119235514D01*
X131590000Y-119353035D01*
X131511475Y-119235514D01*
X130964822Y-118870252D01*
X130320000Y-118741989D01*
X129675178Y-118870252D01*
X129128525Y-119235514D01*
X129044763Y-119360873D01*
X128577752Y-118975793D01*
X128265394Y-118846428D01*
X128007000Y-119001307D01*
X128007000Y-120233000D01*
X128027000Y-120233000D01*
X128027000Y-120687000D01*
X128007000Y-120687000D01*
X128007000Y-120707000D01*
X127553000Y-120707000D01*
X127553000Y-120687000D01*
X127533000Y-120687000D01*
X127533000Y-120233000D01*
X127553000Y-120233000D01*
X127553000Y-119001307D01*
X127294606Y-118846428D01*
X126982248Y-118975793D01*
X126515237Y-119360873D01*
X126431475Y-119235514D01*
X125884822Y-118870252D01*
X125240000Y-118741989D01*
X124595178Y-118870252D01*
X124048525Y-119235514D01*
X123970000Y-119353035D01*
X123891475Y-119235514D01*
X123344822Y-118870252D01*
X122700000Y-118741989D01*
X122055178Y-118870252D01*
X121508525Y-119235514D01*
X121430000Y-119353035D01*
X121351475Y-119235514D01*
X120804822Y-118870252D01*
X120160000Y-118741989D01*
X119515178Y-118870252D01*
X118968525Y-119235514D01*
X118890000Y-119353035D01*
X118811475Y-119235514D01*
X118264822Y-118870252D01*
X117620000Y-118741989D01*
X116975178Y-118870252D01*
X116428525Y-119235514D01*
X116350000Y-119353035D01*
X116271475Y-119235514D01*
X115724822Y-118870252D01*
X115080000Y-118741989D01*
X114435178Y-118870252D01*
X113888525Y-119235514D01*
X113810000Y-119353035D01*
X113731475Y-119235514D01*
X113184822Y-118870252D01*
X112540000Y-118741989D01*
X111895178Y-118870252D01*
X111348525Y-119235514D01*
X111270000Y-119353035D01*
X111191475Y-119235514D01*
X110644822Y-118870252D01*
X110000000Y-118741989D01*
X109355178Y-118870252D01*
X108808525Y-119235514D01*
X108443263Y-119782167D01*
X108315000Y-120426989D01*
X108315000Y-120493011D01*
X108443263Y-121137833D01*
X108665072Y-121469794D01*
X108556373Y-121539740D01*
X108365717Y-121818774D01*
X108298642Y-122150000D01*
X108298642Y-123850000D01*
X108343801Y-124090000D01*
X90910000Y-124090000D01*
X90910000Y-110114302D01*
X91089740Y-110393627D01*
X91368774Y-110584283D01*
X91700000Y-110651358D01*
X93300000Y-110651358D01*
X93609432Y-110593134D01*
X93893627Y-110410260D01*
X94084283Y-110131226D01*
X94151358Y-109800000D01*
X94151358Y-108200000D01*
X94093134Y-107890568D01*
X93910260Y-107606373D01*
X93762242Y-107505236D01*
X94042575Y-107085687D01*
X94167032Y-106460000D01*
X94042575Y-105834313D01*
X93688152Y-105303880D01*
X93157719Y-104949457D01*
X92532032Y-104825000D01*
X92467968Y-104825000D01*
X91842281Y-104949457D01*
X91311848Y-105303880D01*
X90957425Y-105834313D01*
X90910000Y-106072734D01*
X90910000Y-75910000D01*
X108691937Y-75910000D01*
X108443263Y-76282167D01*
G36*
X139090000Y-88365000D02*
X138835750Y-88365000D01*
X138627000Y-88573750D01*
X138627000Y-89375000D01*
X138647000Y-89375000D01*
X138647000Y-89725000D01*
X138627000Y-89725000D01*
X138627000Y-89797000D01*
X138173000Y-89797000D01*
X138173000Y-89725000D01*
X137123750Y-89725000D01*
X136915000Y-89933750D01*
X136915000Y-90066092D01*
X137042121Y-90372990D01*
X137157893Y-90488762D01*
X137156373Y-90489740D01*
X136965717Y-90768774D01*
X136898642Y-91100000D01*
X136898642Y-91800000D01*
X136956866Y-92109432D01*
X137139740Y-92393627D01*
X137161230Y-92408310D01*
X136914313Y-92457425D01*
X136494792Y-92737739D01*
X136410260Y-92606373D01*
X136131226Y-92415717D01*
X135800000Y-92348642D01*
X134200000Y-92348642D01*
X133890568Y-92406866D01*
X133606373Y-92589740D01*
X133415717Y-92868774D01*
X133348642Y-93200000D01*
X133348642Y-94800000D01*
X133406866Y-95109432D01*
X133589740Y-95393627D01*
X133868774Y-95584283D01*
X134200000Y-95651358D01*
X135800000Y-95651358D01*
X136109432Y-95593134D01*
X136393627Y-95410260D01*
X136494764Y-95262242D01*
X136914313Y-95542575D01*
X137540000Y-95667032D01*
X138165687Y-95542575D01*
X138696120Y-95188152D01*
X139050543Y-94657719D01*
X139090000Y-94459355D01*
X139090000Y-101160645D01*
X139050543Y-100962281D01*
X138696120Y-100431848D01*
X138625000Y-100384327D01*
X138625000Y-99040000D01*
X138614522Y-98987322D01*
X138542410Y-98624789D01*
X138307211Y-98272789D01*
X136267211Y-96232789D01*
X136203970Y-96190533D01*
X135915212Y-95997591D01*
X135500000Y-95915000D01*
X132949422Y-95915000D01*
X130267211Y-93232789D01*
X130128342Y-93140000D01*
X129915212Y-92997591D01*
X129500000Y-92915000D01*
X127754497Y-92915000D01*
X127339286Y-92997590D01*
X126987286Y-93232789D01*
X126175141Y-94044934D01*
X125990289Y-94044773D01*
X125462676Y-94262778D01*
X125058652Y-94666098D01*
X124839726Y-95193330D01*
X124839228Y-95764208D01*
X125057233Y-96291821D01*
X125460553Y-96695845D01*
X125987785Y-96914771D01*
X126558663Y-96915269D01*
X126708243Y-96853464D01*
X126888212Y-97289024D01*
X127291532Y-97693048D01*
X127818764Y-97911974D01*
X127893314Y-97912039D01*
X127892841Y-98454830D01*
X128110846Y-98982443D01*
X128514166Y-99386467D01*
X128514996Y-99386812D01*
X128476926Y-99424816D01*
X128258000Y-99952048D01*
X128257502Y-100522926D01*
X128444639Y-100975833D01*
X128311234Y-101030955D01*
X127907210Y-101434275D01*
X127688284Y-101961507D01*
X127687922Y-102376446D01*
X127459353Y-102376247D01*
X126931740Y-102594252D01*
X126527716Y-102997572D01*
X126395717Y-103315461D01*
X126102837Y-103193846D01*
X125531959Y-103193348D01*
X125004346Y-103411353D01*
X124825090Y-103590297D01*
X124539447Y-103304155D01*
X124012215Y-103085229D01*
X123441337Y-103084731D01*
X123291757Y-103146536D01*
X123111788Y-102710976D01*
X122708468Y-102306952D01*
X122181236Y-102088026D01*
X121610358Y-102087528D01*
X121082745Y-102305533D01*
X120678721Y-102708853D01*
X120459795Y-103236085D01*
X120459297Y-103806963D01*
X120677302Y-104334576D01*
X121080622Y-104738600D01*
X121607854Y-104957526D01*
X122178732Y-104958024D01*
X122328312Y-104896219D01*
X122508281Y-105331779D01*
X122911601Y-105735803D01*
X123438833Y-105954729D01*
X124009711Y-105955227D01*
X124537324Y-105737222D01*
X124716580Y-105558278D01*
X125002223Y-105844420D01*
X125529455Y-106063346D01*
X126100333Y-106063844D01*
X126627946Y-105845839D01*
X127031970Y-105442519D01*
X127163969Y-105124630D01*
X127456849Y-105246245D01*
X128027727Y-105246743D01*
X128555340Y-105028738D01*
X128959364Y-104625418D01*
X129178290Y-104098186D01*
X129178652Y-103683247D01*
X129407221Y-103683446D01*
X129934834Y-103465441D01*
X130338858Y-103062121D01*
X130557784Y-102534889D01*
X130558282Y-101964011D01*
X130371145Y-101511104D01*
X130504550Y-101455982D01*
X130908574Y-101052662D01*
X131127500Y-100525430D01*
X131127998Y-99954552D01*
X130909993Y-99426939D01*
X130506673Y-99022915D01*
X130505843Y-99022570D01*
X130543913Y-98984566D01*
X130762839Y-98457334D01*
X130763337Y-97886456D01*
X130545332Y-97358843D01*
X130142012Y-96954819D01*
X129614780Y-96735893D01*
X129540230Y-96735828D01*
X129540703Y-96193037D01*
X129322698Y-95665424D01*
X128919378Y-95261400D01*
X128494560Y-95085000D01*
X129050578Y-95085000D01*
X131732789Y-97767211D01*
X132084789Y-98002410D01*
X132500000Y-98085000D01*
X135050578Y-98085000D01*
X136455000Y-99489422D01*
X136455000Y-100384327D01*
X136383880Y-100431848D01*
X136270000Y-100602282D01*
X136156120Y-100431848D01*
X135625687Y-100077425D01*
X135000000Y-99952968D01*
X134374313Y-100077425D01*
X133843880Y-100431848D01*
X133489457Y-100962281D01*
X133365000Y-101587968D01*
X133365000Y-101652032D01*
X133376373Y-101709205D01*
X132736936Y-102348642D01*
X132350000Y-102348642D01*
X132040568Y-102406866D01*
X131756373Y-102589740D01*
X131565717Y-102868774D01*
X131498642Y-103200000D01*
X131498642Y-103900000D01*
X131556866Y-104209432D01*
X131739740Y-104493627D01*
X131749269Y-104500138D01*
X131565717Y-104768774D01*
X131498642Y-105100000D01*
X131498642Y-105800000D01*
X131556866Y-106109432D01*
X131739740Y-106393627D01*
X132018774Y-106584283D01*
X132165000Y-106613895D01*
X132165000Y-106965000D01*
X115631241Y-106965000D01*
X115472614Y-106859009D01*
X115000000Y-106765000D01*
X111481554Y-106765000D01*
X113373277Y-104873277D01*
X113640991Y-104472614D01*
X113735000Y-104000000D01*
X113735000Y-101511554D01*
X115201106Y-100045448D01*
X118872002Y-100045448D01*
X119090007Y-100573061D01*
X119493327Y-100977085D01*
X120020559Y-101196011D01*
X120591437Y-101196509D01*
X121119050Y-100978504D01*
X121523074Y-100575184D01*
X121742000Y-100047952D01*
X121742498Y-99477074D01*
X121562819Y-99042216D01*
X121692239Y-98988741D01*
X122096263Y-98585421D01*
X122315189Y-98058189D01*
X122315568Y-97623557D01*
X122540647Y-97623753D01*
X123068260Y-97405748D01*
X123472284Y-97002428D01*
X123691210Y-96475196D01*
X123691708Y-95904318D01*
X123473703Y-95376705D01*
X123070383Y-94972681D01*
X122543151Y-94753755D01*
X121972273Y-94753257D01*
X121444660Y-94971262D01*
X121040636Y-95374582D01*
X120821710Y-95901814D01*
X120821331Y-96336446D01*
X120596252Y-96336250D01*
X120068639Y-96554255D01*
X119664615Y-96957575D01*
X119445689Y-97484807D01*
X119445191Y-98055685D01*
X119624870Y-98490543D01*
X119495450Y-98544018D01*
X119091426Y-98947338D01*
X118872500Y-99474570D01*
X118872002Y-100045448D01*
X115201106Y-100045448D01*
X123011554Y-92235000D01*
X132500000Y-92235000D01*
X132972614Y-92140991D01*
X133373277Y-91873277D01*
X136212646Y-89033908D01*
X136915000Y-89033908D01*
X136915000Y-89166250D01*
X137123750Y-89375000D01*
X138173000Y-89375000D01*
X138173000Y-88573750D01*
X137964250Y-88365000D01*
X137583908Y-88365000D01*
X137277011Y-88492121D01*
X137042121Y-88727010D01*
X136915000Y-89033908D01*
X136212646Y-89033908D01*
X136373277Y-88873277D01*
X136640991Y-88472614D01*
X136735000Y-88000000D01*
X136735000Y-87868342D01*
X138309162Y-82201358D01*
X138350000Y-82201358D01*
X138659432Y-82143134D01*
X138943627Y-81960260D01*
X139090000Y-81746036D01*
X139090000Y-88365000D01*
X139090000Y-88365000D01*
G37*
X139090000Y-88365000D02*
X138835750Y-88365000D01*
X138627000Y-88573750D01*
X138627000Y-89375000D01*
X138647000Y-89375000D01*
X138647000Y-89725000D01*
X138627000Y-89725000D01*
X138627000Y-89797000D01*
X138173000Y-89797000D01*
X138173000Y-89725000D01*
X137123750Y-89725000D01*
X136915000Y-89933750D01*
X136915000Y-90066092D01*
X137042121Y-90372990D01*
X137157893Y-90488762D01*
X137156373Y-90489740D01*
X136965717Y-90768774D01*
X136898642Y-91100000D01*
X136898642Y-91800000D01*
X136956866Y-92109432D01*
X137139740Y-92393627D01*
X137161230Y-92408310D01*
X136914313Y-92457425D01*
X136494792Y-92737739D01*
X136410260Y-92606373D01*
X136131226Y-92415717D01*
X135800000Y-92348642D01*
X134200000Y-92348642D01*
X133890568Y-92406866D01*
X133606373Y-92589740D01*
X133415717Y-92868774D01*
X133348642Y-93200000D01*
X133348642Y-94800000D01*
X133406866Y-95109432D01*
X133589740Y-95393627D01*
X133868774Y-95584283D01*
X134200000Y-95651358D01*
X135800000Y-95651358D01*
X136109432Y-95593134D01*
X136393627Y-95410260D01*
X136494764Y-95262242D01*
X136914313Y-95542575D01*
X137540000Y-95667032D01*
X138165687Y-95542575D01*
X138696120Y-95188152D01*
X139050543Y-94657719D01*
X139090000Y-94459355D01*
X139090000Y-101160645D01*
X139050543Y-100962281D01*
X138696120Y-100431848D01*
X138625000Y-100384327D01*
X138625000Y-99040000D01*
X138614522Y-98987322D01*
X138542410Y-98624789D01*
X138307211Y-98272789D01*
X136267211Y-96232789D01*
X136203970Y-96190533D01*
X135915212Y-95997591D01*
X135500000Y-95915000D01*
X132949422Y-95915000D01*
X130267211Y-93232789D01*
X130128342Y-93140000D01*
X129915212Y-92997591D01*
X129500000Y-92915000D01*
X127754497Y-92915000D01*
X127339286Y-92997590D01*
X126987286Y-93232789D01*
X126175141Y-94044934D01*
X125990289Y-94044773D01*
X125462676Y-94262778D01*
X125058652Y-94666098D01*
X124839726Y-95193330D01*
X124839228Y-95764208D01*
X125057233Y-96291821D01*
X125460553Y-96695845D01*
X125987785Y-96914771D01*
X126558663Y-96915269D01*
X126708243Y-96853464D01*
X126888212Y-97289024D01*
X127291532Y-97693048D01*
X127818764Y-97911974D01*
X127893314Y-97912039D01*
X127892841Y-98454830D01*
X128110846Y-98982443D01*
X128514166Y-99386467D01*
X128514996Y-99386812D01*
X128476926Y-99424816D01*
X128258000Y-99952048D01*
X128257502Y-100522926D01*
X128444639Y-100975833D01*
X128311234Y-101030955D01*
X127907210Y-101434275D01*
X127688284Y-101961507D01*
X127687922Y-102376446D01*
X127459353Y-102376247D01*
X126931740Y-102594252D01*
X126527716Y-102997572D01*
X126395717Y-103315461D01*
X126102837Y-103193846D01*
X125531959Y-103193348D01*
X125004346Y-103411353D01*
X124825090Y-103590297D01*
X124539447Y-103304155D01*
X124012215Y-103085229D01*
X123441337Y-103084731D01*
X123291757Y-103146536D01*
X123111788Y-102710976D01*
X122708468Y-102306952D01*
X122181236Y-102088026D01*
X121610358Y-102087528D01*
X121082745Y-102305533D01*
X120678721Y-102708853D01*
X120459795Y-103236085D01*
X120459297Y-103806963D01*
X120677302Y-104334576D01*
X121080622Y-104738600D01*
X121607854Y-104957526D01*
X122178732Y-104958024D01*
X122328312Y-104896219D01*
X122508281Y-105331779D01*
X122911601Y-105735803D01*
X123438833Y-105954729D01*
X124009711Y-105955227D01*
X124537324Y-105737222D01*
X124716580Y-105558278D01*
X125002223Y-105844420D01*
X125529455Y-106063346D01*
X126100333Y-106063844D01*
X126627946Y-105845839D01*
X127031970Y-105442519D01*
X127163969Y-105124630D01*
X127456849Y-105246245D01*
X128027727Y-105246743D01*
X128555340Y-105028738D01*
X128959364Y-104625418D01*
X129178290Y-104098186D01*
X129178652Y-103683247D01*
X129407221Y-103683446D01*
X129934834Y-103465441D01*
X130338858Y-103062121D01*
X130557784Y-102534889D01*
X130558282Y-101964011D01*
X130371145Y-101511104D01*
X130504550Y-101455982D01*
X130908574Y-101052662D01*
X131127500Y-100525430D01*
X131127998Y-99954552D01*
X130909993Y-99426939D01*
X130506673Y-99022915D01*
X130505843Y-99022570D01*
X130543913Y-98984566D01*
X130762839Y-98457334D01*
X130763337Y-97886456D01*
X130545332Y-97358843D01*
X130142012Y-96954819D01*
X129614780Y-96735893D01*
X129540230Y-96735828D01*
X129540703Y-96193037D01*
X129322698Y-95665424D01*
X128919378Y-95261400D01*
X128494560Y-95085000D01*
X129050578Y-95085000D01*
X131732789Y-97767211D01*
X132084789Y-98002410D01*
X132500000Y-98085000D01*
X135050578Y-98085000D01*
X136455000Y-99489422D01*
X136455000Y-100384327D01*
X136383880Y-100431848D01*
X136270000Y-100602282D01*
X136156120Y-100431848D01*
X135625687Y-100077425D01*
X135000000Y-99952968D01*
X134374313Y-100077425D01*
X133843880Y-100431848D01*
X133489457Y-100962281D01*
X133365000Y-101587968D01*
X133365000Y-101652032D01*
X133376373Y-101709205D01*
X132736936Y-102348642D01*
X132350000Y-102348642D01*
X132040568Y-102406866D01*
X131756373Y-102589740D01*
X131565717Y-102868774D01*
X131498642Y-103200000D01*
X131498642Y-103900000D01*
X131556866Y-104209432D01*
X131739740Y-104493627D01*
X131749269Y-104500138D01*
X131565717Y-104768774D01*
X131498642Y-105100000D01*
X131498642Y-105800000D01*
X131556866Y-106109432D01*
X131739740Y-106393627D01*
X132018774Y-106584283D01*
X132165000Y-106613895D01*
X132165000Y-106965000D01*
X115631241Y-106965000D01*
X115472614Y-106859009D01*
X115000000Y-106765000D01*
X111481554Y-106765000D01*
X113373277Y-104873277D01*
X113640991Y-104472614D01*
X113735000Y-104000000D01*
X113735000Y-101511554D01*
X115201106Y-100045448D01*
X118872002Y-100045448D01*
X119090007Y-100573061D01*
X119493327Y-100977085D01*
X120020559Y-101196011D01*
X120591437Y-101196509D01*
X121119050Y-100978504D01*
X121523074Y-100575184D01*
X121742000Y-100047952D01*
X121742498Y-99477074D01*
X121562819Y-99042216D01*
X121692239Y-98988741D01*
X122096263Y-98585421D01*
X122315189Y-98058189D01*
X122315568Y-97623557D01*
X122540647Y-97623753D01*
X123068260Y-97405748D01*
X123472284Y-97002428D01*
X123691210Y-96475196D01*
X123691708Y-95904318D01*
X123473703Y-95376705D01*
X123070383Y-94972681D01*
X122543151Y-94753755D01*
X121972273Y-94753257D01*
X121444660Y-94971262D01*
X121040636Y-95374582D01*
X120821710Y-95901814D01*
X120821331Y-96336446D01*
X120596252Y-96336250D01*
X120068639Y-96554255D01*
X119664615Y-96957575D01*
X119445689Y-97484807D01*
X119445191Y-98055685D01*
X119624870Y-98490543D01*
X119495450Y-98544018D01*
X119091426Y-98947338D01*
X118872500Y-99474570D01*
X118872002Y-100045448D01*
X115201106Y-100045448D01*
X123011554Y-92235000D01*
X132500000Y-92235000D01*
X132972614Y-92140991D01*
X133373277Y-91873277D01*
X136212646Y-89033908D01*
X136915000Y-89033908D01*
X136915000Y-89166250D01*
X137123750Y-89375000D01*
X138173000Y-89375000D01*
X138173000Y-88573750D01*
X137964250Y-88365000D01*
X137583908Y-88365000D01*
X137277011Y-88492121D01*
X137042121Y-88727010D01*
X136915000Y-89033908D01*
X136212646Y-89033908D01*
X136373277Y-88873277D01*
X136640991Y-88472614D01*
X136735000Y-88000000D01*
X136735000Y-87868342D01*
X138309162Y-82201358D01*
X138350000Y-82201358D01*
X138659432Y-82143134D01*
X138943627Y-81960260D01*
X139090000Y-81746036D01*
X139090000Y-88365000D01*
M02*
