G04 #@! TF.FileFunction,Copper,L1,Top,Signal*
%FSLAX46Y46*%
G04 Gerber Fmt 4.6, Leading zero omitted, Abs format (unit mm)*
G04 Created by KiCad (PCBNEW 4.0.4-stable) date 12/02/17 22:43:03*
%MOMM*%
%LPD*%
G01*
G04 APERTURE LIST*
%ADD10C,0.100000*%
%ADD11C,1.200000*%
%ADD12R,1.700000X1.700000*%
%ADD13O,1.700000X1.700000*%
%ADD14R,1.600000X1.600000*%
%ADD15O,1.600000X1.600000*%
%ADD16R,0.800000X0.900000*%
%ADD17R,0.900000X0.800000*%
%ADD18R,1.300000X0.700000*%
%ADD19R,0.700000X1.300000*%
%ADD20C,0.600000*%
%ADD21C,0.500000*%
%ADD22C,0.300000*%
%ADD23C,0.250000*%
%ADD24C,0.180000*%
%ADD25C,0.254000*%
G04 APERTURE END LIST*
D10*
D11*
X122256460Y-96188505D03*
X120880439Y-97771498D03*
X120307250Y-99761261D03*
X121894545Y-103522776D03*
X123725524Y-104519979D03*
X125816146Y-104628596D03*
X127743540Y-103811495D03*
X129123034Y-102248198D03*
X129692750Y-100238739D03*
X129328089Y-98170643D03*
X128105455Y-96477224D03*
X126274476Y-95480021D03*
X102256460Y-96188505D03*
X100880439Y-97771498D03*
X100307250Y-99761261D03*
X101894545Y-103522776D03*
X103725524Y-104519979D03*
X105816146Y-104628596D03*
X107743540Y-103811495D03*
X109123034Y-102248198D03*
X109692750Y-100238739D03*
X109328089Y-98170643D03*
X108105455Y-96477224D03*
X106274476Y-95480021D03*
D12*
X138000000Y-106600000D03*
D13*
X138000000Y-109140000D03*
D14*
X135000000Y-94000000D03*
D15*
X137540000Y-101620000D03*
X137540000Y-94000000D03*
X135000000Y-101620000D03*
D12*
X110000000Y-123000000D03*
D13*
X110000000Y-120460000D03*
X112540000Y-123000000D03*
X112540000Y-120460000D03*
X115080000Y-123000000D03*
X115080000Y-120460000D03*
X117620000Y-123000000D03*
X117620000Y-120460000D03*
X120160000Y-123000000D03*
X120160000Y-120460000D03*
X122700000Y-123000000D03*
X122700000Y-120460000D03*
X125240000Y-123000000D03*
X125240000Y-120460000D03*
X127780000Y-123000000D03*
X127780000Y-120460000D03*
X130320000Y-123000000D03*
X130320000Y-120460000D03*
X132860000Y-123000000D03*
X132860000Y-120460000D03*
D12*
X110000000Y-79500000D03*
D13*
X110000000Y-76960000D03*
X112540000Y-79500000D03*
X112540000Y-76960000D03*
X115080000Y-79500000D03*
X115080000Y-76960000D03*
X117620000Y-79500000D03*
X117620000Y-76960000D03*
X120160000Y-79500000D03*
X120160000Y-76960000D03*
X122700000Y-79500000D03*
X122700000Y-76960000D03*
X125240000Y-79500000D03*
X125240000Y-76960000D03*
X127780000Y-79500000D03*
X127780000Y-76960000D03*
X130320000Y-79500000D03*
X130320000Y-76960000D03*
X132860000Y-79500000D03*
X132860000Y-76960000D03*
D14*
X92500000Y-109000000D03*
D15*
X100120000Y-106460000D03*
X92500000Y-106460000D03*
X100120000Y-109000000D03*
D16*
X121050000Y-110000000D03*
X122950000Y-110000000D03*
X122000000Y-108000000D03*
X117050000Y-110000000D03*
X118950000Y-110000000D03*
X118000000Y-108000000D03*
X113050000Y-110000000D03*
X114950000Y-110000000D03*
X114000000Y-108000000D03*
X123450000Y-89000000D03*
X121550000Y-89000000D03*
X122500000Y-91000000D03*
X127450000Y-89000000D03*
X125550000Y-89000000D03*
X126500000Y-91000000D03*
X131450000Y-89000000D03*
X129550000Y-89000000D03*
X130500000Y-91000000D03*
X135950000Y-89000000D03*
X134050000Y-89000000D03*
X135000000Y-91000000D03*
X133050000Y-110000000D03*
X134950000Y-110000000D03*
X134000000Y-108000000D03*
X129050000Y-110000000D03*
X130950000Y-110000000D03*
X130000000Y-108000000D03*
X125050000Y-110000000D03*
X126950000Y-110000000D03*
X126000000Y-108000000D03*
D17*
X95000000Y-101550000D03*
X95000000Y-103450000D03*
X97000000Y-102500000D03*
X95000000Y-97550000D03*
X95000000Y-99450000D03*
X97000000Y-98500000D03*
D16*
X94950000Y-89500000D03*
X93050000Y-89500000D03*
X94000000Y-91500000D03*
X104450000Y-90500000D03*
X102550000Y-90500000D03*
X103500000Y-92500000D03*
X108450000Y-90500000D03*
X106550000Y-90500000D03*
X107500000Y-92500000D03*
X112950000Y-90500000D03*
X111050000Y-90500000D03*
X112000000Y-92500000D03*
X113450000Y-96000000D03*
X111550000Y-96000000D03*
X112500000Y-98000000D03*
X105550000Y-113500000D03*
X107450000Y-113500000D03*
X106500000Y-111500000D03*
X101050000Y-116000000D03*
X102950000Y-116000000D03*
X102000000Y-114000000D03*
X96050000Y-116000000D03*
X97950000Y-116000000D03*
X97000000Y-114000000D03*
D18*
X121000000Y-112050000D03*
X121000000Y-113950000D03*
X113000000Y-112050000D03*
X113000000Y-113950000D03*
X123500000Y-86950000D03*
X123500000Y-85050000D03*
X127500000Y-86950000D03*
X127500000Y-85050000D03*
X131500000Y-86950000D03*
X131500000Y-85050000D03*
X136000000Y-86950000D03*
X136000000Y-85050000D03*
X133000000Y-112050000D03*
X133000000Y-113950000D03*
X129500000Y-112050000D03*
X129500000Y-113950000D03*
X125000000Y-112050000D03*
X125000000Y-113950000D03*
X117000000Y-112050000D03*
X117000000Y-113950000D03*
D19*
X93450000Y-101500000D03*
X91550000Y-101500000D03*
X93450000Y-97500000D03*
X91550000Y-97500000D03*
D18*
X94500000Y-87450000D03*
X94500000Y-85550000D03*
D19*
X95150000Y-107500000D03*
X97050000Y-107500000D03*
D18*
X104500000Y-88450000D03*
X104500000Y-86550000D03*
X108500000Y-88450000D03*
X108500000Y-86550000D03*
X113000000Y-88450000D03*
X113000000Y-86550000D03*
X115500000Y-95950000D03*
X115500000Y-94050000D03*
X105500000Y-115550000D03*
X105500000Y-117450000D03*
X101500000Y-118050000D03*
X101500000Y-119950000D03*
X96500000Y-118050000D03*
X96500000Y-119950000D03*
D12*
X137500000Y-80500000D03*
D13*
X137500000Y-77960000D03*
D20*
X108000000Y-115200000D03*
X134800000Y-111800000D03*
X131000000Y-111800000D03*
X126950000Y-111750000D03*
X123000000Y-111800000D03*
X119100000Y-111800000D03*
X115100000Y-111800000D03*
X103300000Y-117800000D03*
X98700000Y-117800000D03*
X97600000Y-111600000D03*
X93200000Y-103500000D03*
X93400000Y-99500000D03*
X134000000Y-87400000D03*
X129500000Y-87400000D03*
X125600000Y-87300000D03*
X121200000Y-87500000D03*
X111800000Y-94400000D03*
X111000000Y-88900000D03*
X106500000Y-88900000D03*
X102600000Y-89000000D03*
X92800000Y-88000000D03*
D21*
X121000000Y-112050000D02*
X121000000Y-110050000D01*
D22*
X121000000Y-110050000D02*
X121050000Y-110000000D01*
D21*
X107450000Y-113500000D02*
X107450000Y-114650000D01*
X107450000Y-114650000D02*
X108000000Y-115200000D01*
X134950000Y-110000000D02*
X134950000Y-111650000D01*
X134950000Y-111650000D02*
X134800000Y-111800000D01*
D22*
X131000000Y-111800000D02*
X130950000Y-111750000D01*
D21*
X130950000Y-111750000D02*
X130950000Y-110000000D01*
X126950000Y-110000000D02*
X126950000Y-111750000D01*
D22*
X126950000Y-111750000D02*
X127000000Y-111800000D01*
D21*
X122950000Y-111750000D02*
X122950000Y-110000000D01*
X123000000Y-111800000D02*
X122950000Y-111750000D01*
X118950000Y-110000000D02*
X118950000Y-111650000D01*
X118950000Y-111650000D02*
X119100000Y-111800000D01*
X114950000Y-111650000D02*
X114950000Y-110000000D01*
X115100000Y-111800000D02*
X114950000Y-111650000D01*
X102950000Y-116000000D02*
X102950000Y-117450000D01*
X102950000Y-117450000D02*
X103300000Y-117800000D01*
D22*
X97050000Y-107500000D02*
X97050000Y-111050000D01*
D21*
X97950000Y-117050000D02*
X97950000Y-116000000D01*
X98700000Y-117800000D02*
X97950000Y-117050000D01*
D22*
X97050000Y-111050000D02*
X97600000Y-111600000D01*
D21*
X95000000Y-103450000D02*
X95150000Y-103450000D01*
X95150000Y-103450000D02*
X97050000Y-105350000D01*
X97050000Y-105350000D02*
X97050000Y-107500000D01*
D22*
X95000000Y-103450000D02*
X93250000Y-103450000D01*
X93250000Y-103450000D02*
X93200000Y-103500000D01*
X93450000Y-99450000D02*
X95000000Y-99450000D01*
X93400000Y-99500000D02*
X93450000Y-99450000D01*
D21*
X134050000Y-89000000D02*
X134050000Y-87450000D01*
X134050000Y-87450000D02*
X134000000Y-87400000D01*
D22*
X129550000Y-87450000D02*
X129550000Y-89000000D01*
X129500000Y-87400000D02*
X129550000Y-87450000D01*
D21*
X125550000Y-89000000D02*
X125550000Y-87350000D01*
X125550000Y-87350000D02*
X125600000Y-87300000D01*
X121550000Y-87850000D02*
X121550000Y-89000000D01*
X121200000Y-87500000D02*
X121550000Y-87850000D01*
X111800000Y-94400000D02*
X111550000Y-94650000D01*
X111550000Y-94650000D02*
X111550000Y-96000000D01*
X111050000Y-90500000D02*
X111050000Y-88950000D01*
X111050000Y-88950000D02*
X111000000Y-88900000D01*
X106550000Y-88950000D02*
X106550000Y-90500000D01*
X106500000Y-88900000D02*
X106550000Y-88950000D01*
X102550000Y-90500000D02*
X102550000Y-89050000D01*
X102550000Y-89050000D02*
X102600000Y-89000000D01*
D22*
X93050000Y-89500000D02*
X93050000Y-88250000D01*
X93050000Y-88250000D02*
X92800000Y-88000000D01*
D21*
X122000000Y-108000000D02*
X122000000Y-106245503D01*
X122000000Y-106245503D02*
X123725524Y-104519979D01*
X117000000Y-112050000D02*
X117000000Y-110050000D01*
D22*
X117000000Y-110050000D02*
X117050000Y-110000000D01*
D21*
X118000000Y-108000000D02*
X118000000Y-106000000D01*
X120477224Y-103522776D02*
X121894545Y-103522776D01*
X118000000Y-106000000D02*
X120477224Y-103522776D01*
X122000000Y-103628231D02*
X121894545Y-103522776D01*
X113000000Y-112050000D02*
X113000000Y-110050000D01*
D22*
X113000000Y-110050000D02*
X113050000Y-110000000D01*
D21*
X114000000Y-108000000D02*
X114000000Y-105000000D01*
X119238739Y-99761261D02*
X120307250Y-99761261D01*
X114000000Y-105000000D02*
X119238739Y-99761261D01*
X123500000Y-86950000D02*
X123500000Y-88950000D01*
D22*
X123500000Y-88950000D02*
X123450000Y-89000000D01*
D21*
X122500000Y-91000000D02*
X119000000Y-94500000D01*
X119000000Y-95891059D02*
X120880439Y-97771498D01*
X119000000Y-94500000D02*
X119000000Y-95891059D01*
X127500000Y-86950000D02*
X127500000Y-88950000D01*
D22*
X127500000Y-88950000D02*
X127450000Y-89000000D01*
D21*
X122256460Y-96188505D02*
X122256460Y-95243540D01*
X122256460Y-95243540D02*
X126500000Y-91000000D01*
X131500000Y-86950000D02*
X131500000Y-88950000D01*
D22*
X131500000Y-88950000D02*
X131450000Y-89000000D01*
D21*
X128105455Y-96477224D02*
X128105455Y-93394545D01*
X128105455Y-93394545D02*
X130500000Y-91000000D01*
X130500000Y-91000000D02*
X130500000Y-91254497D01*
X136000000Y-86950000D02*
X136000000Y-88950000D01*
D22*
X136000000Y-88950000D02*
X135950000Y-89000000D01*
D21*
X129328089Y-98170643D02*
X129329357Y-98170643D01*
X129329357Y-98170643D02*
X132500000Y-95000000D01*
X132500000Y-95000000D02*
X132500000Y-92000000D01*
X132500000Y-92000000D02*
X133500000Y-91000000D01*
X133500000Y-91000000D02*
X135000000Y-91000000D01*
X133000000Y-112050000D02*
X133000000Y-110050000D01*
D22*
X133000000Y-110050000D02*
X133050000Y-110000000D01*
D21*
X134000000Y-108000000D02*
X134000000Y-104545989D01*
X134000000Y-104545989D02*
X129692750Y-100238739D01*
X129500000Y-112050000D02*
X129500000Y-110450000D01*
X129500000Y-110450000D02*
X129050000Y-110000000D01*
X130000000Y-108000000D02*
X130000000Y-106067955D01*
X130000000Y-106067955D02*
X127743540Y-103811495D01*
X125000000Y-112050000D02*
X125000000Y-110050000D01*
D22*
X125000000Y-110050000D02*
X125050000Y-110000000D01*
D21*
X126000000Y-108000000D02*
X126000000Y-104812450D01*
X126000000Y-104812450D02*
X125816146Y-104628596D01*
D22*
X94615000Y-85725000D02*
X94500000Y-85550000D01*
D21*
X100340000Y-80000000D02*
X94615000Y-85725000D01*
X110000000Y-80000000D02*
X100340000Y-80000000D01*
X115080000Y-79500000D02*
X115080000Y-81720000D01*
X107250000Y-83800000D02*
X104500000Y-86550000D01*
X113000000Y-83800000D02*
X107250000Y-83800000D01*
X115080000Y-81720000D02*
X113000000Y-83800000D01*
D22*
X115080000Y-80000000D02*
X114945000Y-80000000D01*
D23*
X123500000Y-85050000D02*
X123500000Y-84780000D01*
D21*
X123500000Y-84780000D02*
X127635000Y-80645000D01*
X127635000Y-80645000D02*
X127780000Y-80000000D01*
D22*
X93450000Y-101500000D02*
X94950000Y-101500000D01*
X94950000Y-101500000D02*
X95000000Y-101550000D01*
D21*
X97000000Y-102500000D02*
X100871769Y-102500000D01*
X100871769Y-102500000D02*
X101894545Y-103522776D01*
D22*
X93450000Y-97500000D02*
X94950000Y-97500000D01*
X94950000Y-97500000D02*
X95000000Y-97550000D01*
D21*
X100307250Y-99761261D02*
X99761261Y-99761261D01*
X99761261Y-99761261D02*
X98500000Y-98500000D01*
X98500000Y-98500000D02*
X97000000Y-98500000D01*
D22*
X100307250Y-99307250D02*
X100307250Y-99761261D01*
D21*
X94500000Y-87450000D02*
X94500000Y-89050000D01*
X94500000Y-89050000D02*
X94950000Y-89500000D01*
X100880439Y-97771498D02*
X100271498Y-97771498D01*
X100271498Y-97771498D02*
X94000000Y-91500000D01*
X104500000Y-88450000D02*
X104500000Y-90450000D01*
D22*
X104500000Y-90450000D02*
X104450000Y-90500000D01*
D21*
X102256460Y-96188505D02*
X102256460Y-93743540D01*
X102256460Y-93743540D02*
X103500000Y-92500000D01*
D22*
X102000000Y-95932045D02*
X102256460Y-96188505D01*
D21*
X108500000Y-88450000D02*
X108500000Y-90450000D01*
D22*
X108500000Y-90450000D02*
X108450000Y-90500000D01*
D21*
X108105455Y-96477224D02*
X108105455Y-93105455D01*
X108105455Y-93105455D02*
X107500000Y-92500000D01*
X113000000Y-88450000D02*
X113000000Y-90450000D01*
D22*
X113000000Y-90450000D02*
X112950000Y-90500000D01*
D23*
X109328089Y-98170643D02*
X109328089Y-97171911D01*
X110000000Y-94500000D02*
X112000000Y-92500000D01*
X110000000Y-96500000D02*
X110000000Y-94500000D01*
X109328089Y-97171911D02*
X110000000Y-96500000D01*
D22*
X115500000Y-95950000D02*
X113500000Y-95950000D01*
X113500000Y-95950000D02*
X113450000Y-96000000D01*
D21*
X112500000Y-98000000D02*
X112500000Y-99000000D01*
X111261261Y-100238739D02*
X109692750Y-100238739D01*
X112500000Y-99000000D02*
X111261261Y-100238739D01*
X105500000Y-115550000D02*
X105500000Y-113550000D01*
D22*
X105500000Y-113550000D02*
X105550000Y-113500000D01*
D21*
X106500000Y-111500000D02*
X106500000Y-110500000D01*
X107743540Y-109256460D02*
X107743540Y-103811495D01*
X106500000Y-110500000D02*
X107743540Y-109256460D01*
X101500000Y-118050000D02*
X101500000Y-116450000D01*
X101500000Y-116450000D02*
X101050000Y-116000000D01*
X102000000Y-114000000D02*
X102000000Y-112500000D01*
X105816146Y-105316146D02*
X105816146Y-104628596D01*
X105816146Y-108683854D02*
X105816146Y-105316146D01*
X102000000Y-112500000D02*
X105816146Y-108683854D01*
X96500000Y-118050000D02*
X96500000Y-116450000D01*
X96500000Y-116450000D02*
X96050000Y-116000000D01*
X102500000Y-106000000D02*
X102500000Y-105745503D01*
X98500000Y-114000000D02*
X102500000Y-110000000D01*
X102500000Y-110000000D02*
X102500000Y-106000000D01*
X97000000Y-114000000D02*
X98500000Y-114000000D01*
X102500000Y-105745503D02*
X103725524Y-104519979D01*
X95150000Y-107500000D02*
X95150000Y-107450000D01*
X95150000Y-107450000D02*
X94160000Y-106460000D01*
X94160000Y-106460000D02*
X92500000Y-106460000D01*
X92500000Y-109000000D02*
X92500000Y-119800000D01*
X95200000Y-122500000D02*
X110000000Y-122500000D01*
X92500000Y-119800000D02*
X95200000Y-122500000D01*
D22*
X96500000Y-119950000D02*
X96500000Y-120700000D01*
X114000000Y-118200000D02*
X115080000Y-119280000D01*
X108800000Y-118200000D02*
X114000000Y-118200000D01*
X105600000Y-121400000D02*
X108800000Y-118200000D01*
X97200000Y-121400000D02*
X105600000Y-121400000D01*
X96500000Y-120700000D02*
X97200000Y-121400000D01*
X115080000Y-119280000D02*
X115080000Y-119960000D01*
D24*
X115080000Y-119960000D02*
X115080000Y-119525000D01*
D22*
X117620000Y-119960000D02*
X117620000Y-118820000D01*
X105050000Y-119950000D02*
X101500000Y-119950000D01*
X109200000Y-117000000D02*
X105050000Y-119950000D01*
X116400000Y-117600000D02*
X109200000Y-117000000D01*
X117620000Y-118820000D02*
X116400000Y-117600000D01*
X120160000Y-119960000D02*
X120160000Y-118890000D01*
X120160000Y-118890000D02*
X118110000Y-116840000D01*
X118110000Y-116840000D02*
X108600000Y-116200000D01*
X108600000Y-116200000D02*
X105500000Y-117450000D01*
X113000000Y-113950000D02*
X113000000Y-114600000D01*
X118540000Y-115800000D02*
X122700000Y-119960000D01*
X114200000Y-115800000D02*
X118540000Y-115800000D01*
X113000000Y-114600000D02*
X114200000Y-115800000D01*
D21*
X117000000Y-113950000D02*
X118150000Y-113950000D01*
X118150000Y-113950000D02*
X120600000Y-116400000D01*
X120600000Y-116400000D02*
X121680000Y-116400000D01*
X121680000Y-116400000D02*
X125240000Y-119960000D01*
X133000000Y-113950000D02*
X134270000Y-113950000D01*
X134270000Y-113950000D02*
X135890000Y-115570000D01*
X135890000Y-115570000D02*
X135890000Y-123190000D01*
X135890000Y-123190000D02*
X134620000Y-124460000D01*
X134620000Y-124460000D02*
X131870000Y-124370000D01*
X131870000Y-124370000D02*
X129910000Y-122410000D01*
X121000000Y-113950000D02*
X122750000Y-113950000D01*
X122750000Y-113950000D02*
X126800000Y-118000000D01*
X126800000Y-118000000D02*
X128360000Y-118000000D01*
X128360000Y-118000000D02*
X130320000Y-119960000D01*
D24*
X130320000Y-119960000D02*
X130320000Y-119525000D01*
D21*
X132860000Y-122500000D02*
X133930000Y-122500000D01*
X133930000Y-122500000D02*
X133985000Y-122555000D01*
X133985000Y-122555000D02*
X134620000Y-122555000D01*
X134620000Y-122555000D02*
X134620000Y-116840000D01*
X134620000Y-116840000D02*
X133350000Y-115570000D01*
X133350000Y-115570000D02*
X131120000Y-115570000D01*
X131120000Y-115570000D02*
X129500000Y-113950000D01*
D23*
X132667500Y-119332500D02*
X132667500Y-120267500D01*
X132667500Y-120267500D02*
X132860000Y-120460000D01*
D24*
X132860000Y-119960000D02*
X132860000Y-119525000D01*
D21*
X132860000Y-119525000D02*
X132667500Y-119332500D01*
X132667500Y-119332500D02*
X128905000Y-115570000D01*
X126620000Y-115570000D02*
X125000000Y-113950000D01*
X128905000Y-115570000D02*
X126620000Y-115570000D01*
X110000000Y-77460000D02*
X100440000Y-77460000D01*
X100440000Y-77460000D02*
X91900000Y-86000000D01*
X91900000Y-86000000D02*
X91900000Y-97500000D01*
D22*
X91900000Y-97500000D02*
X91550000Y-97500000D01*
X112540000Y-77460000D02*
X112540000Y-77340000D01*
D23*
X112540000Y-77340000D02*
X111900000Y-75500000D01*
X90600000Y-100550000D02*
X91550000Y-101500000D01*
X90600000Y-85500000D02*
X90600000Y-100550000D01*
X101400000Y-75500000D02*
X90600000Y-85500000D01*
X111900000Y-75500000D02*
X101400000Y-75500000D01*
D21*
X117620000Y-80000000D02*
X117620000Y-81135000D01*
X117620000Y-81135000D02*
X113665000Y-85090000D01*
X113665000Y-85090000D02*
X110185000Y-85315000D01*
X110185000Y-85315000D02*
X108725000Y-86775000D01*
X120160000Y-80000000D02*
X120160000Y-80500000D01*
X114110000Y-86550000D02*
X113000000Y-86550000D01*
X120160000Y-80500000D02*
X114110000Y-86550000D01*
D24*
X122700000Y-80000000D02*
X122500000Y-80000000D01*
D23*
X125240000Y-80000000D02*
X125105000Y-80000000D01*
D21*
X127500000Y-85050000D02*
X127500000Y-83955000D01*
X127500000Y-83955000D02*
X130320000Y-81135000D01*
X130320000Y-81135000D02*
X130320000Y-80000000D01*
D24*
X130320000Y-77460000D02*
X130540000Y-77460000D01*
D23*
X130540000Y-77460000D02*
X132000000Y-75500000D01*
X139500000Y-90000000D02*
X135000000Y-94000000D01*
X139500000Y-76500000D02*
X139500000Y-90000000D01*
X138500000Y-75500000D02*
X139500000Y-76500000D01*
X132000000Y-75500000D02*
X138500000Y-75500000D01*
D21*
X131500000Y-85050000D02*
X131500000Y-82495000D01*
X131500000Y-82495000D02*
X132860000Y-81135000D01*
X132860000Y-81135000D02*
X132860000Y-80000000D01*
D23*
X132860000Y-77460000D02*
X133340000Y-77460000D01*
D21*
X133340000Y-77460000D02*
X134620000Y-78740000D01*
X134620000Y-83670000D02*
X136000000Y-85050000D01*
X134620000Y-78740000D02*
X134620000Y-83670000D01*
D25*
G36*
X91089740Y-110393627D02*
X91368774Y-110584283D01*
X91415000Y-110593644D01*
X91415000Y-119800000D01*
X91497591Y-120215212D01*
X91577571Y-120334910D01*
X91732789Y-120567211D01*
X94432789Y-123267211D01*
X94784789Y-123502410D01*
X95200000Y-123585000D01*
X108298642Y-123585000D01*
X108298642Y-123850000D01*
X108343801Y-124090000D01*
X90910000Y-124090000D01*
X90910000Y-110114302D01*
X91089740Y-110393627D01*
X91089740Y-110393627D01*
G37*
X91089740Y-110393627D02*
X91368774Y-110584283D01*
X91415000Y-110593644D01*
X91415000Y-119800000D01*
X91497591Y-120215212D01*
X91577571Y-120334910D01*
X91732789Y-120567211D01*
X94432789Y-123267211D01*
X94784789Y-123502410D01*
X95200000Y-123585000D01*
X108298642Y-123585000D01*
X108298642Y-123850000D01*
X108343801Y-124090000D01*
X90910000Y-124090000D01*
X90910000Y-110114302D01*
X91089740Y-110393627D01*
G36*
X139090000Y-101160645D02*
X139050543Y-100962281D01*
X138696120Y-100431848D01*
X138165687Y-100077425D01*
X137540000Y-99952968D01*
X136914313Y-100077425D01*
X136383880Y-100431848D01*
X136270000Y-100602282D01*
X136156120Y-100431848D01*
X135625687Y-100077425D01*
X135000000Y-99952968D01*
X134374313Y-100077425D01*
X133843880Y-100431848D01*
X133489457Y-100962281D01*
X133365000Y-101587968D01*
X133365000Y-101652032D01*
X133489457Y-102277719D01*
X133843880Y-102808152D01*
X134374313Y-103162575D01*
X135000000Y-103287032D01*
X135625687Y-103162575D01*
X136156120Y-102808152D01*
X136270000Y-102637718D01*
X136383880Y-102808152D01*
X136914313Y-103162575D01*
X137540000Y-103287032D01*
X138165687Y-103162575D01*
X138696120Y-102808152D01*
X139050543Y-102277719D01*
X139090000Y-102079355D01*
X139090000Y-104947243D01*
X138850000Y-104898642D01*
X137150000Y-104898642D01*
X136840568Y-104956866D01*
X136556373Y-105139740D01*
X136365717Y-105418774D01*
X136298642Y-105750000D01*
X136298642Y-107450000D01*
X136356866Y-107759432D01*
X136539740Y-108043627D01*
X136657985Y-108124420D01*
X136410252Y-108495178D01*
X136281989Y-109140000D01*
X136410252Y-109784822D01*
X136775514Y-110331475D01*
X137322167Y-110696737D01*
X137966989Y-110825000D01*
X138033011Y-110825000D01*
X138677833Y-110696737D01*
X139090000Y-110421336D01*
X139090000Y-124090000D01*
X136524422Y-124090000D01*
X136657211Y-123957211D01*
X136816849Y-123718295D01*
X136892409Y-123605212D01*
X136975000Y-123190000D01*
X136975000Y-115570000D01*
X136892409Y-115154788D01*
X136657211Y-114802789D01*
X135037211Y-113182789D01*
X135022646Y-113173057D01*
X134685212Y-112947591D01*
X134621133Y-112934845D01*
X135024775Y-112935197D01*
X135442086Y-112762767D01*
X135761645Y-112443765D01*
X135863717Y-112197949D01*
X135952409Y-112065212D01*
X136035000Y-111650000D01*
X136035000Y-110926531D01*
X136134283Y-110781226D01*
X136201358Y-110450000D01*
X136201358Y-109550000D01*
X136143134Y-109240568D01*
X135960260Y-108956373D01*
X135681226Y-108765717D01*
X135350000Y-108698642D01*
X135201007Y-108698642D01*
X135251358Y-108450000D01*
X135251358Y-107550000D01*
X135193134Y-107240568D01*
X135085000Y-107072523D01*
X135085000Y-104545989D01*
X135002409Y-104130777D01*
X134767211Y-103778778D01*
X131127837Y-100139404D01*
X131127998Y-99954552D01*
X130909993Y-99426939D01*
X130506673Y-99022915D01*
X130505843Y-99022570D01*
X130543913Y-98984566D01*
X130762839Y-98457334D01*
X130763001Y-98271421D01*
X133267211Y-95767211D01*
X133336641Y-95663301D01*
X133502409Y-95415212D01*
X133526310Y-95295054D01*
X133589740Y-95393627D01*
X133868774Y-95584283D01*
X134200000Y-95651358D01*
X135800000Y-95651358D01*
X136109432Y-95593134D01*
X136393627Y-95410260D01*
X136494764Y-95262242D01*
X136914313Y-95542575D01*
X137540000Y-95667032D01*
X138165687Y-95542575D01*
X138696120Y-95188152D01*
X139050543Y-94657719D01*
X139090000Y-94459355D01*
X139090000Y-101160645D01*
X139090000Y-101160645D01*
G37*
X139090000Y-101160645D02*
X139050543Y-100962281D01*
X138696120Y-100431848D01*
X138165687Y-100077425D01*
X137540000Y-99952968D01*
X136914313Y-100077425D01*
X136383880Y-100431848D01*
X136270000Y-100602282D01*
X136156120Y-100431848D01*
X135625687Y-100077425D01*
X135000000Y-99952968D01*
X134374313Y-100077425D01*
X133843880Y-100431848D01*
X133489457Y-100962281D01*
X133365000Y-101587968D01*
X133365000Y-101652032D01*
X133489457Y-102277719D01*
X133843880Y-102808152D01*
X134374313Y-103162575D01*
X135000000Y-103287032D01*
X135625687Y-103162575D01*
X136156120Y-102808152D01*
X136270000Y-102637718D01*
X136383880Y-102808152D01*
X136914313Y-103162575D01*
X137540000Y-103287032D01*
X138165687Y-103162575D01*
X138696120Y-102808152D01*
X139050543Y-102277719D01*
X139090000Y-102079355D01*
X139090000Y-104947243D01*
X138850000Y-104898642D01*
X137150000Y-104898642D01*
X136840568Y-104956866D01*
X136556373Y-105139740D01*
X136365717Y-105418774D01*
X136298642Y-105750000D01*
X136298642Y-107450000D01*
X136356866Y-107759432D01*
X136539740Y-108043627D01*
X136657985Y-108124420D01*
X136410252Y-108495178D01*
X136281989Y-109140000D01*
X136410252Y-109784822D01*
X136775514Y-110331475D01*
X137322167Y-110696737D01*
X137966989Y-110825000D01*
X138033011Y-110825000D01*
X138677833Y-110696737D01*
X139090000Y-110421336D01*
X139090000Y-124090000D01*
X136524422Y-124090000D01*
X136657211Y-123957211D01*
X136816849Y-123718295D01*
X136892409Y-123605212D01*
X136975000Y-123190000D01*
X136975000Y-115570000D01*
X136892409Y-115154788D01*
X136657211Y-114802789D01*
X135037211Y-113182789D01*
X135022646Y-113173057D01*
X134685212Y-112947591D01*
X134621133Y-112934845D01*
X135024775Y-112935197D01*
X135442086Y-112762767D01*
X135761645Y-112443765D01*
X135863717Y-112197949D01*
X135952409Y-112065212D01*
X136035000Y-111650000D01*
X136035000Y-110926531D01*
X136134283Y-110781226D01*
X136201358Y-110450000D01*
X136201358Y-109550000D01*
X136143134Y-109240568D01*
X135960260Y-108956373D01*
X135681226Y-108765717D01*
X135350000Y-108698642D01*
X135201007Y-108698642D01*
X135251358Y-108450000D01*
X135251358Y-107550000D01*
X135193134Y-107240568D01*
X135085000Y-107072523D01*
X135085000Y-104545989D01*
X135002409Y-104130777D01*
X134767211Y-103778778D01*
X131127837Y-100139404D01*
X131127998Y-99954552D01*
X130909993Y-99426939D01*
X130506673Y-99022915D01*
X130505843Y-99022570D01*
X130543913Y-98984566D01*
X130762839Y-98457334D01*
X130763001Y-98271421D01*
X133267211Y-95767211D01*
X133336641Y-95663301D01*
X133502409Y-95415212D01*
X133526310Y-95295054D01*
X133589740Y-95393627D01*
X133868774Y-95584283D01*
X134200000Y-95651358D01*
X135800000Y-95651358D01*
X136109432Y-95593134D01*
X136393627Y-95410260D01*
X136494764Y-95262242D01*
X136914313Y-95542575D01*
X137540000Y-95667032D01*
X138165687Y-95542575D01*
X138696120Y-95188152D01*
X139050543Y-94657719D01*
X139090000Y-94459355D01*
X139090000Y-101160645D01*
G36*
X113888525Y-121684486D02*
X113956641Y-121730000D01*
X113888525Y-121775514D01*
X113810000Y-121893035D01*
X113731475Y-121775514D01*
X113663359Y-121730000D01*
X113731475Y-121684486D01*
X113810000Y-121566965D01*
X113888525Y-121684486D01*
X113888525Y-121684486D01*
G37*
X113888525Y-121684486D02*
X113956641Y-121730000D01*
X113888525Y-121775514D01*
X113810000Y-121893035D01*
X113731475Y-121775514D01*
X113663359Y-121730000D01*
X113731475Y-121684486D01*
X113810000Y-121566965D01*
X113888525Y-121684486D01*
G36*
X116428525Y-121684486D02*
X116496641Y-121730000D01*
X116428525Y-121775514D01*
X116350000Y-121893035D01*
X116271475Y-121775514D01*
X116203359Y-121730000D01*
X116271475Y-121684486D01*
X116350000Y-121566965D01*
X116428525Y-121684486D01*
X116428525Y-121684486D01*
G37*
X116428525Y-121684486D02*
X116496641Y-121730000D01*
X116428525Y-121775514D01*
X116350000Y-121893035D01*
X116271475Y-121775514D01*
X116203359Y-121730000D01*
X116271475Y-121684486D01*
X116350000Y-121566965D01*
X116428525Y-121684486D01*
G36*
X118968525Y-121684486D02*
X119036641Y-121730000D01*
X118968525Y-121775514D01*
X118890000Y-121893035D01*
X118811475Y-121775514D01*
X118743359Y-121730000D01*
X118811475Y-121684486D01*
X118890000Y-121566965D01*
X118968525Y-121684486D01*
X118968525Y-121684486D01*
G37*
X118968525Y-121684486D02*
X119036641Y-121730000D01*
X118968525Y-121775514D01*
X118890000Y-121893035D01*
X118811475Y-121775514D01*
X118743359Y-121730000D01*
X118811475Y-121684486D01*
X118890000Y-121566965D01*
X118968525Y-121684486D01*
G36*
X121508525Y-121684486D02*
X121576641Y-121730000D01*
X121508525Y-121775514D01*
X121430000Y-121893035D01*
X121351475Y-121775514D01*
X121283359Y-121730000D01*
X121351475Y-121684486D01*
X121430000Y-121566965D01*
X121508525Y-121684486D01*
X121508525Y-121684486D01*
G37*
X121508525Y-121684486D02*
X121576641Y-121730000D01*
X121508525Y-121775514D01*
X121430000Y-121893035D01*
X121351475Y-121775514D01*
X121283359Y-121730000D01*
X121351475Y-121684486D01*
X121430000Y-121566965D01*
X121508525Y-121684486D01*
G36*
X124048525Y-121684486D02*
X124116641Y-121730000D01*
X124048525Y-121775514D01*
X123970000Y-121893035D01*
X123891475Y-121775514D01*
X123823359Y-121730000D01*
X123891475Y-121684486D01*
X123970000Y-121566965D01*
X124048525Y-121684486D01*
X124048525Y-121684486D01*
G37*
X124048525Y-121684486D02*
X124116641Y-121730000D01*
X124048525Y-121775514D01*
X123970000Y-121893035D01*
X123891475Y-121775514D01*
X123823359Y-121730000D01*
X123891475Y-121684486D01*
X123970000Y-121566965D01*
X124048525Y-121684486D01*
G36*
X126588525Y-121684486D02*
X126656641Y-121730000D01*
X126588525Y-121775514D01*
X126510000Y-121893035D01*
X126431475Y-121775514D01*
X126363359Y-121730000D01*
X126431475Y-121684486D01*
X126510000Y-121566965D01*
X126588525Y-121684486D01*
X126588525Y-121684486D01*
G37*
X126588525Y-121684486D02*
X126656641Y-121730000D01*
X126588525Y-121775514D01*
X126510000Y-121893035D01*
X126431475Y-121775514D01*
X126363359Y-121730000D01*
X126431475Y-121684486D01*
X126510000Y-121566965D01*
X126588525Y-121684486D01*
G36*
X131668525Y-121684486D02*
X131736641Y-121730000D01*
X131668525Y-121775514D01*
X131590000Y-121893035D01*
X131511475Y-121775514D01*
X131443359Y-121730000D01*
X131511475Y-121684486D01*
X131590000Y-121566965D01*
X131668525Y-121684486D01*
X131668525Y-121684486D01*
G37*
X131668525Y-121684486D02*
X131736641Y-121730000D01*
X131668525Y-121775514D01*
X131590000Y-121893035D01*
X131511475Y-121775514D01*
X131443359Y-121730000D01*
X131511475Y-121684486D01*
X131590000Y-121566965D01*
X131668525Y-121684486D01*
G36*
X129121727Y-121674311D02*
X129012790Y-121837347D01*
X128971475Y-121775514D01*
X128903359Y-121730000D01*
X128971475Y-121684486D01*
X129050000Y-121566965D01*
X129121727Y-121674311D01*
X129121727Y-121674311D01*
G37*
X129121727Y-121674311D02*
X129012790Y-121837347D01*
X128971475Y-121775514D01*
X128903359Y-121730000D01*
X128971475Y-121684486D01*
X129050000Y-121566965D01*
X129121727Y-121674311D01*
G36*
X94189740Y-108743627D02*
X94468774Y-108934283D01*
X94800000Y-109001358D01*
X95500000Y-109001358D01*
X95809432Y-108943134D01*
X96065000Y-108778681D01*
X96065000Y-111050000D01*
X96139979Y-111426943D01*
X96353500Y-111746500D01*
X96488059Y-111881060D01*
X96637233Y-112242086D01*
X96956235Y-112561645D01*
X97286159Y-112698642D01*
X96600000Y-112698642D01*
X96290568Y-112756866D01*
X96006373Y-112939740D01*
X95815717Y-113218774D01*
X95748642Y-113550000D01*
X95748642Y-114450000D01*
X95795428Y-114698642D01*
X95650000Y-114698642D01*
X95340568Y-114756866D01*
X95056373Y-114939740D01*
X94865717Y-115218774D01*
X94798642Y-115550000D01*
X94798642Y-116450000D01*
X94856866Y-116759432D01*
X95039740Y-117043627D01*
X95208905Y-117159212D01*
X95065717Y-117368774D01*
X94998642Y-117700000D01*
X94998642Y-118400000D01*
X95056866Y-118709432D01*
X95239740Y-118993627D01*
X95249269Y-119000138D01*
X95065717Y-119268774D01*
X94998642Y-119600000D01*
X94998642Y-120300000D01*
X95056866Y-120609432D01*
X95239740Y-120893627D01*
X95518774Y-121084283D01*
X95606793Y-121102107D01*
X95803500Y-121396500D01*
X95822000Y-121415000D01*
X95649422Y-121415000D01*
X93585000Y-119350578D01*
X93585000Y-110597731D01*
X93609432Y-110593134D01*
X93893627Y-110410260D01*
X94084283Y-110131226D01*
X94151358Y-109800000D01*
X94151358Y-108683980D01*
X94189740Y-108743627D01*
X94189740Y-108743627D01*
G37*
X94189740Y-108743627D02*
X94468774Y-108934283D01*
X94800000Y-109001358D01*
X95500000Y-109001358D01*
X95809432Y-108943134D01*
X96065000Y-108778681D01*
X96065000Y-111050000D01*
X96139979Y-111426943D01*
X96353500Y-111746500D01*
X96488059Y-111881060D01*
X96637233Y-112242086D01*
X96956235Y-112561645D01*
X97286159Y-112698642D01*
X96600000Y-112698642D01*
X96290568Y-112756866D01*
X96006373Y-112939740D01*
X95815717Y-113218774D01*
X95748642Y-113550000D01*
X95748642Y-114450000D01*
X95795428Y-114698642D01*
X95650000Y-114698642D01*
X95340568Y-114756866D01*
X95056373Y-114939740D01*
X94865717Y-115218774D01*
X94798642Y-115550000D01*
X94798642Y-116450000D01*
X94856866Y-116759432D01*
X95039740Y-117043627D01*
X95208905Y-117159212D01*
X95065717Y-117368774D01*
X94998642Y-117700000D01*
X94998642Y-118400000D01*
X95056866Y-118709432D01*
X95239740Y-118993627D01*
X95249269Y-119000138D01*
X95065717Y-119268774D01*
X94998642Y-119600000D01*
X94998642Y-120300000D01*
X95056866Y-120609432D01*
X95239740Y-120893627D01*
X95518774Y-121084283D01*
X95606793Y-121102107D01*
X95803500Y-121396500D01*
X95822000Y-121415000D01*
X95649422Y-121415000D01*
X93585000Y-119350578D01*
X93585000Y-110597731D01*
X93609432Y-110593134D01*
X93893627Y-110410260D01*
X94084283Y-110131226D01*
X94151358Y-109800000D01*
X94151358Y-108683980D01*
X94189740Y-108743627D01*
G36*
X108315000Y-120426989D02*
X108315000Y-120493011D01*
X108443263Y-121137833D01*
X108628460Y-121415000D01*
X106978000Y-121415000D01*
X108401655Y-119991345D01*
X108315000Y-120426989D01*
X108315000Y-120426989D01*
G37*
X108315000Y-120426989D02*
X108315000Y-120493011D01*
X108443263Y-121137833D01*
X108628460Y-121415000D01*
X106978000Y-121415000D01*
X108401655Y-119991345D01*
X108315000Y-120426989D01*
G36*
X100815717Y-113218774D02*
X100748642Y-113550000D01*
X100748642Y-114450000D01*
X100795428Y-114698642D01*
X100650000Y-114698642D01*
X100340568Y-114756866D01*
X100056373Y-114939740D01*
X99865717Y-115218774D01*
X99798642Y-115550000D01*
X99798642Y-116450000D01*
X99856866Y-116759432D01*
X100039740Y-117043627D01*
X100208905Y-117159212D01*
X100065717Y-117368774D01*
X99998642Y-117700000D01*
X99998642Y-118400000D01*
X100056866Y-118709432D01*
X100239740Y-118993627D01*
X100249269Y-119000138D01*
X100065717Y-119268774D01*
X99998642Y-119600000D01*
X99998642Y-120300000D01*
X100020281Y-120415000D01*
X97978070Y-120415000D01*
X98001358Y-120300000D01*
X98001358Y-119600000D01*
X97943134Y-119290568D01*
X97760260Y-119006373D01*
X97750731Y-118999862D01*
X97934283Y-118731226D01*
X97949729Y-118654953D01*
X98056235Y-118761645D01*
X98473244Y-118934803D01*
X98924775Y-118935197D01*
X99342086Y-118762767D01*
X99661645Y-118443765D01*
X99834803Y-118026756D01*
X99835197Y-117575225D01*
X99662767Y-117157914D01*
X99343765Y-116838355D01*
X99222369Y-116787947D01*
X99147985Y-116713563D01*
X99201358Y-116450000D01*
X99201358Y-115550000D01*
X99143134Y-115240568D01*
X98967431Y-114967517D01*
X99267211Y-114767211D01*
X100815866Y-113218556D01*
X100815717Y-113218774D01*
X100815717Y-113218774D01*
G37*
X100815717Y-113218774D02*
X100748642Y-113550000D01*
X100748642Y-114450000D01*
X100795428Y-114698642D01*
X100650000Y-114698642D01*
X100340568Y-114756866D01*
X100056373Y-114939740D01*
X99865717Y-115218774D01*
X99798642Y-115550000D01*
X99798642Y-116450000D01*
X99856866Y-116759432D01*
X100039740Y-117043627D01*
X100208905Y-117159212D01*
X100065717Y-117368774D01*
X99998642Y-117700000D01*
X99998642Y-118400000D01*
X100056866Y-118709432D01*
X100239740Y-118993627D01*
X100249269Y-119000138D01*
X100065717Y-119268774D01*
X99998642Y-119600000D01*
X99998642Y-120300000D01*
X100020281Y-120415000D01*
X97978070Y-120415000D01*
X98001358Y-120300000D01*
X98001358Y-119600000D01*
X97943134Y-119290568D01*
X97760260Y-119006373D01*
X97750731Y-118999862D01*
X97934283Y-118731226D01*
X97949729Y-118654953D01*
X98056235Y-118761645D01*
X98473244Y-118934803D01*
X98924775Y-118935197D01*
X99342086Y-118762767D01*
X99661645Y-118443765D01*
X99834803Y-118026756D01*
X99835197Y-117575225D01*
X99662767Y-117157914D01*
X99343765Y-116838355D01*
X99222369Y-116787947D01*
X99147985Y-116713563D01*
X99201358Y-116450000D01*
X99201358Y-115550000D01*
X99143134Y-115240568D01*
X98967431Y-114967517D01*
X99267211Y-114767211D01*
X100815866Y-113218556D01*
X100815717Y-113218774D01*
G36*
X111348525Y-119235514D02*
X111270000Y-119353035D01*
X111191475Y-119235514D01*
X111115875Y-119185000D01*
X111424125Y-119185000D01*
X111348525Y-119235514D01*
X111348525Y-119235514D01*
G37*
X111348525Y-119235514D02*
X111270000Y-119353035D01*
X111191475Y-119235514D01*
X111115875Y-119185000D01*
X111424125Y-119185000D01*
X111348525Y-119235514D01*
G36*
X115958634Y-118551634D02*
X116556802Y-119149802D01*
X116428525Y-119235514D01*
X116350000Y-119353035D01*
X116271475Y-119235514D01*
X116023146Y-119069586D01*
X115990021Y-118903057D01*
X115776500Y-118583500D01*
X115725180Y-118532180D01*
X115958634Y-118551634D01*
X115958634Y-118551634D01*
G37*
X115958634Y-118551634D02*
X116556802Y-119149802D01*
X116428525Y-119235514D01*
X116350000Y-119353035D01*
X116271475Y-119235514D01*
X116023146Y-119069586D01*
X115990021Y-118903057D01*
X115776500Y-118583500D01*
X115725180Y-118532180D01*
X115958634Y-118551634D01*
G36*
X119054840Y-119177840D02*
X118968525Y-119235514D01*
X118890000Y-119353035D01*
X118811475Y-119235514D01*
X118605000Y-119097552D01*
X118605000Y-118820000D01*
X118582156Y-118705156D01*
X119054840Y-119177840D01*
X119054840Y-119177840D01*
G37*
X119054840Y-119177840D02*
X118968525Y-119235514D01*
X118890000Y-119353035D01*
X118811475Y-119235514D01*
X118605000Y-119097552D01*
X118605000Y-118820000D01*
X118582156Y-118705156D01*
X119054840Y-119177840D01*
G36*
X126032789Y-118767211D02*
X126384788Y-119002409D01*
X126800000Y-119085000D01*
X126813785Y-119085000D01*
X126588525Y-119235514D01*
X126510000Y-119353035D01*
X126431475Y-119235514D01*
X125884822Y-118870252D01*
X125634977Y-118820555D01*
X122447211Y-115632789D01*
X122420904Y-115615211D01*
X122095212Y-115397591D01*
X121680000Y-115315000D01*
X121049422Y-115315000D01*
X120885780Y-115151358D01*
X121650000Y-115151358D01*
X121959432Y-115093134D01*
X122049775Y-115035000D01*
X122300578Y-115035000D01*
X126032789Y-118767211D01*
X126032789Y-118767211D01*
G37*
X126032789Y-118767211D02*
X126384788Y-119002409D01*
X126800000Y-119085000D01*
X126813785Y-119085000D01*
X126588525Y-119235514D01*
X126510000Y-119353035D01*
X126431475Y-119235514D01*
X125884822Y-118870252D01*
X125634977Y-118820555D01*
X122447211Y-115632789D01*
X122420904Y-115615211D01*
X122095212Y-115397591D01*
X121680000Y-115315000D01*
X121049422Y-115315000D01*
X120885780Y-115151358D01*
X121650000Y-115151358D01*
X121959432Y-115093134D01*
X122049775Y-115035000D01*
X122300578Y-115035000D01*
X126032789Y-118767211D01*
G36*
X104518774Y-118584283D02*
X104850000Y-118651358D01*
X105176807Y-118651358D01*
X104735582Y-118965000D01*
X102774552Y-118965000D01*
X102856640Y-118844861D01*
X103073244Y-118934803D01*
X103524775Y-118935197D01*
X103942086Y-118762767D01*
X104261645Y-118443765D01*
X104273022Y-118416367D01*
X104518774Y-118584283D01*
X104518774Y-118584283D01*
G37*
X104518774Y-118584283D02*
X104850000Y-118651358D01*
X105176807Y-118651358D01*
X104735582Y-118965000D01*
X102774552Y-118965000D01*
X102856640Y-118844861D01*
X103073244Y-118934803D01*
X103524775Y-118935197D01*
X103942086Y-118762767D01*
X104261645Y-118443765D01*
X104273022Y-118416367D01*
X104518774Y-118584283D01*
G36*
X133535000Y-117289422D02*
X133535000Y-118665578D01*
X131524422Y-116655000D01*
X132900578Y-116655000D01*
X133535000Y-117289422D01*
X133535000Y-117289422D01*
G37*
X133535000Y-117289422D02*
X133535000Y-118665578D01*
X131524422Y-116655000D01*
X132900578Y-116655000D01*
X133535000Y-117289422D01*
G36*
X128844397Y-117043819D02*
X128775212Y-116997591D01*
X128360000Y-116915000D01*
X127249422Y-116915000D01*
X126989422Y-116655000D01*
X128455578Y-116655000D01*
X128844397Y-117043819D01*
X128844397Y-117043819D01*
G37*
X128844397Y-117043819D02*
X128775212Y-116997591D01*
X128360000Y-116915000D01*
X127249422Y-116915000D01*
X126989422Y-116655000D01*
X128455578Y-116655000D01*
X128844397Y-117043819D01*
G36*
X104239740Y-116493627D02*
X104249269Y-116500138D01*
X104166748Y-116620911D01*
X104201358Y-116450000D01*
X104201358Y-116433980D01*
X104239740Y-116493627D01*
X104239740Y-116493627D01*
G37*
X104239740Y-116493627D02*
X104249269Y-116500138D01*
X104166748Y-116620911D01*
X104201358Y-116450000D01*
X104201358Y-116433980D01*
X104239740Y-116493627D01*
G36*
X107011024Y-115778654D02*
X107001358Y-115782552D01*
X107001358Y-115755262D01*
X107011024Y-115778654D01*
X107011024Y-115778654D01*
G37*
X107011024Y-115778654D02*
X107001358Y-115782552D01*
X107001358Y-115755262D01*
X107011024Y-115778654D01*
G36*
X124048525Y-80724486D02*
X124595178Y-81089748D01*
X125240000Y-81218011D01*
X125598971Y-81146607D01*
X122896936Y-83848642D01*
X122850000Y-83848642D01*
X122540568Y-83906866D01*
X122256373Y-84089740D01*
X122065717Y-84368774D01*
X121998642Y-84700000D01*
X121998642Y-85400000D01*
X122056866Y-85709432D01*
X122239740Y-85993627D01*
X122249269Y-86000138D01*
X122065717Y-86268774D01*
X121998642Y-86600000D01*
X121998642Y-86693502D01*
X121843765Y-86538355D01*
X121426756Y-86365197D01*
X120975225Y-86364803D01*
X120557914Y-86537233D01*
X120238355Y-86856235D01*
X120065197Y-87273244D01*
X120064803Y-87724775D01*
X120237233Y-88142086D01*
X120356959Y-88262021D01*
X120298642Y-88550000D01*
X120298642Y-89450000D01*
X120356866Y-89759432D01*
X120539740Y-90043627D01*
X120818774Y-90234283D01*
X121150000Y-90301358D01*
X121298993Y-90301358D01*
X121248642Y-90550000D01*
X121248642Y-90716936D01*
X118232789Y-93732789D01*
X117997591Y-94084788D01*
X117915000Y-94500000D01*
X117915000Y-95891059D01*
X117997591Y-96306271D01*
X118196338Y-96603717D01*
X118232789Y-96658270D01*
X119445352Y-97870833D01*
X119445191Y-98055685D01*
X119624870Y-98490543D01*
X119495450Y-98544018D01*
X119362976Y-98676261D01*
X119238739Y-98676261D01*
X118823528Y-98758851D01*
X118471528Y-98994050D01*
X113232789Y-104232789D01*
X112997591Y-104584788D01*
X112915000Y-105000000D01*
X112915000Y-107073469D01*
X112815717Y-107218774D01*
X112748642Y-107550000D01*
X112748642Y-108450000D01*
X112795428Y-108698642D01*
X112650000Y-108698642D01*
X112340568Y-108756866D01*
X112056373Y-108939740D01*
X111865717Y-109218774D01*
X111798642Y-109550000D01*
X111798642Y-110450000D01*
X111856866Y-110759432D01*
X111915000Y-110849775D01*
X111915000Y-110987667D01*
X111756373Y-111089740D01*
X111565717Y-111368774D01*
X111498642Y-111700000D01*
X111498642Y-112400000D01*
X111556866Y-112709432D01*
X111739740Y-112993627D01*
X111749269Y-113000138D01*
X111565717Y-113268774D01*
X111498642Y-113600000D01*
X111498642Y-114300000D01*
X111556866Y-114609432D01*
X111739740Y-114893627D01*
X112018774Y-115084283D01*
X112184067Y-115117756D01*
X112303500Y-115296500D01*
X112480951Y-115473951D01*
X109134958Y-115248773D01*
X109135197Y-114975225D01*
X108962767Y-114557914D01*
X108643765Y-114238355D01*
X108643027Y-114238048D01*
X108701358Y-113950000D01*
X108701358Y-113050000D01*
X108643134Y-112740568D01*
X108460260Y-112456373D01*
X108181226Y-112265717D01*
X107850000Y-112198642D01*
X107701007Y-112198642D01*
X107751358Y-111950000D01*
X107751358Y-111050000D01*
X107709085Y-110825337D01*
X108510751Y-110023671D01*
X108660203Y-109800000D01*
X108745949Y-109671672D01*
X108828540Y-109256460D01*
X108828540Y-104756014D01*
X108959364Y-104625418D01*
X109178290Y-104098186D01*
X109178652Y-103683247D01*
X109407221Y-103683446D01*
X109934834Y-103465441D01*
X110338858Y-103062121D01*
X110557784Y-102534889D01*
X110558282Y-101964011D01*
X110371145Y-101511104D01*
X110504550Y-101455982D01*
X110637024Y-101323739D01*
X111261261Y-101323739D01*
X111676473Y-101241148D01*
X112028472Y-101005950D01*
X113267211Y-99767211D01*
X113295566Y-99724775D01*
X113502409Y-99415212D01*
X113585000Y-99000000D01*
X113585000Y-98926531D01*
X113684283Y-98781226D01*
X113751358Y-98450000D01*
X113751358Y-97550000D01*
X113704572Y-97301358D01*
X113850000Y-97301358D01*
X114159432Y-97243134D01*
X114443627Y-97060260D01*
X114456354Y-97041633D01*
X114518774Y-97084283D01*
X114850000Y-97151358D01*
X116150000Y-97151358D01*
X116459432Y-97093134D01*
X116743627Y-96910260D01*
X116934283Y-96631226D01*
X117001358Y-96300000D01*
X117001358Y-95600000D01*
X116943134Y-95290568D01*
X116760260Y-95006373D01*
X116750731Y-94999862D01*
X116934283Y-94731226D01*
X117001358Y-94400000D01*
X117001358Y-93700000D01*
X116943134Y-93390568D01*
X116760260Y-93106373D01*
X116481226Y-92915717D01*
X116150000Y-92848642D01*
X114850000Y-92848642D01*
X114540568Y-92906866D01*
X114256373Y-93089740D01*
X114065717Y-93368774D01*
X113998642Y-93700000D01*
X113998642Y-94400000D01*
X114056866Y-94709432D01*
X114079878Y-94745193D01*
X113850000Y-94698642D01*
X113050000Y-94698642D01*
X112892660Y-94728248D01*
X112934803Y-94626756D01*
X112935197Y-94175225D01*
X112762767Y-93757914D01*
X112732923Y-93728018D01*
X112993627Y-93560260D01*
X113184283Y-93281226D01*
X113251358Y-92950000D01*
X113251358Y-92050000D01*
X113204572Y-91801358D01*
X113350000Y-91801358D01*
X113659432Y-91743134D01*
X113943627Y-91560260D01*
X114134283Y-91281226D01*
X114201358Y-90950000D01*
X114201358Y-90050000D01*
X114143134Y-89740568D01*
X114085000Y-89650225D01*
X114085000Y-89512333D01*
X114243627Y-89410260D01*
X114434283Y-89131226D01*
X114501358Y-88800000D01*
X114501358Y-88100000D01*
X114443134Y-87790568D01*
X114316587Y-87593907D01*
X114525212Y-87552409D01*
X114877211Y-87317211D01*
X120927211Y-81267211D01*
X120960085Y-81218011D01*
X121162409Y-80915212D01*
X121177182Y-80840945D01*
X121351475Y-80724486D01*
X121430000Y-80606965D01*
X121508525Y-80724486D01*
X122055178Y-81089748D01*
X122700000Y-81218011D01*
X123344822Y-81089748D01*
X123891475Y-80724486D01*
X123970000Y-80606965D01*
X124048525Y-80724486D01*
X124048525Y-80724486D01*
G37*
X124048525Y-80724486D02*
X124595178Y-81089748D01*
X125240000Y-81218011D01*
X125598971Y-81146607D01*
X122896936Y-83848642D01*
X122850000Y-83848642D01*
X122540568Y-83906866D01*
X122256373Y-84089740D01*
X122065717Y-84368774D01*
X121998642Y-84700000D01*
X121998642Y-85400000D01*
X122056866Y-85709432D01*
X122239740Y-85993627D01*
X122249269Y-86000138D01*
X122065717Y-86268774D01*
X121998642Y-86600000D01*
X121998642Y-86693502D01*
X121843765Y-86538355D01*
X121426756Y-86365197D01*
X120975225Y-86364803D01*
X120557914Y-86537233D01*
X120238355Y-86856235D01*
X120065197Y-87273244D01*
X120064803Y-87724775D01*
X120237233Y-88142086D01*
X120356959Y-88262021D01*
X120298642Y-88550000D01*
X120298642Y-89450000D01*
X120356866Y-89759432D01*
X120539740Y-90043627D01*
X120818774Y-90234283D01*
X121150000Y-90301358D01*
X121298993Y-90301358D01*
X121248642Y-90550000D01*
X121248642Y-90716936D01*
X118232789Y-93732789D01*
X117997591Y-94084788D01*
X117915000Y-94500000D01*
X117915000Y-95891059D01*
X117997591Y-96306271D01*
X118196338Y-96603717D01*
X118232789Y-96658270D01*
X119445352Y-97870833D01*
X119445191Y-98055685D01*
X119624870Y-98490543D01*
X119495450Y-98544018D01*
X119362976Y-98676261D01*
X119238739Y-98676261D01*
X118823528Y-98758851D01*
X118471528Y-98994050D01*
X113232789Y-104232789D01*
X112997591Y-104584788D01*
X112915000Y-105000000D01*
X112915000Y-107073469D01*
X112815717Y-107218774D01*
X112748642Y-107550000D01*
X112748642Y-108450000D01*
X112795428Y-108698642D01*
X112650000Y-108698642D01*
X112340568Y-108756866D01*
X112056373Y-108939740D01*
X111865717Y-109218774D01*
X111798642Y-109550000D01*
X111798642Y-110450000D01*
X111856866Y-110759432D01*
X111915000Y-110849775D01*
X111915000Y-110987667D01*
X111756373Y-111089740D01*
X111565717Y-111368774D01*
X111498642Y-111700000D01*
X111498642Y-112400000D01*
X111556866Y-112709432D01*
X111739740Y-112993627D01*
X111749269Y-113000138D01*
X111565717Y-113268774D01*
X111498642Y-113600000D01*
X111498642Y-114300000D01*
X111556866Y-114609432D01*
X111739740Y-114893627D01*
X112018774Y-115084283D01*
X112184067Y-115117756D01*
X112303500Y-115296500D01*
X112480951Y-115473951D01*
X109134958Y-115248773D01*
X109135197Y-114975225D01*
X108962767Y-114557914D01*
X108643765Y-114238355D01*
X108643027Y-114238048D01*
X108701358Y-113950000D01*
X108701358Y-113050000D01*
X108643134Y-112740568D01*
X108460260Y-112456373D01*
X108181226Y-112265717D01*
X107850000Y-112198642D01*
X107701007Y-112198642D01*
X107751358Y-111950000D01*
X107751358Y-111050000D01*
X107709085Y-110825337D01*
X108510751Y-110023671D01*
X108660203Y-109800000D01*
X108745949Y-109671672D01*
X108828540Y-109256460D01*
X108828540Y-104756014D01*
X108959364Y-104625418D01*
X109178290Y-104098186D01*
X109178652Y-103683247D01*
X109407221Y-103683446D01*
X109934834Y-103465441D01*
X110338858Y-103062121D01*
X110557784Y-102534889D01*
X110558282Y-101964011D01*
X110371145Y-101511104D01*
X110504550Y-101455982D01*
X110637024Y-101323739D01*
X111261261Y-101323739D01*
X111676473Y-101241148D01*
X112028472Y-101005950D01*
X113267211Y-99767211D01*
X113295566Y-99724775D01*
X113502409Y-99415212D01*
X113585000Y-99000000D01*
X113585000Y-98926531D01*
X113684283Y-98781226D01*
X113751358Y-98450000D01*
X113751358Y-97550000D01*
X113704572Y-97301358D01*
X113850000Y-97301358D01*
X114159432Y-97243134D01*
X114443627Y-97060260D01*
X114456354Y-97041633D01*
X114518774Y-97084283D01*
X114850000Y-97151358D01*
X116150000Y-97151358D01*
X116459432Y-97093134D01*
X116743627Y-96910260D01*
X116934283Y-96631226D01*
X117001358Y-96300000D01*
X117001358Y-95600000D01*
X116943134Y-95290568D01*
X116760260Y-95006373D01*
X116750731Y-94999862D01*
X116934283Y-94731226D01*
X117001358Y-94400000D01*
X117001358Y-93700000D01*
X116943134Y-93390568D01*
X116760260Y-93106373D01*
X116481226Y-92915717D01*
X116150000Y-92848642D01*
X114850000Y-92848642D01*
X114540568Y-92906866D01*
X114256373Y-93089740D01*
X114065717Y-93368774D01*
X113998642Y-93700000D01*
X113998642Y-94400000D01*
X114056866Y-94709432D01*
X114079878Y-94745193D01*
X113850000Y-94698642D01*
X113050000Y-94698642D01*
X112892660Y-94728248D01*
X112934803Y-94626756D01*
X112935197Y-94175225D01*
X112762767Y-93757914D01*
X112732923Y-93728018D01*
X112993627Y-93560260D01*
X113184283Y-93281226D01*
X113251358Y-92950000D01*
X113251358Y-92050000D01*
X113204572Y-91801358D01*
X113350000Y-91801358D01*
X113659432Y-91743134D01*
X113943627Y-91560260D01*
X114134283Y-91281226D01*
X114201358Y-90950000D01*
X114201358Y-90050000D01*
X114143134Y-89740568D01*
X114085000Y-89650225D01*
X114085000Y-89512333D01*
X114243627Y-89410260D01*
X114434283Y-89131226D01*
X114501358Y-88800000D01*
X114501358Y-88100000D01*
X114443134Y-87790568D01*
X114316587Y-87593907D01*
X114525212Y-87552409D01*
X114877211Y-87317211D01*
X120927211Y-81267211D01*
X120960085Y-81218011D01*
X121162409Y-80915212D01*
X121177182Y-80840945D01*
X121351475Y-80724486D01*
X121430000Y-80606965D01*
X121508525Y-80724486D01*
X122055178Y-81089748D01*
X122700000Y-81218011D01*
X123344822Y-81089748D01*
X123891475Y-80724486D01*
X123970000Y-80606965D01*
X124048525Y-80724486D01*
G36*
X105315717Y-110718774D02*
X105248642Y-111050000D01*
X105248642Y-111950000D01*
X105295428Y-112198642D01*
X105150000Y-112198642D01*
X104840568Y-112256866D01*
X104556373Y-112439740D01*
X104365717Y-112718774D01*
X104298642Y-113050000D01*
X104298642Y-113950000D01*
X104356866Y-114259432D01*
X104415000Y-114349775D01*
X104415000Y-114487667D01*
X104256373Y-114589740D01*
X104065717Y-114868774D01*
X104026981Y-115060060D01*
X103960260Y-114956373D01*
X103681226Y-114765717D01*
X103350000Y-114698642D01*
X103201007Y-114698642D01*
X103251358Y-114450000D01*
X103251358Y-113550000D01*
X103193134Y-113240568D01*
X103085000Y-113072523D01*
X103085000Y-112949422D01*
X105315866Y-110718556D01*
X105315717Y-110718774D01*
X105315717Y-110718774D01*
G37*
X105315717Y-110718774D02*
X105248642Y-111050000D01*
X105248642Y-111950000D01*
X105295428Y-112198642D01*
X105150000Y-112198642D01*
X104840568Y-112256866D01*
X104556373Y-112439740D01*
X104365717Y-112718774D01*
X104298642Y-113050000D01*
X104298642Y-113950000D01*
X104356866Y-114259432D01*
X104415000Y-114349775D01*
X104415000Y-114487667D01*
X104256373Y-114589740D01*
X104065717Y-114868774D01*
X104026981Y-115060060D01*
X103960260Y-114956373D01*
X103681226Y-114765717D01*
X103350000Y-114698642D01*
X103201007Y-114698642D01*
X103251358Y-114450000D01*
X103251358Y-113550000D01*
X103193134Y-113240568D01*
X103085000Y-113072523D01*
X103085000Y-112949422D01*
X105315866Y-110718556D01*
X105315717Y-110718774D01*
G36*
X114456235Y-112761645D02*
X114873244Y-112934803D01*
X115324775Y-112935197D01*
X115622881Y-112812022D01*
X115739740Y-112993627D01*
X115749269Y-113000138D01*
X115565717Y-113268774D01*
X115498642Y-113600000D01*
X115498642Y-114300000D01*
X115556866Y-114609432D01*
X115689145Y-114815000D01*
X114608000Y-114815000D01*
X114430201Y-114637201D01*
X114434283Y-114631226D01*
X114501358Y-114300000D01*
X114501358Y-113600000D01*
X114443134Y-113290568D01*
X114260260Y-113006373D01*
X114250731Y-112999862D01*
X114430864Y-112736230D01*
X114456235Y-112761645D01*
X114456235Y-112761645D01*
G37*
X114456235Y-112761645D02*
X114873244Y-112934803D01*
X115324775Y-112935197D01*
X115622881Y-112812022D01*
X115739740Y-112993627D01*
X115749269Y-113000138D01*
X115565717Y-113268774D01*
X115498642Y-113600000D01*
X115498642Y-114300000D01*
X115556866Y-114609432D01*
X115689145Y-114815000D01*
X114608000Y-114815000D01*
X114430201Y-114637201D01*
X114434283Y-114631226D01*
X114501358Y-114300000D01*
X114501358Y-113600000D01*
X114443134Y-113290568D01*
X114260260Y-113006373D01*
X114250731Y-112999862D01*
X114430864Y-112736230D01*
X114456235Y-112761645D01*
G36*
X127998642Y-112400000D02*
X128056866Y-112709432D01*
X128239740Y-112993627D01*
X128249269Y-113000138D01*
X128065717Y-113268774D01*
X127998642Y-113600000D01*
X127998642Y-114300000D01*
X128033452Y-114485000D01*
X127069422Y-114485000D01*
X126501358Y-113916936D01*
X126501358Y-113600000D01*
X126443134Y-113290568D01*
X126260260Y-113006373D01*
X126250731Y-112999862D01*
X126416405Y-112757392D01*
X126723244Y-112884803D01*
X127174775Y-112885197D01*
X127592086Y-112712767D01*
X127911645Y-112393765D01*
X127998642Y-112184254D01*
X127998642Y-112400000D01*
X127998642Y-112400000D01*
G37*
X127998642Y-112400000D02*
X128056866Y-112709432D01*
X128239740Y-112993627D01*
X128249269Y-113000138D01*
X128065717Y-113268774D01*
X127998642Y-113600000D01*
X127998642Y-114300000D01*
X128033452Y-114485000D01*
X127069422Y-114485000D01*
X126501358Y-113916936D01*
X126501358Y-113600000D01*
X126443134Y-113290568D01*
X126260260Y-113006373D01*
X126250731Y-112999862D01*
X126416405Y-112757392D01*
X126723244Y-112884803D01*
X127174775Y-112885197D01*
X127592086Y-112712767D01*
X127911645Y-112393765D01*
X127998642Y-112184254D01*
X127998642Y-112400000D01*
G36*
X131739740Y-112993627D02*
X131749269Y-113000138D01*
X131565717Y-113268774D01*
X131498642Y-113600000D01*
X131498642Y-114300000D01*
X131525115Y-114440693D01*
X131001358Y-113916936D01*
X131001358Y-113600000D01*
X130943134Y-113290568D01*
X130760260Y-113006373D01*
X130750731Y-112999862D01*
X130795172Y-112934822D01*
X131224775Y-112935197D01*
X131601877Y-112779381D01*
X131739740Y-112993627D01*
X131739740Y-112993627D01*
G37*
X131739740Y-112993627D02*
X131749269Y-113000138D01*
X131565717Y-113268774D01*
X131498642Y-113600000D01*
X131498642Y-114300000D01*
X131525115Y-114440693D01*
X131001358Y-113916936D01*
X131001358Y-113600000D01*
X130943134Y-113290568D01*
X130760260Y-113006373D01*
X130750731Y-112999862D01*
X130795172Y-112934822D01*
X131224775Y-112935197D01*
X131601877Y-112779381D01*
X131739740Y-112993627D01*
G36*
X118456235Y-112761645D02*
X118873244Y-112934803D01*
X119324775Y-112935197D01*
X119622881Y-112812022D01*
X119739740Y-112993627D01*
X119749269Y-113000138D01*
X119565717Y-113268774D01*
X119498642Y-113600000D01*
X119498642Y-113764220D01*
X118917211Y-113182789D01*
X118902646Y-113173057D01*
X118565212Y-112947591D01*
X118319801Y-112898776D01*
X118430864Y-112736230D01*
X118456235Y-112761645D01*
X118456235Y-112761645D01*
G37*
X118456235Y-112761645D02*
X118873244Y-112934803D01*
X119324775Y-112935197D01*
X119622881Y-112812022D01*
X119739740Y-112993627D01*
X119749269Y-113000138D01*
X119565717Y-113268774D01*
X119498642Y-113600000D01*
X119498642Y-113764220D01*
X118917211Y-113182789D01*
X118902646Y-113173057D01*
X118565212Y-112947591D01*
X118319801Y-112898776D01*
X118430864Y-112736230D01*
X118456235Y-112761645D01*
G36*
X123739740Y-112993627D02*
X123749269Y-113000138D01*
X123580930Y-113246508D01*
X123517211Y-113182789D01*
X123502646Y-113173057D01*
X123165212Y-112947591D01*
X123102366Y-112935090D01*
X123224775Y-112935197D01*
X123601877Y-112779381D01*
X123739740Y-112993627D01*
X123739740Y-112993627D01*
G37*
X123739740Y-112993627D02*
X123749269Y-113000138D01*
X123580930Y-113246508D01*
X123517211Y-113182789D01*
X123502646Y-113173057D01*
X123165212Y-112947591D01*
X123102366Y-112935090D01*
X123224775Y-112935197D01*
X123601877Y-112779381D01*
X123739740Y-112993627D01*
G36*
X134529403Y-112916599D02*
X134334159Y-112877762D01*
X134356640Y-112844861D01*
X134529403Y-112916599D01*
X134529403Y-112916599D01*
G37*
X134529403Y-112916599D02*
X134334159Y-112877762D01*
X134356640Y-112844861D01*
X134529403Y-112916599D01*
G36*
X100459458Y-103622111D02*
X100459297Y-103806963D01*
X100677302Y-104334576D01*
X101080622Y-104738600D01*
X101607854Y-104957526D01*
X101753428Y-104957653D01*
X101732789Y-104978292D01*
X101497591Y-105330291D01*
X101458181Y-105528416D01*
X101308152Y-105303880D01*
X100777719Y-104949457D01*
X100152032Y-104825000D01*
X100087968Y-104825000D01*
X99462281Y-104949457D01*
X98931848Y-105303880D01*
X98577425Y-105834313D01*
X98452968Y-106460000D01*
X98577425Y-107085687D01*
X98931848Y-107616120D01*
X99102282Y-107730000D01*
X98931848Y-107843880D01*
X98577425Y-108374313D01*
X98452968Y-109000000D01*
X98577425Y-109625687D01*
X98931848Y-110156120D01*
X99462281Y-110510543D01*
X100087968Y-110635000D01*
X100152032Y-110635000D01*
X100374912Y-110590666D01*
X98050578Y-112915000D01*
X97949709Y-112915000D01*
X97731226Y-112765717D01*
X97579457Y-112734983D01*
X97824775Y-112735197D01*
X98242086Y-112562767D01*
X98561645Y-112243765D01*
X98734803Y-111826756D01*
X98735197Y-111375225D01*
X98562767Y-110957914D01*
X98243765Y-110638355D01*
X98035000Y-110551668D01*
X98035000Y-108699709D01*
X98184283Y-108481226D01*
X98251358Y-108150000D01*
X98251358Y-106850000D01*
X98193134Y-106540568D01*
X98135000Y-106450225D01*
X98135000Y-105350000D01*
X98093177Y-105139740D01*
X98052410Y-104934789D01*
X97817211Y-104582789D01*
X96985780Y-103751358D01*
X97450000Y-103751358D01*
X97759432Y-103693134D01*
X97927477Y-103585000D01*
X100422347Y-103585000D01*
X100459458Y-103622111D01*
X100459458Y-103622111D01*
G37*
X100459458Y-103622111D02*
X100459297Y-103806963D01*
X100677302Y-104334576D01*
X101080622Y-104738600D01*
X101607854Y-104957526D01*
X101753428Y-104957653D01*
X101732789Y-104978292D01*
X101497591Y-105330291D01*
X101458181Y-105528416D01*
X101308152Y-105303880D01*
X100777719Y-104949457D01*
X100152032Y-104825000D01*
X100087968Y-104825000D01*
X99462281Y-104949457D01*
X98931848Y-105303880D01*
X98577425Y-105834313D01*
X98452968Y-106460000D01*
X98577425Y-107085687D01*
X98931848Y-107616120D01*
X99102282Y-107730000D01*
X98931848Y-107843880D01*
X98577425Y-108374313D01*
X98452968Y-109000000D01*
X98577425Y-109625687D01*
X98931848Y-110156120D01*
X99462281Y-110510543D01*
X100087968Y-110635000D01*
X100152032Y-110635000D01*
X100374912Y-110590666D01*
X98050578Y-112915000D01*
X97949709Y-112915000D01*
X97731226Y-112765717D01*
X97579457Y-112734983D01*
X97824775Y-112735197D01*
X98242086Y-112562767D01*
X98561645Y-112243765D01*
X98734803Y-111826756D01*
X98735197Y-111375225D01*
X98562767Y-110957914D01*
X98243765Y-110638355D01*
X98035000Y-110551668D01*
X98035000Y-108699709D01*
X98184283Y-108481226D01*
X98251358Y-108150000D01*
X98251358Y-106850000D01*
X98193134Y-106540568D01*
X98135000Y-106450225D01*
X98135000Y-105350000D01*
X98093177Y-105139740D01*
X98052410Y-104934789D01*
X97817211Y-104582789D01*
X96985780Y-103751358D01*
X97450000Y-103751358D01*
X97759432Y-103693134D01*
X97927477Y-103585000D01*
X100422347Y-103585000D01*
X100459458Y-103622111D01*
G36*
X122605140Y-112865000D02*
X122342879Y-112865000D01*
X122400843Y-112780168D01*
X122605140Y-112865000D01*
X122605140Y-112865000D01*
G37*
X122605140Y-112865000D02*
X122342879Y-112865000D01*
X122400843Y-112780168D01*
X122605140Y-112865000D01*
G36*
X128039740Y-111043627D02*
X128208905Y-111159212D01*
X128065717Y-111368774D01*
X128050862Y-111442129D01*
X128035000Y-111403739D01*
X128035000Y-111036261D01*
X128039740Y-111043627D01*
X128039740Y-111043627D01*
G37*
X128039740Y-111043627D02*
X128208905Y-111159212D01*
X128065717Y-111368774D01*
X128050862Y-111442129D01*
X128035000Y-111403739D01*
X128035000Y-111036261D01*
X128039740Y-111043627D01*
G36*
X104731146Y-105572870D02*
X104731146Y-108234432D01*
X103585000Y-109380578D01*
X103585000Y-106194925D01*
X103824859Y-105955066D01*
X104009711Y-105955227D01*
X104537324Y-105737222D01*
X104716580Y-105558278D01*
X104731146Y-105572870D01*
X104731146Y-105572870D01*
G37*
X104731146Y-105572870D02*
X104731146Y-108234432D01*
X103585000Y-109380578D01*
X103585000Y-106194925D01*
X103824859Y-105955066D01*
X104009711Y-105955227D01*
X104537324Y-105737222D01*
X104716580Y-105558278D01*
X104731146Y-105572870D01*
G36*
X121080622Y-104738600D02*
X121607854Y-104957526D01*
X121753428Y-104957653D01*
X121232789Y-105478292D01*
X120997591Y-105830291D01*
X120915000Y-106245503D01*
X120915000Y-107073469D01*
X120815717Y-107218774D01*
X120748642Y-107550000D01*
X120748642Y-108450000D01*
X120795428Y-108698642D01*
X120650000Y-108698642D01*
X120340568Y-108756866D01*
X120056373Y-108939740D01*
X120001363Y-109020249D01*
X119960260Y-108956373D01*
X119681226Y-108765717D01*
X119350000Y-108698642D01*
X119201007Y-108698642D01*
X119251358Y-108450000D01*
X119251358Y-107550000D01*
X119193134Y-107240568D01*
X119085000Y-107072523D01*
X119085000Y-106449422D01*
X120926646Y-104607776D01*
X120950026Y-104607776D01*
X121080622Y-104738600D01*
X121080622Y-104738600D01*
G37*
X121080622Y-104738600D02*
X121607854Y-104957526D01*
X121753428Y-104957653D01*
X121232789Y-105478292D01*
X120997591Y-105830291D01*
X120915000Y-106245503D01*
X120915000Y-107073469D01*
X120815717Y-107218774D01*
X120748642Y-107550000D01*
X120748642Y-108450000D01*
X120795428Y-108698642D01*
X120650000Y-108698642D01*
X120340568Y-108756866D01*
X120056373Y-108939740D01*
X120001363Y-109020249D01*
X119960260Y-108956373D01*
X119681226Y-108765717D01*
X119350000Y-108698642D01*
X119201007Y-108698642D01*
X119251358Y-108450000D01*
X119251358Y-107550000D01*
X119193134Y-107240568D01*
X119085000Y-107072523D01*
X119085000Y-106449422D01*
X120926646Y-104607776D01*
X120950026Y-104607776D01*
X121080622Y-104738600D01*
G36*
X128539740Y-90043627D02*
X128818774Y-90234283D01*
X129150000Y-90301358D01*
X129298993Y-90301358D01*
X129248642Y-90550000D01*
X129248642Y-90716936D01*
X127338244Y-92627334D01*
X127103046Y-92979333D01*
X127020455Y-93394545D01*
X127020455Y-94235984D01*
X126561167Y-94045271D01*
X125990289Y-94044773D01*
X125462676Y-94262778D01*
X125058652Y-94666098D01*
X124839726Y-95193330D01*
X124839228Y-95764208D01*
X125057233Y-96291821D01*
X125460553Y-96695845D01*
X125987785Y-96914771D01*
X126558663Y-96915269D01*
X126708243Y-96853464D01*
X126888212Y-97289024D01*
X127291532Y-97693048D01*
X127818764Y-97911974D01*
X127893314Y-97912039D01*
X127892841Y-98454830D01*
X128110846Y-98982443D01*
X128514166Y-99386467D01*
X128514996Y-99386812D01*
X128476926Y-99424816D01*
X128258000Y-99952048D01*
X128257502Y-100522926D01*
X128444639Y-100975833D01*
X128311234Y-101030955D01*
X127907210Y-101434275D01*
X127688284Y-101961507D01*
X127687922Y-102376446D01*
X127459353Y-102376247D01*
X126931740Y-102594252D01*
X126527716Y-102997572D01*
X126395717Y-103315461D01*
X126102837Y-103193846D01*
X125531959Y-103193348D01*
X125004346Y-103411353D01*
X124825090Y-103590297D01*
X124539447Y-103304155D01*
X124012215Y-103085229D01*
X123441337Y-103084731D01*
X123291757Y-103146536D01*
X123111788Y-102710976D01*
X122708468Y-102306952D01*
X122181236Y-102088026D01*
X121610358Y-102087528D01*
X121082745Y-102305533D01*
X120950271Y-102437776D01*
X120477224Y-102437776D01*
X120062013Y-102520366D01*
X119710013Y-102755565D01*
X117232789Y-105232789D01*
X116997591Y-105584788D01*
X116915000Y-106000000D01*
X116915000Y-107073469D01*
X116815717Y-107218774D01*
X116748642Y-107550000D01*
X116748642Y-108450000D01*
X116795428Y-108698642D01*
X116650000Y-108698642D01*
X116340568Y-108756866D01*
X116056373Y-108939740D01*
X116001363Y-109020249D01*
X115960260Y-108956373D01*
X115681226Y-108765717D01*
X115350000Y-108698642D01*
X115201007Y-108698642D01*
X115251358Y-108450000D01*
X115251358Y-107550000D01*
X115193134Y-107240568D01*
X115085000Y-107072523D01*
X115085000Y-105449422D01*
X119538556Y-100995866D01*
X120020559Y-101196011D01*
X120591437Y-101196509D01*
X121119050Y-100978504D01*
X121523074Y-100575184D01*
X121742000Y-100047952D01*
X121742498Y-99477074D01*
X121562819Y-99042216D01*
X121692239Y-98988741D01*
X122096263Y-98585421D01*
X122315189Y-98058189D01*
X122315568Y-97623557D01*
X122540647Y-97623753D01*
X123068260Y-97405748D01*
X123472284Y-97002428D01*
X123691210Y-96475196D01*
X123691708Y-95904318D01*
X123527505Y-95506917D01*
X126733064Y-92301358D01*
X126900000Y-92301358D01*
X127209432Y-92243134D01*
X127493627Y-92060260D01*
X127684283Y-91781226D01*
X127751358Y-91450000D01*
X127751358Y-90550000D01*
X127704572Y-90301358D01*
X127850000Y-90301358D01*
X128159432Y-90243134D01*
X128443627Y-90060260D01*
X128498637Y-89979751D01*
X128539740Y-90043627D01*
X128539740Y-90043627D01*
G37*
X128539740Y-90043627D02*
X128818774Y-90234283D01*
X129150000Y-90301358D01*
X129298993Y-90301358D01*
X129248642Y-90550000D01*
X129248642Y-90716936D01*
X127338244Y-92627334D01*
X127103046Y-92979333D01*
X127020455Y-93394545D01*
X127020455Y-94235984D01*
X126561167Y-94045271D01*
X125990289Y-94044773D01*
X125462676Y-94262778D01*
X125058652Y-94666098D01*
X124839726Y-95193330D01*
X124839228Y-95764208D01*
X125057233Y-96291821D01*
X125460553Y-96695845D01*
X125987785Y-96914771D01*
X126558663Y-96915269D01*
X126708243Y-96853464D01*
X126888212Y-97289024D01*
X127291532Y-97693048D01*
X127818764Y-97911974D01*
X127893314Y-97912039D01*
X127892841Y-98454830D01*
X128110846Y-98982443D01*
X128514166Y-99386467D01*
X128514996Y-99386812D01*
X128476926Y-99424816D01*
X128258000Y-99952048D01*
X128257502Y-100522926D01*
X128444639Y-100975833D01*
X128311234Y-101030955D01*
X127907210Y-101434275D01*
X127688284Y-101961507D01*
X127687922Y-102376446D01*
X127459353Y-102376247D01*
X126931740Y-102594252D01*
X126527716Y-102997572D01*
X126395717Y-103315461D01*
X126102837Y-103193846D01*
X125531959Y-103193348D01*
X125004346Y-103411353D01*
X124825090Y-103590297D01*
X124539447Y-103304155D01*
X124012215Y-103085229D01*
X123441337Y-103084731D01*
X123291757Y-103146536D01*
X123111788Y-102710976D01*
X122708468Y-102306952D01*
X122181236Y-102088026D01*
X121610358Y-102087528D01*
X121082745Y-102305533D01*
X120950271Y-102437776D01*
X120477224Y-102437776D01*
X120062013Y-102520366D01*
X119710013Y-102755565D01*
X117232789Y-105232789D01*
X116997591Y-105584788D01*
X116915000Y-106000000D01*
X116915000Y-107073469D01*
X116815717Y-107218774D01*
X116748642Y-107550000D01*
X116748642Y-108450000D01*
X116795428Y-108698642D01*
X116650000Y-108698642D01*
X116340568Y-108756866D01*
X116056373Y-108939740D01*
X116001363Y-109020249D01*
X115960260Y-108956373D01*
X115681226Y-108765717D01*
X115350000Y-108698642D01*
X115201007Y-108698642D01*
X115251358Y-108450000D01*
X115251358Y-107550000D01*
X115193134Y-107240568D01*
X115085000Y-107072523D01*
X115085000Y-105449422D01*
X119538556Y-100995866D01*
X120020559Y-101196011D01*
X120591437Y-101196509D01*
X121119050Y-100978504D01*
X121523074Y-100575184D01*
X121742000Y-100047952D01*
X121742498Y-99477074D01*
X121562819Y-99042216D01*
X121692239Y-98988741D01*
X122096263Y-98585421D01*
X122315189Y-98058189D01*
X122315568Y-97623557D01*
X122540647Y-97623753D01*
X123068260Y-97405748D01*
X123472284Y-97002428D01*
X123691210Y-96475196D01*
X123691708Y-95904318D01*
X123527505Y-95506917D01*
X126733064Y-92301358D01*
X126900000Y-92301358D01*
X127209432Y-92243134D01*
X127493627Y-92060260D01*
X127684283Y-91781226D01*
X127751358Y-91450000D01*
X127751358Y-90550000D01*
X127704572Y-90301358D01*
X127850000Y-90301358D01*
X128159432Y-90243134D01*
X128443627Y-90060260D01*
X128498637Y-89979751D01*
X128539740Y-90043627D01*
G36*
X132915000Y-104995411D02*
X132915000Y-107073469D01*
X132815717Y-107218774D01*
X132748642Y-107550000D01*
X132748642Y-108450000D01*
X132795428Y-108698642D01*
X132650000Y-108698642D01*
X132340568Y-108756866D01*
X132056373Y-108939740D01*
X132001363Y-109020249D01*
X131960260Y-108956373D01*
X131681226Y-108765717D01*
X131350000Y-108698642D01*
X131201007Y-108698642D01*
X131251358Y-108450000D01*
X131251358Y-107550000D01*
X131193134Y-107240568D01*
X131085000Y-107072523D01*
X131085000Y-106067955D01*
X131002409Y-105652743D01*
X130767211Y-105300744D01*
X129178627Y-103712160D01*
X129178652Y-103683247D01*
X129407221Y-103683446D01*
X129934834Y-103465441D01*
X130338858Y-103062121D01*
X130527474Y-102607885D01*
X132915000Y-104995411D01*
X132915000Y-104995411D01*
G37*
X132915000Y-104995411D02*
X132915000Y-107073469D01*
X132815717Y-107218774D01*
X132748642Y-107550000D01*
X132748642Y-108450000D01*
X132795428Y-108698642D01*
X132650000Y-108698642D01*
X132340568Y-108756866D01*
X132056373Y-108939740D01*
X132001363Y-109020249D01*
X131960260Y-108956373D01*
X131681226Y-108765717D01*
X131350000Y-108698642D01*
X131201007Y-108698642D01*
X131251358Y-108450000D01*
X131251358Y-107550000D01*
X131193134Y-107240568D01*
X131085000Y-107072523D01*
X131085000Y-106067955D01*
X131002409Y-105652743D01*
X130767211Y-105300744D01*
X129178627Y-103712160D01*
X129178652Y-103683247D01*
X129407221Y-103683446D01*
X129934834Y-103465441D01*
X130338858Y-103062121D01*
X130527474Y-102607885D01*
X132915000Y-104995411D01*
G36*
X127456849Y-105246245D02*
X127644031Y-105246408D01*
X128915000Y-106517377D01*
X128915000Y-107073469D01*
X128815717Y-107218774D01*
X128748642Y-107550000D01*
X128748642Y-108450000D01*
X128795428Y-108698642D01*
X128650000Y-108698642D01*
X128340568Y-108756866D01*
X128056373Y-108939740D01*
X128001363Y-109020249D01*
X127960260Y-108956373D01*
X127681226Y-108765717D01*
X127350000Y-108698642D01*
X127201007Y-108698642D01*
X127251358Y-108450000D01*
X127251358Y-107550000D01*
X127193134Y-107240568D01*
X127085000Y-107072523D01*
X127085000Y-105314809D01*
X127163969Y-105124630D01*
X127456849Y-105246245D01*
X127456849Y-105246245D01*
G37*
X127456849Y-105246245D02*
X127644031Y-105246408D01*
X128915000Y-106517377D01*
X128915000Y-107073469D01*
X128815717Y-107218774D01*
X128748642Y-107550000D01*
X128748642Y-108450000D01*
X128795428Y-108698642D01*
X128650000Y-108698642D01*
X128340568Y-108756866D01*
X128056373Y-108939740D01*
X128001363Y-109020249D01*
X127960260Y-108956373D01*
X127681226Y-108765717D01*
X127350000Y-108698642D01*
X127201007Y-108698642D01*
X127251358Y-108450000D01*
X127251358Y-107550000D01*
X127193134Y-107240568D01*
X127085000Y-107072523D01*
X127085000Y-105314809D01*
X127163969Y-105124630D01*
X127456849Y-105246245D01*
G36*
X124915000Y-105757045D02*
X124915000Y-107073469D01*
X124815717Y-107218774D01*
X124748642Y-107550000D01*
X124748642Y-108450000D01*
X124795428Y-108698642D01*
X124650000Y-108698642D01*
X124340568Y-108756866D01*
X124056373Y-108939740D01*
X124001363Y-109020249D01*
X123960260Y-108956373D01*
X123681226Y-108765717D01*
X123350000Y-108698642D01*
X123201007Y-108698642D01*
X123251358Y-108450000D01*
X123251358Y-107550000D01*
X123193134Y-107240568D01*
X123085000Y-107072523D01*
X123085000Y-106694925D01*
X123824859Y-105955066D01*
X124009711Y-105955227D01*
X124537324Y-105737222D01*
X124716580Y-105558278D01*
X124915000Y-105757045D01*
X124915000Y-105757045D01*
G37*
X124915000Y-105757045D02*
X124915000Y-107073469D01*
X124815717Y-107218774D01*
X124748642Y-107550000D01*
X124748642Y-108450000D01*
X124795428Y-108698642D01*
X124650000Y-108698642D01*
X124340568Y-108756866D01*
X124056373Y-108939740D01*
X124001363Y-109020249D01*
X123960260Y-108956373D01*
X123681226Y-108765717D01*
X123350000Y-108698642D01*
X123201007Y-108698642D01*
X123251358Y-108450000D01*
X123251358Y-107550000D01*
X123193134Y-107240568D01*
X123085000Y-107072523D01*
X123085000Y-106694925D01*
X123824859Y-105955066D01*
X124009711Y-105955227D01*
X124537324Y-105737222D01*
X124716580Y-105558278D01*
X124915000Y-105757045D01*
G36*
X101415000Y-108003790D02*
X101308152Y-107843880D01*
X101137718Y-107730000D01*
X101308152Y-107616120D01*
X101415000Y-107456210D01*
X101415000Y-108003790D01*
X101415000Y-108003790D01*
G37*
X101415000Y-108003790D02*
X101308152Y-107843880D01*
X101137718Y-107730000D01*
X101308152Y-107616120D01*
X101415000Y-107456210D01*
X101415000Y-108003790D01*
G36*
X90957425Y-107085687D02*
X91237739Y-107505208D01*
X91106373Y-107589740D01*
X90915717Y-107868774D01*
X90910000Y-107897005D01*
X90910000Y-106847266D01*
X90957425Y-107085687D01*
X90957425Y-107085687D01*
G37*
X90957425Y-107085687D02*
X91237739Y-107505208D01*
X91106373Y-107589740D01*
X90915717Y-107868774D01*
X90910000Y-107897005D01*
X90910000Y-106847266D01*
X90957425Y-107085687D01*
G36*
X91200000Y-103001358D02*
X91900000Y-103001358D01*
X92201664Y-102944596D01*
X92065197Y-103273244D01*
X92064803Y-103724775D01*
X92237233Y-104142086D01*
X92556235Y-104461645D01*
X92973244Y-104634803D01*
X93424775Y-104635197D01*
X93842086Y-104462767D01*
X93869901Y-104435000D01*
X93934189Y-104435000D01*
X93939740Y-104443627D01*
X94218774Y-104634283D01*
X94550000Y-104701358D01*
X94866936Y-104701358D01*
X95965000Y-105799422D01*
X95965000Y-106157121D01*
X95831226Y-106065717D01*
X95500000Y-105998642D01*
X95233064Y-105998642D01*
X94927211Y-105692789D01*
X94867278Y-105652743D01*
X94575212Y-105457591D01*
X94160000Y-105375000D01*
X93735673Y-105375000D01*
X93688152Y-105303880D01*
X93157719Y-104949457D01*
X92532032Y-104825000D01*
X92467968Y-104825000D01*
X91842281Y-104949457D01*
X91311848Y-105303880D01*
X90957425Y-105834313D01*
X90910000Y-106072734D01*
X90910000Y-102942631D01*
X91200000Y-103001358D01*
X91200000Y-103001358D01*
G37*
X91200000Y-103001358D02*
X91900000Y-103001358D01*
X92201664Y-102944596D01*
X92065197Y-103273244D01*
X92064803Y-103724775D01*
X92237233Y-104142086D01*
X92556235Y-104461645D01*
X92973244Y-104634803D01*
X93424775Y-104635197D01*
X93842086Y-104462767D01*
X93869901Y-104435000D01*
X93934189Y-104435000D01*
X93939740Y-104443627D01*
X94218774Y-104634283D01*
X94550000Y-104701358D01*
X94866936Y-104701358D01*
X95965000Y-105799422D01*
X95965000Y-106157121D01*
X95831226Y-106065717D01*
X95500000Y-105998642D01*
X95233064Y-105998642D01*
X94927211Y-105692789D01*
X94867278Y-105652743D01*
X94575212Y-105457591D01*
X94160000Y-105375000D01*
X93735673Y-105375000D01*
X93688152Y-105303880D01*
X93157719Y-104949457D01*
X92532032Y-104825000D01*
X92467968Y-104825000D01*
X91842281Y-104949457D01*
X91311848Y-105303880D01*
X90957425Y-105834313D01*
X90910000Y-106072734D01*
X90910000Y-102942631D01*
X91200000Y-103001358D01*
G36*
X105539740Y-91543627D02*
X105818774Y-91734283D01*
X106150000Y-91801358D01*
X106298993Y-91801358D01*
X106248642Y-92050000D01*
X106248642Y-92950000D01*
X106306866Y-93259432D01*
X106489740Y-93543627D01*
X106768774Y-93734283D01*
X107020455Y-93785250D01*
X107020455Y-94235984D01*
X106561167Y-94045271D01*
X105990289Y-94044773D01*
X105462676Y-94262778D01*
X105058652Y-94666098D01*
X104839726Y-95193330D01*
X104839228Y-95764208D01*
X105057233Y-96291821D01*
X105460553Y-96695845D01*
X105987785Y-96914771D01*
X106558663Y-96915269D01*
X106708243Y-96853464D01*
X106888212Y-97289024D01*
X107291532Y-97693048D01*
X107818764Y-97911974D01*
X107893314Y-97912039D01*
X107892841Y-98454830D01*
X108110846Y-98982443D01*
X108514166Y-99386467D01*
X108514996Y-99386812D01*
X108476926Y-99424816D01*
X108258000Y-99952048D01*
X108257502Y-100522926D01*
X108444639Y-100975833D01*
X108311234Y-101030955D01*
X107907210Y-101434275D01*
X107688284Y-101961507D01*
X107687922Y-102376446D01*
X107459353Y-102376247D01*
X106931740Y-102594252D01*
X106527716Y-102997572D01*
X106395717Y-103315461D01*
X106102837Y-103193846D01*
X105531959Y-103193348D01*
X105004346Y-103411353D01*
X104825090Y-103590297D01*
X104539447Y-103304155D01*
X104012215Y-103085229D01*
X103441337Y-103084731D01*
X103291757Y-103146536D01*
X103111788Y-102710976D01*
X102708468Y-102306952D01*
X102181236Y-102088026D01*
X101994054Y-102087863D01*
X101638980Y-101732789D01*
X101286981Y-101497591D01*
X100871769Y-101415000D01*
X97926531Y-101415000D01*
X97781226Y-101315717D01*
X97450000Y-101248642D01*
X96550000Y-101248642D01*
X96301358Y-101295428D01*
X96301358Y-101150000D01*
X96243134Y-100840568D01*
X96060260Y-100556373D01*
X95979751Y-100501363D01*
X96043627Y-100460260D01*
X96234283Y-100181226D01*
X96301358Y-99850000D01*
X96301358Y-99701007D01*
X96550000Y-99751358D01*
X97450000Y-99751358D01*
X97759432Y-99693134D01*
X97927477Y-99585000D01*
X98050578Y-99585000D01*
X98994050Y-100528472D01*
X99148548Y-100631704D01*
X99493327Y-100977085D01*
X100020559Y-101196011D01*
X100591437Y-101196509D01*
X101119050Y-100978504D01*
X101523074Y-100575184D01*
X101742000Y-100047952D01*
X101742498Y-99477074D01*
X101562819Y-99042216D01*
X101692239Y-98988741D01*
X102096263Y-98585421D01*
X102315189Y-98058189D01*
X102315568Y-97623557D01*
X102540647Y-97623753D01*
X103068260Y-97405748D01*
X103472284Y-97002428D01*
X103691210Y-96475196D01*
X103691708Y-95904318D01*
X103473703Y-95376705D01*
X103341460Y-95244231D01*
X103341460Y-94192962D01*
X103733064Y-93801358D01*
X103900000Y-93801358D01*
X104209432Y-93743134D01*
X104493627Y-93560260D01*
X104684283Y-93281226D01*
X104751358Y-92950000D01*
X104751358Y-92050000D01*
X104704572Y-91801358D01*
X104850000Y-91801358D01*
X105159432Y-91743134D01*
X105443627Y-91560260D01*
X105498637Y-91479751D01*
X105539740Y-91543627D01*
X105539740Y-91543627D01*
G37*
X105539740Y-91543627D02*
X105818774Y-91734283D01*
X106150000Y-91801358D01*
X106298993Y-91801358D01*
X106248642Y-92050000D01*
X106248642Y-92950000D01*
X106306866Y-93259432D01*
X106489740Y-93543627D01*
X106768774Y-93734283D01*
X107020455Y-93785250D01*
X107020455Y-94235984D01*
X106561167Y-94045271D01*
X105990289Y-94044773D01*
X105462676Y-94262778D01*
X105058652Y-94666098D01*
X104839726Y-95193330D01*
X104839228Y-95764208D01*
X105057233Y-96291821D01*
X105460553Y-96695845D01*
X105987785Y-96914771D01*
X106558663Y-96915269D01*
X106708243Y-96853464D01*
X106888212Y-97289024D01*
X107291532Y-97693048D01*
X107818764Y-97911974D01*
X107893314Y-97912039D01*
X107892841Y-98454830D01*
X108110846Y-98982443D01*
X108514166Y-99386467D01*
X108514996Y-99386812D01*
X108476926Y-99424816D01*
X108258000Y-99952048D01*
X108257502Y-100522926D01*
X108444639Y-100975833D01*
X108311234Y-101030955D01*
X107907210Y-101434275D01*
X107688284Y-101961507D01*
X107687922Y-102376446D01*
X107459353Y-102376247D01*
X106931740Y-102594252D01*
X106527716Y-102997572D01*
X106395717Y-103315461D01*
X106102837Y-103193846D01*
X105531959Y-103193348D01*
X105004346Y-103411353D01*
X104825090Y-103590297D01*
X104539447Y-103304155D01*
X104012215Y-103085229D01*
X103441337Y-103084731D01*
X103291757Y-103146536D01*
X103111788Y-102710976D01*
X102708468Y-102306952D01*
X102181236Y-102088026D01*
X101994054Y-102087863D01*
X101638980Y-101732789D01*
X101286981Y-101497591D01*
X100871769Y-101415000D01*
X97926531Y-101415000D01*
X97781226Y-101315717D01*
X97450000Y-101248642D01*
X96550000Y-101248642D01*
X96301358Y-101295428D01*
X96301358Y-101150000D01*
X96243134Y-100840568D01*
X96060260Y-100556373D01*
X95979751Y-100501363D01*
X96043627Y-100460260D01*
X96234283Y-100181226D01*
X96301358Y-99850000D01*
X96301358Y-99701007D01*
X96550000Y-99751358D01*
X97450000Y-99751358D01*
X97759432Y-99693134D01*
X97927477Y-99585000D01*
X98050578Y-99585000D01*
X98994050Y-100528472D01*
X99148548Y-100631704D01*
X99493327Y-100977085D01*
X100020559Y-101196011D01*
X100591437Y-101196509D01*
X101119050Y-100978504D01*
X101523074Y-100575184D01*
X101742000Y-100047952D01*
X101742498Y-99477074D01*
X101562819Y-99042216D01*
X101692239Y-98988741D01*
X102096263Y-98585421D01*
X102315189Y-98058189D01*
X102315568Y-97623557D01*
X102540647Y-97623753D01*
X103068260Y-97405748D01*
X103472284Y-97002428D01*
X103691210Y-96475196D01*
X103691708Y-95904318D01*
X103473703Y-95376705D01*
X103341460Y-95244231D01*
X103341460Y-94192962D01*
X103733064Y-93801358D01*
X103900000Y-93801358D01*
X104209432Y-93743134D01*
X104493627Y-93560260D01*
X104684283Y-93281226D01*
X104751358Y-92950000D01*
X104751358Y-92050000D01*
X104704572Y-91801358D01*
X104850000Y-91801358D01*
X105159432Y-91743134D01*
X105443627Y-91560260D01*
X105498637Y-91479751D01*
X105539740Y-91543627D01*
G36*
X92526202Y-98768541D02*
X92438355Y-98856235D01*
X92265197Y-99273244D01*
X92264803Y-99724775D01*
X92437233Y-100142086D01*
X92523631Y-100228635D01*
X92506373Y-100239740D01*
X92499862Y-100249269D01*
X92231226Y-100065717D01*
X91900000Y-99998642D01*
X91560000Y-99998642D01*
X91560000Y-99001358D01*
X91900000Y-99001358D01*
X92209432Y-98943134D01*
X92493627Y-98760260D01*
X92500138Y-98750731D01*
X92526202Y-98768541D01*
X92526202Y-98768541D01*
G37*
X92526202Y-98768541D02*
X92438355Y-98856235D01*
X92265197Y-99273244D01*
X92264803Y-99724775D01*
X92437233Y-100142086D01*
X92523631Y-100228635D01*
X92506373Y-100239740D01*
X92499862Y-100249269D01*
X92231226Y-100065717D01*
X91900000Y-99998642D01*
X91560000Y-99998642D01*
X91560000Y-99001358D01*
X91900000Y-99001358D01*
X92209432Y-98943134D01*
X92493627Y-98760260D01*
X92500138Y-98750731D01*
X92526202Y-98768541D01*
G36*
X110818774Y-97234283D02*
X111150000Y-97301358D01*
X111298993Y-97301358D01*
X111248642Y-97550000D01*
X111248642Y-98450000D01*
X111290915Y-98674663D01*
X110811839Y-99153739D01*
X110637269Y-99153739D01*
X110506673Y-99022915D01*
X110505843Y-99022570D01*
X110543913Y-98984566D01*
X110762839Y-98457334D01*
X110763337Y-97886456D01*
X110545332Y-97358843D01*
X110522087Y-97335558D01*
X110678820Y-97178825D01*
X110678823Y-97178823D01*
X110697248Y-97151248D01*
X110818774Y-97234283D01*
X110818774Y-97234283D01*
G37*
X110818774Y-97234283D02*
X111150000Y-97301358D01*
X111298993Y-97301358D01*
X111248642Y-97550000D01*
X111248642Y-98450000D01*
X111290915Y-98674663D01*
X110811839Y-99153739D01*
X110637269Y-99153739D01*
X110506673Y-99022915D01*
X110505843Y-99022570D01*
X110543913Y-98984566D01*
X110762839Y-98457334D01*
X110763337Y-97886456D01*
X110545332Y-97358843D01*
X110522087Y-97335558D01*
X110678820Y-97178825D01*
X110678823Y-97178823D01*
X110697248Y-97151248D01*
X110818774Y-97234283D01*
G36*
X92989740Y-92543627D02*
X93268774Y-92734283D01*
X93600000Y-92801358D01*
X93766936Y-92801358D01*
X98380578Y-97415000D01*
X97926531Y-97415000D01*
X97781226Y-97315717D01*
X97450000Y-97248642D01*
X96550000Y-97248642D01*
X96301358Y-97295428D01*
X96301358Y-97150000D01*
X96243134Y-96840568D01*
X96060260Y-96556373D01*
X95781226Y-96365717D01*
X95450000Y-96298642D01*
X94550000Y-96298642D01*
X94449614Y-96317531D01*
X94410260Y-96256373D01*
X94131226Y-96065717D01*
X93800000Y-95998642D01*
X93100000Y-95998642D01*
X92985000Y-96020281D01*
X92985000Y-92536261D01*
X92989740Y-92543627D01*
X92989740Y-92543627D01*
G37*
X92989740Y-92543627D02*
X93268774Y-92734283D01*
X93600000Y-92801358D01*
X93766936Y-92801358D01*
X98380578Y-97415000D01*
X97926531Y-97415000D01*
X97781226Y-97315717D01*
X97450000Y-97248642D01*
X96550000Y-97248642D01*
X96301358Y-97295428D01*
X96301358Y-97150000D01*
X96243134Y-96840568D01*
X96060260Y-96556373D01*
X95781226Y-96365717D01*
X95450000Y-96298642D01*
X94550000Y-96298642D01*
X94449614Y-96317531D01*
X94410260Y-96256373D01*
X94131226Y-96065717D01*
X93800000Y-95998642D01*
X93100000Y-95998642D01*
X92985000Y-96020281D01*
X92985000Y-92536261D01*
X92989740Y-92543627D01*
G36*
X131415000Y-94550578D02*
X129540501Y-96425077D01*
X129540703Y-96193037D01*
X129322698Y-95665424D01*
X129190455Y-95532950D01*
X129190455Y-93843967D01*
X130733064Y-92301358D01*
X130900000Y-92301358D01*
X131209432Y-92243134D01*
X131415000Y-92110855D01*
X131415000Y-94550578D01*
X131415000Y-94550578D01*
G37*
X131415000Y-94550578D02*
X129540501Y-96425077D01*
X129540703Y-96193037D01*
X129322698Y-95665424D01*
X129190455Y-95532950D01*
X129190455Y-93843967D01*
X130733064Y-92301358D01*
X130900000Y-92301358D01*
X131209432Y-92243134D01*
X131415000Y-92110855D01*
X131415000Y-94550578D01*
G36*
X113888525Y-80724486D02*
X113995000Y-80795630D01*
X113995000Y-81270578D01*
X112550578Y-82715000D01*
X107250000Y-82715000D01*
X106834788Y-82797591D01*
X106602814Y-82952591D01*
X106482789Y-83032789D01*
X104166936Y-85348642D01*
X103850000Y-85348642D01*
X103540568Y-85406866D01*
X103256373Y-85589740D01*
X103065717Y-85868774D01*
X102998642Y-86200000D01*
X102998642Y-86900000D01*
X103056866Y-87209432D01*
X103239740Y-87493627D01*
X103249269Y-87500138D01*
X103065717Y-87768774D01*
X103029170Y-87949247D01*
X102826756Y-87865197D01*
X102375225Y-87864803D01*
X101957914Y-88037233D01*
X101638355Y-88356235D01*
X101465197Y-88773244D01*
X101464803Y-89224775D01*
X101465000Y-89225252D01*
X101465000Y-89573469D01*
X101365717Y-89718774D01*
X101298642Y-90050000D01*
X101298642Y-90950000D01*
X101356866Y-91259432D01*
X101539740Y-91543627D01*
X101818774Y-91734283D01*
X102150000Y-91801358D01*
X102298993Y-91801358D01*
X102248642Y-92050000D01*
X102248642Y-92216936D01*
X101489249Y-92976329D01*
X101254051Y-93328328D01*
X101171460Y-93743540D01*
X101171460Y-95243986D01*
X101040636Y-95374582D01*
X100821710Y-95901814D01*
X100821331Y-96336446D01*
X100596252Y-96336250D01*
X100436627Y-96402205D01*
X95251358Y-91216936D01*
X95251358Y-91050000D01*
X95204572Y-90801358D01*
X95350000Y-90801358D01*
X95659432Y-90743134D01*
X95943627Y-90560260D01*
X96134283Y-90281226D01*
X96201358Y-89950000D01*
X96201358Y-89050000D01*
X96143134Y-88740568D01*
X95960260Y-88456373D01*
X95791095Y-88340788D01*
X95934283Y-88131226D01*
X96001358Y-87800000D01*
X96001358Y-87100000D01*
X95943134Y-86790568D01*
X95760260Y-86506373D01*
X95750731Y-86499862D01*
X95934283Y-86231226D01*
X96001358Y-85900000D01*
X96001358Y-85873064D01*
X100789422Y-81085000D01*
X108746646Y-81085000D01*
X108818774Y-81134283D01*
X109150000Y-81201358D01*
X110850000Y-81201358D01*
X111159432Y-81143134D01*
X111443627Y-80960260D01*
X111524420Y-80842015D01*
X111895178Y-81089748D01*
X112540000Y-81218011D01*
X113184822Y-81089748D01*
X113731475Y-80724486D01*
X113810000Y-80606965D01*
X113888525Y-80724486D01*
X113888525Y-80724486D01*
G37*
X113888525Y-80724486D02*
X113995000Y-80795630D01*
X113995000Y-81270578D01*
X112550578Y-82715000D01*
X107250000Y-82715000D01*
X106834788Y-82797591D01*
X106602814Y-82952591D01*
X106482789Y-83032789D01*
X104166936Y-85348642D01*
X103850000Y-85348642D01*
X103540568Y-85406866D01*
X103256373Y-85589740D01*
X103065717Y-85868774D01*
X102998642Y-86200000D01*
X102998642Y-86900000D01*
X103056866Y-87209432D01*
X103239740Y-87493627D01*
X103249269Y-87500138D01*
X103065717Y-87768774D01*
X103029170Y-87949247D01*
X102826756Y-87865197D01*
X102375225Y-87864803D01*
X101957914Y-88037233D01*
X101638355Y-88356235D01*
X101465197Y-88773244D01*
X101464803Y-89224775D01*
X101465000Y-89225252D01*
X101465000Y-89573469D01*
X101365717Y-89718774D01*
X101298642Y-90050000D01*
X101298642Y-90950000D01*
X101356866Y-91259432D01*
X101539740Y-91543627D01*
X101818774Y-91734283D01*
X102150000Y-91801358D01*
X102298993Y-91801358D01*
X102248642Y-92050000D01*
X102248642Y-92216936D01*
X101489249Y-92976329D01*
X101254051Y-93328328D01*
X101171460Y-93743540D01*
X101171460Y-95243986D01*
X101040636Y-95374582D01*
X100821710Y-95901814D01*
X100821331Y-96336446D01*
X100596252Y-96336250D01*
X100436627Y-96402205D01*
X95251358Y-91216936D01*
X95251358Y-91050000D01*
X95204572Y-90801358D01*
X95350000Y-90801358D01*
X95659432Y-90743134D01*
X95943627Y-90560260D01*
X96134283Y-90281226D01*
X96201358Y-89950000D01*
X96201358Y-89050000D01*
X96143134Y-88740568D01*
X95960260Y-88456373D01*
X95791095Y-88340788D01*
X95934283Y-88131226D01*
X96001358Y-87800000D01*
X96001358Y-87100000D01*
X95943134Y-86790568D01*
X95760260Y-86506373D01*
X95750731Y-86499862D01*
X95934283Y-86231226D01*
X96001358Y-85900000D01*
X96001358Y-85873064D01*
X100789422Y-81085000D01*
X108746646Y-81085000D01*
X108818774Y-81134283D01*
X109150000Y-81201358D01*
X110850000Y-81201358D01*
X111159432Y-81143134D01*
X111443627Y-80960260D01*
X111524420Y-80842015D01*
X111895178Y-81089748D01*
X112540000Y-81218011D01*
X113184822Y-81089748D01*
X113731475Y-80724486D01*
X113810000Y-80606965D01*
X113888525Y-80724486D01*
G36*
X124539740Y-90043627D02*
X124818774Y-90234283D01*
X125150000Y-90301358D01*
X125298993Y-90301358D01*
X125248642Y-90550000D01*
X125248642Y-90716936D01*
X121489249Y-94476329D01*
X121254051Y-94828328D01*
X121171460Y-95243540D01*
X121171460Y-95243986D01*
X121040636Y-95374582D01*
X120821710Y-95901814D01*
X120821469Y-96178106D01*
X120085000Y-95441637D01*
X120085000Y-94949422D01*
X122733064Y-92301358D01*
X122900000Y-92301358D01*
X123209432Y-92243134D01*
X123493627Y-92060260D01*
X123684283Y-91781226D01*
X123751358Y-91450000D01*
X123751358Y-90550000D01*
X123704572Y-90301358D01*
X123850000Y-90301358D01*
X124159432Y-90243134D01*
X124443627Y-90060260D01*
X124498637Y-89979751D01*
X124539740Y-90043627D01*
X124539740Y-90043627D01*
G37*
X124539740Y-90043627D02*
X124818774Y-90234283D01*
X125150000Y-90301358D01*
X125298993Y-90301358D01*
X125248642Y-90550000D01*
X125248642Y-90716936D01*
X121489249Y-94476329D01*
X121254051Y-94828328D01*
X121171460Y-95243540D01*
X121171460Y-95243986D01*
X121040636Y-95374582D01*
X120821710Y-95901814D01*
X120821469Y-96178106D01*
X120085000Y-95441637D01*
X120085000Y-94949422D01*
X122733064Y-92301358D01*
X122900000Y-92301358D01*
X123209432Y-92243134D01*
X123493627Y-92060260D01*
X123684283Y-91781226D01*
X123751358Y-91450000D01*
X123751358Y-90550000D01*
X123704572Y-90301358D01*
X123850000Y-90301358D01*
X124159432Y-90243134D01*
X124443627Y-90060260D01*
X124498637Y-89979751D01*
X124539740Y-90043627D01*
G36*
X109965000Y-89367269D02*
X109965000Y-89573469D01*
X109865717Y-89718774D01*
X109798642Y-90050000D01*
X109798642Y-90950000D01*
X109856866Y-91259432D01*
X110039740Y-91543627D01*
X110318774Y-91734283D01*
X110650000Y-91801358D01*
X110798993Y-91801358D01*
X110748642Y-92050000D01*
X110748642Y-92393713D01*
X109321177Y-93821177D01*
X109190455Y-94016817D01*
X109190455Y-93105455D01*
X109150953Y-92906866D01*
X109107865Y-92690244D01*
X108872666Y-92338244D01*
X108751358Y-92216936D01*
X108751358Y-92050000D01*
X108704572Y-91801358D01*
X108850000Y-91801358D01*
X109159432Y-91743134D01*
X109443627Y-91560260D01*
X109634283Y-91281226D01*
X109701358Y-90950000D01*
X109701358Y-90050000D01*
X109643134Y-89740568D01*
X109585000Y-89650225D01*
X109585000Y-89512333D01*
X109743627Y-89410260D01*
X109892647Y-89192162D01*
X109965000Y-89367269D01*
X109965000Y-89367269D01*
G37*
X109965000Y-89367269D02*
X109965000Y-89573469D01*
X109865717Y-89718774D01*
X109798642Y-90050000D01*
X109798642Y-90950000D01*
X109856866Y-91259432D01*
X110039740Y-91543627D01*
X110318774Y-91734283D01*
X110650000Y-91801358D01*
X110798993Y-91801358D01*
X110748642Y-92050000D01*
X110748642Y-92393713D01*
X109321177Y-93821177D01*
X109190455Y-94016817D01*
X109190455Y-93105455D01*
X109150953Y-92906866D01*
X109107865Y-92690244D01*
X108872666Y-92338244D01*
X108751358Y-92216936D01*
X108751358Y-92050000D01*
X108704572Y-91801358D01*
X108850000Y-91801358D01*
X109159432Y-91743134D01*
X109443627Y-91560260D01*
X109634283Y-91281226D01*
X109701358Y-90950000D01*
X109701358Y-90050000D01*
X109643134Y-89740568D01*
X109585000Y-89650225D01*
X109585000Y-89512333D01*
X109743627Y-89410260D01*
X109892647Y-89192162D01*
X109965000Y-89367269D01*
G36*
X139090000Y-93540645D02*
X139050543Y-93342281D01*
X138696120Y-92811848D01*
X138174079Y-92463033D01*
X139090000Y-91648881D01*
X139090000Y-93540645D01*
X139090000Y-93540645D01*
G37*
X139090000Y-93540645D02*
X139050543Y-93342281D01*
X138696120Y-92811848D01*
X138174079Y-92463033D01*
X139090000Y-91648881D01*
X139090000Y-93540645D01*
G36*
X134268774Y-92234283D02*
X134600000Y-92301358D01*
X135400000Y-92301358D01*
X135483699Y-92285609D01*
X135412786Y-92348642D01*
X134200000Y-92348642D01*
X133890568Y-92406866D01*
X133606373Y-92589740D01*
X133585000Y-92621020D01*
X133585000Y-92449422D01*
X133949422Y-92085000D01*
X134050291Y-92085000D01*
X134268774Y-92234283D01*
X134268774Y-92234283D01*
G37*
X134268774Y-92234283D02*
X134600000Y-92301358D01*
X135400000Y-92301358D01*
X135483699Y-92285609D01*
X135412786Y-92348642D01*
X134200000Y-92348642D01*
X133890568Y-92406866D01*
X133606373Y-92589740D01*
X133585000Y-92621020D01*
X133585000Y-92449422D01*
X133949422Y-92085000D01*
X134050291Y-92085000D01*
X134268774Y-92234283D01*
G36*
X136275514Y-76768525D02*
X135910252Y-77315178D01*
X135781989Y-77960000D01*
X135910252Y-78604822D01*
X136157412Y-78974723D01*
X136056373Y-79039740D01*
X135865717Y-79318774D01*
X135798642Y-79650000D01*
X135798642Y-81350000D01*
X135856866Y-81659432D01*
X136039740Y-81943627D01*
X136318774Y-82134283D01*
X136650000Y-82201358D01*
X138350000Y-82201358D01*
X138540000Y-82165607D01*
X138540000Y-89568896D01*
X136213513Y-91636885D01*
X136251358Y-91450000D01*
X136251358Y-90550000D01*
X136204572Y-90301358D01*
X136350000Y-90301358D01*
X136659432Y-90243134D01*
X136943627Y-90060260D01*
X137134283Y-89781226D01*
X137201358Y-89450000D01*
X137201358Y-88550000D01*
X137143134Y-88240568D01*
X137085000Y-88150225D01*
X137085000Y-88012333D01*
X137243627Y-87910260D01*
X137434283Y-87631226D01*
X137501358Y-87300000D01*
X137501358Y-86600000D01*
X137443134Y-86290568D01*
X137260260Y-86006373D01*
X137250731Y-85999862D01*
X137434283Y-85731226D01*
X137501358Y-85400000D01*
X137501358Y-84700000D01*
X137443134Y-84390568D01*
X137260260Y-84106373D01*
X136981226Y-83915717D01*
X136650000Y-83848642D01*
X136333064Y-83848642D01*
X135705000Y-83220578D01*
X135705000Y-78740000D01*
X135622409Y-78324788D01*
X135387211Y-77972789D01*
X134522176Y-77107754D01*
X134545000Y-76993011D01*
X134545000Y-76926989D01*
X134452110Y-76460000D01*
X136737254Y-76460000D01*
X136275514Y-76768525D01*
X136275514Y-76768525D01*
G37*
X136275514Y-76768525D02*
X135910252Y-77315178D01*
X135781989Y-77960000D01*
X135910252Y-78604822D01*
X136157412Y-78974723D01*
X136056373Y-79039740D01*
X135865717Y-79318774D01*
X135798642Y-79650000D01*
X135798642Y-81350000D01*
X135856866Y-81659432D01*
X136039740Y-81943627D01*
X136318774Y-82134283D01*
X136650000Y-82201358D01*
X138350000Y-82201358D01*
X138540000Y-82165607D01*
X138540000Y-89568896D01*
X136213513Y-91636885D01*
X136251358Y-91450000D01*
X136251358Y-90550000D01*
X136204572Y-90301358D01*
X136350000Y-90301358D01*
X136659432Y-90243134D01*
X136943627Y-90060260D01*
X137134283Y-89781226D01*
X137201358Y-89450000D01*
X137201358Y-88550000D01*
X137143134Y-88240568D01*
X137085000Y-88150225D01*
X137085000Y-88012333D01*
X137243627Y-87910260D01*
X137434283Y-87631226D01*
X137501358Y-87300000D01*
X137501358Y-86600000D01*
X137443134Y-86290568D01*
X137260260Y-86006373D01*
X137250731Y-85999862D01*
X137434283Y-85731226D01*
X137501358Y-85400000D01*
X137501358Y-84700000D01*
X137443134Y-84390568D01*
X137260260Y-84106373D01*
X136981226Y-83915717D01*
X136650000Y-83848642D01*
X136333064Y-83848642D01*
X135705000Y-83220578D01*
X135705000Y-78740000D01*
X135622409Y-78324788D01*
X135387211Y-77972789D01*
X134522176Y-77107754D01*
X134545000Y-76993011D01*
X134545000Y-76926989D01*
X134452110Y-76460000D01*
X136737254Y-76460000D01*
X136275514Y-76768525D01*
G36*
X132965000Y-87867269D02*
X132965000Y-88073469D01*
X132865717Y-88218774D01*
X132798642Y-88550000D01*
X132798642Y-89450000D01*
X132856866Y-89759432D01*
X133032569Y-90032482D01*
X132732789Y-90232789D01*
X131751358Y-91214220D01*
X131751358Y-90550000D01*
X131704572Y-90301358D01*
X131850000Y-90301358D01*
X132159432Y-90243134D01*
X132443627Y-90060260D01*
X132634283Y-89781226D01*
X132701358Y-89450000D01*
X132701358Y-88550000D01*
X132643134Y-88240568D01*
X132585000Y-88150225D01*
X132585000Y-88012333D01*
X132743627Y-87910260D01*
X132892647Y-87692162D01*
X132965000Y-87867269D01*
X132965000Y-87867269D01*
G37*
X132965000Y-87867269D02*
X132965000Y-88073469D01*
X132865717Y-88218774D01*
X132798642Y-88550000D01*
X132798642Y-89450000D01*
X132856866Y-89759432D01*
X133032569Y-90032482D01*
X132732789Y-90232789D01*
X131751358Y-91214220D01*
X131751358Y-90550000D01*
X131704572Y-90301358D01*
X131850000Y-90301358D01*
X132159432Y-90243134D01*
X132443627Y-90060260D01*
X132634283Y-89781226D01*
X132701358Y-89450000D01*
X132701358Y-88550000D01*
X132643134Y-88240568D01*
X132585000Y-88150225D01*
X132585000Y-88012333D01*
X132743627Y-87910260D01*
X132892647Y-87692162D01*
X132965000Y-87867269D01*
G36*
X111498642Y-86900000D02*
X111556866Y-87209432D01*
X111739740Y-87493627D01*
X111749269Y-87500138D01*
X111565717Y-87768774D01*
X111540093Y-87895307D01*
X111226756Y-87765197D01*
X110775225Y-87764803D01*
X110357914Y-87937233D01*
X110038355Y-88256235D01*
X110001358Y-88345333D01*
X110001358Y-88100000D01*
X109943134Y-87790568D01*
X109760260Y-87506373D01*
X109750731Y-87499862D01*
X109934283Y-87231226D01*
X109967569Y-87066853D01*
X110663066Y-86371356D01*
X111498642Y-86317331D01*
X111498642Y-86900000D01*
X111498642Y-86900000D01*
G37*
X111498642Y-86900000D02*
X111556866Y-87209432D01*
X111739740Y-87493627D01*
X111749269Y-87500138D01*
X111565717Y-87768774D01*
X111540093Y-87895307D01*
X111226756Y-87765197D01*
X110775225Y-87764803D01*
X110357914Y-87937233D01*
X110038355Y-88256235D01*
X110001358Y-88345333D01*
X110001358Y-88100000D01*
X109943134Y-87790568D01*
X109760260Y-87506373D01*
X109750731Y-87499862D01*
X109934283Y-87231226D01*
X109967569Y-87066853D01*
X110663066Y-86371356D01*
X111498642Y-86317331D01*
X111498642Y-86900000D01*
G36*
X108616936Y-85348642D02*
X107850000Y-85348642D01*
X107540568Y-85406866D01*
X107256373Y-85589740D01*
X107065717Y-85868774D01*
X106998642Y-86200000D01*
X106998642Y-86900000D01*
X107056866Y-87209432D01*
X107239740Y-87493627D01*
X107249269Y-87500138D01*
X107065717Y-87768774D01*
X107040093Y-87895307D01*
X106726756Y-87765197D01*
X106275225Y-87764803D01*
X105962593Y-87893981D01*
X105943134Y-87790568D01*
X105760260Y-87506373D01*
X105750731Y-87499862D01*
X105934283Y-87231226D01*
X106001358Y-86900000D01*
X106001358Y-86583064D01*
X107699422Y-84885000D01*
X109080578Y-84885000D01*
X108616936Y-85348642D01*
X108616936Y-85348642D01*
G37*
X108616936Y-85348642D02*
X107850000Y-85348642D01*
X107540568Y-85406866D01*
X107256373Y-85589740D01*
X107065717Y-85868774D01*
X106998642Y-86200000D01*
X106998642Y-86900000D01*
X107056866Y-87209432D01*
X107239740Y-87493627D01*
X107249269Y-87500138D01*
X107065717Y-87768774D01*
X107040093Y-87895307D01*
X106726756Y-87765197D01*
X106275225Y-87764803D01*
X105962593Y-87893981D01*
X105943134Y-87790568D01*
X105760260Y-87506373D01*
X105750731Y-87499862D01*
X105934283Y-87231226D01*
X106001358Y-86900000D01*
X106001358Y-86583064D01*
X107699422Y-84885000D01*
X109080578Y-84885000D01*
X108616936Y-85348642D01*
G36*
X93239740Y-86493627D02*
X93249269Y-86500138D01*
X93065717Y-86768774D01*
X93044683Y-86872641D01*
X93026756Y-86865197D01*
X92985000Y-86865161D01*
X92985000Y-86449422D01*
X93122692Y-86311730D01*
X93239740Y-86493627D01*
X93239740Y-86493627D01*
G37*
X93239740Y-86493627D02*
X93249269Y-86500138D01*
X93065717Y-86768774D01*
X93044683Y-86872641D01*
X93026756Y-86865197D01*
X92985000Y-86865161D01*
X92985000Y-86449422D01*
X93122692Y-86311730D01*
X93239740Y-86493627D01*
G36*
X133535000Y-83670000D02*
X133617591Y-84085212D01*
X133715846Y-84232261D01*
X133852789Y-84437211D01*
X134498642Y-85083064D01*
X134498642Y-85400000D01*
X134556866Y-85709432D01*
X134739740Y-85993627D01*
X134749269Y-86000138D01*
X134565717Y-86268774D01*
X134540093Y-86395307D01*
X134226756Y-86265197D01*
X133775225Y-86264803D01*
X133357914Y-86437233D01*
X133038355Y-86756235D01*
X133001358Y-86845333D01*
X133001358Y-86600000D01*
X132943134Y-86290568D01*
X132760260Y-86006373D01*
X132750731Y-85999862D01*
X132934283Y-85731226D01*
X133001358Y-85400000D01*
X133001358Y-84700000D01*
X132943134Y-84390568D01*
X132760260Y-84106373D01*
X132585000Y-83986623D01*
X132585000Y-82944422D01*
X133535000Y-81994422D01*
X133535000Y-83670000D01*
X133535000Y-83670000D01*
G37*
X133535000Y-83670000D02*
X133617591Y-84085212D01*
X133715846Y-84232261D01*
X133852789Y-84437211D01*
X134498642Y-85083064D01*
X134498642Y-85400000D01*
X134556866Y-85709432D01*
X134739740Y-85993627D01*
X134749269Y-86000138D01*
X134565717Y-86268774D01*
X134540093Y-86395307D01*
X134226756Y-86265197D01*
X133775225Y-86264803D01*
X133357914Y-86437233D01*
X133038355Y-86756235D01*
X133001358Y-86845333D01*
X133001358Y-86600000D01*
X132943134Y-86290568D01*
X132760260Y-86006373D01*
X132750731Y-85999862D01*
X132934283Y-85731226D01*
X133001358Y-85400000D01*
X133001358Y-84700000D01*
X132943134Y-84390568D01*
X132760260Y-84106373D01*
X132585000Y-83986623D01*
X132585000Y-82944422D01*
X133535000Y-81994422D01*
X133535000Y-83670000D01*
G36*
X130415000Y-83987667D02*
X130256373Y-84089740D01*
X130065717Y-84368774D01*
X129998642Y-84700000D01*
X129998642Y-85400000D01*
X130056866Y-85709432D01*
X130239740Y-85993627D01*
X130249269Y-86000138D01*
X130065717Y-86268774D01*
X130040093Y-86395307D01*
X129726756Y-86265197D01*
X129275225Y-86264803D01*
X128962593Y-86393981D01*
X128943134Y-86290568D01*
X128760260Y-86006373D01*
X128750731Y-85999862D01*
X128934283Y-85731226D01*
X129001358Y-85400000D01*
X129001358Y-84700000D01*
X128943134Y-84390568D01*
X128808336Y-84181086D01*
X130415000Y-82574422D01*
X130415000Y-83987667D01*
X130415000Y-83987667D01*
G37*
X130415000Y-83987667D02*
X130256373Y-84089740D01*
X130065717Y-84368774D01*
X129998642Y-84700000D01*
X129998642Y-85400000D01*
X130056866Y-85709432D01*
X130239740Y-85993627D01*
X130249269Y-86000138D01*
X130065717Y-86268774D01*
X130040093Y-86395307D01*
X129726756Y-86265197D01*
X129275225Y-86264803D01*
X128962593Y-86393981D01*
X128943134Y-86290568D01*
X128760260Y-86006373D01*
X128750731Y-85999862D01*
X128934283Y-85731226D01*
X129001358Y-85400000D01*
X129001358Y-84700000D01*
X128943134Y-84390568D01*
X128808336Y-84181086D01*
X130415000Y-82574422D01*
X130415000Y-83987667D01*
G36*
X129128525Y-80724486D02*
X129169028Y-80751550D01*
X126732789Y-83187789D01*
X126497591Y-83539788D01*
X126415000Y-83955000D01*
X126415000Y-83987667D01*
X126256373Y-84089740D01*
X126065717Y-84368774D01*
X125998642Y-84700000D01*
X125998642Y-85400000D01*
X126056866Y-85709432D01*
X126239740Y-85993627D01*
X126249269Y-86000138D01*
X126068033Y-86265384D01*
X125826756Y-86165197D01*
X125375225Y-86164803D01*
X124957914Y-86337233D01*
X124952863Y-86342275D01*
X124943134Y-86290568D01*
X124760260Y-86006373D01*
X124750731Y-85999862D01*
X124934283Y-85731226D01*
X125001358Y-85400000D01*
X125001358Y-84813064D01*
X128402211Y-81412211D01*
X128454176Y-81334440D01*
X128521931Y-81269962D01*
X128570652Y-81160121D01*
X128637409Y-81060211D01*
X128655656Y-80968477D01*
X128676438Y-80921623D01*
X128971475Y-80724486D01*
X129050000Y-80606965D01*
X129128525Y-80724486D01*
X129128525Y-80724486D01*
G37*
X129128525Y-80724486D02*
X129169028Y-80751550D01*
X126732789Y-83187789D01*
X126497591Y-83539788D01*
X126415000Y-83955000D01*
X126415000Y-83987667D01*
X126256373Y-84089740D01*
X126065717Y-84368774D01*
X125998642Y-84700000D01*
X125998642Y-85400000D01*
X126056866Y-85709432D01*
X126239740Y-85993627D01*
X126249269Y-86000138D01*
X126068033Y-86265384D01*
X125826756Y-86165197D01*
X125375225Y-86164803D01*
X124957914Y-86337233D01*
X124952863Y-86342275D01*
X124943134Y-86290568D01*
X124760260Y-86006373D01*
X124750731Y-85999862D01*
X124934283Y-85731226D01*
X125001358Y-85400000D01*
X125001358Y-84813064D01*
X128402211Y-81412211D01*
X128454176Y-81334440D01*
X128521931Y-81269962D01*
X128570652Y-81160121D01*
X128637409Y-81060211D01*
X128655656Y-80968477D01*
X128676438Y-80921623D01*
X128971475Y-80724486D01*
X129050000Y-80606965D01*
X129128525Y-80724486D01*
G36*
X90910000Y-83904634D02*
X90910000Y-75910000D01*
X99544205Y-75910000D01*
X90910000Y-83904634D01*
X90910000Y-83904634D01*
G37*
X90910000Y-83904634D02*
X90910000Y-75910000D01*
X99544205Y-75910000D01*
X90910000Y-83904634D01*
G36*
X116428525Y-80724486D02*
X116469028Y-80751550D01*
X116165000Y-81055578D01*
X116165000Y-80795630D01*
X116271475Y-80724486D01*
X116350000Y-80606965D01*
X116428525Y-80724486D01*
X116428525Y-80724486D01*
G37*
X116428525Y-80724486D02*
X116469028Y-80751550D01*
X116165000Y-81055578D01*
X116165000Y-80795630D01*
X116271475Y-80724486D01*
X116350000Y-80606965D01*
X116428525Y-80724486D01*
G36*
X131668525Y-80724486D02*
X131709028Y-80751550D01*
X131405000Y-81055578D01*
X131405000Y-80795630D01*
X131511475Y-80724486D01*
X131590000Y-80606965D01*
X131668525Y-80724486D01*
X131668525Y-80724486D01*
G37*
X131668525Y-80724486D02*
X131709028Y-80751550D01*
X131405000Y-81055578D01*
X131405000Y-80795630D01*
X131511475Y-80724486D01*
X131590000Y-80606965D01*
X131668525Y-80724486D01*
G36*
X108298642Y-78650000D02*
X108298642Y-78915000D01*
X100519422Y-78915000D01*
X100889422Y-78545000D01*
X108319905Y-78545000D01*
X108298642Y-78650000D01*
X108298642Y-78650000D01*
G37*
X108298642Y-78650000D02*
X108298642Y-78915000D01*
X100519422Y-78915000D01*
X100889422Y-78545000D01*
X108319905Y-78545000D01*
X108298642Y-78650000D01*
G36*
X113888525Y-78184486D02*
X113956641Y-78230000D01*
X113888525Y-78275514D01*
X113810000Y-78393035D01*
X113731475Y-78275514D01*
X113663359Y-78230000D01*
X113731475Y-78184486D01*
X113810000Y-78066965D01*
X113888525Y-78184486D01*
X113888525Y-78184486D01*
G37*
X113888525Y-78184486D02*
X113956641Y-78230000D01*
X113888525Y-78275514D01*
X113810000Y-78393035D01*
X113731475Y-78275514D01*
X113663359Y-78230000D01*
X113731475Y-78184486D01*
X113810000Y-78066965D01*
X113888525Y-78184486D01*
G36*
X116428525Y-78184486D02*
X116496641Y-78230000D01*
X116428525Y-78275514D01*
X116350000Y-78393035D01*
X116271475Y-78275514D01*
X116203359Y-78230000D01*
X116271475Y-78184486D01*
X116350000Y-78066965D01*
X116428525Y-78184486D01*
X116428525Y-78184486D01*
G37*
X116428525Y-78184486D02*
X116496641Y-78230000D01*
X116428525Y-78275514D01*
X116350000Y-78393035D01*
X116271475Y-78275514D01*
X116203359Y-78230000D01*
X116271475Y-78184486D01*
X116350000Y-78066965D01*
X116428525Y-78184486D01*
G36*
X118968525Y-78184486D02*
X119036641Y-78230000D01*
X118968525Y-78275514D01*
X118890000Y-78393035D01*
X118811475Y-78275514D01*
X118743359Y-78230000D01*
X118811475Y-78184486D01*
X118890000Y-78066965D01*
X118968525Y-78184486D01*
X118968525Y-78184486D01*
G37*
X118968525Y-78184486D02*
X119036641Y-78230000D01*
X118968525Y-78275514D01*
X118890000Y-78393035D01*
X118811475Y-78275514D01*
X118743359Y-78230000D01*
X118811475Y-78184486D01*
X118890000Y-78066965D01*
X118968525Y-78184486D01*
G36*
X121508525Y-78184486D02*
X121576641Y-78230000D01*
X121508525Y-78275514D01*
X121430000Y-78393035D01*
X121351475Y-78275514D01*
X121283359Y-78230000D01*
X121351475Y-78184486D01*
X121430000Y-78066965D01*
X121508525Y-78184486D01*
X121508525Y-78184486D01*
G37*
X121508525Y-78184486D02*
X121576641Y-78230000D01*
X121508525Y-78275514D01*
X121430000Y-78393035D01*
X121351475Y-78275514D01*
X121283359Y-78230000D01*
X121351475Y-78184486D01*
X121430000Y-78066965D01*
X121508525Y-78184486D01*
G36*
X124048525Y-78184486D02*
X124116641Y-78230000D01*
X124048525Y-78275514D01*
X123970000Y-78393035D01*
X123891475Y-78275514D01*
X123823359Y-78230000D01*
X123891475Y-78184486D01*
X123970000Y-78066965D01*
X124048525Y-78184486D01*
X124048525Y-78184486D01*
G37*
X124048525Y-78184486D02*
X124116641Y-78230000D01*
X124048525Y-78275514D01*
X123970000Y-78393035D01*
X123891475Y-78275514D01*
X123823359Y-78230000D01*
X123891475Y-78184486D01*
X123970000Y-78066965D01*
X124048525Y-78184486D01*
G36*
X126588525Y-78184486D02*
X126656641Y-78230000D01*
X126588525Y-78275514D01*
X126510000Y-78393035D01*
X126431475Y-78275514D01*
X126363359Y-78230000D01*
X126431475Y-78184486D01*
X126510000Y-78066965D01*
X126588525Y-78184486D01*
X126588525Y-78184486D01*
G37*
X126588525Y-78184486D02*
X126656641Y-78230000D01*
X126588525Y-78275514D01*
X126510000Y-78393035D01*
X126431475Y-78275514D01*
X126363359Y-78230000D01*
X126431475Y-78184486D01*
X126510000Y-78066965D01*
X126588525Y-78184486D01*
G36*
X129128525Y-78184486D02*
X129196641Y-78230000D01*
X129128525Y-78275514D01*
X129050000Y-78393035D01*
X128971475Y-78275514D01*
X128903359Y-78230000D01*
X128971475Y-78184486D01*
X129050000Y-78066965D01*
X129128525Y-78184486D01*
X129128525Y-78184486D01*
G37*
X129128525Y-78184486D02*
X129196641Y-78230000D01*
X129128525Y-78275514D01*
X129050000Y-78393035D01*
X128971475Y-78275514D01*
X128903359Y-78230000D01*
X128971475Y-78184486D01*
X129050000Y-78066965D01*
X129128525Y-78184486D01*
G36*
X131668525Y-78184486D02*
X131736641Y-78230000D01*
X131668525Y-78275514D01*
X131590000Y-78393035D01*
X131511475Y-78275514D01*
X131443359Y-78230000D01*
X131511475Y-78184486D01*
X131590000Y-78066965D01*
X131668525Y-78184486D01*
X131668525Y-78184486D01*
G37*
X131668525Y-78184486D02*
X131736641Y-78230000D01*
X131668525Y-78275514D01*
X131590000Y-78393035D01*
X131511475Y-78275514D01*
X131443359Y-78230000D01*
X131511475Y-78184486D01*
X131590000Y-78066965D01*
X131668525Y-78184486D01*
M02*
