M48
INCH,TZ
T1C0.016
T2C0.020
T3C0.031
T4C0.039
%
G90
G05
T1
X36535Y-34646
X36693Y-40748
X36772Y-39173
X38425Y-43937
X38858Y-46378
X40394Y-35039
X40669Y-46378
X41929Y-35000
X42520Y-45354
X43701Y-35000
X44016Y-37165
X45315Y-44016
X46890Y-44016
X47717Y-34449
X48425Y-44016
X49449Y-34370
X49980Y-43996
X50984Y-34409
X51575Y-44016
X52756Y-34409
X53071Y-44016
T2
X39491Y-39276
X39717Y-38493
X40116Y-40757
X40258Y-37869
X40837Y-41150
X41660Y-41192
X41840Y-37591
X42419Y-40871
X42561Y-37983
X42962Y-40255
X43043Y-38650
X43186Y-39464
X47365Y-39276
X47591Y-38493
X47990Y-40757
X48132Y-37869
X48711Y-41150
X49534Y-41192
X49714Y-37591
X50293Y-40871
X50435Y-37983
X50836Y-40255
X50917Y-38650
X51060Y-39464
T3
X36417Y-41913
X36417Y-42913
X39417Y-41913
X39417Y-42913
X53150Y-37008
X53150Y-40008
X54150Y-37008
X54150Y-40008
T4
X43307Y-30299
X43307Y-31299
X43307Y-47425
X43307Y-48425
X44307Y-30299
X44307Y-31299
X44307Y-47425
X44307Y-48425
X45307Y-30299
X45307Y-31299
X45307Y-47425
X45307Y-48425
X46307Y-30299
X46307Y-31299
X46307Y-47425
X46307Y-48425
X47307Y-30299
X47307Y-31299
X47307Y-47425
X47307Y-48425
X48307Y-30299
X48307Y-31299
X48307Y-47425
X48307Y-48425
X49307Y-30299
X49307Y-31299
X49307Y-47425
X49307Y-48425
X50307Y-30299
X50307Y-31299
X50307Y-47425
X50307Y-48425
X51307Y-30299
X51307Y-31299
X51307Y-47425
X51307Y-48425
X52307Y-30299
X52307Y-31299
X52307Y-47425
X52307Y-48425
X54134Y-30693
X54134Y-31693
X54331Y-41969
X54331Y-42969
T0
M30
