G04 #@! TF.FileFunction,Other,Fab,Bot*
%FSLAX46Y46*%
G04 Gerber Fmt 4.6, Leading zero omitted, Abs format (unit mm)*
G04 Created by KiCad (PCBNEW 4.0.4-stable) date 11/20/17 14:55:23*
%MOMM*%
%LPD*%
G01*
G04 APERTURE LIST*
%ADD10C,0.100000*%
%ADD11C,0.150000*%
%ADD12C,0.075000*%
G04 APERTURE END LIST*
D10*
X133730000Y-95635000D02*
X133730000Y-100985000D01*
X133730000Y-100985000D02*
X138810000Y-100985000D01*
X138810000Y-100985000D02*
X138810000Y-94635000D01*
X138810000Y-94635000D02*
X134730000Y-94635000D01*
X134730000Y-94635000D02*
X133730000Y-95635000D01*
X133670000Y-92730000D02*
X138870000Y-92730000D01*
X138870000Y-92730000D02*
X138870000Y-102890000D01*
X138870000Y-102890000D02*
X133670000Y-102890000D01*
X133670000Y-102890000D02*
X133670000Y-92730000D01*
X94135000Y-110270000D02*
X99485000Y-110270000D01*
X99485000Y-110270000D02*
X99485000Y-105190000D01*
X99485000Y-105190000D02*
X93135000Y-105190000D01*
X93135000Y-105190000D02*
X93135000Y-109270000D01*
X93135000Y-109270000D02*
X94135000Y-110270000D01*
X91230000Y-110330000D02*
X91230000Y-105130000D01*
X91230000Y-105130000D02*
X101390000Y-105130000D01*
X101390000Y-105130000D02*
X101390000Y-110330000D01*
X101390000Y-110330000D02*
X91230000Y-110330000D01*
X137780000Y-91500000D02*
X139020000Y-91500000D01*
X137780000Y-89500000D02*
X137780000Y-91500000D01*
X139020000Y-89500000D02*
X137780000Y-89500000D01*
X139020000Y-91500000D02*
X139020000Y-89500000D01*
X103500000Y-107380000D02*
X103500000Y-108620000D01*
X105500000Y-107380000D02*
X103500000Y-107380000D01*
X105500000Y-108620000D02*
X105500000Y-107380000D01*
X103500000Y-108620000D02*
X105500000Y-108620000D01*
X131380000Y-98000000D02*
X132620000Y-98000000D01*
X131380000Y-96000000D02*
X131380000Y-98000000D01*
X132620000Y-96000000D02*
X131380000Y-96000000D01*
X132620000Y-98000000D02*
X132620000Y-96000000D01*
X138950000Y-114500000D02*
X136500000Y-114500000D01*
X139520000Y-113950000D02*
X139520000Y-113100000D01*
X138950000Y-114500000D02*
X139520000Y-113950000D01*
X139520000Y-113100000D02*
X136480000Y-113100000D01*
X136480000Y-114500000D02*
X136480000Y-113100000D01*
X138820000Y-117000000D02*
X137580000Y-117000000D01*
X138820000Y-119000000D02*
X138820000Y-117000000D01*
X137580000Y-119000000D02*
X138820000Y-119000000D01*
X137580000Y-117000000D02*
X137580000Y-119000000D01*
X135200000Y-108820000D02*
X135200000Y-107580000D01*
X133200000Y-108820000D02*
X135200000Y-108820000D01*
X133200000Y-107580000D02*
X133200000Y-108820000D01*
X135200000Y-107580000D02*
X133200000Y-107580000D01*
D11*
X139322381Y-95190952D02*
X139322381Y-95762381D01*
X140322381Y-95476666D02*
X139322381Y-95476666D01*
X140322381Y-96571905D02*
X140322381Y-96095714D01*
X139322381Y-96095714D01*
X140322381Y-96905238D02*
X139322381Y-96905238D01*
X139322381Y-97286191D01*
X139370000Y-97381429D01*
X139417619Y-97429048D01*
X139512857Y-97476667D01*
X139655714Y-97476667D01*
X139750952Y-97429048D01*
X139798571Y-97381429D01*
X139846190Y-97286191D01*
X139846190Y-96905238D01*
X139322381Y-98333810D02*
X139322381Y-98143333D01*
X139370000Y-98048095D01*
X139417619Y-98000476D01*
X139560476Y-97905238D01*
X139750952Y-97857619D01*
X140131905Y-97857619D01*
X140227143Y-97905238D01*
X140274762Y-97952857D01*
X140322381Y-98048095D01*
X140322381Y-98238572D01*
X140274762Y-98333810D01*
X140227143Y-98381429D01*
X140131905Y-98429048D01*
X139893810Y-98429048D01*
X139798571Y-98381429D01*
X139750952Y-98333810D01*
X139703333Y-98238572D01*
X139703333Y-98048095D01*
X139750952Y-97952857D01*
X139798571Y-97905238D01*
X139893810Y-97857619D01*
X139417619Y-98810000D02*
X139370000Y-98857619D01*
X139322381Y-98952857D01*
X139322381Y-99190953D01*
X139370000Y-99286191D01*
X139417619Y-99333810D01*
X139512857Y-99381429D01*
X139608095Y-99381429D01*
X139750952Y-99333810D01*
X140322381Y-98762381D01*
X140322381Y-99381429D01*
X139322381Y-99714762D02*
X139322381Y-100381429D01*
X140322381Y-99952857D01*
X135722381Y-97048095D02*
X136531905Y-97048095D01*
X136627143Y-97095714D01*
X136674762Y-97143333D01*
X136722381Y-97238571D01*
X136722381Y-97429048D01*
X136674762Y-97524286D01*
X136627143Y-97571905D01*
X136531905Y-97619524D01*
X135722381Y-97619524D01*
X136722381Y-98619524D02*
X136722381Y-98048095D01*
X136722381Y-98333809D02*
X135722381Y-98333809D01*
X135865238Y-98238571D01*
X135960476Y-98143333D01*
X136008095Y-98048095D01*
X98929048Y-103582381D02*
X98357619Y-103582381D01*
X98643334Y-104582381D02*
X98643334Y-103582381D01*
X97548095Y-104582381D02*
X98024286Y-104582381D01*
X98024286Y-103582381D01*
X97214762Y-104582381D02*
X97214762Y-103582381D01*
X96833809Y-103582381D01*
X96738571Y-103630000D01*
X96690952Y-103677619D01*
X96643333Y-103772857D01*
X96643333Y-103915714D01*
X96690952Y-104010952D01*
X96738571Y-104058571D01*
X96833809Y-104106190D01*
X97214762Y-104106190D01*
X95786190Y-103582381D02*
X95976667Y-103582381D01*
X96071905Y-103630000D01*
X96119524Y-103677619D01*
X96214762Y-103820476D01*
X96262381Y-104010952D01*
X96262381Y-104391905D01*
X96214762Y-104487143D01*
X96167143Y-104534762D01*
X96071905Y-104582381D01*
X95881428Y-104582381D01*
X95786190Y-104534762D01*
X95738571Y-104487143D01*
X95690952Y-104391905D01*
X95690952Y-104153810D01*
X95738571Y-104058571D01*
X95786190Y-104010952D01*
X95881428Y-103963333D01*
X96071905Y-103963333D01*
X96167143Y-104010952D01*
X96214762Y-104058571D01*
X96262381Y-104153810D01*
X95310000Y-103677619D02*
X95262381Y-103630000D01*
X95167143Y-103582381D01*
X94929047Y-103582381D01*
X94833809Y-103630000D01*
X94786190Y-103677619D01*
X94738571Y-103772857D01*
X94738571Y-103868095D01*
X94786190Y-104010952D01*
X95357619Y-104582381D01*
X94738571Y-104582381D01*
X94405238Y-103582381D02*
X93738571Y-103582381D01*
X94167143Y-104582381D01*
X97071905Y-107182381D02*
X97071905Y-107991905D01*
X97024286Y-108087143D01*
X96976667Y-108134762D01*
X96881429Y-108182381D01*
X96690952Y-108182381D01*
X96595714Y-108134762D01*
X96548095Y-108087143D01*
X96500476Y-107991905D01*
X96500476Y-107182381D01*
X96071905Y-107277619D02*
X96024286Y-107230000D01*
X95929048Y-107182381D01*
X95690952Y-107182381D01*
X95595714Y-107230000D01*
X95548095Y-107277619D01*
X95500476Y-107372857D01*
X95500476Y-107468095D01*
X95548095Y-107610952D01*
X96119524Y-108182381D01*
X95500476Y-108182381D01*
X136435714Y-89809524D02*
X137102381Y-89809524D01*
X136054762Y-89571428D02*
X136769048Y-89333333D01*
X136769048Y-89952381D01*
X136102381Y-90238095D02*
X136102381Y-90904762D01*
X137102381Y-90476190D01*
X137102381Y-91285714D02*
X136102381Y-91285714D01*
X136721429Y-91380952D02*
X137102381Y-91666667D01*
X136435714Y-91666667D02*
X136816667Y-91285714D01*
D12*
X138626190Y-90416667D02*
X138388095Y-90250000D01*
X138626190Y-90130953D02*
X138126190Y-90130953D01*
X138126190Y-90321429D01*
X138150000Y-90369048D01*
X138173810Y-90392857D01*
X138221429Y-90416667D01*
X138292857Y-90416667D01*
X138340476Y-90392857D01*
X138364286Y-90369048D01*
X138388095Y-90321429D01*
X138388095Y-90130953D01*
X138126190Y-90869048D02*
X138126190Y-90630953D01*
X138364286Y-90607143D01*
X138340476Y-90630953D01*
X138316667Y-90678572D01*
X138316667Y-90797619D01*
X138340476Y-90845238D01*
X138364286Y-90869048D01*
X138411905Y-90892857D01*
X138530952Y-90892857D01*
X138578571Y-90869048D01*
X138602381Y-90845238D01*
X138626190Y-90797619D01*
X138626190Y-90678572D01*
X138602381Y-90630953D01*
X138578571Y-90607143D01*
D11*
X105190476Y-105702381D02*
X105380953Y-105702381D01*
X105476191Y-105750000D01*
X105523810Y-105797619D01*
X105619048Y-105940476D01*
X105666667Y-106130952D01*
X105666667Y-106511905D01*
X105619048Y-106607143D01*
X105571429Y-106654762D01*
X105476191Y-106702381D01*
X105285714Y-106702381D01*
X105190476Y-106654762D01*
X105142857Y-106607143D01*
X105095238Y-106511905D01*
X105095238Y-106273810D01*
X105142857Y-106178571D01*
X105190476Y-106130952D01*
X105285714Y-106083333D01*
X105476191Y-106083333D01*
X105571429Y-106130952D01*
X105619048Y-106178571D01*
X105666667Y-106273810D01*
X104476191Y-105702381D02*
X104380952Y-105702381D01*
X104285714Y-105750000D01*
X104238095Y-105797619D01*
X104190476Y-105892857D01*
X104142857Y-106083333D01*
X104142857Y-106321429D01*
X104190476Y-106511905D01*
X104238095Y-106607143D01*
X104285714Y-106654762D01*
X104380952Y-106702381D01*
X104476191Y-106702381D01*
X104571429Y-106654762D01*
X104619048Y-106607143D01*
X104666667Y-106511905D01*
X104714286Y-106321429D01*
X104714286Y-106083333D01*
X104666667Y-105892857D01*
X104619048Y-105797619D01*
X104571429Y-105750000D01*
X104476191Y-105702381D01*
X103714286Y-106702381D02*
X103714286Y-105702381D01*
X103619048Y-106321429D02*
X103333333Y-106702381D01*
X103333333Y-106035714D02*
X103714286Y-106416667D01*
D12*
X104821428Y-108226190D02*
X104988095Y-107988095D01*
X105107142Y-108226190D02*
X105107142Y-107726190D01*
X104916666Y-107726190D01*
X104869047Y-107750000D01*
X104845238Y-107773810D01*
X104821428Y-107821429D01*
X104821428Y-107892857D01*
X104845238Y-107940476D01*
X104869047Y-107964286D01*
X104916666Y-107988095D01*
X105107142Y-107988095D01*
X104630952Y-107773810D02*
X104607142Y-107750000D01*
X104559523Y-107726190D01*
X104440476Y-107726190D01*
X104392857Y-107750000D01*
X104369047Y-107773810D01*
X104345238Y-107821429D01*
X104345238Y-107869048D01*
X104369047Y-107940476D01*
X104654761Y-108226190D01*
X104345238Y-108226190D01*
X103892857Y-107726190D02*
X104130952Y-107726190D01*
X104154762Y-107964286D01*
X104130952Y-107940476D01*
X104083333Y-107916667D01*
X103964286Y-107916667D01*
X103916667Y-107940476D01*
X103892857Y-107964286D01*
X103869048Y-108011905D01*
X103869048Y-108130952D01*
X103892857Y-108178571D01*
X103916667Y-108202381D01*
X103964286Y-108226190D01*
X104083333Y-108226190D01*
X104130952Y-108202381D01*
X104154762Y-108178571D01*
D11*
X129702381Y-96309524D02*
X129702381Y-96119047D01*
X129750000Y-96023809D01*
X129797619Y-95976190D01*
X129940476Y-95880952D01*
X130130952Y-95833333D01*
X130511905Y-95833333D01*
X130607143Y-95880952D01*
X130654762Y-95928571D01*
X130702381Y-96023809D01*
X130702381Y-96214286D01*
X130654762Y-96309524D01*
X130607143Y-96357143D01*
X130511905Y-96404762D01*
X130273810Y-96404762D01*
X130178571Y-96357143D01*
X130130952Y-96309524D01*
X130083333Y-96214286D01*
X130083333Y-96023809D01*
X130130952Y-95928571D01*
X130178571Y-95880952D01*
X130273810Y-95833333D01*
X129702381Y-97023809D02*
X129702381Y-97119048D01*
X129750000Y-97214286D01*
X129797619Y-97261905D01*
X129892857Y-97309524D01*
X130083333Y-97357143D01*
X130321429Y-97357143D01*
X130511905Y-97309524D01*
X130607143Y-97261905D01*
X130654762Y-97214286D01*
X130702381Y-97119048D01*
X130702381Y-97023809D01*
X130654762Y-96928571D01*
X130607143Y-96880952D01*
X130511905Y-96833333D01*
X130321429Y-96785714D01*
X130083333Y-96785714D01*
X129892857Y-96833333D01*
X129797619Y-96880952D01*
X129750000Y-96928571D01*
X129702381Y-97023809D01*
X130702381Y-97785714D02*
X129702381Y-97785714D01*
X130321429Y-97880952D02*
X130702381Y-98166667D01*
X130035714Y-98166667D02*
X130416667Y-97785714D01*
D12*
X132226190Y-96678572D02*
X131988095Y-96511905D01*
X132226190Y-96392858D02*
X131726190Y-96392858D01*
X131726190Y-96583334D01*
X131750000Y-96630953D01*
X131773810Y-96654762D01*
X131821429Y-96678572D01*
X131892857Y-96678572D01*
X131940476Y-96654762D01*
X131964286Y-96630953D01*
X131988095Y-96583334D01*
X131988095Y-96392858D01*
X131773810Y-96869048D02*
X131750000Y-96892858D01*
X131726190Y-96940477D01*
X131726190Y-97059524D01*
X131750000Y-97107143D01*
X131773810Y-97130953D01*
X131821429Y-97154762D01*
X131869048Y-97154762D01*
X131940476Y-97130953D01*
X132226190Y-96845239D01*
X132226190Y-97154762D01*
X131726190Y-97583333D02*
X131726190Y-97488095D01*
X131750000Y-97440476D01*
X131773810Y-97416667D01*
X131845238Y-97369048D01*
X131940476Y-97345238D01*
X132130952Y-97345238D01*
X132178571Y-97369048D01*
X132202381Y-97392857D01*
X132226190Y-97440476D01*
X132226190Y-97535714D01*
X132202381Y-97583333D01*
X132178571Y-97607143D01*
X132130952Y-97630952D01*
X132011905Y-97630952D01*
X131964286Y-97607143D01*
X131940476Y-97583333D01*
X131916667Y-97535714D01*
X131916667Y-97440476D01*
X131940476Y-97392857D01*
X131964286Y-97369048D01*
X132011905Y-97345238D01*
D11*
X135428571Y-111942858D02*
X135476190Y-112085715D01*
X135523810Y-112133334D01*
X135619048Y-112180953D01*
X135761905Y-112180953D01*
X135857143Y-112133334D01*
X135904762Y-112085715D01*
X135952381Y-111990477D01*
X135952381Y-111609524D01*
X134952381Y-111609524D01*
X134952381Y-111942858D01*
X135000000Y-112038096D01*
X135047619Y-112085715D01*
X135142857Y-112133334D01*
X135238095Y-112133334D01*
X135333333Y-112085715D01*
X135380952Y-112038096D01*
X135428571Y-111942858D01*
X135428571Y-111609524D01*
X135857143Y-113180953D02*
X135904762Y-113133334D01*
X135952381Y-112990477D01*
X135952381Y-112895239D01*
X135904762Y-112752381D01*
X135809524Y-112657143D01*
X135714286Y-112609524D01*
X135523810Y-112561905D01*
X135380952Y-112561905D01*
X135190476Y-112609524D01*
X135095238Y-112657143D01*
X135000000Y-112752381D01*
X134952381Y-112895239D01*
X134952381Y-112990477D01*
X135000000Y-113133334D01*
X135047619Y-113180953D01*
X135380952Y-113752381D02*
X135333333Y-113657143D01*
X135285714Y-113609524D01*
X135190476Y-113561905D01*
X135142857Y-113561905D01*
X135047619Y-113609524D01*
X135000000Y-113657143D01*
X134952381Y-113752381D01*
X134952381Y-113942858D01*
X135000000Y-114038096D01*
X135047619Y-114085715D01*
X135142857Y-114133334D01*
X135190476Y-114133334D01*
X135285714Y-114085715D01*
X135333333Y-114038096D01*
X135380952Y-113942858D01*
X135380952Y-113752381D01*
X135428571Y-113657143D01*
X135476190Y-113609524D01*
X135571429Y-113561905D01*
X135761905Y-113561905D01*
X135857143Y-113609524D01*
X135904762Y-113657143D01*
X135952381Y-113752381D01*
X135952381Y-113942858D01*
X135904762Y-114038096D01*
X135857143Y-114085715D01*
X135761905Y-114133334D01*
X135571429Y-114133334D01*
X135476190Y-114085715D01*
X135428571Y-114038096D01*
X135380952Y-113942858D01*
X134952381Y-115038096D02*
X134952381Y-114561905D01*
X135428571Y-114514286D01*
X135380952Y-114561905D01*
X135333333Y-114657143D01*
X135333333Y-114895239D01*
X135380952Y-114990477D01*
X135428571Y-115038096D01*
X135523810Y-115085715D01*
X135761905Y-115085715D01*
X135857143Y-115038096D01*
X135904762Y-114990477D01*
X135952381Y-114895239D01*
X135952381Y-114657143D01*
X135904762Y-114561905D01*
X135857143Y-114514286D01*
X134952381Y-115704762D02*
X134952381Y-115800001D01*
X135000000Y-115895239D01*
X135047619Y-115942858D01*
X135142857Y-115990477D01*
X135333333Y-116038096D01*
X135571429Y-116038096D01*
X135761905Y-115990477D01*
X135857143Y-115942858D01*
X135904762Y-115895239D01*
X135952381Y-115800001D01*
X135952381Y-115704762D01*
X135904762Y-115609524D01*
X135857143Y-115561905D01*
X135761905Y-115514286D01*
X135571429Y-115466667D01*
X135333333Y-115466667D01*
X135142857Y-115514286D01*
X135047619Y-115561905D01*
X135000000Y-115609524D01*
X134952381Y-115704762D01*
D12*
X138285714Y-114073810D02*
X138333333Y-114050000D01*
X138380952Y-114002381D01*
X138452381Y-113930952D01*
X138500000Y-113907143D01*
X138547619Y-113907143D01*
X138523809Y-114026190D02*
X138571428Y-114002381D01*
X138619047Y-113954762D01*
X138642857Y-113859524D01*
X138642857Y-113692857D01*
X138619047Y-113597619D01*
X138571428Y-113550000D01*
X138523809Y-113526190D01*
X138428571Y-113526190D01*
X138380952Y-113550000D01*
X138333333Y-113597619D01*
X138309524Y-113692857D01*
X138309524Y-113859524D01*
X138333333Y-113954762D01*
X138380952Y-114002381D01*
X138428571Y-114026190D01*
X138523809Y-114026190D01*
X138119047Y-113573810D02*
X138095237Y-113550000D01*
X138047618Y-113526190D01*
X137928571Y-113526190D01*
X137880952Y-113550000D01*
X137857142Y-113573810D01*
X137833333Y-113621429D01*
X137833333Y-113669048D01*
X137857142Y-113740476D01*
X138142856Y-114026190D01*
X137833333Y-114026190D01*
X137666666Y-113526190D02*
X137357143Y-113526190D01*
X137523809Y-113716667D01*
X137452381Y-113716667D01*
X137404762Y-113740476D01*
X137380952Y-113764286D01*
X137357143Y-113811905D01*
X137357143Y-113930952D01*
X137380952Y-113978571D01*
X137404762Y-114002381D01*
X137452381Y-114026190D01*
X137595238Y-114026190D01*
X137642857Y-114002381D01*
X137666666Y-113978571D01*
D11*
X139735714Y-117309524D02*
X140402381Y-117309524D01*
X139354762Y-117071428D02*
X140069048Y-116833333D01*
X140069048Y-117452381D01*
X139402381Y-117738095D02*
X139402381Y-118404762D01*
X140402381Y-117976190D01*
X140402381Y-118785714D02*
X139402381Y-118785714D01*
X140021429Y-118880952D02*
X140402381Y-119166667D01*
X139735714Y-119166667D02*
X140116667Y-118785714D01*
D12*
X138426190Y-117678572D02*
X138188095Y-117511905D01*
X138426190Y-117392858D02*
X137926190Y-117392858D01*
X137926190Y-117583334D01*
X137950000Y-117630953D01*
X137973810Y-117654762D01*
X138021429Y-117678572D01*
X138092857Y-117678572D01*
X138140476Y-117654762D01*
X138164286Y-117630953D01*
X138188095Y-117583334D01*
X138188095Y-117392858D01*
X137973810Y-117869048D02*
X137950000Y-117892858D01*
X137926190Y-117940477D01*
X137926190Y-118059524D01*
X137950000Y-118107143D01*
X137973810Y-118130953D01*
X138021429Y-118154762D01*
X138069048Y-118154762D01*
X138140476Y-118130953D01*
X138426190Y-117845239D01*
X138426190Y-118154762D01*
X137926190Y-118321429D02*
X137926190Y-118654762D01*
X138426190Y-118440476D01*
D11*
X134890476Y-109402381D02*
X135080953Y-109402381D01*
X135176191Y-109450000D01*
X135223810Y-109497619D01*
X135319048Y-109640476D01*
X135366667Y-109830952D01*
X135366667Y-110211905D01*
X135319048Y-110307143D01*
X135271429Y-110354762D01*
X135176191Y-110402381D01*
X134985714Y-110402381D01*
X134890476Y-110354762D01*
X134842857Y-110307143D01*
X134795238Y-110211905D01*
X134795238Y-109973810D01*
X134842857Y-109878571D01*
X134890476Y-109830952D01*
X134985714Y-109783333D01*
X135176191Y-109783333D01*
X135271429Y-109830952D01*
X135319048Y-109878571D01*
X135366667Y-109973810D01*
X134176191Y-109402381D02*
X134080952Y-109402381D01*
X133985714Y-109450000D01*
X133938095Y-109497619D01*
X133890476Y-109592857D01*
X133842857Y-109783333D01*
X133842857Y-110021429D01*
X133890476Y-110211905D01*
X133938095Y-110307143D01*
X133985714Y-110354762D01*
X134080952Y-110402381D01*
X134176191Y-110402381D01*
X134271429Y-110354762D01*
X134319048Y-110307143D01*
X134366667Y-110211905D01*
X134414286Y-110021429D01*
X134414286Y-109783333D01*
X134366667Y-109592857D01*
X134319048Y-109497619D01*
X134271429Y-109450000D01*
X134176191Y-109402381D01*
X133414286Y-110402381D02*
X133414286Y-109402381D01*
X133319048Y-110021429D02*
X133033333Y-110402381D01*
X133033333Y-109735714D02*
X133414286Y-110116667D01*
D12*
X134521428Y-108426190D02*
X134688095Y-108188095D01*
X134807142Y-108426190D02*
X134807142Y-107926190D01*
X134616666Y-107926190D01*
X134569047Y-107950000D01*
X134545238Y-107973810D01*
X134521428Y-108021429D01*
X134521428Y-108092857D01*
X134545238Y-108140476D01*
X134569047Y-108164286D01*
X134616666Y-108188095D01*
X134807142Y-108188095D01*
X134330952Y-107973810D02*
X134307142Y-107950000D01*
X134259523Y-107926190D01*
X134140476Y-107926190D01*
X134092857Y-107950000D01*
X134069047Y-107973810D01*
X134045238Y-108021429D01*
X134045238Y-108069048D01*
X134069047Y-108140476D01*
X134354761Y-108426190D01*
X134045238Y-108426190D01*
X133759524Y-108140476D02*
X133807143Y-108116667D01*
X133830952Y-108092857D01*
X133854762Y-108045238D01*
X133854762Y-108021429D01*
X133830952Y-107973810D01*
X133807143Y-107950000D01*
X133759524Y-107926190D01*
X133664286Y-107926190D01*
X133616667Y-107950000D01*
X133592857Y-107973810D01*
X133569048Y-108021429D01*
X133569048Y-108045238D01*
X133592857Y-108092857D01*
X133616667Y-108116667D01*
X133664286Y-108140476D01*
X133759524Y-108140476D01*
X133807143Y-108164286D01*
X133830952Y-108188095D01*
X133854762Y-108235714D01*
X133854762Y-108330952D01*
X133830952Y-108378571D01*
X133807143Y-108402381D01*
X133759524Y-108426190D01*
X133664286Y-108426190D01*
X133616667Y-108402381D01*
X133592857Y-108378571D01*
X133569048Y-108330952D01*
X133569048Y-108235714D01*
X133592857Y-108188095D01*
X133616667Y-108164286D01*
X133664286Y-108140476D01*
M02*
