G04 #@! TF.FileFunction,Other,User*
%FSLAX46Y46*%
G04 Gerber Fmt 4.6, Leading zero omitted, Abs format (unit mm)*
G04 Created by KiCad (PCBNEW 4.0.4-stable) date 11/20/17 14:55:23*
%MOMM*%
%LPD*%
G01*
G04 APERTURE LIST*
%ADD10C,0.100000*%
%ADD11C,0.050000*%
G04 APERTURE END LIST*
D10*
D11*
X133400000Y-92450000D02*
X139150000Y-92450000D01*
X139150000Y-92450000D02*
X139150000Y-103150000D01*
X139150000Y-103150000D02*
X133400000Y-103150000D01*
X133400000Y-103150000D02*
X133400000Y-92450000D01*
X90950000Y-110600000D02*
X90950000Y-104850000D01*
X90950000Y-104850000D02*
X101650000Y-104850000D01*
X101650000Y-104850000D02*
X101650000Y-110600000D01*
X101650000Y-110600000D02*
X90950000Y-110600000D01*
X139300000Y-92050000D02*
X139300000Y-88950000D01*
X139300000Y-92050000D02*
X137500000Y-92050000D01*
X137500000Y-88950000D02*
X139300000Y-88950000D01*
X137500000Y-88950000D02*
X137500000Y-92050000D01*
X102950000Y-108900000D02*
X106050000Y-108900000D01*
X102950000Y-108900000D02*
X102950000Y-107100000D01*
X106050000Y-107100000D02*
X106050000Y-108900000D01*
X106050000Y-107100000D02*
X102950000Y-107100000D01*
X132900000Y-98550000D02*
X132900000Y-95450000D01*
X132900000Y-98550000D02*
X131100000Y-98550000D01*
X131100000Y-95450000D02*
X132900000Y-95450000D01*
X131100000Y-95450000D02*
X131100000Y-98550000D01*
X139750000Y-115500000D02*
X139750000Y-112100000D01*
X139750000Y-112100000D02*
X136250000Y-112100000D01*
X136250000Y-112100000D02*
X136250000Y-115500000D01*
X136250000Y-115500000D02*
X139750000Y-115500000D01*
X137300000Y-116450000D02*
X137300000Y-119550000D01*
X137300000Y-116450000D02*
X139100000Y-116450000D01*
X139100000Y-119550000D02*
X137300000Y-119550000D01*
X139100000Y-119550000D02*
X139100000Y-116450000D01*
X135750000Y-107300000D02*
X132650000Y-107300000D01*
X135750000Y-107300000D02*
X135750000Y-109100000D01*
X132650000Y-109100000D02*
X132650000Y-107300000D01*
X132650000Y-109100000D02*
X135750000Y-109100000D01*
M02*
