G04 #@! TF.FileFunction,Other,User*
%FSLAX46Y46*%
G04 Gerber Fmt 4.6, Leading zero omitted, Abs format (unit mm)*
G04 Created by KiCad (PCBNEW 4.0.4-stable) date 11/20/17 14:55:23*
%MOMM*%
%LPD*%
G01*
G04 APERTURE LIST*
%ADD10C,0.100000*%
%ADD11C,0.050000*%
G04 APERTURE END LIST*
D10*
D11*
X136200000Y-104800000D02*
X136200000Y-110950000D01*
X136200000Y-110950000D02*
X139800000Y-110950000D01*
X139800000Y-110950000D02*
X139800000Y-104800000D01*
X139800000Y-104800000D02*
X136200000Y-104800000D01*
X108200000Y-124800000D02*
X134650000Y-124800000D01*
X134650000Y-124800000D02*
X134650000Y-118650000D01*
X134650000Y-118650000D02*
X108200000Y-118650000D01*
X108200000Y-118650000D02*
X108200000Y-124800000D01*
X108200000Y-81300000D02*
X134650000Y-81300000D01*
X134650000Y-81300000D02*
X134650000Y-75150000D01*
X134650000Y-75150000D02*
X108200000Y-75150000D01*
X108200000Y-75150000D02*
X108200000Y-81300000D01*
X120250000Y-110700000D02*
X120250000Y-107300000D01*
X120250000Y-107300000D02*
X123750000Y-107300000D01*
X123750000Y-107300000D02*
X123750000Y-110700000D01*
X123750000Y-110700000D02*
X120250000Y-110700000D01*
X120250000Y-91300000D02*
X120250000Y-94700000D01*
X120250000Y-94700000D02*
X116750000Y-94700000D01*
X116750000Y-94700000D02*
X116750000Y-91300000D01*
X116750000Y-91300000D02*
X120250000Y-91300000D01*
X116250000Y-110700000D02*
X116250000Y-107300000D01*
X116250000Y-107300000D02*
X119750000Y-107300000D01*
X119750000Y-107300000D02*
X119750000Y-110700000D01*
X119750000Y-110700000D02*
X116250000Y-110700000D01*
X112250000Y-110700000D02*
X112250000Y-107300000D01*
X112250000Y-107300000D02*
X115750000Y-107300000D01*
X115750000Y-107300000D02*
X115750000Y-110700000D01*
X115750000Y-110700000D02*
X112250000Y-110700000D01*
X124250000Y-88300000D02*
X124250000Y-91700000D01*
X124250000Y-91700000D02*
X120750000Y-91700000D01*
X120750000Y-91700000D02*
X120750000Y-88300000D01*
X120750000Y-88300000D02*
X124250000Y-88300000D01*
X128250000Y-88300000D02*
X128250000Y-91700000D01*
X128250000Y-91700000D02*
X124750000Y-91700000D01*
X124750000Y-91700000D02*
X124750000Y-88300000D01*
X124750000Y-88300000D02*
X128250000Y-88300000D01*
X132250000Y-88300000D02*
X132250000Y-91700000D01*
X132250000Y-91700000D02*
X128750000Y-91700000D01*
X128750000Y-91700000D02*
X128750000Y-88300000D01*
X128750000Y-88300000D02*
X132250000Y-88300000D01*
X136750000Y-88300000D02*
X136750000Y-91700000D01*
X136750000Y-91700000D02*
X133250000Y-91700000D01*
X133250000Y-91700000D02*
X133250000Y-88300000D01*
X133250000Y-88300000D02*
X136750000Y-88300000D01*
X132250000Y-110700000D02*
X132250000Y-107300000D01*
X132250000Y-107300000D02*
X135750000Y-107300000D01*
X135750000Y-107300000D02*
X135750000Y-110700000D01*
X135750000Y-110700000D02*
X132250000Y-110700000D01*
X128250000Y-110700000D02*
X128250000Y-107300000D01*
X128250000Y-107300000D02*
X131750000Y-107300000D01*
X131750000Y-107300000D02*
X131750000Y-110700000D01*
X131750000Y-110700000D02*
X128250000Y-110700000D01*
X124250000Y-110700000D02*
X124250000Y-107300000D01*
X124250000Y-107300000D02*
X127750000Y-107300000D01*
X127750000Y-107300000D02*
X127750000Y-110700000D01*
X127750000Y-110700000D02*
X124250000Y-110700000D01*
X94300000Y-100750000D02*
X97700000Y-100750000D01*
X97700000Y-100750000D02*
X97700000Y-104250000D01*
X97700000Y-104250000D02*
X94300000Y-104250000D01*
X94300000Y-104250000D02*
X94300000Y-100750000D01*
X101250000Y-89800000D02*
X101250000Y-93200000D01*
X101250000Y-93200000D02*
X97750000Y-93200000D01*
X97750000Y-93200000D02*
X97750000Y-89800000D01*
X97750000Y-89800000D02*
X101250000Y-89800000D01*
X94300000Y-96750000D02*
X97700000Y-96750000D01*
X97700000Y-96750000D02*
X97700000Y-100250000D01*
X97700000Y-100250000D02*
X94300000Y-100250000D01*
X94300000Y-100250000D02*
X94300000Y-96750000D01*
X95750000Y-88800000D02*
X95750000Y-92200000D01*
X95750000Y-92200000D02*
X92250000Y-92200000D01*
X92250000Y-92200000D02*
X92250000Y-88800000D01*
X92250000Y-88800000D02*
X95750000Y-88800000D01*
X105250000Y-89800000D02*
X105250000Y-93200000D01*
X105250000Y-93200000D02*
X101750000Y-93200000D01*
X101750000Y-93200000D02*
X101750000Y-89800000D01*
X101750000Y-89800000D02*
X105250000Y-89800000D01*
X109250000Y-89800000D02*
X109250000Y-93200000D01*
X109250000Y-93200000D02*
X105750000Y-93200000D01*
X105750000Y-93200000D02*
X105750000Y-89800000D01*
X105750000Y-89800000D02*
X109250000Y-89800000D01*
X113750000Y-89800000D02*
X113750000Y-93200000D01*
X113750000Y-93200000D02*
X110250000Y-93200000D01*
X110250000Y-93200000D02*
X110250000Y-89800000D01*
X110250000Y-89800000D02*
X113750000Y-89800000D01*
X114250000Y-95300000D02*
X114250000Y-98700000D01*
X114250000Y-98700000D02*
X110750000Y-98700000D01*
X110750000Y-98700000D02*
X110750000Y-95300000D01*
X110750000Y-95300000D02*
X114250000Y-95300000D01*
X104750000Y-114200000D02*
X104750000Y-110800000D01*
X104750000Y-110800000D02*
X108250000Y-110800000D01*
X108250000Y-110800000D02*
X108250000Y-114200000D01*
X108250000Y-114200000D02*
X104750000Y-114200000D01*
X100250000Y-116700000D02*
X100250000Y-113300000D01*
X100250000Y-113300000D02*
X103750000Y-113300000D01*
X103750000Y-113300000D02*
X103750000Y-116700000D01*
X103750000Y-116700000D02*
X100250000Y-116700000D01*
X95250000Y-116700000D02*
X95250000Y-113300000D01*
X95250000Y-113300000D02*
X98750000Y-113300000D01*
X98750000Y-113300000D02*
X98750000Y-116700000D01*
X98750000Y-116700000D02*
X95250000Y-116700000D01*
X121900000Y-111450000D02*
X121900000Y-114550000D01*
X121900000Y-111450000D02*
X120100000Y-111450000D01*
X120100000Y-114550000D02*
X121900000Y-114550000D01*
X120100000Y-114550000D02*
X120100000Y-111450000D01*
X113900000Y-111450000D02*
X113900000Y-114550000D01*
X113900000Y-111450000D02*
X112100000Y-111450000D01*
X112100000Y-114550000D02*
X113900000Y-114550000D01*
X112100000Y-114550000D02*
X112100000Y-111450000D01*
X122600000Y-87550000D02*
X122600000Y-84450000D01*
X122600000Y-87550000D02*
X124400000Y-87550000D01*
X124400000Y-84450000D02*
X122600000Y-84450000D01*
X124400000Y-84450000D02*
X124400000Y-87550000D01*
X126600000Y-87550000D02*
X126600000Y-84450000D01*
X126600000Y-87550000D02*
X128400000Y-87550000D01*
X128400000Y-84450000D02*
X126600000Y-84450000D01*
X128400000Y-84450000D02*
X128400000Y-87550000D01*
X130600000Y-87550000D02*
X130600000Y-84450000D01*
X130600000Y-87550000D02*
X132400000Y-87550000D01*
X132400000Y-84450000D02*
X130600000Y-84450000D01*
X132400000Y-84450000D02*
X132400000Y-87550000D01*
X135100000Y-87550000D02*
X135100000Y-84450000D01*
X135100000Y-87550000D02*
X136900000Y-87550000D01*
X136900000Y-84450000D02*
X135100000Y-84450000D01*
X136900000Y-84450000D02*
X136900000Y-87550000D01*
X133900000Y-111450000D02*
X133900000Y-114550000D01*
X133900000Y-111450000D02*
X132100000Y-111450000D01*
X132100000Y-114550000D02*
X133900000Y-114550000D01*
X132100000Y-114550000D02*
X132100000Y-111450000D01*
X130400000Y-111450000D02*
X130400000Y-114550000D01*
X130400000Y-111450000D02*
X128600000Y-111450000D01*
X128600000Y-114550000D02*
X130400000Y-114550000D01*
X128600000Y-114550000D02*
X128600000Y-111450000D01*
X125900000Y-111450000D02*
X125900000Y-114550000D01*
X125900000Y-111450000D02*
X124100000Y-111450000D01*
X124100000Y-114550000D02*
X125900000Y-114550000D01*
X124100000Y-114550000D02*
X124100000Y-111450000D01*
X118600000Y-91050000D02*
X118600000Y-87950000D01*
X118600000Y-91050000D02*
X120400000Y-91050000D01*
X120400000Y-87950000D02*
X118600000Y-87950000D01*
X120400000Y-87950000D02*
X120400000Y-91050000D01*
X117900000Y-111450000D02*
X117900000Y-114550000D01*
X117900000Y-111450000D02*
X116100000Y-111450000D01*
X116100000Y-114550000D02*
X117900000Y-114550000D01*
X116100000Y-114550000D02*
X116100000Y-111450000D01*
X94050000Y-102400000D02*
X90950000Y-102400000D01*
X94050000Y-102400000D02*
X94050000Y-100600000D01*
X90950000Y-100600000D02*
X90950000Y-102400000D01*
X90950000Y-100600000D02*
X94050000Y-100600000D01*
X99100000Y-89550000D02*
X99100000Y-86450000D01*
X99100000Y-89550000D02*
X100900000Y-89550000D01*
X100900000Y-86450000D02*
X99100000Y-86450000D01*
X100900000Y-86450000D02*
X100900000Y-89550000D01*
X94050000Y-98400000D02*
X90950000Y-98400000D01*
X94050000Y-98400000D02*
X94050000Y-96600000D01*
X90950000Y-96600000D02*
X90950000Y-98400000D01*
X90950000Y-96600000D02*
X94050000Y-96600000D01*
X93600000Y-88050000D02*
X93600000Y-84950000D01*
X93600000Y-88050000D02*
X95400000Y-88050000D01*
X95400000Y-84950000D02*
X93600000Y-84950000D01*
X95400000Y-84950000D02*
X95400000Y-88050000D01*
X94550000Y-106600000D02*
X97650000Y-106600000D01*
X94550000Y-106600000D02*
X94550000Y-108400000D01*
X97650000Y-108400000D02*
X97650000Y-106600000D01*
X97650000Y-108400000D02*
X94550000Y-108400000D01*
X103600000Y-89050000D02*
X103600000Y-85950000D01*
X103600000Y-89050000D02*
X105400000Y-89050000D01*
X105400000Y-85950000D02*
X103600000Y-85950000D01*
X105400000Y-85950000D02*
X105400000Y-89050000D01*
X107600000Y-89050000D02*
X107600000Y-85950000D01*
X107600000Y-89050000D02*
X109400000Y-89050000D01*
X109400000Y-85950000D02*
X107600000Y-85950000D01*
X109400000Y-85950000D02*
X109400000Y-89050000D01*
X112100000Y-89050000D02*
X112100000Y-85950000D01*
X112100000Y-89050000D02*
X113900000Y-89050000D01*
X113900000Y-85950000D02*
X112100000Y-85950000D01*
X113900000Y-85950000D02*
X113900000Y-89050000D01*
X114600000Y-96550000D02*
X114600000Y-93450000D01*
X114600000Y-96550000D02*
X116400000Y-96550000D01*
X116400000Y-93450000D02*
X114600000Y-93450000D01*
X116400000Y-93450000D02*
X116400000Y-96550000D01*
X106400000Y-114950000D02*
X106400000Y-118050000D01*
X106400000Y-114950000D02*
X104600000Y-114950000D01*
X104600000Y-118050000D02*
X106400000Y-118050000D01*
X104600000Y-118050000D02*
X104600000Y-114950000D01*
X102400000Y-117450000D02*
X102400000Y-120550000D01*
X102400000Y-117450000D02*
X100600000Y-117450000D01*
X100600000Y-120550000D02*
X102400000Y-120550000D01*
X100600000Y-120550000D02*
X100600000Y-117450000D01*
X97400000Y-117450000D02*
X97400000Y-120550000D01*
X97400000Y-117450000D02*
X95600000Y-117450000D01*
X95600000Y-120550000D02*
X97400000Y-120550000D01*
X95600000Y-120550000D02*
X95600000Y-117450000D01*
X139300000Y-82300000D02*
X139300000Y-76150000D01*
X139300000Y-76150000D02*
X135700000Y-76150000D01*
X135700000Y-76150000D02*
X135700000Y-82300000D01*
X135700000Y-82300000D02*
X139300000Y-82300000D01*
M02*
