G04 #@! TF.FileFunction,Paste,Top*
%FSLAX46Y46*%
G04 Gerber Fmt 4.6, Leading zero omitted, Abs format (unit mm)*
G04 Created by KiCad (PCBNEW 4.0.4-stable) date 11/20/17 14:55:23*
%MOMM*%
%LPD*%
G01*
G04 APERTURE LIST*
%ADD10C,0.100000*%
%ADD11R,0.800000X0.900000*%
%ADD12R,0.900000X0.800000*%
%ADD13R,1.300000X0.700000*%
%ADD14R,0.700000X1.300000*%
G04 APERTURE END LIST*
D10*
D11*
X121050000Y-110000000D03*
X122950000Y-110000000D03*
X122000000Y-108000000D03*
X119450000Y-92000000D03*
X117550000Y-92000000D03*
X118500000Y-94000000D03*
X117050000Y-110000000D03*
X118950000Y-110000000D03*
X118000000Y-108000000D03*
X113050000Y-110000000D03*
X114950000Y-110000000D03*
X114000000Y-108000000D03*
X123450000Y-89000000D03*
X121550000Y-89000000D03*
X122500000Y-91000000D03*
X127450000Y-89000000D03*
X125550000Y-89000000D03*
X126500000Y-91000000D03*
X131450000Y-89000000D03*
X129550000Y-89000000D03*
X130500000Y-91000000D03*
X135950000Y-89000000D03*
X134050000Y-89000000D03*
X135000000Y-91000000D03*
X133050000Y-110000000D03*
X134950000Y-110000000D03*
X134000000Y-108000000D03*
X129050000Y-110000000D03*
X130950000Y-110000000D03*
X130000000Y-108000000D03*
X125050000Y-110000000D03*
X126950000Y-110000000D03*
X126000000Y-108000000D03*
D12*
X95000000Y-101550000D03*
X95000000Y-103450000D03*
X97000000Y-102500000D03*
D11*
X100450000Y-90500000D03*
X98550000Y-90500000D03*
X99500000Y-92500000D03*
D12*
X95000000Y-97550000D03*
X95000000Y-99450000D03*
X97000000Y-98500000D03*
D11*
X94950000Y-89500000D03*
X93050000Y-89500000D03*
X94000000Y-91500000D03*
X104450000Y-90500000D03*
X102550000Y-90500000D03*
X103500000Y-92500000D03*
X108450000Y-90500000D03*
X106550000Y-90500000D03*
X107500000Y-92500000D03*
X112950000Y-90500000D03*
X111050000Y-90500000D03*
X112000000Y-92500000D03*
X113450000Y-96000000D03*
X111550000Y-96000000D03*
X112500000Y-98000000D03*
X105550000Y-113500000D03*
X107450000Y-113500000D03*
X106500000Y-111500000D03*
X101050000Y-116000000D03*
X102950000Y-116000000D03*
X102000000Y-114000000D03*
X96050000Y-116000000D03*
X97950000Y-116000000D03*
X97000000Y-114000000D03*
D13*
X121000000Y-112050000D03*
X121000000Y-113950000D03*
X113000000Y-112050000D03*
X113000000Y-113950000D03*
X123500000Y-86950000D03*
X123500000Y-85050000D03*
X127500000Y-86950000D03*
X127500000Y-85050000D03*
X131500000Y-86950000D03*
X131500000Y-85050000D03*
X136000000Y-86950000D03*
X136000000Y-85050000D03*
X133000000Y-112050000D03*
X133000000Y-113950000D03*
X129500000Y-112050000D03*
X129500000Y-113950000D03*
X125000000Y-112050000D03*
X125000000Y-113950000D03*
X119500000Y-90450000D03*
X119500000Y-88550000D03*
X117000000Y-112050000D03*
X117000000Y-113950000D03*
D14*
X93450000Y-101500000D03*
X91550000Y-101500000D03*
D13*
X100000000Y-88950000D03*
X100000000Y-87050000D03*
D14*
X93450000Y-97500000D03*
X91550000Y-97500000D03*
D13*
X94500000Y-87450000D03*
X94500000Y-85550000D03*
D14*
X95150000Y-107500000D03*
X97050000Y-107500000D03*
D13*
X104500000Y-88450000D03*
X104500000Y-86550000D03*
X108500000Y-88450000D03*
X108500000Y-86550000D03*
X113000000Y-88450000D03*
X113000000Y-86550000D03*
X115500000Y-95950000D03*
X115500000Y-94050000D03*
X105500000Y-115550000D03*
X105500000Y-117450000D03*
X101500000Y-118050000D03*
X101500000Y-119950000D03*
X96500000Y-118050000D03*
X96500000Y-119950000D03*
M02*
