M48
INCH,TZ
T1C0.016
T2C0.020
T3C0.031
T4C0.039
%
G90
G05
T1
X3.6535Y-3.4646
X3.6693Y-4.0748
X3.6772Y-3.9173
X3.8425Y-4.3937
X3.878Y-3.5157
X3.8858Y-4.6378
X4.0394Y-3.5039
X4.0669Y-4.6378
X4.1929Y-3.5
X4.252Y-4.5354
X4.3701Y-3.5
X4.4016Y-3.7165
X4.5315Y-4.4016
X4.622Y-3.4882
X4.689Y-4.4016
X4.7717Y-3.4449
X4.8425Y-4.4016
X4.9449Y-3.437
X4.998Y-4.3996
X5.0984Y-3.4409
X5.1575Y-4.4016
X5.2756Y-3.4409
X5.3071Y-4.4016
T2
X3.9491Y-3.9276
X3.9635Y-4.009
X3.9715Y-3.8485
X4.0116Y-4.0757
X4.0258Y-3.7869
X4.0837Y-4.115
X4.1017Y-3.7548
X4.184Y-3.7591
X4.2419Y-4.0871
X4.2561Y-3.7983
X4.296Y-4.0247
X4.3186Y-3.9464
X4.7365Y-3.9276
X4.7509Y-4.009
X4.7589Y-3.8485
X4.799Y-4.0757
X4.8132Y-3.7869
X4.8711Y-4.115
X4.8891Y-3.7548
X4.9714Y-3.7591
X5.0293Y-4.0871
X5.0435Y-3.7983
X5.0834Y-4.0247
X5.106Y-3.9464
T3
X3.6417Y-4.1913
X3.6417Y-4.2913
X3.9417Y-4.1913
X3.9417Y-4.2913
X5.315Y-3.7008
X5.315Y-4.0008
X5.415Y-3.7008
X5.415Y-4.0008
T4
X4.3307Y-3.0299
X4.3307Y-3.1299
X4.3307Y-4.7425
X4.3307Y-4.8425
X4.4307Y-3.0299
X4.4307Y-3.1299
X4.4307Y-4.7425
X4.4307Y-4.8425
X4.5307Y-3.0299
X4.5307Y-3.1299
X4.5307Y-4.7425
X4.5307Y-4.8425
X4.6307Y-3.0299
X4.6307Y-3.1299
X4.6307Y-4.7425
X4.6307Y-4.8425
X4.7307Y-3.0299
X4.7307Y-3.1299
X4.7307Y-4.7425
X4.7307Y-4.8425
X4.8307Y-3.0299
X4.8307Y-3.1299
X4.8307Y-4.7425
X4.8307Y-4.8425
X4.9307Y-3.0299
X4.9307Y-3.1299
X4.9307Y-4.7425
X4.9307Y-4.8425
X5.0307Y-3.0299
X5.0307Y-3.1299
X5.0307Y-4.7425
X5.0307Y-4.8425
X5.1307Y-3.0299
X5.1307Y-3.1299
X5.1307Y-4.7425
X5.1307Y-4.8425
X5.2307Y-3.0299
X5.2307Y-3.1299
X5.2307Y-4.7425
X5.2307Y-4.8425
X5.4134Y-3.0693
X5.4134Y-3.1693
X5.4331Y-4.1969
X5.4331Y-4.2969
T0
M30
