G04 #@! TF.FileFunction,Legend,Bot*
%FSLAX46Y46*%
G04 Gerber Fmt 4.6, Leading zero omitted, Abs format (unit mm)*
G04 Created by KiCad (PCBNEW 4.0.4-stable) date 11/20/17 14:55:23*
%MOMM*%
%LPD*%
G01*
G04 APERTURE LIST*
%ADD10C,0.100000*%
%ADD11C,0.120000*%
%ADD12C,0.150000*%
G04 APERTURE END LIST*
D10*
D11*
X133670000Y-98810000D02*
G75*
G03X133670000Y-96810000I0J1000000D01*
G01*
X133670000Y-96810000D02*
X133670000Y-95160000D01*
X133670000Y-95160000D02*
X138870000Y-95160000D01*
X138870000Y-95160000D02*
X138870000Y-100460000D01*
X138870000Y-100460000D02*
X133670000Y-100460000D01*
X133670000Y-100460000D02*
X133670000Y-98810000D01*
X133610000Y-92670000D02*
X138930000Y-92670000D01*
X138930000Y-92670000D02*
X138930000Y-102950000D01*
X138930000Y-102950000D02*
X133610000Y-102950000D01*
X133610000Y-102950000D02*
X133610000Y-92670000D01*
X97310000Y-110330000D02*
G75*
G03X95310000Y-110330000I-1000000J0D01*
G01*
X95310000Y-110330000D02*
X93660000Y-110330000D01*
X93660000Y-110330000D02*
X93660000Y-105130000D01*
X93660000Y-105130000D02*
X98960000Y-105130000D01*
X98960000Y-105130000D02*
X98960000Y-110330000D01*
X98960000Y-110330000D02*
X97310000Y-110330000D01*
X91170000Y-110390000D02*
X91170000Y-105070000D01*
X91170000Y-105070000D02*
X101450000Y-105070000D01*
X101450000Y-105070000D02*
X101450000Y-110390000D01*
X101450000Y-110390000D02*
X91170000Y-110390000D01*
X137520000Y-89900000D02*
X137520000Y-91100000D01*
X139280000Y-91100000D02*
X139280000Y-89900000D01*
X105100000Y-107120000D02*
X103900000Y-107120000D01*
X103900000Y-108880000D02*
X105100000Y-108880000D01*
X131120000Y-96400000D02*
X131120000Y-97600000D01*
X132880000Y-97600000D02*
X132880000Y-96400000D01*
X136420000Y-113040000D02*
X137350000Y-113040000D01*
X139580000Y-113040000D02*
X138650000Y-113040000D01*
X139580000Y-113040000D02*
X139580000Y-115200000D01*
X136420000Y-113040000D02*
X136420000Y-114500000D01*
X139080000Y-118600000D02*
X139080000Y-117400000D01*
X137320000Y-117400000D02*
X137320000Y-118600000D01*
X133600000Y-109080000D02*
X134800000Y-109080000D01*
X134800000Y-107320000D02*
X133600000Y-107320000D01*
D12*
X132122381Y-97048095D02*
X132931905Y-97048095D01*
X133027143Y-97095714D01*
X133074762Y-97143333D01*
X133122381Y-97238571D01*
X133122381Y-97429048D01*
X133074762Y-97524286D01*
X133027143Y-97571905D01*
X132931905Y-97619524D01*
X132122381Y-97619524D01*
X133122381Y-98619524D02*
X133122381Y-98048095D01*
X133122381Y-98333809D02*
X132122381Y-98333809D01*
X132265238Y-98238571D01*
X132360476Y-98143333D01*
X132408095Y-98048095D01*
X97071905Y-110782381D02*
X97071905Y-111591905D01*
X97024286Y-111687143D01*
X96976667Y-111734762D01*
X96881429Y-111782381D01*
X96690952Y-111782381D01*
X96595714Y-111734762D01*
X96548095Y-111687143D01*
X96500476Y-111591905D01*
X96500476Y-110782381D01*
X96071905Y-110877619D02*
X96024286Y-110830000D01*
X95929048Y-110782381D01*
X95690952Y-110782381D01*
X95595714Y-110830000D01*
X95548095Y-110877619D01*
X95500476Y-110972857D01*
X95500476Y-111068095D01*
X95548095Y-111210952D01*
X96119524Y-111782381D01*
X95500476Y-111782381D01*
X140502381Y-90333334D02*
X140026190Y-90000000D01*
X140502381Y-89761905D02*
X139502381Y-89761905D01*
X139502381Y-90142858D01*
X139550000Y-90238096D01*
X139597619Y-90285715D01*
X139692857Y-90333334D01*
X139835714Y-90333334D01*
X139930952Y-90285715D01*
X139978571Y-90238096D01*
X140026190Y-90142858D01*
X140026190Y-89761905D01*
X139502381Y-91238096D02*
X139502381Y-90761905D01*
X139978571Y-90714286D01*
X139930952Y-90761905D01*
X139883333Y-90857143D01*
X139883333Y-91095239D01*
X139930952Y-91190477D01*
X139978571Y-91238096D01*
X140073810Y-91285715D01*
X140311905Y-91285715D01*
X140407143Y-91238096D01*
X140454762Y-91190477D01*
X140502381Y-91095239D01*
X140502381Y-90857143D01*
X140454762Y-90761905D01*
X140407143Y-90714286D01*
X105142857Y-110102381D02*
X105476191Y-109626190D01*
X105714286Y-110102381D02*
X105714286Y-109102381D01*
X105333333Y-109102381D01*
X105238095Y-109150000D01*
X105190476Y-109197619D01*
X105142857Y-109292857D01*
X105142857Y-109435714D01*
X105190476Y-109530952D01*
X105238095Y-109578571D01*
X105333333Y-109626190D01*
X105714286Y-109626190D01*
X104761905Y-109197619D02*
X104714286Y-109150000D01*
X104619048Y-109102381D01*
X104380952Y-109102381D01*
X104285714Y-109150000D01*
X104238095Y-109197619D01*
X104190476Y-109292857D01*
X104190476Y-109388095D01*
X104238095Y-109530952D01*
X104809524Y-110102381D01*
X104190476Y-110102381D01*
X103285714Y-109102381D02*
X103761905Y-109102381D01*
X103809524Y-109578571D01*
X103761905Y-109530952D01*
X103666667Y-109483333D01*
X103428571Y-109483333D01*
X103333333Y-109530952D01*
X103285714Y-109578571D01*
X103238095Y-109673810D01*
X103238095Y-109911905D01*
X103285714Y-110007143D01*
X103333333Y-110054762D01*
X103428571Y-110102381D01*
X103666667Y-110102381D01*
X103761905Y-110054762D01*
X103809524Y-110007143D01*
X134102381Y-96357143D02*
X133626190Y-96023809D01*
X134102381Y-95785714D02*
X133102381Y-95785714D01*
X133102381Y-96166667D01*
X133150000Y-96261905D01*
X133197619Y-96309524D01*
X133292857Y-96357143D01*
X133435714Y-96357143D01*
X133530952Y-96309524D01*
X133578571Y-96261905D01*
X133626190Y-96166667D01*
X133626190Y-95785714D01*
X133197619Y-96738095D02*
X133150000Y-96785714D01*
X133102381Y-96880952D01*
X133102381Y-97119048D01*
X133150000Y-97214286D01*
X133197619Y-97261905D01*
X133292857Y-97309524D01*
X133388095Y-97309524D01*
X133530952Y-97261905D01*
X134102381Y-96690476D01*
X134102381Y-97309524D01*
X133102381Y-98166667D02*
X133102381Y-97976190D01*
X133150000Y-97880952D01*
X133197619Y-97833333D01*
X133340476Y-97738095D01*
X133530952Y-97690476D01*
X133911905Y-97690476D01*
X134007143Y-97738095D01*
X134054762Y-97785714D01*
X134102381Y-97880952D01*
X134102381Y-98071429D01*
X134054762Y-98166667D01*
X134007143Y-98214286D01*
X133911905Y-98261905D01*
X133673810Y-98261905D01*
X133578571Y-98214286D01*
X133530952Y-98166667D01*
X133483333Y-98071429D01*
X133483333Y-97880952D01*
X133530952Y-97785714D01*
X133578571Y-97738095D01*
X133673810Y-97690476D01*
X141047619Y-113228572D02*
X141000000Y-113133334D01*
X140904762Y-113038096D01*
X140761905Y-112895239D01*
X140714286Y-112800000D01*
X140714286Y-112704762D01*
X140952381Y-112752381D02*
X140904762Y-112657143D01*
X140809524Y-112561905D01*
X140619048Y-112514286D01*
X140285714Y-112514286D01*
X140095238Y-112561905D01*
X140000000Y-112657143D01*
X139952381Y-112752381D01*
X139952381Y-112942858D01*
X140000000Y-113038096D01*
X140095238Y-113133334D01*
X140285714Y-113180953D01*
X140619048Y-113180953D01*
X140809524Y-113133334D01*
X140904762Y-113038096D01*
X140952381Y-112942858D01*
X140952381Y-112752381D01*
X140047619Y-113561905D02*
X140000000Y-113609524D01*
X139952381Y-113704762D01*
X139952381Y-113942858D01*
X140000000Y-114038096D01*
X140047619Y-114085715D01*
X140142857Y-114133334D01*
X140238095Y-114133334D01*
X140380952Y-114085715D01*
X140952381Y-113514286D01*
X140952381Y-114133334D01*
X139952381Y-114466667D02*
X139952381Y-115085715D01*
X140333333Y-114752381D01*
X140333333Y-114895239D01*
X140380952Y-114990477D01*
X140428571Y-115038096D01*
X140523810Y-115085715D01*
X140761905Y-115085715D01*
X140857143Y-115038096D01*
X140904762Y-114990477D01*
X140952381Y-114895239D01*
X140952381Y-114609524D01*
X140904762Y-114514286D01*
X140857143Y-114466667D01*
X137002381Y-117357143D02*
X136526190Y-117023809D01*
X137002381Y-116785714D02*
X136002381Y-116785714D01*
X136002381Y-117166667D01*
X136050000Y-117261905D01*
X136097619Y-117309524D01*
X136192857Y-117357143D01*
X136335714Y-117357143D01*
X136430952Y-117309524D01*
X136478571Y-117261905D01*
X136526190Y-117166667D01*
X136526190Y-116785714D01*
X136097619Y-117738095D02*
X136050000Y-117785714D01*
X136002381Y-117880952D01*
X136002381Y-118119048D01*
X136050000Y-118214286D01*
X136097619Y-118261905D01*
X136192857Y-118309524D01*
X136288095Y-118309524D01*
X136430952Y-118261905D01*
X137002381Y-117690476D01*
X137002381Y-118309524D01*
X136002381Y-118642857D02*
X136002381Y-119309524D01*
X137002381Y-118880952D01*
X134842857Y-107002381D02*
X135176191Y-106526190D01*
X135414286Y-107002381D02*
X135414286Y-106002381D01*
X135033333Y-106002381D01*
X134938095Y-106050000D01*
X134890476Y-106097619D01*
X134842857Y-106192857D01*
X134842857Y-106335714D01*
X134890476Y-106430952D01*
X134938095Y-106478571D01*
X135033333Y-106526190D01*
X135414286Y-106526190D01*
X134461905Y-106097619D02*
X134414286Y-106050000D01*
X134319048Y-106002381D01*
X134080952Y-106002381D01*
X133985714Y-106050000D01*
X133938095Y-106097619D01*
X133890476Y-106192857D01*
X133890476Y-106288095D01*
X133938095Y-106430952D01*
X134509524Y-107002381D01*
X133890476Y-107002381D01*
X133319048Y-106430952D02*
X133414286Y-106383333D01*
X133461905Y-106335714D01*
X133509524Y-106240476D01*
X133509524Y-106192857D01*
X133461905Y-106097619D01*
X133414286Y-106050000D01*
X133319048Y-106002381D01*
X133128571Y-106002381D01*
X133033333Y-106050000D01*
X132985714Y-106097619D01*
X132938095Y-106192857D01*
X132938095Y-106240476D01*
X132985714Y-106335714D01*
X133033333Y-106383333D01*
X133128571Y-106430952D01*
X133319048Y-106430952D01*
X133414286Y-106478571D01*
X133461905Y-106526190D01*
X133509524Y-106621429D01*
X133509524Y-106811905D01*
X133461905Y-106907143D01*
X133414286Y-106954762D01*
X133319048Y-107002381D01*
X133128571Y-107002381D01*
X133033333Y-106954762D01*
X132985714Y-106907143D01*
X132938095Y-106811905D01*
X132938095Y-106621429D01*
X132985714Y-106526190D01*
X133033333Y-106478571D01*
X133128571Y-106430952D01*
M02*
